# 3ds Max Wavefront OBJ Exporter v0.97b - (c)2007 guruware
# 创建的文件:14.03.2022 19:28:49

mtllib dimian69.mtl

#
# object dimian009
#

v  -3.3023 0.0169 -7.4444
v  -3.3023 0.0169 -7.1752
v  -1.3360 0.0169 -7.1752
v  -1.3360 0.0169 -7.4444
v  -3.3023 0.0169 -3.5484
v  -3.3023 0.0169 -3.2648
v  -1.3360 0.0169 -3.2648
v  -1.3360 0.0169 -3.5484
v  -3.3023 0.0169 -3.1931
v  -1.3360 0.0169 -3.1931
v  -3.3023 0.0169 -11.3926
v  -3.3023 0.0169 -11.3210
v  -1.3360 0.0169 -11.3210
v  -1.3360 0.0169 -11.3926
v  -7.3882 0.0169 -11.3210
v  -7.3882 0.0169 -7.6057
v  -3.3023 0.0169 -7.6057
v  -7.3882 0.0169 -7.4444
v  -7.3882 0.0169 -7.1752
v  -7.3882 0.0169 -3.5484
v  -7.3882 0.0169 -3.2648
v  -7.3882 0.0169 -3.1931
v  -6.3488 0.0170 -11.3926
v  -7.3882 0.0170 -11.3926
v  -1.3360 0.0169 -7.6057
v  -3.3023 0.0169 0.4622
v  -7.3882 0.0169 0.4622
v  -7.3882 0.0169 3.8619
v  -3.3023 0.0169 3.8619
v  6.5201 0.0169 -23.0913
v  6.5201 0.0169 -11.3926
v  6.5519 0.0169 -11.3926
v  6.5519 0.0169 -23.0913
v  3.3768 0.0169 -7.6057
v  1.4108 0.0169 -7.6057
v  1.4108 0.0169 -7.4444
v  6.5519 0.0169 -7.6057
v  6.5519 0.0169 -7.4444
v  1.4108 0.0169 -7.1752
v  3.3768 0.0169 -7.1752
v  6.5519 0.0169 -7.1752
v  3.3768 0.0169 -3.5484
v  6.5519 0.0169 -3.5484
v  1.4108 0.0169 -3.5484
v  1.4108 0.0169 -3.2648
v  6.5519 0.0169 -3.2648
v  1.4108 0.0169 -11.3926
v  1.4108 0.0169 -11.3210
v  3.3768 0.0169 -11.3210
v  6.5519 0.0169 -11.3210
v  1.4108 0.0169 -3.1931
v  3.3768 0.0169 -3.1931
v  6.5519 0.0169 -3.1931
v  3.3768 0.0169 0.4622
v  2.7368 0.0170 0.4622
v  2.7368 0.0169 3.8157
v  6.5519 0.0169 0.4622
v  6.5519 0.0169 3.8157
v  2.7368 0.0169 23.0913
v  1.4108 0.0169 3.8157
v  1.4108 0.0169 23.0913
v  1.4108 0.0169 -23.0913
v  -1.3360 0.0169 -23.0913
v  -1.3360 0.0169 -15.3150
v  -1.3360 0.0169 0.4622
v  1.4108 0.0169 0.4622
v  -1.3360 0.0169 23.0913
v  -3.3023 0.0169 14.1095
v  -3.3023 0.0169 23.0913
v  -2.7083 0.0169 -15.3150
v  -3.3023 0.0169 -15.3150
v  -4.9775 0.0169 -15.3150
v  -6.3488 0.0169 -15.3150
v  -3.3023 0.0169 -15.5851
v  -4.9775 0.0169 -15.5851
v  -2.7083 0.0169 -15.5851
v  13.5964 0.0169 23.0913
v  13.5964 0.0169 3.8157
v  -4.8925 0.0169 14.1095
v  -4.8925 0.0169 23.0913
v  -3.3024 0.0169 3.8619
v  -7.3884 0.0169 3.8619
v  -7.3884 0.0169 14.1095
v  -4.8926 0.0169 14.1095
v  -3.3024 0.0169 14.1095
v  -13.4059 0.0170 23.0913
v  -4.8926 0.0169 23.0913
v  -13.4059 0.0169 14.1095
v  -13.4059 0.0169 3.8619
# 89 vertices

vn 0.0000 1.0000 -0.0000
vn -0.0000 1.0000 0.0001
vn 0.0000 1.0000 0.0001
vn 0.0000 1.0000 0.0000
vn -0.0000 1.0000 0.0000
vn -0.0000 1.0000 -0.0000
# 6 vertex normals

vt 0.8659 0.1481 0.0000
vt 0.8659 0.1535 0.0000
vt 0.8268 0.1535 0.0000
vt 0.8268 0.1481 0.0000
vt 0.8659 0.2257 0.0000
vt 0.8659 0.2314 0.0000
vt 0.8268 0.2314 0.0000
vt 0.8268 0.2257 0.0000
vt 0.8659 0.2328 0.0000
vt 0.8268 0.2328 0.0000
vt 0.8659 0.0695 0.0000
vt 0.8659 0.0709 0.0000
vt 0.8268 0.0709 0.0000
vt 0.8268 0.0695 0.0000
vt 0.9473 0.0709 0.0000
vt 0.9473 0.1449 0.0000
vt 0.8659 0.1449 0.0000
vt 0.9473 0.1481 0.0000
vt 0.9473 0.1535 0.0000
vt 0.9473 0.2257 0.0000
vt 0.9473 0.2314 0.0000
vt 0.9473 0.2328 0.0000
vt 0.9266 0.0695 0.0000
vt 0.9473 0.0695 0.0000
vt 0.8268 0.1449 0.0000
vt 0.8659 0.3056 0.0000
vt 0.9473 0.3056 0.0000
vt 0.9473 0.3733 0.0000
vt 0.8659 0.3733 0.0000
vt 0.8634 0.0398 0.0000
vt 0.6304 0.0398 0.0000
vt 0.6304 0.0392 0.0000
vt 0.8634 0.0392 0.0000
vt 0.5550 0.1024 0.0000
vt 0.5550 0.1416 0.0000
vt 0.5517 0.1416 0.0000
vt 0.5550 0.0392 0.0000
vt 0.5517 0.0392 0.0000
vt 0.5464 0.1416 0.0000
vt 0.5464 0.1024 0.0000
vt 0.5464 0.0392 0.0000
vt 0.4741 0.1024 0.0000
vt 0.4741 0.0392 0.0000
vt 0.4741 0.1416 0.0000
vt 0.4685 0.1416 0.0000
vt 0.4685 0.0392 0.0000
vt 0.6304 0.1416 0.0000
vt 0.6289 0.1416 0.0000
vt 0.6289 0.1024 0.0000
vt 0.6289 0.0392 0.0000
vt 0.4671 0.1416 0.0000
vt 0.4671 0.1024 0.0000
vt 0.4671 0.0392 0.0000
vt 0.6720 0.0593 0.0000
vt 0.6744 0.0468 0.0000
vt 0.7400 0.0593 0.0000
vt 0.6602 0.1214 0.0000
vt 0.7258 0.1339 0.0000
vt 0.2201 0.0392 0.0000
vt 0.2201 0.4231 0.0000
vt 0.1937 0.4231 0.0000
vt 0.1937 0.0392 0.0000
vt 0.1937 0.9590 0.0000
vt 0.1390 0.9590 0.0000
vt 0.1390 0.8041 0.0000
vt 0.1390 0.7260 0.0000
vt 0.1937 0.7260 0.0000
vt 0.1937 0.6506 0.0000
vt 0.1390 0.6506 0.0000
vt 0.1390 0.6474 0.0000
vt 0.1937 0.6474 0.0000
vt 0.1390 0.6420 0.0000
vt 0.1937 0.6420 0.0000
vt 0.1390 0.5698 0.0000
vt 0.1937 0.5698 0.0000
vt 0.1390 0.5641 0.0000
vt 0.1937 0.5641 0.0000
vt 0.1937 0.5627 0.0000
vt 0.1390 0.5627 0.0000
vt 0.1390 0.4899 0.0000
vt 0.1937 0.4899 0.0000
vt 0.1390 0.7246 0.0000
vt 0.1937 0.7246 0.0000
vt 0.1390 0.0392 0.0000
vt 0.0999 0.4899 0.0000
vt 0.0999 0.2181 0.0000
vt 0.0999 0.0392 0.0000
vt 0.0999 0.7260 0.0000
vt 0.1117 0.8041 0.0000
vt 0.0999 0.8041 0.0000
vt 0.0392 0.7260 0.0000
vt 0.0665 0.8041 0.0000
vt 0.0392 0.8041 0.0000
vt 0.0999 0.8095 0.0000
vt 0.0665 0.8095 0.0000
vt 0.1117 0.8095 0.0000
vt 0.2955 0.7260 0.0000
vt 0.2955 0.9590 0.0000
vt 0.4364 0.0392 0.0000
vt 0.4364 0.4231 0.0000
vt 0.2201 0.4899 0.0000
vt 0.0682 0.2181 0.0000
vt 0.0682 0.0392 0.0000
vt 0.7095 0.7548 0.0000
vt 0.7105 0.8362 0.0000
vt 0.5065 0.8387 0.0000
vt 0.5058 0.7890 0.0000
vt 0.5054 0.7574 0.0000
vt 0.3291 0.9608 0.0000
vt 0.3270 0.7913 0.0000
vt 0.5079 0.9586 0.0000
vt 0.7120 0.9560 0.0000
# 112 texture coords

o dimian009
g dimian009
usemtl dimian009
s 4
f 1/1/1 2/2/1 3/3/1 
f 3/3/1 4/4/1 1/1/1 
f 5/5/1 6/6/2 7/7/2 
f 7/7/2 8/8/1 5/5/1 
f 6/6/2 9/9/3 10/10/2 
f 10/10/2 7/7/2 6/6/2 
f 11/11/4 12/12/1 13/13/1 
f 13/13/1 14/14/1 11/11/4 
f 15/15/3 16/16/1 17/17/1 
f 17/17/1 12/12/1 15/15/3 
f 18/18/1 19/19/1 2/2/1 
f 2/2/1 1/1/1 18/18/1 
f 19/19/1 20/20/1 5/5/1 
f 5/5/1 2/2/1 19/19/1 
f 20/20/1 21/21/3 6/6/2 
f 6/6/2 5/5/1 20/20/1 
f 21/21/3 22/22/3 9/9/3 
f 9/9/3 6/6/2 21/21/3 
f 23/23/3 24/24/3 15/15/3 
f 11/11/4 23/23/3 15/15/3 
f 11/11/4 15/15/3 12/12/1 
f 4/4/1 25/25/1 17/17/1 
f 17/17/1 1/1/1 4/4/1 
f 1/1/1 17/17/1 16/16/1 
f 16/16/1 18/18/1 1/1/1 
f 26/26/1 9/9/3 22/22/3 
f 22/22/3 27/27/1 26/26/1 
f 26/26/1 27/27/1 28/28/1 
f 28/28/1 29/29/1 26/26/1 
f 30/30/1 31/31/1 32/32/1 
f 32/32/1 33/33/1 30/30/1 
f 34/34/1 35/35/1 36/36/1 
f 37/37/1 34/34/1 36/36/1 
f 37/37/1 36/36/1 38/38/1 
f 38/38/1 36/36/1 39/39/1 
f 38/38/1 39/39/1 40/40/1 
f 38/38/1 40/40/1 41/41/1 
f 40/40/1 42/42/1 43/43/1 
f 43/43/1 41/41/1 40/40/1 
f 42/42/1 44/44/1 45/45/1 
f 43/43/1 42/42/1 45/45/1 
f 43/43/1 45/45/1 46/46/1 
f 31/31/1 47/47/1 48/48/1 
f 32/32/1 31/31/1 48/48/1 
f 32/32/1 48/48/1 49/49/1 
f 32/32/1 49/49/1 50/50/1 
f 49/49/1 34/34/1 37/37/1 
f 37/37/1 50/50/1 49/49/1 
f 46/46/1 45/45/1 51/51/1 
f 46/46/1 51/51/1 52/52/1 
f 46/46/1 52/52/1 53/53/1 
f 54/54/4 55/55/4 56/56/4 
f 57/57/1 54/54/4 56/56/4 
f 57/57/1 56/56/4 58/58/1 
f 59/59/1 56/60/5 60/61/1 
f 60/61/1 61/62/1 59/59/1 
f 62/63/6 63/64/6 64/65/6 
f 62/63/6 64/65/6 14/66/1 
f 47/67/1 62/63/6 14/66/1 
f 35/68/1 25/69/1 4/70/1 
f 4/70/1 36/71/1 35/68/1 
f 36/71/1 4/70/1 3/72/1 
f 3/72/1 39/73/1 36/71/1 
f 39/73/1 3/72/1 8/74/1 
f 8/74/1 44/75/1 39/73/1 
f 44/75/1 8/74/1 7/76/2 
f 7/76/2 45/77/5 44/75/1 
f 51/78/6 10/79/2 65/80/6 
f 65/80/6 66/81/5 51/78/6 
f 47/67/1 14/66/1 13/82/1 
f 13/82/1 48/83/1 47/67/1 
f 60/61/1 66/81/5 65/80/6 
f 61/62/1 60/61/1 65/80/6 
f 67/84/1 61/62/1 65/80/6 
f 48/83/1 13/82/1 25/69/1 
f 25/69/1 35/68/1 48/83/1 
f 45/77/5 7/76/2 10/79/2 
f 10/79/2 51/78/6 45/77/5 
f 67/84/1 65/80/6 26/85/1 
f 67/84/1 26/85/1 68/86/6 
f 69/87/6 67/84/1 68/86/6 
f 11/88/1 14/66/1 64/65/6 
f 11/88/1 64/65/6 70/89/1 
f 71/90/1 11/88/1 70/89/1 
f 23/91/1 11/88/1 71/90/1 
f 23/91/1 71/90/1 72/92/1 
f 73/93/1 23/91/1 72/92/1 
f 72/92/1 71/90/1 74/94/1 
f 74/94/1 75/95/1 72/92/1 
f 71/90/1 70/89/1 76/96/1 
f 76/96/1 74/94/1 71/90/1 
f 62/63/6 47/67/1 31/97/1 
f 31/97/1 30/98/1 62/63/6 
f 77/99/1 78/100/1 56/60/5 
f 56/60/5 59/59/1 77/99/1 
f 66/81/5 60/61/1 56/60/5 
f 56/60/5 55/101/5 66/81/5 
f 69/87/6 68/86/6 79/102/6 
f 79/102/6 80/103/1 69/87/6 
f 81/104/5 82/105/4 83/106/1 
f 81/104/5 83/106/1 84/107/6 
f 85/108/6 81/104/5 84/107/6 
f 86/109/1 87/110/1 84/107/6 
f 86/109/1 84/107/6 83/106/1 
f 86/109/1 83/106/1 88/111/1 
f 83/106/1 82/105/4 89/112/5 
f 89/112/5 88/111/1 83/106/1 
# 107 faces

#
# object weishengjiandimian
#

v  -2.7084 0.0169 -15.5851
v  -2.7084 0.0169 -15.3150
v  -1.3361 0.0169 -15.3150
v  -2.7084 0.0169 -23.0913
v  -1.3361 0.0169 -23.0913
v  -4.9776 0.0169 -23.0913
v  -4.9776 0.0169 -15.5851
v  -3.3024 0.0169 -15.5851
v  -3.3024 0.0169 -23.0913
v  -6.3489 0.0169 -23.0913
v  -6.3489 0.0169 -15.3150
v  -4.9776 0.0169 -15.3150
# 12 vertices

vn 0.0000 1.0000 -0.0000
vn -0.0000 1.0000 -0.0000
# 2 vertex normals

vt 0.9288 0.4707 0.0000
vt 0.9608 0.4707 0.0000
vt 0.9608 0.6333 0.0000
vt 0.0392 0.4707 0.0000
vt 0.0392 0.6333 0.0000
vt 0.0392 0.2017 0.0000
vt 0.9288 0.2017 0.0000
vt 0.9288 0.4003 0.0000
vt 0.0392 0.4003 0.0000
vt 0.0392 0.0392 0.0000
vt 0.9608 0.0392 0.0000
vt 0.9608 0.2017 0.0000
# 12 texture coords

o weishengjiandimian
g weishengjiandimian
usemtl weishengjiandimian
s 4
f 90/113/7 91/114/7 92/115/7 
f 93/116/7 90/113/7 92/115/7 
f 94/117/7 93/116/7 92/115/7 
f 95/118/7 96/119/8 97/120/7 
f 97/120/7 98/121/7 95/118/7 
f 99/122/8 100/123/7 101/124/8 
f 99/122/8 101/124/8 96/119/8 
f 95/118/7 99/122/8 96/119/8 
f 98/121/7 97/120/7 90/113/7 
f 90/113/7 93/116/7 98/121/7 
# 10 faces

#
# object dimian09
#

v  -13.4058 0.4170 23.0913
v  -13.4058 0.4169 14.1095
v  -21.1798 0.4169 14.1095
v  -21.1797 0.4169 23.0913
v  -21.1798 0.0169 -7.4444
v  -7.3882 0.0169 -7.4444
v  -7.3882 0.0169 -7.6057
v  -21.1798 0.0169 -7.6057
v  -21.1798 0.0169 0.4622
v  -7.3882 0.0169 0.4622
v  -7.3882 0.0169 -3.1931
v  -21.1798 0.0169 -3.1931
v  -21.1797 0.0169 -23.0913
v  -21.1797 0.0169 -11.3926
v  -7.3882 0.0170 -11.3926
v  -6.3488 0.0170 -11.3926
v  -6.3488 0.0169 -15.3150
v  -6.3488 0.0169 -23.0913
v  -21.1797 0.0169 -11.3210
v  -7.3882 0.0169 -11.3210
v  -21.1798 0.0169 -7.1752
v  -7.3882 0.0169 -7.1752
v  -21.1798 0.0169 -3.5484
v  -7.3882 0.0169 -3.5484
v  -21.1798 0.0169 -3.2648
v  -7.3882 0.0169 -3.2648
v  -21.1798 0.0169 3.8619
v  -13.4058 0.0169 3.8619
v  -7.3882 0.0169 3.8619
v  -13.4058 0.4169 3.8619
v  -21.1798 0.4169 3.8619
v  -21.1797 0.0169 23.0913
v  -13.4058 0.0170 23.0913
v  -13.4058 0.0169 14.1095
v  -21.1798 0.0169 14.1095
# 35 vertices

vn -0.0000 1.0000 -0.0000
vn 0.0000 1.0000 -0.0000
vn -0.0000 1.0000 0.0000
vn 0.0000 1.0000 0.0001
vn -0.0000 1.0000 0.0001
vn 0.0000 1.0000 0.0000
vn 0.0000 0.0000 1.0000
vn 1.0000 0.0000 -0.0000
vn 0.0000 0.0000 -1.0000
vn -1.0000 0.0000 0.0000
# 10 vertex normals

vt 0.7139 0.9495 0.0000
vt 0.4068 0.9495 0.0000
vt 0.4068 0.6837 0.0000
vt 0.7139 0.6837 0.0000
vt 0.5742 0.0392 0.0000
vt 0.5742 0.5108 0.0000
vt 0.5687 0.5108 0.0000
vt 0.5687 0.0392 0.0000
vt 0.8446 0.0392 0.0000
vt 0.8446 0.5108 0.0000
vt 0.7196 0.5108 0.0000
vt 0.7196 0.0392 0.0000
vt 0.0392 0.0392 0.0000
vt 0.4392 0.0392 0.0000
vt 0.4392 0.5108 0.0000
vt 0.4392 0.5463 0.0000
vt 0.3051 0.5463 0.0000
vt 0.0392 0.5463 0.0000
vt 0.4417 0.0392 0.0000
vt 0.4417 0.5108 0.0000
vt 0.5834 0.0392 0.0000
vt 0.5834 0.5108 0.0000
vt 0.7074 0.0392 0.0000
vt 0.7074 0.5108 0.0000
vt 0.7171 0.0392 0.0000
vt 0.7171 0.5108 0.0000
vt 0.9608 0.0392 0.0000
vt 0.9608 0.3050 0.0000
vt 0.9608 0.5108 0.0000
vt 0.0564 0.9495 0.0000
vt 0.0564 0.6837 0.0000
vt 0.7618 0.6837 0.0000
vt 0.7618 0.9495 0.0000
vt 0.7482 0.9495 0.0000
vt 0.7482 0.6837 0.0000
vt 0.0564 0.5978 0.0000
vt 0.3635 0.5978 0.0000
vt 0.3635 0.6115 0.0000
vt 0.0564 0.6115 0.0000
vt 0.7139 0.5978 0.0000
vt 0.7139 0.6115 0.0000
vt 0.4732 0.5161 0.0000
vt 0.7390 0.5161 0.0000
vt 0.7390 0.5298 0.0000
vt 0.4732 0.5298 0.0000
vt 0.0564 0.6407 0.0000
vt 0.4068 0.6407 0.0000
vt 0.4068 0.6544 0.0000
vt 0.0564 0.6544 0.0000
vt 0.7139 0.6407 0.0000
vt 0.7139 0.6544 0.0000
# 51 texture coords

o dimian09
g dimian09
usemtl dimian09
s 4
f 102/125/9 103/126/10 104/127/10 
f 104/127/10 105/128/11 102/125/9 
f 106/129/10 107/130/10 108/131/10 
f 108/131/10 109/132/10 106/129/10 
f 110/133/10 111/134/10 112/135/12 
f 112/135/12 113/136/10 110/133/10 
f 114/137/9 115/138/11 116/139/11 
f 114/137/9 116/139/11 117/140/10 
f 114/137/9 117/140/10 118/141/10 
f 119/142/10 114/137/9 118/141/10 
f 120/143/10 109/132/10 108/131/10 
f 108/131/10 121/144/13 120/143/10 
f 106/129/10 122/145/10 123/146/10 
f 123/146/10 107/130/10 106/129/10 
f 122/145/10 124/147/10 125/148/10 
f 125/148/10 123/146/10 122/145/10 
f 124/147/10 126/149/14 127/150/12 
f 127/150/12 125/148/10 124/147/10 
f 126/149/14 113/136/10 112/135/12 
f 112/135/12 127/150/12 126/149/14 
f 115/138/11 120/143/10 121/144/13 
f 121/144/13 116/139/11 115/138/11 
f 110/133/10 128/151/10 129/152/10 
f 110/133/10 129/152/10 130/153/10 
f 111/134/10 110/133/10 130/153/10 
f 104/127/10 103/126/10 131/154/14 
f 131/154/14 132/155/10 104/127/10 
s off
f 133/156/15 134/157/15 102/158/15 
f 102/158/15 105/159/15 133/156/15 
f 134/160/16 135/161/16 103/162/16 
f 103/162/16 102/163/16 134/160/16 
f 135/161/16 129/164/16 131/165/16 
f 131/165/16 103/162/16 135/161/16 
f 129/166/17 128/167/17 132/168/17 
f 132/168/17 131/169/17 129/166/17 
f 128/170/18 136/171/18 104/172/18 
f 104/172/18 132/173/18 128/170/18 
f 136/171/18 133/174/18 105/175/18 
f 105/175/18 104/172/18 136/171/18 
# 39 faces

#
# object dimian020
#

v  21.1801 0.0169 -23.0913
v  6.5518 0.0169 -23.0913
v  6.5518 0.0169 -11.3926
v  21.1801 0.0169 -11.3926
v  21.1801 0.0169 -7.6057
v  6.5518 0.0169 -7.6057
v  6.5518 0.0169 -7.4444
v  21.1801 0.0169 -7.4444
v  6.5518 0.0169 -7.1752
v  21.1801 0.0169 -7.1752
v  6.5518 0.0169 -3.5484
v  21.1801 0.0169 -3.5484
v  6.5518 0.0169 -3.2648
v  21.1801 0.0169 -3.2648
v  6.5518 0.0169 -3.1931
v  6.5477 0.0169 -3.1931
v  6.5477 0.0169 0.4622
v  21.1801 0.0169 -3.1931
v  6.5518 0.0169 0.4622
v  21.1801 0.0169 0.4622
v  6.5518 0.0169 -11.3210
v  21.1801 0.0169 -11.3210
v  6.5518 0.0169 3.8157
v  13.5963 0.0169 3.8157
v  21.1801 0.0169 3.8157
v  21.1801 0.0169 23.0913
v  13.5963 0.0169 23.0913
v  10.4801 0.2520 1.6141
v  20.8858 0.2520 1.6141
v  20.8858 0.2520 -10.6816
v  10.4801 0.2520 -10.6816
v  10.4801 -0.0332 1.6141
v  20.8858 -0.0332 1.6141
v  20.8858 -0.0332 -10.6816
v  10.4801 -0.0332 -10.6816
# 35 vertices

vn 0.0000 1.0000 -0.0000
vn 0.0000 0.0000 1.0000
vn 1.0000 0.0000 -0.0000
vn 0.0000 0.0000 -1.0000
vn -1.0000 0.0000 -0.0000
# 5 vertex normals

vt 0.0392 0.0392 0.0000
vt 0.4578 0.0392 0.0000
vt 0.4578 0.3740 0.0000
vt 0.0392 0.3740 0.0000
vt 0.0392 0.4824 0.0000
vt 0.4578 0.4824 0.0000
vt 0.4578 0.4870 0.0000
vt 0.0392 0.4870 0.0000
vt 0.4578 0.4947 0.0000
vt 0.0392 0.4947 0.0000
vt 0.4578 0.5985 0.0000
vt 0.0392 0.5985 0.0000
vt 0.4578 0.6066 0.0000
vt 0.0392 0.6066 0.0000
vt 0.4578 0.6086 0.0000
vt 0.4580 0.6086 0.0000
vt 0.4580 0.7133 0.0000
vt 0.0392 0.6086 0.0000
vt 0.4578 0.7133 0.0000
vt 0.0392 0.7133 0.0000
vt 0.4578 0.3760 0.0000
vt 0.0392 0.3760 0.0000
vt 0.4578 0.8092 0.0000
vt 0.2562 0.8092 0.0000
vt 0.0392 0.8092 0.0000
vt 0.7089 0.4092 0.0000
vt 0.7089 0.9608 0.0000
vt 0.4919 0.9608 0.0000
vt 0.4919 0.4092 0.0000
vt 0.4760 0.0526 0.0000
vt 0.7738 0.0526 0.0000
vt 0.7738 0.4045 0.0000
vt 0.4760 0.4045 0.0000
vt 0.3370 0.9309 0.0000
vt 0.0392 0.9309 0.0000
vt 0.0392 0.9228 0.0000
vt 0.3370 0.9228 0.0000
vt 0.0392 0.8314 0.0000
vt 0.3911 0.8314 0.0000
vt 0.3911 0.8395 0.0000
vt 0.0392 0.8395 0.0000
vt 0.3370 0.9005 0.0000
vt 0.0392 0.9005 0.0000
vt 0.0392 0.8923 0.0000
vt 0.3370 0.8923 0.0000
vt 0.0392 0.8618 0.0000
vt 0.3911 0.8618 0.0000
vt 0.3911 0.8700 0.0000
vt 0.0392 0.8700 0.0000
# 49 texture coords

o dimian020
g dimian020
usemtl dimian020
s 4
f 137/176/19 138/177/19 139/178/19 
f 139/178/19 140/179/19 137/176/19 
f 141/180/19 142/181/19 143/182/19 
f 143/182/19 144/183/19 141/180/19 
f 144/183/19 143/182/19 145/184/19 
f 145/184/19 146/185/19 144/183/19 
f 146/185/19 145/184/19 147/186/19 
f 147/186/19 148/187/19 146/185/19 
f 148/187/19 147/186/19 149/188/19 
f 149/188/19 150/189/19 148/187/19 
f 151/190/19 152/191/19 153/192/19 
f 154/193/19 151/190/19 153/192/19 
f 154/193/19 153/192/19 155/194/19 
f 156/195/19 154/193/19 155/194/19 
f 140/179/19 139/178/19 157/196/19 
f 157/196/19 158/197/19 140/179/19 
f 158/197/19 157/196/19 142/181/19 
f 142/181/19 141/180/19 158/197/19 
f 150/189/19 149/188/19 151/190/19 
f 151/190/19 154/193/19 150/189/19 
f 156/195/19 155/194/19 159/198/19 
f 156/195/19 159/198/19 160/199/19 
f 161/200/19 156/195/19 160/199/19 
f 162/201/19 161/202/19 160/203/19 
f 160/203/19 163/204/19 162/201/19 
f 164/205/19 165/206/19 166/207/19 
f 166/207/19 167/208/19 164/205/19 
s 8
f 168/209/20 169/210/20 165/211/20 
f 165/211/20 164/212/20 168/209/20 
s 16
f 169/213/21 170/214/21 166/215/21 
f 166/215/21 165/216/21 169/213/21 
s 32
f 170/217/22 171/218/22 167/219/22 
f 167/219/22 166/220/22 170/217/22 
s 64
f 171/221/23 168/222/23 164/223/23 
f 164/223/23 167/224/23 171/221/23 
# 35 faces

