


mtllib 1B business02.mtl





v  -27.5427 10.8704 -77.7735
v  -27.9166 10.8704 -77.8156
v  -28.2543 10.8704 -77.7288
v  -28.5363 10.8704 -77.5386
v  -28.7430 10.8704 -77.2703
v  -28.8549 10.8704 -76.9491
v  -28.8525 10.8704 -76.6004
v  -28.7164 10.8704 -76.2496
v  -24.0816 10.8704 -68.6538
v  -23.0483 10.8704 -68.0370
v  -22.6519 10.8704 -68.0759
v  -22.2833 10.8704 -68.2317
v  -21.9746 10.8704 -68.5013
v  -23.4401 10.8704 -68.1183
v  -23.7953 10.8704 -68.3228
v  -21.7580 10.8704 -68.8815
v  -20.3082 10.8704 -72.8230
v  -20.1685 10.8704 -73.4123
v  -20.1717 10.8704 -73.9976
v  -20.3070 10.8704 -74.5573
v  -20.5637 10.8704 -75.0697
v  -20.9308 10.8704 -75.5133
v  -21.3976 10.8704 -75.8664
v  -21.9532 10.8704 -76.1074
v  -27.9166 10.0787 -77.8156
v  -28.2543 10.0787 -77.7288
v  -28.5363 10.0787 -77.5386
v  -28.7430 10.0787 -77.2703
v  -28.8549 10.0787 -76.9491
v  -28.8525 10.0787 -76.6004
v  -28.7164 10.0787 -76.2496
v  -24.0816 10.0787 -68.6538
v  -23.7953 10.0787 -68.3228
v  -23.4401 10.0787 -68.1183
v  -23.0483 10.0787 -68.0370
v  -22.6519 10.0787 -68.0759
v  -22.2833 10.0787 -68.2317
v  -21.9746 10.0787 -68.5013
v  -21.7580 10.0787 -68.8815
v  -20.3082 10.0787 -72.8230
v  -20.1685 10.0787 -73.4123
v  -20.1717 10.0787 -73.9976
v  -20.3070 10.0787 -74.5573
v  -20.5637 10.0787 -75.0697
v  -20.9308 10.0787 -75.5133
v  -21.3976 10.0787 -75.8664
v  -21.9532 10.0787 -76.1074
v  -27.5427 10.0787 -77.7735
v  -17.5471 10.5990 -62.7378
v  -57.6364 10.5990 -62.7378
v  -57.6364 5.3270 -62.7378
v  -17.5471 5.3270 -62.7378
v  -17.5471 10.5990 -86.4501
v  -17.5471 5.3270 -86.4501
v  -57.6364 10.5990 -86.4501
v  -57.6364 5.3270 -86.4501
v  -57.3364 5.3270 -63.0378
v  -17.8471 5.3270 -63.0378
v  -57.3364 5.3270 -86.1502
v  -17.8471 5.3270 -86.1502
v  -32.7365 11.1946 -65.4093
v  -32.7365 11.1946 -74.6582
v  -39.3370 11.1946 -74.6582
v  -39.3370 11.1946 -65.4093
v  -32.7365 9.9660 -65.4093
v  -32.7365 9.9660 -74.6582
v  -39.3370 9.9660 -74.6582
v  -39.3370 9.9660 -65.4093
v  -17.8471 0.0000 -63.0378
v  -57.3364 0.0000 -63.0378
v  -17.8471 0.0000 -86.1502
v  -57.3364 0.0000 -86.1502
v  -18.0471 10.5990 -63.2378
v  -57.1364 10.5990 -63.2378
v  -18.0471 10.5990 -85.9501
v  -57.1364 10.5990 -85.9501
v  -18.0471 10.0990 -63.2378
v  -57.1364 10.0990 -63.2378
v  -18.0471 10.0990 -85.9501
v  -57.1364 10.0990 -85.9501
v  -57.1364 10.0990 -85.9502
v  -44.9916 10.8704 -70.8000
v  -44.8665 10.8704 -71.1086
v  -44.8612 10.8704 -71.4688
v  -47.3869 10.8704 -82.9012
v  -47.8308 10.8704 -83.1028
v  -48.3147 10.8704 -83.1799
v  -48.8116 10.8704 -83.1201
v  -47.0103 10.8704 -82.5876
v  -46.7283 10.8704 -82.1743
v  -46.5680 10.8704 -81.6735
v  -49.2940 10.8704 -82.9112
v  -53.6837 10.8704 -80.2037
v  -54.1058 10.8704 -79.8548
v  -54.4032 10.8704 -79.4239
v  -54.5733 10.8704 -78.9398
v  -54.6140 10.8704 -78.4309
v  -54.5230 10.8704 -77.9259
v  -54.2979 10.8704 -77.4533
v  -53.9365 10.8704 -77.0417
v  -46.4492 10.8704 -70.5762
v  -46.1386 10.8704 -70.3935
v  -45.8100 10.8704 -70.3400
v  -45.4909 10.8704 -70.4003
v  -45.2090 10.8704 -70.5588
v  -46.7283 10.0787 -82.1743
v  -47.0103 10.0787 -82.5876
v  -47.3869 10.0787 -82.9012
v  -47.8308 10.0787 -83.1028
v  -48.3147 10.0787 -83.1799
v  -48.8116 10.0787 -83.1201
v  -49.2940 10.0787 -82.9112
v  -53.6837 10.0787 -80.2037
v  -54.1058 10.0787 -79.8548
v  -54.4032 10.0787 -79.4239
v  -54.5733 10.0787 -78.9398
v  -54.6140 10.0787 -78.4309
v  -54.5230 10.0787 -77.9259
v  -54.2979 10.0787 -77.4533
v  -53.9365 10.0787 -77.0417
v  -46.4492 10.0787 -70.5762
v  -46.1386 10.0787 -70.3935
v  -45.8100 10.0787 -70.3400
v  -45.4909 10.0787 -70.4003
v  -45.2090 10.0787 -70.5588
v  -44.9916 10.0787 -70.8000
v  -44.8665 10.0787 -71.1086
v  -44.8612 10.0787 -71.4688
v  -46.5680 10.0787 -81.6735


vn 0.0000 1.0000 -0.0000
vn -0.4100 0.0000 -0.9121
vn -0.0696 0.0000 -0.9976
vn -0.6845 0.0000 -0.7290
vn -0.8796 0.0000 -0.4757
vn -0.9865 0.0000 -0.1635
vn -0.9823 -0.0000 0.1874
vn -0.8965 -0.0000 0.4431
vn -0.8077 0.0000 0.5896
vn -0.6365 0.0000 0.7712
vn -0.3555 -0.0000 0.9347
vn -0.3555 0.0000 0.9347
vn -0.0534 -0.0000 0.9986
vn -0.0534 0.0000 0.9986
vn 0.2462 -0.0000 0.9692
vn 0.5302 -0.0000 0.8479
vn 0.7742 -0.0000 0.6330
vn 0.9068 -0.0000 0.4215
vn 0.9575 -0.0000 0.2885
vn 0.9935 -0.0000 0.1134
vn 0.9926 -0.0000 -0.1211
vn 0.9391 -0.0000 -0.3436
vn 0.8376 -0.0000 -0.5462
vn 0.8376 0.0000 -0.5462
vn 0.6915 0.0000 -0.7224
vn 0.5042 0.0000 -0.8636
vn 0.3424 0.0000 -0.9395
vn 0.1995 0.0000 -0.9799
vn 0.0000 0.0000 1.0000
vn 1.0000 0.0000 -0.0000
vn 0.0000 0.0000 -1.0000
vn -1.0000 0.0000 -0.0000
vn 0.0000 -1.0000 0.0000
vn 0.0000 -1.0000 -0.0000
vn -0.0000 -1.0000 0.0000
vn 1.0000 -0.0000 -0.0000
vn 0.0000 -0.0000 -1.0000
vn -1.0000 0.0000 0.0000
vn 0.0000 -0.0000 1.0000
vn -0.0000 1.0000 -0.0000
vn -0.0000 1.0000 0.0000
vn 0.7401 0.0000 -0.6725
vn 0.8986 0.0000 -0.4388
vn 0.5315 0.0000 -0.8471
vn 0.2879 0.0000 -0.9577
vn 0.0191 0.0000 -0.9998
vn -0.2611 0.0000 -0.9653
vn -0.4623 0.0000 -0.8867
vn -0.5824 0.0000 -0.8129
vn -0.7371 0.0000 -0.6758
vn -0.8911 0.0000 -0.4538
vn -0.9783 0.0000 -0.2074
vn -0.9988 0.0000 0.0493
vn -0.9519 0.0000 0.3064
vn -0.8351 0.0000 0.5501
vn -0.7042 0.0000 0.7100
vn -0.5827 0.0000 0.8127
vn -0.3396 0.0000 0.9406
vn 0.0127 0.0000 0.9999
vn 0.3423 0.0000 0.9396
vn 0.6248 0.0000 0.7808
vn 0.8476 0.0000 0.5306
vn 0.9801 0.0000 0.1987
vn 0.9972 0.0000 -0.0754
vn 0.9719 0.0000 -0.2355


vt 0.8322 0.5577 0.0000
vt 0.8332 0.5536 0.0000
vt 0.8354 0.5503 0.0000
vt 0.8385 0.5481 0.0000
vt 0.8422 0.5469 0.0000
vt 0.8460 0.5470 0.0000
vt 0.8497 0.5483 0.0000
vt 0.8529 0.5511 0.0000
vt 0.9156 0.6297 0.0000
vt 0.9182 0.6430 0.0000
vt 0.9162 0.6471 0.0000
vt 0.9131 0.6504 0.0000
vt 0.9091 0.6526 0.0000
vt 0.9188 0.6385 0.0000
vt 0.9180 0.6340 0.0000
vt 0.9042 0.6534 0.0000
vt 0.8568 0.6536 0.0000
vt 0.8500 0.6528 0.0000
vt 0.8438 0.6505 0.0000
vt 0.8384 0.6469 0.0000
vt 0.8339 0.6422 0.0000
vt 0.8306 0.6366 0.0000
vt 0.8287 0.6303 0.0000
vt 0.8283 0.6235 0.0000
vt 0.0481 0.3713 0.0000
vt 0.0524 0.3713 0.0000
vt 0.0524 0.3810 0.0000
vt 0.0481 0.3810 0.0000
vt 0.0441 0.3713 0.0000
vt 0.0441 0.3810 0.0000
vt 0.0408 0.3713 0.0000
vt 0.0408 0.3810 0.0000
vt 0.0851 0.4360 0.0000
vt 0.0891 0.4360 0.0000
vt 0.0891 0.4452 0.0000
vt 0.0851 0.4452 0.0000
vt 0.0813 0.4360 0.0000
vt 0.0813 0.4452 0.0000
vt 0.0779 0.4360 0.0000
vt 0.0779 0.4452 0.0000
vt 0.1453 0.3605 0.0000
vt 0.0444 0.3605 0.0000
vt 0.0444 0.3515 0.0000
vt 0.1453 0.3515 0.0000
vt 0.1502 0.3605 0.0000
vt 0.1502 0.3515 0.0000
vt 0.1543 0.3605 0.0000
vt 0.1543 0.3515 0.0000
vt 0.0484 0.4815 0.0000
vt 0.0437 0.4815 0.0000
vt 0.0437 0.4723 0.0000
vt 0.0484 0.4723 0.0000
vt 0.0528 0.4815 0.0000
vt 0.0528 0.4723 0.0000
vt 0.0566 0.4815 0.0000
vt 0.0566 0.4723 0.0000
vt 0.0470 0.4213 0.0000
vt 0.0420 0.4213 0.0000
vt 0.0420 0.4116 0.0000
vt 0.0470 0.4116 0.0000
vt 0.0520 0.4213 0.0000
vt 0.0520 0.4116 0.0000
vt 0.0969 0.4213 0.0000
vt 0.0969 0.4116 0.0000
vt 0.1029 0.4213 0.0000
vt 0.1029 0.4116 0.0000
vt 0.0504 0.4412 0.0000
vt 0.0435 0.4412 0.0000
vt 0.0435 0.4319 0.0000
vt 0.0504 0.4319 0.0000
vt 0.0569 0.4412 0.0000
vt 0.0569 0.4319 0.0000
vt 0.0630 0.4412 0.0000
vt 0.0630 0.4319 0.0000
vt 0.0682 0.4412 0.0000
vt 0.0682 0.4319 0.0000
vt 0.0704 0.2295 0.0000
vt 0.0638 0.2295 0.0000
vt 0.0638 0.2206 0.0000
vt 0.0704 0.2206 0.0000
vt 0.1184 0.3713 0.0000
vt 0.1243 0.3713 0.0000
vt 0.1243 0.3810 0.0000
vt 0.1184 0.3810 0.0000
vt 0.0567 0.3713 0.0000
vt 0.0567 0.3810 0.0000
vt 0.5090 0.5722 0.0000
vt 0.0563 0.5722 0.0000
vt 0.0563 0.5127 0.0000
vt 0.5090 0.5127 0.0000
vt 0.3508 0.8192 0.0000
vt 0.0830 0.8192 0.0000
vt 0.0830 0.7597 0.0000
vt 0.3508 0.7597 0.0000
vt 0.5090 0.6524 0.0000
vt 0.0563 0.6524 0.0000
vt 0.0563 0.5929 0.0000
vt 0.5090 0.5929 0.0000
vt 0.3508 0.7495 0.0000
vt 0.0830 0.7495 0.0000
vt 0.0830 0.6900 0.0000
vt 0.3508 0.6900 0.0000
vt 0.5090 0.9425 0.0000
vt 0.0563 0.9425 0.0000
vt 0.0596 0.9391 0.0000
vt 0.5056 0.9391 0.0000
vt 0.0563 0.6747 0.0000
vt 0.0596 0.6781 0.0000
vt 0.5090 0.6747 0.0000
vt 0.5056 0.6781 0.0000
vt 0.6429 0.1317 0.0000
vt 0.5385 0.1317 0.0000
vt 0.5385 0.0572 0.0000
vt 0.6429 0.0572 0.0000
vt 0.5385 0.1357 0.0000
vt 0.6429 0.1357 0.0000
vt 0.6429 0.1496 0.0000
vt 0.5385 0.1496 0.0000
vt 0.6608 0.0421 0.0000
vt 0.6608 0.1166 0.0000
vt 0.6470 0.1166 0.0000
vt 0.6470 0.0421 0.0000
vt 0.5385 0.0392 0.0000
vt 0.6429 0.0392 0.0000
vt 0.6429 0.0531 0.0000
vt 0.5385 0.0531 0.0000
vt 0.5382 0.1532 0.0000
vt 0.6128 0.1532 0.0000
vt 0.6128 0.1671 0.0000
vt 0.5382 0.1671 0.0000
vt 0.8841 0.4852 0.0000
vt 0.8240 0.4852 0.0000
vt 0.8240 0.0392 0.0000
vt 0.8841 0.0392 0.0000
vt 0.7434 0.3051 0.0000
vt 0.6833 0.3051 0.0000
vt 0.6833 0.0440 0.0000
vt 0.7434 0.0440 0.0000
vt 0.9576 0.4852 0.0000
vt 0.8975 0.4852 0.0000
vt 0.8975 0.0392 0.0000
vt 0.9576 0.0392 0.0000
vt 0.7536 0.0440 0.0000
vt 0.8138 0.0440 0.0000
vt 0.8138 0.3051 0.0000
vt 0.7536 0.3051 0.0000
vt 0.0392 0.0392 0.0000
vt 0.4920 0.0392 0.0000
vt 0.4863 0.0448 0.0000
vt 0.0448 0.0448 0.0000
vt 0.4920 0.3070 0.0000
vt 0.4863 0.3014 0.0000
vt 0.0392 0.3070 0.0000
vt 0.0448 0.3014 0.0000
vt 0.4886 0.3249 0.0000
vt 0.0472 0.3249 0.0000
vt 0.0472 0.3193 0.0000
vt 0.4886 0.3193 0.0000
vt 0.3222 0.0596 0.0000
vt 0.0657 0.0596 0.0000
vt 0.0657 0.0540 0.0000
vt 0.3222 0.0540 0.0000
vt 0.4886 0.3410 0.0000
vt 0.0472 0.3410 0.0000
vt 0.0472 0.3354 0.0000
vt 0.4886 0.3354 0.0000
vt 0.3222 0.0728 0.0000
vt 0.0657 0.0728 0.0000
vt 0.0657 0.0671 0.0000
vt 0.3222 0.0671 0.0000
vt 0.7947 0.7792 0.0000
vt 0.5382 0.7792 0.0000
vt 0.5382 0.3378 0.0000
vt 0.7947 0.3378 0.0000
vt 0.9456 0.6533 0.0000
vt 0.9421 0.6520 0.0000
vt 0.9390 0.6493 0.0000
vt 0.8621 0.5418 0.0000
vt 0.8638 0.5365 0.0000
vt 0.8668 0.5319 0.0000
vt 0.8711 0.5281 0.0000
vt 0.8619 0.5473 0.0000
vt 0.8633 0.5528 0.0000
vt 0.8662 0.5579 0.0000
vt 0.8765 0.5257 0.0000
vt 0.9324 0.5093 0.0000
vt 0.9385 0.5084 0.0000
vt 0.9443 0.5091 0.0000
vt 0.9497 0.5114 0.0000
vt 0.9543 0.5149 0.0000
vt 0.9578 0.5195 0.0000
vt 0.9601 0.5249 0.0000
vt 0.9608 0.5311 0.0000
vt 0.9585 0.6428 0.0000
vt 0.9577 0.6468 0.0000
vt 0.9556 0.6499 0.0000
vt 0.9527 0.6521 0.0000
vt 0.9493 0.6533 0.0000
vt 0.0635 0.2059 0.0000
vt 0.0635 0.1998 0.0000
vt 0.0731 0.1998 0.0000
vt 0.0731 0.2059 0.0000
vt 0.0635 0.2116 0.0000
vt 0.0731 0.2116 0.0000
vt 0.0635 0.2166 0.0000
vt 0.0731 0.2166 0.0000
vt 0.1027 0.3911 0.0000
vt 0.1092 0.3911 0.0000
vt 0.1092 0.4015 0.0000
vt 0.1027 0.4015 0.0000
vt 0.0964 0.3911 0.0000
vt 0.0964 0.4015 0.0000
vt 0.0906 0.3911 0.0000
vt 0.0906 0.4015 0.0000
vt 0.0395 0.3911 0.0000
vt 0.0395 0.4015 0.0000
vt 0.1427 0.3807 0.0000
vt 0.1364 0.3807 0.0000
vt 0.1364 0.3716 0.0000
vt 0.1427 0.3716 0.0000
vt 0.1486 0.3807 0.0000
vt 0.1486 0.3716 0.0000
vt 0.1536 0.3807 0.0000
vt 0.1536 0.3716 0.0000
vt 0.0496 0.4613 0.0000
vt 0.0437 0.4613 0.0000
vt 0.0437 0.4522 0.0000
vt 0.0496 0.4522 0.0000
vt 0.0554 0.4613 0.0000
vt 0.0554 0.4522 0.0000
vt 0.0606 0.4613 0.0000
vt 0.0606 0.4522 0.0000
vt 0.0803 0.0867 0.0000
vt 0.0803 0.0804 0.0000
vt 0.0894 0.0804 0.0000
vt 0.0894 0.0867 0.0000
vt 0.0803 0.1988 0.0000
vt 0.0894 0.1988 0.0000
vt 0.0803 0.2027 0.0000
vt 0.0894 0.2027 0.0000
vt 0.0803 0.2057 0.0000
vt 0.0894 0.2057 0.0000
vt 0.1744 0.3606 0.0000
vt 0.1707 0.3606 0.0000
vt 0.1707 0.3514 0.0000
vt 0.1744 0.3514 0.0000
vt 0.1780 0.3606 0.0000
vt 0.1780 0.3514 0.0000
vt 0.1810 0.3606 0.0000
vt 0.1810 0.3514 0.0000
vt 0.3317 0.0577 0.0000
vt 0.3317 0.0539 0.0000
vt 0.3407 0.0539 0.0000
vt 0.3407 0.0577 0.0000
vt 0.0635 0.0803 0.0000
vt 0.0635 0.0768 0.0000
vt 0.0731 0.0768 0.0000
vt 0.0731 0.0803 0.0000
vt 0.0635 0.1937 0.0000
vt 0.0731 0.1937 0.0000


o 1B_business02
g 1B_business02
usemtl 1B_business02
s 16
f 1/1/1 2/2/1 3/3/1 
f 1/1/1 3/3/1 4/4/1 
f 1/1/1 4/4/1 5/5/1 
f 1/1/1 5/5/1 6/6/1 
f 1/1/1 6/6/1 7/7/1 
f 1/1/1 7/7/1 8/8/1 
f 1/1/1 8/8/1 9/9/1 
f 10/10/1 11/11/1 12/12/1 
f 10/10/1 12/12/1 13/13/1 
f 14/14/1 10/10/1 13/13/1 
f 15/15/1 14/14/1 13/13/1 
f 15/15/1 13/13/1 16/16/1 
f 9/9/1 15/15/1 16/16/1 
f 9/9/1 16/16/1 17/17/1 
f 9/9/1 17/17/1 18/18/1 
f 9/9/1 18/18/1 19/19/1 
f 9/9/1 19/19/1 20/20/1 
f 9/9/1 20/20/1 21/21/1 
f 9/9/1 21/21/1 22/22/1 
f 9/9/1 22/22/1 23/23/1 
f 9/9/1 23/23/1 24/24/1 
f 1/1/1 9/9/1 24/24/1 
s 1
f 3/25/2 2/26/3 25/27/3 
f 25/27/3 26/28/2 3/25/2 
s 3
f 4/29/4 3/25/2 26/28/2 
f 26/28/2 27/30/4 4/29/4 
s 2
f 5/31/5 4/29/4 27/30/4 
f 27/30/4 28/32/5 5/31/5 
f 6/33/6 5/34/5 28/35/5 
f 28/35/5 29/36/6 6/33/6 
f 7/37/7 6/33/6 29/36/6 
f 29/36/6 30/38/7 7/37/7 
f 8/39/8 7/37/7 30/38/7 
f 30/38/7 31/40/8 8/39/8 
f 9/41/9 8/42/8 31/43/8 
f 31/43/8 32/44/9 9/41/9 
f 15/45/10 9/41/9 32/44/9 
f 32/44/9 33/46/10 15/45/10 
f 14/47/11 15/45/10 33/46/10 
f 33/46/10 34/48/12 14/47/11 
f 10/49/13 14/50/11 34/51/12 
f 34/51/12 35/52/14 10/49/13 
f 11/53/15 10/49/13 35/52/14 
f 35/52/14 36/54/15 11/53/15 
f 12/55/16 11/53/15 36/54/15 
f 36/54/15 37/56/16 12/55/16 
f 13/57/17 12/58/16 37/59/16 
f 37/59/16 38/60/17 13/57/17 
f 16/61/18 13/57/17 38/60/17 
f 38/60/17 39/62/18 16/61/18 
f 17/63/19 16/61/18 39/62/18 
f 39/62/18 40/64/19 17/63/19 
f 18/65/20 17/63/19 40/64/19 
f 40/64/19 41/66/20 18/65/20 
f 19/67/21 18/68/20 41/69/20 
f 41/69/20 42/70/21 19/67/21 
f 20/71/22 19/67/21 42/70/21 
f 42/70/21 43/72/22 20/71/22 
f 21/73/23 20/71/22 43/72/22 
f 43/72/22 44/74/24 21/73/23 
f 22/75/25 21/73/23 44/74/24 
f 44/74/24 45/76/25 22/75/25 
f 23/77/26 22/78/25 45/79/25 
f 45/79/25 46/80/26 23/77/26 
f 24/81/27 23/82/26 46/83/26 
f 46/83/26 47/84/27 24/81/27 
f 1/85/28 24/81/27 47/84/27 
f 47/84/27 48/86/28 1/85/28 
s 3
f 2/26/3 1/85/28 48/86/28 
f 48/86/28 25/27/3 2/26/3 
s 8
f 49/87/29 50/88/29 51/89/29 
f 51/89/29 52/90/29 49/87/29 
s 16
f 53/91/30 49/92/30 52/93/30 
f 52/93/30 54/94/30 53/91/30 
s 32
f 55/95/31 53/96/31 54/97/31 
f 54/97/31 56/98/31 55/95/31 
s 64
f 50/99/32 55/100/32 56/101/32 
f 56/101/32 51/102/32 50/99/32 
s off
f 52/103/33 51/104/33 57/105/33 
f 57/105/34 58/106/34 52/103/34 
f 51/104/35 56/107/35 59/108/35 
f 59/108/33 57/105/33 51/104/33 
f 56/107/34 54/109/34 60/110/34 
f 60/110/34 59/108/34 56/107/34 
f 54/109/35 52/103/35 58/106/35 
f 58/106/33 60/110/33 54/109/33 
s 4
f 61/111/1 62/112/1 63/113/1 
f 63/113/1 64/114/1 61/111/1 
s 8
f 65/115/36 66/116/36 62/117/36 
f 62/117/36 61/118/36 65/115/36 
s 16
f 66/119/37 67/120/37 63/121/37 
f 63/121/37 62/122/37 66/119/37 
s 32
f 67/123/38 68/124/38 64/125/38 
f 64/125/38 63/126/32 67/123/38 
s 64
f 68/127/39 65/128/39 61/129/39 
f 61/129/39 64/130/39 68/127/39 
s 8
f 69/131/29 58/132/29 57/133/29 
f 57/133/29 70/134/29 69/131/29 
s 16
f 71/135/30 60/136/30 58/137/30 
f 58/137/30 69/138/30 71/135/30 
s 32
f 72/139/31 59/140/31 60/141/31 
f 60/141/31 71/142/31 72/139/31 
s 64
f 70/143/32 57/144/32 59/145/32 
f 59/145/32 72/146/32 70/143/32 
s off
f 50/147/1 49/148/1 73/149/1 
f 73/149/1 74/150/1 50/147/1 
f 49/148/40 53/151/40 75/152/40 
f 75/152/1 73/149/1 49/148/1 
f 53/151/1 55/153/1 76/154/1 
f 76/154/1 75/152/1 53/151/1 
f 55/153/40 50/147/40 74/150/40 
f 74/150/1 76/154/1 55/153/1 
f 74/155/31 73/156/31 77/157/31 
f 77/157/31 78/158/31 74/155/31 
f 73/159/32 75/160/32 79/161/32 
f 79/161/32 77/162/32 73/159/32 
f 75/163/29 76/164/29 80/165/29 
f 80/165/29 79/166/29 75/163/29 
f 76/167/30 74/168/30 78/169/30 
f 78/169/30 80/170/30 76/167/30 
s 4
f 81/171/41 78/172/41 77/173/41 
f 77/173/41 79/174/41 81/171/41 
s 16
f 82/175/1 83/176/1 84/177/1 
f 85/178/1 86/179/1 87/180/1 
f 85/178/1 87/180/1 88/181/1 
f 89/182/1 85/178/1 88/181/1 
f 90/183/1 89/182/1 88/181/1 
f 91/184/1 90/183/1 88/181/1 
f 91/184/1 88/181/1 92/185/1 
f 91/184/1 92/185/1 93/186/1 
f 91/184/1 93/186/1 94/187/1 
f 91/184/1 94/187/1 95/188/1 
f 91/184/1 95/188/1 96/189/1 
f 91/184/1 96/189/1 97/190/1 
f 91/184/1 97/190/1 98/191/1 
f 91/184/1 98/191/1 99/192/1 
f 91/184/1 99/192/1 100/193/1 
f 84/177/1 91/184/1 100/193/1 
f 84/177/1 100/193/1 101/194/1 
f 84/177/1 101/194/1 102/195/1 
f 84/177/1 102/195/1 103/196/1 
f 84/177/1 103/196/1 104/197/1 
f 84/177/1 104/197/1 105/198/1 
f 82/175/1 84/177/1 105/198/1 
s 1
f 89/199/42 90/200/43 106/201/43 
f 106/201/43 107/202/42 89/199/42 
s 3
f 85/203/44 89/199/42 107/202/42 
f 107/202/42 108/204/44 85/203/44 
s 2
f 86/205/45 85/203/44 108/204/44 
f 108/204/44 109/206/45 86/205/45 
f 87/207/46 86/208/45 109/209/45 
f 109/209/45 110/210/46 87/207/46 
f 88/211/47 87/207/46 110/210/46 
f 110/210/46 111/212/47 88/211/47 
f 92/213/48 88/211/47 111/212/47 
f 111/212/47 112/214/48 92/213/48 
f 93/215/49 92/213/48 112/214/48 
f 112/214/48 113/216/49 93/215/49 
f 94/217/50 93/218/49 113/219/49 
f 113/219/49 114/220/50 94/217/50 
f 95/221/51 94/217/50 114/220/50 
f 114/220/50 115/222/51 95/221/51 
f 96/223/52 95/221/51 115/222/51 
f 115/222/51 116/224/52 96/223/52 
f 97/225/53 96/226/52 116/227/52 
f 116/227/52 117/228/53 97/225/53 
f 98/229/54 97/225/53 117/228/53 
f 117/228/53 118/230/54 98/229/54 
f 99/231/55 98/229/54 118/230/54 
f 118/230/54 119/232/55 99/231/55 
f 100/233/56 99/234/55 119/235/55 
f 119/235/55 120/236/56 100/233/56 
f 101/237/57 100/233/56 120/236/56 
f 120/236/56 121/238/57 101/237/57 
f 102/239/58 101/237/57 121/238/57 
f 121/238/57 122/240/58 102/239/58 
f 103/241/59 102/239/58 122/240/58 
f 122/240/58 123/242/59 103/241/59 
f 104/243/60 103/244/59 123/245/59 
f 123/245/59 124/246/60 104/243/60 
f 105/247/61 104/243/60 124/246/60 
f 124/246/60 125/248/61 105/247/61 
f 82/249/62 105/247/61 125/248/61 
f 125/248/61 126/250/62 82/249/62 
f 83/251/63 82/252/62 126/253/62 
f 126/253/62 127/254/63 83/251/63 
f 84/255/64 83/256/63 127/257/63 
f 127/257/63 128/258/64 84/255/64 
f 91/259/65 84/255/64 128/258/64 
f 128/258/64 129/260/65 91/259/65 
s 3
f 90/200/43 91/259/65 129/260/65 
f 129/260/65 106/201/43 90/200/43 


