


mtllib 1B business01.mtl





v  -57.1364 10.0990 -16.8679
v  -18.0471 10.0990 -16.8679
v  -18.0471 10.0990 -39.5802
v  -57.1364 10.0990 -39.5802
v  -17.5471 10.5990 -16.3679
v  -57.6364 10.5990 -16.3679
v  -57.6364 5.3270 -16.3679
v  -17.5471 5.3270 -16.3679
v  -17.5471 10.5990 -40.0802
v  -17.5471 5.3270 -40.0802
v  -57.6364 10.5990 -40.0802
v  -57.6364 5.3270 -40.0802
v  -57.3364 5.3270 -16.6679
v  -17.8471 5.3270 -16.6679
v  -57.3364 5.3270 -39.7803
v  -17.8471 5.3270 -39.7803
v  -43.1627 11.1946 -30.1231
v  -33.9138 11.1946 -30.1231
v  -33.9138 11.1946 -36.7236
v  -43.1627 11.1946 -36.7236
v  -43.1627 9.9660 -30.1231
v  -33.9138 9.9660 -30.1231
v  -33.9138 9.9660 -36.7236
v  -43.1627 9.9660 -36.7236
v  -28.2543 10.8704 -31.3589
v  -27.9166 10.8704 -31.4457
v  -27.9166 10.0787 -31.4457
v  -28.2543 10.0787 -31.3589
v  -28.5363 10.8704 -31.1687
v  -28.5363 10.0787 -31.1687
v  -28.7430 10.8704 -30.9004
v  -28.7430 10.0787 -30.9004
v  -28.8549 10.8704 -30.5792
v  -28.8549 10.0787 -30.5792
v  -28.8525 10.8704 -30.2305
v  -28.8525 10.0787 -30.2305
v  -28.7164 10.8704 -29.8797
v  -28.7164 10.0787 -29.8797
v  -24.0816 10.8704 -22.2838
v  -24.0816 10.0787 -22.2838
v  -23.7953 10.8704 -21.9529
v  -23.7953 10.0787 -21.9529
v  -23.4401 10.8704 -21.7484
v  -23.4401 10.0787 -21.7484
v  -23.0483 10.8704 -21.6671
v  -23.0483 10.0787 -21.6671
v  -22.6519 10.8704 -21.7060
v  -22.6519 10.0787 -21.7060
v  -22.2833 10.8704 -21.8618
v  -22.2833 10.0787 -21.8618
v  -21.9746 10.8704 -22.1314
v  -21.9746 10.0787 -22.1314
v  -21.7580 10.8704 -22.5116
v  -21.7580 10.0787 -22.5116
v  -20.3082 10.8704 -26.4531
v  -20.3082 10.0787 -26.4531
v  -20.1685 10.8704 -27.0424
v  -20.1685 10.0787 -27.0424
v  -20.1717 10.8704 -27.6277
v  -20.1717 10.0787 -27.6277
v  -20.3070 10.8704 -28.1874
v  -20.3070 10.0787 -28.1874
v  -20.5637 10.8704 -28.6998
v  -20.5637 10.0787 -28.6998
v  -20.9308 10.8704 -29.1434
v  -20.9308 10.0787 -29.1434
v  -21.3976 10.8704 -29.4965
v  -21.3976 10.0787 -29.4965
v  -21.9532 10.8704 -29.7375
v  -21.9532 10.0787 -29.7375
v  -27.5427 10.8704 -31.4036
v  -27.5427 10.0787 -31.4036
v  -53.4666 10.8704 -27.0329
v  -53.0256 10.8704 -27.2693
v  -53.0256 10.0787 -27.2693
v  -53.4666 10.0787 -27.0329
v  -53.8185 10.8704 -26.6918
v  -53.8185 10.0787 -26.6918
v  -54.0661 10.8704 -26.2719
v  -54.0661 10.0787 -26.2719
v  -54.1942 10.8704 -25.7989
v  -54.1942 10.0787 -25.7989
v  -54.1877 10.8704 -25.2985
v  -54.1877 10.0787 -25.2985
v  -54.0313 10.8704 -24.7965
v  -54.0313 10.0787 -24.7965
v  -51.8061 10.8704 -20.1438
v  -51.8061 10.0787 -20.1438
v  -51.5041 10.8704 -19.6869
v  -51.5041 10.0787 -19.6869
v  -51.1073 10.8704 -19.3454
v  -51.1073 10.0787 -19.3454
v  -50.6440 10.8704 -19.1247
v  -50.6440 10.0787 -19.1247
v  -50.1424 10.8704 -19.0301
v  -50.1424 10.0787 -19.0301
v  -49.6305 10.8704 -19.0669
v  -49.6305 10.0787 -19.0669
v  -49.1367 10.8704 -19.2404
v  -49.1367 10.0787 -19.2404
v  -48.6890 10.8704 -19.5560
v  -48.6890 10.0787 -19.5560
v  -41.4636 10.8704 -26.3130
v  -41.4636 10.0787 -26.3130
v  -41.2489 10.8704 -26.6024
v  -41.2489 10.0787 -26.6024
v  -41.1608 10.8704 -26.9234
v  -41.1608 10.0787 -26.9234
v  -41.1868 10.8704 -27.2471
v  -41.1868 10.0787 -27.2471
v  -41.3144 10.8704 -27.5444
v  -41.3144 10.0787 -27.5444
v  -41.5312 10.8704 -27.7861
v  -41.5312 10.0787 -27.7861
v  -41.8246 10.8704 -27.9434
v  -41.8246 10.0787 -27.9434
v  -42.1823 10.8704 -27.9870
v  -42.1823 10.0787 -27.9870
v  -52.5107 10.8704 -27.3755
v  -52.5107 10.0787 -27.3755
v  -17.8471 0.0000 -16.6679
v  -57.3364 0.0000 -16.6679
v  -17.8471 0.0000 -39.7803
v  -57.3364 0.0000 -39.7803
v  -18.0471 10.5990 -16.8679
v  -57.1364 10.5990 -16.8679
v  -18.0471 10.5990 -39.5802
v  -57.1364 10.5990 -39.5802


vn 0.0000 1.0000 -0.0000
vn 0.0000 0.0000 1.0000
vn 1.0000 0.0000 -0.0000
vn 0.0000 0.0000 -1.0000
vn -1.0000 0.0000 -0.0000
vn 0.0000 -1.0000 0.0000
vn 0.0000 -1.0000 -0.0000
vn -0.0000 -1.0000 0.0000
vn 0.0000 -0.0000 1.0000
vn 1.0000 -0.0000 0.0000
vn -1.0000 -0.0000 0.0000
vn -0.4100 0.0000 -0.9121
vn -0.0696 0.0000 -0.9976
vn -0.6845 0.0000 -0.7290
vn -0.8796 0.0000 -0.4757
vn -0.9865 0.0000 -0.1635
vn -0.9823 -0.0000 0.1874
vn -0.8965 -0.0000 0.4431
vn -0.8077 -0.0000 0.5896
vn -0.8077 0.0000 0.5896
vn -0.6365 0.0000 0.7712
vn -0.3555 0.0000 0.9347
vn -0.0534 0.0000 0.9986
vn 0.2462 0.0000 0.9692
vn 0.2462 -0.0000 0.9692
vn 0.5302 -0.0000 0.8479
vn 0.7742 -0.0000 0.6330
vn 0.9068 -0.0000 0.4215
vn 0.9575 -0.0000 0.2885
vn 0.9935 -0.0000 0.1134
vn 0.9926 -0.0000 -0.1211
vn 0.9926 0.0000 -0.1211
vn 0.9391 0.0000 -0.3436
vn 0.8376 0.0000 -0.5462
vn 0.6915 0.0000 -0.7224
vn 0.5042 0.0000 -0.8636
vn 0.3424 0.0000 -0.9395
vn 0.1995 0.0000 -0.9799
vn -0.5899 0.0000 -0.8075
vn -0.3408 0.0000 -0.9402
vn -0.7857 0.0000 -0.6186
vn -0.9216 0.0000 -0.3882
vn -0.9921 0.0000 -0.1254
vn -0.9876 -0.0000 0.1569
vn -0.9309 -0.0000 0.3654
vn -0.9309 0.0000 0.3654
vn -0.8702 0.0000 0.4926
vn -0.8702 -0.0000 0.4926
vn -0.7504 -0.0000 0.6610
vn -0.5460 -0.0000 0.8378
vn -0.5460 0.0000 0.8378
vn -0.3103 0.0000 0.9507
vn -0.0573 0.0000 0.9984
vn 0.2034 0.0000 0.9791
vn 0.4581 0.0000 0.8889
vn 0.6311 0.0000 0.7757
vn 0.6311 -0.0000 0.7757
vn 0.7461 -0.0000 0.6658
vn 0.8991 -0.0000 0.4377
vn 0.8991 0.0000 0.4378
vn 0.9956 0.0000 0.0937
vn 0.9707 0.0000 -0.2404
vn 0.8428 0.0000 -0.5382
vn 0.6177 0.0000 -0.7864
vn 0.3019 0.0000 -0.9534
vn 0.0311 0.0000 -0.9995
vn -0.1308 0.0000 -0.9914
vn -0.0000 1.0000 -0.0000


vt 0.7845 0.3132 0.0000
vt 0.7845 0.7559 0.0000
vt 0.5272 0.7559 0.0000
vt 0.5272 0.3132 0.0000
vt 0.4933 0.0989 0.0000
vt 0.0392 0.0989 0.0000
vt 0.0392 0.0392 0.0000
vt 0.4933 0.0392 0.0000
vt 0.3346 0.3466 0.0000
vt 0.0660 0.3466 0.0000
vt 0.0660 0.2869 0.0000
vt 0.3346 0.2869 0.0000
vt 0.4933 0.1794 0.0000
vt 0.0392 0.1794 0.0000
vt 0.0392 0.1197 0.0000
vt 0.4933 0.1197 0.0000
vt 0.3346 0.2767 0.0000
vt 0.0660 0.2767 0.0000
vt 0.0660 0.2170 0.0000
vt 0.3346 0.2170 0.0000
vt 0.4933 0.4703 0.0000
vt 0.0392 0.4703 0.0000
vt 0.0426 0.4669 0.0000
vt 0.4899 0.4669 0.0000
vt 0.0392 0.2017 0.0000
vt 0.0426 0.2051 0.0000
vt 0.4933 0.2017 0.0000
vt 0.4899 0.2051 0.0000
vt 0.5275 0.0572 0.0000
vt 0.6322 0.0572 0.0000
vt 0.6322 0.1320 0.0000
vt 0.5275 0.1320 0.0000
vt 0.5275 0.1360 0.0000
vt 0.6322 0.1360 0.0000
vt 0.6322 0.1499 0.0000
vt 0.5275 0.1499 0.0000
vt 0.6363 0.1168 0.0000
vt 0.6363 0.0421 0.0000
vt 0.6502 0.0421 0.0000
vt 0.6502 0.1168 0.0000
vt 0.5275 0.0392 0.0000
vt 0.6322 0.0392 0.0000
vt 0.6322 0.0531 0.0000
vt 0.5275 0.0531 0.0000
vt 0.5272 0.1535 0.0000
vt 0.6020 0.1535 0.0000
vt 0.6020 0.1675 0.0000
vt 0.5272 0.1675 0.0000
vt 0.1173 0.8487 0.0000
vt 0.1130 0.8487 0.0000
vt 0.1130 0.8389 0.0000
vt 0.1173 0.8389 0.0000
vt 0.1213 0.8487 0.0000
vt 0.1213 0.8389 0.0000
vt 0.1246 0.8487 0.0000
vt 0.1246 0.8389 0.0000
vt 0.0509 0.9402 0.0000
vt 0.0549 0.9402 0.0000
vt 0.0549 0.9494 0.0000
vt 0.0509 0.9494 0.0000
vt 0.0471 0.9402 0.0000
vt 0.0471 0.9494 0.0000
vt 0.0437 0.9402 0.0000
vt 0.0437 0.9494 0.0000
vt 0.0534 0.8190 0.0000
vt 0.1546 0.8190 0.0000
vt 0.1546 0.8281 0.0000
vt 0.0534 0.8281 0.0000
vt 0.0485 0.8190 0.0000
vt 0.0485 0.8281 0.0000
vt 0.0444 0.8190 0.0000
vt 0.0444 0.8281 0.0000
vt 0.0484 0.9292 0.0000
vt 0.0437 0.9292 0.0000
vt 0.0437 0.9200 0.0000
vt 0.0484 0.9200 0.0000
vt 0.0528 0.9292 0.0000
vt 0.0528 0.9200 0.0000
vt 0.0566 0.9292 0.0000
vt 0.0566 0.9200 0.0000
vt 0.0470 0.8688 0.0000
vt 0.0420 0.8688 0.0000
vt 0.0420 0.8591 0.0000
vt 0.0470 0.8591 0.0000
vt 0.0520 0.8688 0.0000
vt 0.0520 0.8591 0.0000
vt 0.0971 0.8688 0.0000
vt 0.0971 0.8591 0.0000
vt 0.1031 0.8688 0.0000
vt 0.1031 0.8591 0.0000
vt 0.0504 0.8888 0.0000
vt 0.0435 0.8888 0.0000
vt 0.0435 0.8795 0.0000
vt 0.0504 0.8795 0.0000
vt 0.0570 0.8888 0.0000
vt 0.0570 0.8795 0.0000
vt 0.0630 0.8888 0.0000
vt 0.0630 0.8795 0.0000
vt 0.0683 0.8888 0.0000
vt 0.0683 0.8795 0.0000
vt 0.1712 0.8257 0.0000
vt 0.1712 0.8190 0.0000
vt 0.1801 0.8190 0.0000
vt 0.1801 0.8257 0.0000
vt 0.0467 0.8487 0.0000
vt 0.0408 0.8487 0.0000
vt 0.0408 0.8389 0.0000
vt 0.0467 0.8389 0.0000
vt 0.1086 0.8487 0.0000
vt 0.1086 0.8389 0.0000
vt 0.0636 0.6730 0.0000
vt 0.0636 0.6669 0.0000
vt 0.0732 0.6669 0.0000
vt 0.0732 0.6730 0.0000
vt 0.0636 0.6787 0.0000
vt 0.0732 0.6787 0.0000
vt 0.0636 0.6837 0.0000
vt 0.0732 0.6837 0.0000
vt 0.0632 0.6898 0.0000
vt 0.0632 0.6834 0.0000
vt 0.0736 0.6834 0.0000
vt 0.0736 0.6898 0.0000
vt 0.0632 0.6961 0.0000
vt 0.0736 0.6961 0.0000
vt 0.0632 0.7019 0.0000
vt 0.0736 0.7019 0.0000
vt 0.0632 0.7532 0.0000
vt 0.0736 0.7532 0.0000
vt 0.1430 0.8483 0.0000
vt 0.1367 0.8483 0.0000
vt 0.1367 0.8392 0.0000
vt 0.1430 0.8392 0.0000
vt 0.1489 0.8483 0.0000
vt 0.1489 0.8392 0.0000
vt 0.1540 0.8483 0.0000
vt 0.1540 0.8392 0.0000
vt 0.0547 0.8998 0.0000
vt 0.0606 0.8998 0.0000
vt 0.0606 0.9090 0.0000
vt 0.0547 0.9090 0.0000
vt 0.0490 0.8998 0.0000
vt 0.0490 0.9090 0.0000
vt 0.0437 0.8998 0.0000
vt 0.0437 0.9090 0.0000
vt 0.0804 0.5535 0.0000
vt 0.0804 0.5472 0.0000
vt 0.0895 0.5472 0.0000
vt 0.0895 0.5535 0.0000
vt 0.0804 0.6659 0.0000
vt 0.0895 0.6659 0.0000
vt 0.0804 0.6698 0.0000
vt 0.0895 0.6698 0.0000
vt 0.0804 0.6728 0.0000
vt 0.0895 0.6728 0.0000
vt 0.0819 0.8928 0.0000
vt 0.0781 0.8928 0.0000
vt 0.0781 0.8836 0.0000
vt 0.0819 0.8836 0.0000
vt 0.0854 0.8928 0.0000
vt 0.0854 0.8836 0.0000
vt 0.0884 0.8928 0.0000
vt 0.0884 0.8836 0.0000
vt 0.3326 0.5244 0.0000
vt 0.3326 0.5206 0.0000
vt 0.3415 0.5206 0.0000
vt 0.3415 0.5244 0.0000
vt 0.0636 0.5471 0.0000
vt 0.0636 0.5435 0.0000
vt 0.0732 0.5435 0.0000
vt 0.0732 0.5471 0.0000
vt 0.0636 0.6608 0.0000
vt 0.0732 0.6608 0.0000
vt 0.8871 0.4865 0.0000
vt 0.8268 0.4865 0.0000
vt 0.8268 0.0392 0.0000
vt 0.8871 0.0392 0.0000
vt 0.7460 0.3058 0.0000
vt 0.6856 0.3058 0.0000
vt 0.6856 0.0440 0.0000
vt 0.7460 0.0440 0.0000
vt 0.9608 0.4865 0.0000
vt 0.9005 0.4865 0.0000
vt 0.9005 0.0392 0.0000
vt 0.9608 0.0392 0.0000
vt 0.7562 0.0440 0.0000
vt 0.8165 0.0440 0.0000
vt 0.8165 0.3058 0.0000
vt 0.7562 0.3058 0.0000
vt 0.0392 0.5058 0.0000
vt 0.4933 0.5058 0.0000
vt 0.4876 0.5115 0.0000
vt 0.0449 0.5115 0.0000
vt 0.4933 0.7744 0.0000
vt 0.4876 0.7687 0.0000
vt 0.0392 0.7744 0.0000
vt 0.0449 0.7687 0.0000
vt 0.4899 0.7924 0.0000
vt 0.0472 0.7924 0.0000
vt 0.0472 0.7867 0.0000
vt 0.4899 0.7867 0.0000
vt 0.3231 0.5263 0.0000
vt 0.0658 0.5263 0.0000
vt 0.0658 0.5206 0.0000
vt 0.3231 0.5206 0.0000
vt 0.4899 0.8085 0.0000
vt 0.0472 0.8085 0.0000
vt 0.0472 0.8029 0.0000
vt 0.4899 0.8029 0.0000
vt 0.3231 0.5395 0.0000
vt 0.0658 0.5395 0.0000
vt 0.0658 0.5339 0.0000
vt 0.3231 0.5339 0.0000
vt 0.9521 0.6098 0.0000
vt 0.9510 0.6139 0.0000
vt 0.9487 0.6171 0.0000
vt 0.9455 0.6192 0.0000
vt 0.9418 0.6202 0.0000
vt 0.9379 0.6200 0.0000
vt 0.9343 0.6185 0.0000
vt 0.9312 0.6156 0.0000
vt 0.8711 0.5347 0.0000
vt 0.8690 0.5213 0.0000
vt 0.8711 0.5173 0.0000
vt 0.8743 0.5140 0.0000
vt 0.8784 0.5120 0.0000
vt 0.8682 0.5257 0.0000
vt 0.8688 0.5303 0.0000
vt 0.8833 0.5113 0.0000
vt 0.9308 0.5128 0.0000
vt 0.9376 0.5138 0.0000
vt 0.9438 0.5163 0.0000
vt 0.9491 0.5201 0.0000
vt 0.9534 0.5250 0.0000
vt 0.9565 0.5307 0.0000
vt 0.9582 0.5371 0.0000
vt 0.9584 0.5440 0.0000
vt 0.8309 0.5101 0.0000
vt 0.8345 0.5113 0.0000
vt 0.8376 0.5138 0.0000
vt 0.9186 0.6188 0.0000
vt 0.9172 0.6242 0.0000
vt 0.9143 0.6289 0.0000
vt 0.9102 0.6328 0.0000
vt 0.9186 0.6133 0.0000
vt 0.9171 0.6078 0.0000
vt 0.9139 0.6028 0.0000
vt 0.9049 0.6355 0.0000
vt 0.8495 0.6540 0.0000
vt 0.8434 0.6551 0.0000
vt 0.8374 0.6545 0.0000
vt 0.8320 0.6525 0.0000
vt 0.8273 0.6492 0.0000
vt 0.8236 0.6447 0.0000
vt 0.8211 0.6393 0.0000
vt 0.8201 0.6332 0.0000
vt 0.8183 0.5211 0.0000
vt 0.8190 0.5171 0.0000
vt 0.8209 0.5139 0.0000
vt 0.8238 0.5115 0.0000
vt 0.8272 0.5102 0.0000


o 1B_business01
g 1B_business01
usemtl 1B_business01
s 4
f 1/1/1 2/2/1 3/3/1 
f 3/3/1 4/4/1 1/1/1 
s 8
f 5/5/2 6/6/2 7/7/2 
f 7/7/2 8/8/2 5/5/2 
s 16
f 9/9/3 5/10/3 8/11/3 
f 8/11/3 10/12/3 9/9/3 
s 32
f 11/13/4 9/14/4 10/15/4 
f 10/15/4 12/16/4 11/13/4 
s 64
f 6/17/5 11/18/5 12/19/5 
f 12/19/5 7/20/5 6/17/5 
s off
f 8/21/6 7/22/6 13/23/6 
f 13/23/7 14/24/7 8/21/7 
f 7/22/8 12/25/8 15/26/8 
f 15/26/6 13/23/6 7/22/6 
f 12/25/7 10/27/7 16/28/7 
f 16/28/7 15/26/7 12/25/7 
f 10/27/8 8/21/8 14/24/8 
f 14/24/6 16/28/6 10/27/6 
s 4
f 17/29/1 18/30/1 19/31/1 
f 19/31/1 20/32/1 17/29/1 
s 8
f 21/33/9 22/34/9 18/35/9 
f 18/35/9 17/36/9 21/33/9 
s 16
f 22/37/10 23/38/10 19/39/10 
f 19/39/10 18/40/10 22/37/10 
s 32
f 23/41/4 24/42/4 20/43/4 
f 20/43/4 19/44/4 23/41/4 
s 64
f 24/45/11 21/46/11 17/47/11 
f 17/47/11 20/48/11 24/45/11 
s 1
f 25/49/12 26/50/13 27/51/13 
f 27/51/13 28/52/12 25/49/12 
s 3
f 29/53/14 25/49/12 28/52/12 
f 28/52/12 30/54/14 29/53/14 
s 2
f 31/55/15 29/53/14 30/54/14 
f 30/54/14 32/56/15 31/55/15 
f 33/57/16 31/58/15 32/59/15 
f 32/59/15 34/60/16 33/57/16 
f 35/61/17 33/57/16 34/60/16 
f 34/60/16 36/62/17 35/61/17 
f 37/63/18 35/61/17 36/62/17 
f 36/62/17 38/64/18 37/63/18 
f 39/65/19 37/66/18 38/67/18 
f 38/67/18 40/68/20 39/65/19 
f 41/69/21 39/65/19 40/68/20 
f 40/68/20 42/70/21 41/69/21 
f 43/71/22 41/69/21 42/70/21 
f 42/70/21 44/72/22 43/71/22 
f 45/73/23 43/74/22 44/75/22 
f 44/75/22 46/76/23 45/73/23 
f 47/77/24 45/73/23 46/76/23 
f 46/76/23 48/78/25 47/77/24 
f 49/79/26 47/77/24 48/78/25 
f 48/78/25 50/80/26 49/79/26 
f 51/81/27 49/82/26 50/83/26 
f 50/83/26 52/84/27 51/81/27 
f 53/85/28 51/81/27 52/84/27 
f 52/84/27 54/86/28 53/85/28 
f 55/87/29 53/85/28 54/86/28 
f 54/86/28 56/88/29 55/87/29 
f 57/89/30 55/87/29 56/88/29 
f 56/88/29 58/90/30 57/89/30 
f 59/91/31 57/92/30 58/93/30 
f 58/93/30 60/94/32 59/91/31 
f 61/95/33 59/91/31 60/94/32 
f 60/94/32 62/96/33 61/95/33 
f 63/97/34 61/95/33 62/96/33 
f 62/96/33 64/98/34 63/97/34 
f 65/99/35 63/97/34 64/98/34 
f 64/98/34 66/100/35 65/99/35 
f 67/101/36 65/102/35 66/103/35 
f 66/103/35 68/104/36 67/101/36 
f 69/105/37 67/106/36 68/107/36 
f 68/107/36 70/108/37 69/105/37 
f 71/109/38 69/105/37 70/108/37 
f 70/108/37 72/110/38 71/109/38 
s 3
f 26/50/13 71/109/38 72/110/38 
f 72/110/38 27/51/13 26/50/13 
s 1
f 73/111/39 74/112/40 75/113/40 
f 75/113/40 76/114/39 73/111/39 
s 3
f 77/115/41 73/111/39 76/114/39 
f 76/114/39 78/116/41 77/115/41 
s 2
f 79/117/42 77/115/41 78/116/41 
f 78/116/41 80/118/42 79/117/42 
f 81/119/43 79/120/42 80/121/42 
f 80/121/42 82/122/43 81/119/43 
f 83/123/44 81/119/43 82/122/43 
f 82/122/43 84/124/44 83/123/44 
f 85/125/45 83/123/44 84/124/44 
f 84/124/44 86/126/46 85/125/45 
f 87/127/47 85/125/45 86/126/46 
f 86/126/46 88/128/48 87/127/47 
f 89/129/49 87/130/47 88/131/48 
f 88/131/48 90/132/49 89/129/49 
f 91/133/50 89/129/49 90/132/49 
f 90/132/49 92/134/51 91/133/50 
f 93/135/52 91/133/50 92/134/51 
f 92/134/51 94/136/52 93/135/52 
f 95/137/53 93/138/52 94/139/52 
f 94/139/52 96/140/53 95/137/53 
f 97/141/54 95/137/53 96/140/53 
f 96/140/53 98/142/54 97/141/54 
f 99/143/55 97/141/54 98/142/54 
f 98/142/54 100/144/55 99/143/55 
f 101/145/56 99/146/55 100/147/55 
f 100/147/55 102/148/57 101/145/56 
f 103/149/58 101/145/56 102/148/57 
f 102/148/57 104/150/58 103/149/58 
f 105/151/59 103/149/58 104/150/58 
f 104/150/58 106/152/60 105/151/59 
f 107/153/61 105/151/59 106/152/60 
f 106/152/60 108/154/61 107/153/61 
f 109/155/62 107/156/61 108/157/61 
f 108/157/61 110/158/62 109/155/62 
f 111/159/63 109/155/62 110/158/62 
f 110/158/62 112/160/63 111/159/63 
f 113/161/64 111/159/63 112/160/63 
f 112/160/63 114/162/64 113/161/64 
f 115/163/65 113/164/64 114/165/64 
f 114/165/64 116/166/65 115/163/65 
f 117/167/66 115/168/65 116/169/65 
f 116/169/65 118/170/66 117/167/66 
f 119/171/67 117/167/66 118/170/66 
f 118/170/66 120/172/67 119/171/67 
s 3
f 74/112/40 119/171/67 120/172/67 
f 120/172/67 75/113/40 74/112/40 
s 8
f 121/173/2 14/174/2 13/175/2 
f 13/175/2 122/176/2 121/173/2 
s 16
f 123/177/3 16/178/3 14/179/3 
f 14/179/3 121/180/3 123/177/3 
s 32
f 124/181/4 15/182/4 16/183/4 
f 16/183/4 123/184/4 124/181/4 
s 64
f 122/185/5 13/186/5 15/187/5 
f 15/187/5 124/188/5 122/185/5 
s off
f 6/189/1 5/190/1 125/191/1 
f 125/191/1 126/192/1 6/189/1 
f 5/190/68 9/193/68 127/194/68 
f 127/194/1 125/191/1 5/190/1 
f 9/193/1 11/195/1 128/196/1 
f 128/196/1 127/194/1 9/193/1 
f 11/195/68 6/189/68 126/192/68 
f 126/192/1 128/196/1 11/195/1 
f 126/197/4 125/198/4 2/199/4 
f 2/199/4 1/200/4 126/197/4 
f 125/201/5 127/202/5 3/203/5 
f 3/203/5 2/204/5 125/201/5 
f 127/205/2 128/206/2 4/207/2 
f 4/207/2 3/208/2 127/205/2 
f 128/209/3 126/210/3 1/211/3 
f 1/211/3 4/212/3 128/209/3 
s 16
f 71/213/1 26/214/1 25/215/1 
f 71/213/1 25/215/1 29/216/1 
f 71/213/1 29/216/1 31/217/1 
f 71/213/1 31/217/1 33/218/1 
f 71/213/1 33/218/1 35/219/1 
f 71/213/1 35/219/1 37/220/1 
f 71/213/1 37/220/1 39/221/1 
f 45/222/1 47/223/1 49/224/1 
f 45/222/1 49/224/1 51/225/1 
f 43/226/1 45/222/1 51/225/1 
f 41/227/1 43/226/1 51/225/1 
f 41/227/1 51/225/1 53/228/1 
f 39/221/1 41/227/1 53/228/1 
f 39/221/1 53/228/1 55/229/1 
f 39/221/1 55/229/1 57/230/1 
f 39/221/1 57/230/1 59/231/1 
f 39/221/1 59/231/1 61/232/1 
f 39/221/1 61/232/1 63/233/1 
f 39/221/1 63/233/1 65/234/1 
f 39/221/1 65/234/1 67/235/1 
f 39/221/1 67/235/1 69/236/1 
f 71/213/1 39/221/1 69/236/1 
f 113/237/1 115/238/1 117/239/1 
f 77/240/1 79/241/1 81/242/1 
f 77/240/1 81/242/1 83/243/1 
f 73/244/1 77/240/1 83/243/1 
f 74/245/1 73/244/1 83/243/1 
f 119/246/1 74/245/1 83/243/1 
f 119/246/1 83/243/1 85/247/1 
f 119/246/1 85/247/1 87/248/1 
f 119/246/1 87/248/1 89/249/1 
f 119/246/1 89/249/1 91/250/1 
f 119/246/1 91/250/1 93/251/1 
f 119/246/1 93/251/1 95/252/1 
f 119/246/1 95/252/1 97/253/1 
f 119/246/1 97/253/1 99/254/1 
f 119/246/1 99/254/1 101/255/1 
f 117/239/1 119/246/1 101/255/1 
f 117/239/1 101/255/1 103/256/1 
f 117/239/1 103/256/1 105/257/1 
f 117/239/1 105/257/1 107/258/1 
f 117/239/1 107/258/1 109/259/1 
f 117/239/1 109/259/1 111/260/1 
f 113/237/1 117/239/1 111/260/1 


