


mtllib 1B Commercial atrium.mtl





v  -6.1977 0.0000 -14.5524
v  -6.1977 0.0000 -86.8916
v  -6.1977 14.6455 -86.8916
v  -6.1977 14.6455 -14.5524
v  -17.5114 0.0000 -86.8916
v  -17.5114 0.0000 -14.5524
v  -17.5114 14.6455 -14.5524
v  -17.5114 14.6455 -86.8916
v  -9.4121 3.0301 -12.9047
v  -9.4121 3.0301 -14.6045
v  -14.6279 3.0301 -14.6045
v  -14.6279 3.0301 -12.9046
v  -13.9491 3.7985 -14.5588
v  -13.9491 3.7810 -14.5713
v  -13.9706 3.7810 -14.5713
v  -13.9706 3.7985 -14.5588
v  -13.9491 3.0400 -13.0739
v  -13.9491 3.0225 -13.0864
v  -13.9706 3.0225 -13.0864
v  -13.9706 3.0400 -13.0739
v  -10.0800 3.7985 -14.5588
v  -10.0800 3.7810 -14.5713
v  -10.1015 3.7810 -14.5713
v  -10.1015 3.7985 -14.5588
v  -10.0800 3.0400 -13.0739
v  -10.0800 3.0225 -13.0864
v  -10.1015 3.0225 -13.0864
v  -10.1015 3.0400 -13.0739
v  -9.4058 2.0691 -88.5435
v  -14.6216 2.0691 -88.5435
v  -14.6216 2.0691 -86.8436
v  -9.4058 2.0691 -86.8436
v  -13.9428 3.1341 -86.8894
v  -13.9643 3.1341 -86.8894
v  -13.9643 3.1099 -86.8768
v  -13.9428 3.1099 -86.8768
v  -13.9428 2.0828 -88.3742
v  -13.9428 2.0586 -88.3617
v  -13.9643 2.0586 -88.3617
v  -13.9643 2.0828 -88.3742
v  -10.0737 3.1341 -86.8894
v  -10.0952 3.1341 -86.8894
v  -10.0952 3.1099 -86.8768
v  -10.0737 3.1099 -86.8768
v  -10.0737 2.0828 -88.3742
v  -10.0737 2.0586 -88.3617
v  -10.0952 2.0586 -88.3617
v  -10.0952 2.0828 -88.3742
v  -16.5114 14.1454 -15.5524
v  -7.1977 14.1454 -15.5524
v  -7.1977 14.1454 -85.8916
v  -16.5114 14.1454 -85.8916
v  -17.5114 14.6454 -14.5524
v  -6.1977 14.6454 -14.5524
v  -7.1977 14.6454 -15.5524
v  -16.5114 14.6454 -15.5524
v  -6.1977 14.6454 -86.8916
v  -7.1977 14.6454 -85.8916
v  -17.5114 14.6454 -86.8916
v  -16.5114 14.6454 -85.8916


vn 1.0000 0.0000 -0.0000
vn -1.0000 0.0000 -0.0000
vn 0.0000 1.0000 -0.0000
vn 0.0000 0.5839 -0.8119
vn 0.0000 -0.8905 -0.4549
vn 0.0000 0.8905 0.4549
vn -0.0000 1.0000 -0.0000
vn 0.0000 0.4606 0.8876
vn 1.0000 0.0000 0.0000
vn 0.0000 -0.8162 0.5778
vn -1.0000 -0.0000 -0.0000
vn 0.0000 0.8162 -0.5778
vn 0.0000 0.0000 -1.0000
vn 0.0000 0.0000 1.0000


vt 0.5575 0.0392 0.0000
vt 0.5575 0.8950 0.0000
vt 0.3843 0.8950 0.0000
vt 0.3843 0.0392 0.0000
vt 0.7648 0.0392 0.0000
vt 0.7648 0.8950 0.0000
vt 0.5916 0.8950 0.0000
vt 0.5916 0.0392 0.0000
vt 0.0392 0.9597 0.0000
vt 0.0392 0.9396 0.0000
vt 0.1009 0.9396 0.0000
vt 0.1009 0.9597 0.0000
vt 0.1447 0.9368 0.0000
vt 0.1445 0.9368 0.0000
vt 0.1445 0.9365 0.0000
vt 0.1447 0.9365 0.0000
vt 0.1382 0.9322 0.0000
vt 0.1382 0.9319 0.0000
vt 0.1568 0.9255 0.0000
vt 0.1569 0.9258 0.0000
vt 0.1358 0.9180 0.0000
vt 0.1358 0.9177 0.0000
vt 0.1555 0.9177 0.0000
vt 0.1555 0.9180 0.0000
vt 0.1352 0.9187 0.0000
vt 0.1354 0.9186 0.0000
vt 0.1351 0.9383 0.0000
vt 0.1349 0.9384 0.0000
vt 0.1554 0.9234 0.0000
vt 0.1554 0.9237 0.0000
vt 0.1357 0.9237 0.0000
vt 0.1357 0.9234 0.0000
vt 0.1438 0.9368 0.0000
vt 0.1435 0.9368 0.0000
vt 0.1435 0.9365 0.0000
vt 0.1438 0.9365 0.0000
vt 0.1383 0.9334 0.0000
vt 0.1383 0.9331 0.0000
vt 0.1569 0.9267 0.0000
vt 0.1570 0.9270 0.0000
vt 0.1555 0.9205 0.0000
vt 0.1555 0.9208 0.0000
vt 0.1358 0.9208 0.0000
vt 0.1358 0.9205 0.0000
vt 0.1358 0.9167 0.0000
vt 0.1357 0.9164 0.0000
vt 0.1555 0.9167 0.0000
vt 0.1555 0.9170 0.0000
vt 0.1358 0.9218 0.0000
vt 0.1358 0.9215 0.0000
vt 0.1555 0.9215 0.0000
vt 0.1555 0.9218 0.0000
vt 0.0392 0.9164 0.0000
vt 0.1009 0.9164 0.0000
vt 0.1009 0.9365 0.0000
vt 0.0392 0.9365 0.0000
vt 0.1417 0.9365 0.0000
vt 0.1417 0.9368 0.0000
vt 0.1414 0.9368 0.0000
vt 0.1414 0.9365 0.0000
vt 0.1573 0.9394 0.0000
vt 0.1358 0.9391 0.0000
vt 0.1358 0.9388 0.0000
vt 0.1574 0.9391 0.0000
vt 0.1350 0.9186 0.0000
vt 0.1564 0.9186 0.0000
vt 0.1564 0.9189 0.0000
vt 0.1350 0.9189 0.0000
vt 0.1359 0.9349 0.0000
vt 0.1571 0.9309 0.0000
vt 0.1572 0.9312 0.0000
vt 0.1360 0.9352 0.0000
vt 0.1564 0.9227 0.0000
vt 0.1350 0.9227 0.0000
vt 0.1350 0.9224 0.0000
vt 0.1564 0.9224 0.0000
vt 0.1428 0.9365 0.0000
vt 0.1428 0.9368 0.0000
vt 0.1425 0.9368 0.0000
vt 0.1425 0.9365 0.0000
vt 0.1573 0.9383 0.0000
vt 0.1358 0.9380 0.0000
vt 0.1358 0.9377 0.0000
vt 0.1574 0.9380 0.0000
vt 0.1350 0.9196 0.0000
vt 0.1564 0.9196 0.0000
vt 0.1564 0.9199 0.0000
vt 0.1350 0.9199 0.0000
vt 0.1359 0.9363 0.0000
vt 0.1571 0.9323 0.0000
vt 0.1572 0.9326 0.0000
vt 0.1360 0.9366 0.0000
vt 0.1563 0.9246 0.0000
vt 0.1348 0.9246 0.0000
vt 0.1348 0.9243 0.0000
vt 0.1563 0.9243 0.0000
vt 0.2155 0.0492 0.0000
vt 0.3257 0.0492 0.0000
vt 0.3257 0.8813 0.0000
vt 0.2155 0.8813 0.0000
vt 0.0392 0.0392 0.0000
vt 0.1730 0.0392 0.0000
vt 0.1612 0.0510 0.0000
vt 0.0510 0.0510 0.0000
vt 0.1730 0.8950 0.0000
vt 0.1612 0.8832 0.0000
vt 0.0392 0.8950 0.0000
vt 0.0510 0.8832 0.0000
vt 0.0761 0.2765 0.0000
vt 0.0761 0.1663 0.0000
vt 0.0820 0.1663 0.0000
vt 0.0820 0.2765 0.0000
vt 0.1919 0.8813 0.0000
vt 0.1919 0.0492 0.0000
vt 0.1978 0.0492 0.0000
vt 0.1978 0.8813 0.0000
vt 0.0601 0.2765 0.0000
vt 0.0601 0.1663 0.0000
vt 0.0660 0.1663 0.0000
vt 0.0660 0.2765 0.0000
vt 0.3424 0.8813 0.0000
vt 0.3424 0.0492 0.0000
vt 0.3483 0.0492 0.0000
vt 0.3483 0.8813 0.0000
vt 0.7875 0.3360 0.0000
vt 0.7875 0.2021 0.0000
vt 0.9608 0.2021 0.0000
vt 0.9608 0.3360 0.0000
vt 0.7875 0.1897 0.0000
vt 0.7875 0.0558 0.0000
vt 0.9608 0.0558 0.0000
vt 0.9608 0.1897 0.0000


o 1B_Commercial_atrium
g 1B_Commercial_atrium
usemtl 1B_Commercial_atrium
s 16
f 1/1/1 2/2/1 3/3/1 
f 3/3/1 4/4/1 1/1/1 
s 64
f 5/5/2 6/6/2 7/7/2 
f 7/7/2 8/8/2 5/5/2 
s 4
f 9/9/3 10/10/3 11/11/3 
f 11/11/3 12/12/3 9/9/3 
f 13/13/4 14/14/4 15/15/4 
f 15/15/4 16/16/4 13/13/4 
s 8
f 17/17/1 18/18/1 14/19/1 
f 14/19/1 13/20/1 17/17/1 
s 16
f 18/21/5 19/22/5 15/23/5 
f 15/23/5 14/24/5 18/21/5 
s 32
f 19/25/2 20/26/2 16/27/2 
f 16/27/2 15/28/2 19/25/2 
s 64
f 20/29/6 17/30/6 13/31/6 
f 13/31/6 16/32/6 20/29/6 
s 4
f 21/33/4 22/34/4 23/35/4 
f 23/35/4 24/36/4 21/33/4 
s 8
f 25/37/1 26/38/1 22/39/1 
f 22/39/1 21/40/1 25/37/1 
s 16
f 26/41/5 27/42/5 23/43/5 
f 23/43/5 22/44/5 26/41/5 
s 32
f 27/45/2 28/46/2 24/47/2 
f 24/47/2 23/48/2 27/45/2 
s 64
f 28/49/6 25/50/6 21/51/6 
f 21/51/6 24/52/6 28/49/6 
s 4
f 29/53/7 30/54/7 31/55/7 
f 31/55/7 32/56/7 29/53/7 
f 33/57/8 34/58/8 35/59/8 
f 35/59/8 36/60/8 33/57/8 
s 8
f 37/61/9 33/62/9 36/63/9 
f 36/63/9 38/64/9 37/61/9 
s 16
f 38/65/10 36/66/10 35/67/10 
f 35/67/10 39/68/10 38/65/10 
s 32
f 39/69/11 35/70/11 34/71/11 
f 34/71/11 40/72/11 39/69/11 
s 64
f 40/73/12 34/74/12 33/75/12 
f 33/75/12 37/76/12 40/73/12 
s 4
f 41/77/8 42/78/8 43/79/8 
f 43/79/8 44/80/8 41/77/8 
s 8
f 45/81/9 41/82/9 44/83/9 
f 44/83/9 46/84/9 45/81/9 
s 16
f 46/85/10 44/86/10 43/87/10 
f 43/87/10 47/88/10 46/85/10 
s 32
f 47/89/11 43/90/11 42/91/11 
f 42/91/11 48/92/11 47/89/11 
s 64
f 48/93/12 42/94/12 41/95/12 
f 41/95/12 45/96/12 48/93/12 
s 4
f 49/97/3 50/98/3 51/99/3 
f 51/99/3 52/100/3 49/97/3 
s off
f 53/101/3 54/102/3 55/103/3 
f 55/103/3 56/104/3 53/101/3 
f 54/102/3 57/105/3 58/106/3 
f 58/106/3 55/103/3 54/102/3 
f 57/105/3 59/107/3 60/108/3 
f 60/108/3 58/106/3 57/105/3 
f 59/107/3 53/101/3 56/104/3 
f 56/104/3 60/108/3 59/107/3 
f 56/109/13 55/110/13 50/111/13 
f 50/111/13 49/112/13 56/109/13 
f 55/113/2 58/114/2 51/115/2 
f 51/115/2 50/116/2 55/113/2 
f 58/117/14 60/118/14 52/119/14 
f 52/119/14 51/120/14 58/117/14 
f 60/121/1 56/122/1 49/123/1 
f 49/123/1 52/124/1 60/121/1 
s 8
f 6/125/14 1/126/14 4/127/14 
f 4/127/14 7/128/14 6/125/14 
s 32
f 2/129/13 5/130/13 8/131/13 
f 8/131/13 3/132/13 2/129/13 


