


mtllib 1B office.mtl





v  -6.5442 0.0000 -15.7607
v  33.0333 0.0000 -15.7607
v  33.0333 70.0000 -15.7607
v  -6.5442 70.0000 -15.7607
v  33.0333 0.0000 -55.3382
v  33.0333 70.0000 -55.3382
v  -6.5442 0.0000 -55.3382
v  -6.5442 70.0000 -55.3382
v  -5.5442 68.0000 -16.7607
v  32.0333 68.0000 -16.7607
v  32.0333 68.0000 -54.3382
v  -5.5442 68.0000 -54.3382
v  32.0333 70.0000 -16.7607
v  -5.5442 70.0000 -16.7607
v  32.0333 70.0000 -54.3382
v  -5.5442 70.0000 -54.3382
v  1.9116 70.1362 -24.2165
v  24.5774 70.1362 -24.2165
v  24.5774 70.1362 -46.8823
v  1.9116 70.1362 -46.8823
v  1.9117 67.7253 -24.2165
v  24.5774 67.7253 -24.2165
v  24.5774 67.7253 -46.8823
v  1.9117 67.7253 -46.8823


vn 0.0000 0.0000 1.0000
vn 1.0000 0.0000 -0.0000
vn 0.0000 0.0000 -1.0000
vn -1.0000 0.0000 -0.0000
vn 0.0000 1.0000 -0.0000
vn 0.0000 -0.0000 1.0000
vn 1.0000 -0.0000 -0.0000
vn 0.0000 -0.0000 -1.0000
vn -1.0000 -0.0000 -0.0000


vt 0.5561 0.0392 0.0000
vt 0.7953 0.0392 0.0000
vt 0.7953 0.4623 0.0000
vt 0.5561 0.4623 0.0000
vt 0.4755 0.4799 0.0000
vt 0.4755 0.7191 0.0000
vt 0.0525 0.7191 0.0000
vt 0.0525 0.4799 0.0000
vt 0.2977 0.0392 0.0000
vt 0.5369 0.0392 0.0000
vt 0.5369 0.4623 0.0000
vt 0.2977 0.4623 0.0000
vt 0.0392 0.0392 0.0000
vt 0.2784 0.0392 0.0000
vt 0.2784 0.4623 0.0000
vt 0.0392 0.4623 0.0000
vt 0.7337 0.4967 0.0000
vt 0.9608 0.4967 0.0000
vt 0.9608 0.7238 0.0000
vt 0.7337 0.7238 0.0000
vt 0.4837 0.4967 0.0000
vt 0.7229 0.4967 0.0000
vt 0.7169 0.5027 0.0000
vt 0.4898 0.5027 0.0000
vt 0.7229 0.7359 0.0000
vt 0.7169 0.7298 0.0000
vt 0.4837 0.7359 0.0000
vt 0.4898 0.7298 0.0000
vt 0.7181 0.7587 0.0000
vt 0.4910 0.7587 0.0000
vt 0.4910 0.7466 0.0000
vt 0.7181 0.7466 0.0000
vt 0.7181 0.8025 0.0000
vt 0.4910 0.8025 0.0000
vt 0.4910 0.7904 0.0000
vt 0.7181 0.7904 0.0000
vt 0.7181 0.7806 0.0000
vt 0.4910 0.7806 0.0000
vt 0.4910 0.7685 0.0000
vt 0.7181 0.7685 0.0000
vt 0.7181 0.8244 0.0000
vt 0.4910 0.8244 0.0000
vt 0.4910 0.8123 0.0000
vt 0.7181 0.8123 0.0000
vt 0.0565 0.7995 0.0000
vt 0.1935 0.7995 0.0000
vt 0.1935 0.9365 0.0000
vt 0.0565 0.9365 0.0000
vt 0.1935 0.7951 0.0000
vt 0.0565 0.7951 0.0000
vt 0.0565 0.7806 0.0000
vt 0.1935 0.7806 0.0000
vt 0.1986 0.8831 0.0000
vt 0.1986 0.7461 0.0000
vt 0.2132 0.7461 0.0000
vt 0.2132 0.8831 0.0000
vt 0.1935 0.7762 0.0000
vt 0.0565 0.7762 0.0000
vt 0.0565 0.7616 0.0000
vt 0.1935 0.7616 0.0000
vt 0.1935 0.7572 0.0000
vt 0.0565 0.7572 0.0000
vt 0.0565 0.7427 0.0000
vt 0.1935 0.7427 0.0000


o 1B_office
g 1B_office
usemtl 1B_office
s 8
f 1/1/1 2/2/1 3/3/1 
f 3/3/1 4/4/1 1/1/1 
s 16
f 2/5/2 5/6/2 6/7/2 
f 6/7/2 3/8/2 2/5/2 
s 32
f 5/9/3 7/10/3 8/11/3 
f 8/11/3 6/12/3 5/9/3 
s 64
f 7/13/4 1/14/4 4/15/4 
f 4/15/4 8/16/4 7/13/4 
s 4
f 9/17/5 10/18/5 11/19/5 
f 11/19/5 12/20/5 9/17/5 
s off
f 4/21/5 3/22/5 13/23/5 
f 13/23/5 14/24/5 4/21/5 
f 3/22/5 6/25/5 15/26/5 
f 15/26/5 13/23/5 3/22/5 
f 6/25/5 8/27/5 16/28/5 
f 16/28/5 15/26/5 6/25/5 
f 8/27/5 4/21/5 14/24/5 
f 14/24/5 16/28/5 8/27/5 
f 14/29/3 13/30/3 10/31/3 
f 10/31/3 9/32/3 14/29/3 
f 13/33/4 15/34/4 11/35/4 
f 11/35/4 10/36/4 13/33/4 
f 15/37/1 16/38/1 12/39/1 
f 12/39/1 11/40/1 15/37/1 
f 16/41/2 14/42/2 9/43/2 
f 9/43/2 12/44/2 16/41/2 
s 4
f 17/45/5 18/46/5 19/47/5 
f 19/47/5 20/48/5 17/45/5 
s off
f 18/49/6 17/50/6 21/51/6 
f 21/51/6 22/52/6 18/49/6 
f 19/53/7 18/54/7 22/55/7 
f 22/55/7 23/56/7 19/53/7 
f 20/57/8 19/58/8 23/59/8 
f 23/59/8 24/60/8 20/57/8 
f 17/61/9 20/62/9 24/63/9 
f 24/63/9 21/64/9 17/61/9 


