


mtllib 1C hotel.mtl





v  -82.4634 18.0626 -64.4691
v  -120.3177 18.0626 -64.4830
v  -120.3177 18.0626 -17.7234
v  -82.4634 18.0626 -17.7234
v  -165.1148 19.0626 -63.5363
v  -121.3177 19.0626 -63.5363
v  -120.3177 19.0626 -64.4830
v  -164.1148 19.0626 -64.4830
v  -121.3177 19.0626 -16.7767
v  -120.3177 19.0626 -17.7234
v  -81.4634 19.0626 -16.7767
v  -82.4634 19.0626 -17.7234
v  -81.4634 19.0626 -63.5363
v  -82.4634 19.0626 -63.5363
v  -81.4634 19.0626 -92.9610
v  -82.4634 19.0626 -92.0143
v  -121.3177 19.0626 -92.9610
v  -121.3177 19.0626 -92.0143
v  -165.1148 19.0626 -92.9610
v  -164.1148 19.0626 -92.0143
v  -164.1148 18.0626 -64.4830
v  -82.4634 18.0626 -63.5363
v  -82.4634 18.0626 -92.0143
v  -121.3177 18.0626 -92.0143
v  -164.1148 18.0626 -92.0143
v  -86.1629 17.7593 -75.6439
v  -86.1629 101.7024 -75.6439
v  -149.2794 101.7024 -75.6439
v  -149.2794 17.7593 -75.6439
v  -149.2794 17.7593 -92.9634
v  -149.2794 101.7024 -92.9634
v  -86.1630 101.7024 -92.9634
v  -86.1630 17.7593 -92.9634
v  -86.1629 98.0942 -75.6439
v  -86.1630 98.0942 -92.9634
v  -149.2794 98.0942 -92.9634
v  -149.2794 98.0942 -75.6439
v  -121.3177 0.0000 -63.5363
v  -165.1148 0.0000 -63.5363
v  -81.4634 0.0000 -63.5363
v  -81.4634 0.0000 -92.9610
v  -121.3177 0.0000 -92.9610
v  -165.1148 0.0000 -92.9610
v  -81.4634 0.0000 -16.7767
v  -121.3177 0.0000 -16.7767
v  -82.4634 18.0626 -64.4695
v  -108.8756 20.8587 -52.5664
v  -93.9055 20.8587 -52.5641
v  -93.9055 17.6497 -52.5641
v  -108.8756 17.6497 -52.5664
v  -108.8756 20.8587 -34.2605
v  -108.8756 17.6497 -34.2605
v  -93.9055 20.8587 -34.2605
v  -93.9055 17.6497 -34.2605
v  -92.6744 21.4368 -54.0538
v  -110.1067 21.4368 -54.0565
v  -110.1067 21.4368 -32.7398
v  -92.6744 21.4368 -32.7398
v  -92.6744 20.7220 -54.0538
v  -110.1067 20.7220 -54.0565
v  -110.1067 20.7220 -32.7398
v  -92.6744 20.7220 -32.7398


vn 0.0000 1.0000 -0.0000
vn 0.0000 1.0000 0.0000
vn -0.0000 1.0000 0.0000
vn 0.0000 0.0000 -1.0000
vn 1.0000 0.0000 -0.0000
vn -1.0000 0.0000 -0.0000
vn 0.0000 0.0000 1.0000
vn 0.0000 -0.0000 1.0000
vn 0.0000 -1.0000 -0.0000
vn 0.0002 0.0000 -1.0000
vn -1.0000 -0.0000 -0.0000


vt 0.6050 0.3733 0.0000
vt 0.6050 0.5217 0.0000
vt 0.4113 0.5217 0.0000
vt 0.4113 0.3733 0.0000
vt 0.6263 0.6145 0.0000
vt 0.6263 0.7863 0.0000
vt 0.6223 0.7902 0.0000
vt 0.6223 0.6184 0.0000
vt 0.8200 0.7863 0.0000
vt 0.8160 0.7902 0.0000
vt 0.8200 0.9426 0.0000
vt 0.8160 0.9387 0.0000
vt 0.6263 0.9426 0.0000
vt 0.6263 0.9387 0.0000
vt 0.5044 0.9426 0.0000
vt 0.5083 0.9387 0.0000
vt 0.5044 0.7863 0.0000
vt 0.5083 0.7863 0.0000
vt 0.5044 0.6145 0.0000
vt 0.5083 0.6184 0.0000
vt 0.8120 0.7840 0.0000
vt 0.6403 0.7840 0.0000
vt 0.6403 0.7801 0.0000
vt 0.8120 0.7801 0.0000
vt 0.6403 0.6058 0.0000
vt 0.8340 0.6058 0.0000
vt 0.8340 0.6098 0.0000
vt 0.6403 0.6098 0.0000
vt 0.7887 0.6254 0.0000
vt 0.6403 0.6254 0.0000
vt 0.6403 0.6215 0.0000
vt 0.7887 0.6215 0.0000
vt 0.8341 0.6348 0.0000
vt 0.8341 0.8246 0.0000
vt 0.8302 0.8246 0.0000
vt 0.8302 0.6348 0.0000
vt 0.8341 0.9426 0.0000
vt 0.8302 0.9426 0.0000
vt 0.8441 0.9426 0.0000
vt 0.8441 0.7902 0.0000
vt 0.8481 0.7902 0.0000
vt 0.8481 0.9426 0.0000
vt 0.8441 0.6223 0.0000
vt 0.8481 0.6223 0.0000
vt 0.7543 0.7701 0.0000
vt 0.6403 0.7701 0.0000
vt 0.6403 0.7661 0.0000
vt 0.7543 0.7661 0.0000
vt 0.6333 0.0392 0.0000
vt 0.6333 0.3684 0.0000
vt 0.3858 0.3684 0.0000
vt 0.3858 0.0392 0.0000
vt 0.0392 0.0392 0.0000
vt 0.1109 0.0392 0.0000
vt 0.1109 0.3684 0.0000
vt 0.0392 0.3684 0.0000
vt 0.3728 0.0392 0.0000
vt 0.3728 0.3684 0.0000
vt 0.1252 0.3684 0.0000
vt 0.1252 0.0392 0.0000
vt 0.0488 0.4527 0.0000
vt 0.0488 0.3810 0.0000
vt 0.3780 0.3810 0.0000
vt 0.3780 0.4527 0.0000
vt 0.7674 0.2246 0.0000
vt 0.8391 0.2246 0.0000
vt 0.8391 0.4722 0.0000
vt 0.7674 0.4722 0.0000
vt 0.4030 0.6620 0.0000
vt 0.4030 0.7367 0.0000
vt 0.2312 0.7367 0.0000
vt 0.2312 0.6620 0.0000
vt 0.1408 0.7463 0.0000
vt 0.1408 0.6244 0.0000
vt 0.2156 0.6244 0.0000
vt 0.2156 0.7463 0.0000
vt 0.0561 0.7837 0.0000
vt 0.1309 0.7837 0.0000
vt 0.1309 0.9400 0.0000
vt 0.0561 0.9400 0.0000
vt 0.0561 0.6119 0.0000
vt 0.1309 0.6119 0.0000
vt 0.2156 0.9400 0.0000
vt 0.1408 0.9400 0.0000
vt 0.4678 0.9400 0.0000
vt 0.3931 0.9400 0.0000
vt 0.3931 0.7463 0.0000
vt 0.4678 0.7463 0.0000
vt 0.2255 0.7463 0.0000
vt 0.3818 0.7463 0.0000
vt 0.3818 0.9400 0.0000
vt 0.2255 0.9400 0.0000
vt 0.8467 0.3061 0.0000
vt 0.9608 0.3100 0.0000
vt 0.9608 0.4779 0.0000
vt 0.8467 0.4779 0.0000
vt 0.8467 0.1576 0.0000
vt 0.9608 0.1576 0.0000
vt 0.1465 0.5340 0.0000
vt 0.2684 0.5340 0.0000
vt 0.2684 0.6087 0.0000
vt 0.1465 0.6087 0.0000
vt 0.4665 0.5716 0.0000
vt 0.4665 0.6464 0.0000
vt 0.3102 0.6464 0.0000
vt 0.3102 0.5716 0.0000
vt 0.7556 0.2444 0.0000
vt 0.6969 0.2444 0.0000
vt 0.6969 0.2318 0.0000
vt 0.7556 0.2318 0.0000
vt 0.6707 0.3964 0.0000
vt 0.6707 0.4722 0.0000
vt 0.6582 0.4722 0.0000
vt 0.6582 0.3964 0.0000
vt 0.8349 0.2147 0.0000
vt 0.7762 0.2147 0.0000
vt 0.7762 0.2021 0.0000
vt 0.8349 0.2021 0.0000
vt 0.6812 0.2615 0.0000
vt 0.7571 0.2615 0.0000
vt 0.7571 0.2741 0.0000
vt 0.6812 0.2741 0.0000
vt 0.6788 0.2849 0.0000
vt 0.7471 0.2848 0.0000
vt 0.7471 0.3731 0.0000
vt 0.6788 0.3731 0.0000
vt 0.6873 0.2515 0.0000
vt 0.7556 0.2515 0.0000
vt 0.7556 0.2543 0.0000
vt 0.6873 0.2543 0.0000
vt 0.7542 0.3731 0.0000
vt 0.7542 0.2848 0.0000
vt 0.7571 0.2848 0.0000
vt 0.7571 0.3731 0.0000
vt 0.6481 0.4722 0.0000
vt 0.6481 0.4038 0.0000
vt 0.6509 0.4038 0.0000
vt 0.6509 0.4722 0.0000
vt 0.6835 0.3839 0.0000
vt 0.6835 0.4722 0.0000
vt 0.6807 0.4722 0.0000
vt 0.6807 0.3839 0.0000
vt 0.7599 0.4722 0.0000
vt 0.6915 0.4722 0.0000
vt 0.6915 0.3839 0.0000
vt 0.7599 0.3839 0.0000


o 1C_hotel
g 1C_hotel
usemtl 1C_hotel
s off
f 1/1/1 2/2/1 3/3/1 
f 3/3/1 4/4/1 1/1/1 
f 5/5/1 6/6/1 7/7/1 
f 7/7/1 8/8/1 5/5/1 
f 6/6/1 9/9/1 10/10/1 
f 10/10/1 7/7/1 6/6/1 
f 9/9/1 11/11/1 12/12/1 
f 12/12/1 10/10/1 9/9/1 
f 11/11/1 13/13/1 14/14/1 
f 14/14/1 12/12/1 11/11/1 
f 13/13/2 15/15/2 16/16/2 
f 16/16/2 14/14/2 13/13/2 
f 15/15/1 17/17/1 18/18/1 
f 18/18/1 16/16/1 15/15/1 
f 17/17/1 19/19/1 20/20/1 
f 20/20/1 18/18/1 17/17/1 
f 19/19/2 5/5/2 8/8/2 
f 8/8/3 20/20/3 19/19/3 
f 8/21/4 7/22/4 2/23/4 
f 2/23/4 21/24/4 8/21/4 
f 7/25/5 10/26/5 3/27/5 
f 3/27/5 2/28/5 7/25/5 
f 10/29/4 12/30/4 4/31/4 
f 4/31/4 3/32/4 10/29/4 
f 12/33/6 14/34/6 22/35/6 
f 22/35/6 4/36/6 12/33/6 
f 14/34/6 16/37/6 23/38/6 
f 23/38/6 22/35/6 14/34/6 
f 16/39/7 18/40/7 24/41/7 
f 24/41/7 23/42/7 16/39/7 
f 18/40/7 20/43/7 25/44/7 
f 25/44/7 24/41/7 18/40/7 
f 20/45/5 8/46/5 21/47/5 
f 21/47/5 25/48/5 20/45/5 
s 8
f 26/49/8 27/50/8 28/51/8 
f 28/51/8 29/52/8 26/49/8 
s 64
f 30/53/6 29/54/6 28/55/6 
f 28/55/6 31/56/6 30/53/6 
s 32
f 30/57/4 31/58/4 32/59/4 
f 32/59/4 33/60/4 30/57/4 
s off
f 32/61/5 27/62/5 26/63/5 
f 26/63/5 33/64/5 32/61/5 
s 4
f 34/65/1 35/66/1 36/67/1 
f 36/67/1 37/68/1 34/65/1 
s 8
f 38/69/7 6/70/7 5/71/7 
f 5/71/7 39/72/7 38/69/7 
s 16
f 40/73/5 41/74/5 15/75/5 
f 15/75/5 13/76/5 40/73/5 
s 32
f 42/77/4 17/78/4 15/79/4 
f 15/79/4 41/80/4 42/77/4 
f 43/81/4 19/82/4 17/78/4 
f 17/78/4 42/77/4 43/81/4 
s off
f 40/73/5 13/76/5 11/83/5 
f 11/83/5 44/84/5 40/73/5 
f 6/85/6 38/86/6 45/87/6 
f 45/87/6 9/88/6 6/85/6 
f 38/89/9 40/90/9 44/91/9 
f 44/91/9 45/92/9 38/89/9 
s 4
f 2/93/3 24/94/3 25/95/2 
f 25/95/2 21/96/2 2/93/3 
f 46/97/3 23/98/2 24/94/3 
f 24/94/3 2/93/3 46/97/3 
s 64
f 43/99/6 39/100/6 5/101/6 
f 5/101/6 19/102/6 43/99/6 
s 8
f 44/103/7 11/104/7 9/105/7 
f 9/105/7 45/106/7 44/103/7 
s off
f 47/107/10 48/108/10 49/109/10 
f 49/109/10 50/110/10 47/107/10 
f 51/111/6 47/112/6 50/113/6 
f 50/113/11 52/114/11 51/111/11 
f 53/115/7 51/116/7 52/117/7 
f 52/117/7 54/118/7 53/115/7 
f 48/119/5 53/120/5 54/121/5 
f 54/121/5 49/122/5 48/119/5 
f 55/123/1 56/124/1 57/125/1 
f 57/125/1 58/126/1 55/123/1 
f 56/127/10 55/128/10 59/129/10 
f 59/129/10 60/130/10 56/127/10 
f 57/131/6 56/132/6 60/133/6 
f 60/133/11 61/134/11 57/131/11 
f 58/135/7 57/136/7 61/137/7 
f 61/137/7 62/138/7 58/135/7 
f 55/139/5 58/140/5 62/141/5 
f 62/141/5 59/142/5 55/139/5 
f 62/143/9 61/144/9 60/145/9 
f 60/145/9 59/146/9 62/143/9 


