


mtllib 4E1.mtl





v  -66.6368 13.2047 124.6796
v  -52.4916 13.2047 124.6796
v  -52.4916 13.2047 115.9533
v  -66.6368 13.2047 115.9533
v  -66.6368 12.5943 124.6796
v  -52.4916 12.5943 124.6796
v  -52.4916 12.5943 115.9533
v  -66.6368 12.5943 115.9533
v  -42.4510 12.0000 132.6128
v  -76.6775 12.0000 132.6128
v  -76.6775 4.5777 132.6128
v  -42.4510 4.5777 132.6128
v  -42.4510 12.0000 108.0201
v  -42.4510 4.5777 108.0201
v  -76.6775 12.0000 108.0201
v  -76.6775 4.5777 108.0201
v  -75.1034 4.5777 130.6128
v  -44.0251 4.5777 130.6128
v  -75.1034 4.5777 110.0201
v  -44.0251 4.5777 110.0201
v  -76.6775 10.9745 108.0201
v  -76.6775 10.9745 132.6128
v  -42.4510 10.9745 132.6128
v  -42.4510 10.9745 108.0201
v  -44.0251 -0.0000 130.6128
v  -75.1034 -0.0000 130.6128
v  -44.0251 -0.0000 110.0201
v  -75.1034 -0.0000 110.0201
v  -42.8516 -0.0000 109.4405
v  -42.8516 4.9745 109.4405
v  -43.5714 4.9745 109.4405
v  -43.5714 -0.0000 109.4405
v  -42.8516 -0.0000 108.7001
v  -42.8516 4.9745 108.7001
v  -43.5714 -0.0000 108.7001
v  -43.5714 4.9745 108.7001
v  -42.8516 -0.0000 117.4607
v  -42.8516 4.9745 117.4607
v  -43.5714 4.9745 117.4607
v  -43.5714 -0.0000 117.4607
v  -42.8516 -0.0000 116.7202
v  -42.8516 4.9745 116.7202
v  -43.5714 -0.0000 116.7202
v  -43.5714 4.9745 116.7202
v  -42.8516 -0.0000 124.6253
v  -42.8516 4.9745 124.6253
v  -43.5714 4.9745 124.6253
v  -43.5714 -0.0000 124.6253
v  -42.8516 -0.0000 123.8848
v  -42.8516 4.9745 123.8848
v  -43.5714 -0.0000 123.8848
v  -43.5714 4.9745 123.8848
v  -42.8516 -0.0000 131.9975
v  -42.8516 4.9745 131.9975
v  -43.5714 4.9745 131.9975
v  -43.5714 -0.0000 131.9975
v  -42.8516 -0.0000 131.2570
v  -42.8516 4.9745 131.2570
v  -43.5714 -0.0000 131.2570
v  -43.5714 4.9745 131.2570
v  -75.6073 -0.0000 117.4607
v  -75.6073 4.9745 117.4607
v  -76.3272 4.9745 117.4607
v  -76.3272 -0.0000 117.4607
v  -75.6073 -0.0000 116.7202
v  -75.6073 4.9745 116.7202
v  -76.3272 -0.0000 116.7202
v  -76.3272 4.9745 116.7202
v  -75.6073 -0.0000 124.6253
v  -75.6073 4.9745 124.6253
v  -76.3272 4.9745 124.6253
v  -76.3272 -0.0000 124.6253
v  -75.6073 -0.0000 123.8848
v  -75.6073 4.9745 123.8848
v  -76.3272 -0.0000 123.8848
v  -76.3272 4.9745 123.8848
v  -51.2873 -0.0000 131.9975
v  -51.2873 4.9745 131.9975
v  -52.0071 4.9745 131.9975
v  -52.0071 -0.0000 131.9975
v  -51.2873 -0.0000 131.2570
v  -51.2873 4.9745 131.2570
v  -52.0071 -0.0000 131.2570
v  -52.0071 4.9745 131.2570
v  -59.7229 -0.0000 131.9975
v  -59.7229 4.9745 131.9975
v  -60.4428 4.9745 131.9975
v  -60.4428 -0.0000 131.9975
v  -59.7229 -0.0000 131.2570
v  -59.7229 4.9745 131.2570
v  -60.4428 -0.0000 131.2570
v  -60.4428 4.9745 131.2570
v  -68.1586 -0.0000 131.9975
v  -68.1586 4.9745 131.9975
v  -68.8785 4.9745 131.9975
v  -68.8785 -0.0000 131.9975
v  -68.1586 -0.0000 131.2570
v  -68.1586 4.9745 131.2570
v  -68.8785 -0.0000 131.2570
v  -68.8785 4.9745 131.2570
v  -75.5364 -0.0000 131.9975
v  -75.5364 4.9745 131.9975
v  -76.2563 4.9745 131.9975
v  -76.2563 -0.0000 131.9975
v  -75.5364 -0.0000 131.2570
v  -75.5364 4.9745 131.2570
v  -76.2563 -0.0000 131.2570
v  -76.2563 4.9745 131.2570
v  -51.2873 -0.0000 109.4309
v  -51.2873 4.9745 109.4309
v  -52.0071 4.9745 109.4309
v  -52.0071 -0.0000 109.4309
v  -51.2873 -0.0000 108.6904
v  -51.2873 4.9745 108.6904
v  -52.0071 -0.0000 108.6904
v  -52.0071 4.9745 108.6904
v  -59.7229 -0.0000 109.4309
v  -59.7229 4.9745 109.4309
v  -60.4428 4.9745 109.4309
v  -60.4428 -0.0000 109.4309
v  -59.7229 -0.0000 108.6904
v  -59.7229 4.9745 108.6904
v  -60.4428 -0.0000 108.6904
v  -60.4428 4.9745 108.6904
v  -68.1586 -0.0000 109.4309
v  -68.1586 4.9745 109.4309
v  -68.8785 4.9745 109.4309
v  -68.8785 -0.0000 109.4309
v  -68.1586 -0.0000 108.6904
v  -68.1586 4.9745 108.6904
v  -68.8785 -0.0000 108.6904
v  -68.8785 4.9745 108.6904
v  -75.5364 -0.0000 109.4309
v  -75.5364 4.9745 109.4309
v  -76.2563 4.9745 109.4309
v  -76.2563 -0.0000 109.4309
v  -75.5364 -0.0000 108.6904
v  -75.5364 4.9745 108.6904
v  -76.2563 -0.0000 108.6904
v  -76.2563 4.9745 108.6904
v  -66.2978 12.7300 124.3691
v  -52.8306 12.7300 124.3691
v  -52.8306 12.7300 116.2638
v  -66.2978 12.7300 116.2638
v  -66.2978 10.8502 124.3691
v  -52.8306 10.8502 124.3691
v  -52.8306 10.8502 116.2638
v  -66.2978 10.8502 116.2638


vn 0.0000 1.0000 -0.0000
vn 0.0000 -0.0000 1.0000
vn 1.0000 -0.0000 -0.0000
vn 0.0000 -0.0000 -1.0000
vn -1.0000 -0.0000 -0.0000
vn 0.0000 0.0000 1.0000
vn 1.0000 0.0000 -0.0000
vn 0.0000 0.0000 -1.0000
vn -1.0000 0.0000 -0.0000
vn 0.0000 -1.0000 -0.0000
vn -0.0000 -1.0000 0.0000
vn 0.0000 -1.0000 0.0000
vn -0.0000 1.0000 0.0000


vt 0.6037 0.4137 0.0000
vt 0.7325 0.4137 0.0000
vt 0.7325 0.4865 0.0000
vt 0.6037 0.4865 0.0000
vt 0.7325 0.3929 0.0000
vt 0.6037 0.3929 0.0000
vt 0.6037 0.3787 0.0000
vt 0.7325 0.3787 0.0000
vt 0.6765 0.5216 0.0000
vt 0.6037 0.5216 0.0000
vt 0.6037 0.5075 0.0000
vt 0.6765 0.5075 0.0000
vt 0.7325 0.4103 0.0000
vt 0.6037 0.4103 0.0000
vt 0.6037 0.3962 0.0000
vt 0.7325 0.3962 0.0000
vt 0.6765 0.5041 0.0000
vt 0.6037 0.5041 0.0000
vt 0.6037 0.4900 0.0000
vt 0.6765 0.4900 0.0000
vt 0.3508 0.2112 0.0000
vt 0.0392 0.2112 0.0000
vt 0.0392 0.0392 0.0000
vt 0.3508 0.0392 0.0000
vt 0.3657 0.3811 0.0000
vt 0.5709 0.3811 0.0000
vt 0.5709 0.5531 0.0000
vt 0.3657 0.5531 0.0000
vt 0.3508 0.3963 0.0000
vt 0.0392 0.3963 0.0000
vt 0.0392 0.2243 0.0000
vt 0.3508 0.2243 0.0000
vt 0.2444 0.5814 0.0000
vt 0.0392 0.5814 0.0000
vt 0.0392 0.4093 0.0000
vt 0.2444 0.4093 0.0000
vt 0.3657 0.3611 0.0000
vt 0.3657 0.0495 0.0000
vt 0.3823 0.0638 0.0000
vt 0.3823 0.3468 0.0000
vt 0.5709 0.0495 0.0000
vt 0.5542 0.0638 0.0000
vt 0.5709 0.3611 0.0000
vt 0.5542 0.3468 0.0000
vt 0.0392 0.6037 0.0000
vt 0.2444 0.6037 0.0000
vt 0.2444 0.9153 0.0000
vt 0.0392 0.9153 0.0000
vt 0.5594 0.6791 0.0000
vt 0.5594 0.7852 0.0000
vt 0.2765 0.7852 0.0000
vt 0.2765 0.6791 0.0000
vt 0.6348 0.7954 0.0000
vt 0.6348 0.9015 0.0000
vt 0.4629 0.9015 0.0000
vt 0.4629 0.7954 0.0000
vt 0.5594 0.5628 0.0000
vt 0.5594 0.6689 0.0000
vt 0.2765 0.6689 0.0000
vt 0.2765 0.5628 0.0000
vt 0.2765 0.9015 0.0000
vt 0.2765 0.7954 0.0000
vt 0.4483 0.7954 0.0000
vt 0.4483 0.9015 0.0000
vt 0.6169 0.2867 0.0000
vt 0.6169 0.1714 0.0000
vt 0.6235 0.1714 0.0000
vt 0.6235 0.2867 0.0000
vt 0.6099 0.0474 0.0000
vt 0.6099 0.1627 0.0000
vt 0.6037 0.1627 0.0000
vt 0.6037 0.0474 0.0000
vt 0.8483 0.3271 0.0000
vt 0.7330 0.3271 0.0000
vt 0.7330 0.3205 0.0000
vt 0.8483 0.3205 0.0000
vt 0.6099 0.1714 0.0000
vt 0.6099 0.2867 0.0000
vt 0.6037 0.2867 0.0000
vt 0.6037 0.1714 0.0000
vt 0.6301 0.1627 0.0000
vt 0.6301 0.0474 0.0000
vt 0.6366 0.0474 0.0000
vt 0.6366 0.1627 0.0000
vt 0.6363 0.1714 0.0000
vt 0.6363 0.2867 0.0000
vt 0.6301 0.2867 0.0000
vt 0.6301 0.1714 0.0000
vt 0.6090 0.3205 0.0000
vt 0.7243 0.3205 0.0000
vt 0.7243 0.3271 0.0000
vt 0.6090 0.3271 0.0000
vt 0.6495 0.1714 0.0000
vt 0.6495 0.2867 0.0000
vt 0.6433 0.2867 0.0000
vt 0.6433 0.1714 0.0000
vt 0.6565 0.1627 0.0000
vt 0.6565 0.0474 0.0000
vt 0.6630 0.0474 0.0000
vt 0.6630 0.1627 0.0000
vt 0.6627 0.1714 0.0000
vt 0.6627 0.2867 0.0000
vt 0.6565 0.2867 0.0000
vt 0.6565 0.1714 0.0000
vt 0.8483 0.3139 0.0000
vt 0.7330 0.3139 0.0000
vt 0.7330 0.3074 0.0000
vt 0.8483 0.3074 0.0000
vt 0.6759 0.1714 0.0000
vt 0.6759 0.2867 0.0000
vt 0.6697 0.2867 0.0000
vt 0.6697 0.1714 0.0000
vt 0.6829 0.1627 0.0000
vt 0.6829 0.0474 0.0000
vt 0.6894 0.0474 0.0000
vt 0.6894 0.1627 0.0000
vt 0.6891 0.1714 0.0000
vt 0.6891 0.2867 0.0000
vt 0.6829 0.2867 0.0000
vt 0.6829 0.1714 0.0000
vt 0.9138 0.1714 0.0000
vt 0.9138 0.2867 0.0000
vt 0.9072 0.2867 0.0000
vt 0.9072 0.1714 0.0000
vt 0.7023 0.1714 0.0000
vt 0.7023 0.2867 0.0000
vt 0.6961 0.2867 0.0000
vt 0.6961 0.1714 0.0000
vt 0.7093 0.1627 0.0000
vt 0.7093 0.0474 0.0000
vt 0.7158 0.0474 0.0000
vt 0.7158 0.1627 0.0000
vt 0.7155 0.1714 0.0000
vt 0.7155 0.2867 0.0000
vt 0.7093 0.2867 0.0000
vt 0.7093 0.1714 0.0000
vt 0.9138 0.0474 0.0000
vt 0.9138 0.1627 0.0000
vt 0.9072 0.1627 0.0000
vt 0.9072 0.0474 0.0000
vt 0.7286 0.1714 0.0000
vt 0.7286 0.2867 0.0000
vt 0.7225 0.2867 0.0000
vt 0.7225 0.1714 0.0000
vt 0.7243 0.3007 0.0000
vt 0.6090 0.3007 0.0000
vt 0.6090 0.2942 0.0000
vt 0.7243 0.2942 0.0000
vt 0.7418 0.0474 0.0000
vt 0.7418 0.1627 0.0000
vt 0.7357 0.1627 0.0000
vt 0.7357 0.0474 0.0000
vt 0.9006 0.1714 0.0000
vt 0.9006 0.2867 0.0000
vt 0.8940 0.2867 0.0000
vt 0.8940 0.1714 0.0000
vt 0.7550 0.0474 0.0000
vt 0.7550 0.1627 0.0000
vt 0.7489 0.1627 0.0000
vt 0.7489 0.0474 0.0000
vt 0.7554 0.1714 0.0000
vt 0.7554 0.2867 0.0000
vt 0.7489 0.2867 0.0000
vt 0.7489 0.1714 0.0000
vt 0.7682 0.0474 0.0000
vt 0.7682 0.1627 0.0000
vt 0.7621 0.1627 0.0000
vt 0.7621 0.0474 0.0000
vt 0.8874 0.1714 0.0000
vt 0.8874 0.2867 0.0000
vt 0.8808 0.2867 0.0000
vt 0.8808 0.1714 0.0000
vt 0.7814 0.0474 0.0000
vt 0.7814 0.1627 0.0000
vt 0.7753 0.1627 0.0000
vt 0.7753 0.0474 0.0000
vt 0.7818 0.1714 0.0000
vt 0.7818 0.2867 0.0000
vt 0.7753 0.2867 0.0000
vt 0.7753 0.1714 0.0000
vt 0.7946 0.0474 0.0000
vt 0.7946 0.1627 0.0000
vt 0.7885 0.1627 0.0000
vt 0.7885 0.0474 0.0000
vt 0.8874 0.0474 0.0000
vt 0.8874 0.1627 0.0000
vt 0.8808 0.1627 0.0000
vt 0.8808 0.0474 0.0000
vt 0.8078 0.0474 0.0000
vt 0.8078 0.1627 0.0000
vt 0.8016 0.1627 0.0000
vt 0.8016 0.0474 0.0000
vt 0.8082 0.1714 0.0000
vt 0.8082 0.2867 0.0000
vt 0.8016 0.2867 0.0000
vt 0.8016 0.1714 0.0000
vt 0.8210 0.0474 0.0000
vt 0.8210 0.1627 0.0000
vt 0.8148 0.1627 0.0000
vt 0.8148 0.0474 0.0000
vt 0.8742 0.1714 0.0000
vt 0.8742 0.2867 0.0000
vt 0.8676 0.2867 0.0000
vt 0.8676 0.1714 0.0000
vt 0.8342 0.0474 0.0000
vt 0.8342 0.1627 0.0000
vt 0.8280 0.1627 0.0000
vt 0.8280 0.0474 0.0000
vt 0.8346 0.1714 0.0000
vt 0.8346 0.2867 0.0000
vt 0.8280 0.2867 0.0000
vt 0.8280 0.1714 0.0000
vt 0.8474 0.0474 0.0000
vt 0.8474 0.1627 0.0000
vt 0.8412 0.1627 0.0000
vt 0.8412 0.0474 0.0000
vt 0.8483 0.3403 0.0000
vt 0.7330 0.3403 0.0000
vt 0.7330 0.3337 0.0000
vt 0.8483 0.3337 0.0000
vt 0.8606 0.0474 0.0000
vt 0.8606 0.1627 0.0000
vt 0.8544 0.1627 0.0000
vt 0.8544 0.0474 0.0000
vt 0.8610 0.1714 0.0000
vt 0.8610 0.2867 0.0000
vt 0.8544 0.2867 0.0000
vt 0.8544 0.1714 0.0000
vt 0.8474 0.1714 0.0000
vt 0.8474 0.2867 0.0000
vt 0.8412 0.2867 0.0000
vt 0.8412 0.1714 0.0000
vt 0.8742 0.0474 0.0000
vt 0.8742 0.1627 0.0000
vt 0.8676 0.1627 0.0000
vt 0.8676 0.0474 0.0000
vt 0.8210 0.1714 0.0000
vt 0.8210 0.2867 0.0000
vt 0.8148 0.2867 0.0000
vt 0.8148 0.1714 0.0000
vt 0.7885 0.2867 0.0000
vt 0.7885 0.1714 0.0000
vt 0.7950 0.1714 0.0000
vt 0.7950 0.2867 0.0000
vt 0.7682 0.1714 0.0000
vt 0.7682 0.2867 0.0000
vt 0.7621 0.2867 0.0000
vt 0.7621 0.1714 0.0000
vt 0.9006 0.0474 0.0000
vt 0.9006 0.1627 0.0000
vt 0.8940 0.1627 0.0000
vt 0.8940 0.0474 0.0000
vt 0.7418 0.1714 0.0000
vt 0.7418 0.2867 0.0000
vt 0.7357 0.2867 0.0000
vt 0.7357 0.1714 0.0000
vt 0.7225 0.1627 0.0000
vt 0.7225 0.0474 0.0000
vt 0.7290 0.0474 0.0000
vt 0.7290 0.1627 0.0000
vt 0.7023 0.0474 0.0000
vt 0.7023 0.1627 0.0000
vt 0.6961 0.1627 0.0000
vt 0.6961 0.0474 0.0000
vt 0.6090 0.3074 0.0000
vt 0.7243 0.3074 0.0000
vt 0.7243 0.3139 0.0000
vt 0.6090 0.3139 0.0000
vt 0.6759 0.0474 0.0000
vt 0.6759 0.1627 0.0000
vt 0.6697 0.1627 0.0000
vt 0.6697 0.0474 0.0000
vt 0.6433 0.1627 0.0000
vt 0.6433 0.0474 0.0000
vt 0.6498 0.0474 0.0000
vt 0.6498 0.1627 0.0000
vt 0.6231 0.0474 0.0000
vt 0.6231 0.1627 0.0000
vt 0.6169 0.1627 0.0000
vt 0.6169 0.0474 0.0000
vt 0.6090 0.3337 0.0000
vt 0.7243 0.3337 0.0000
vt 0.7243 0.3403 0.0000
vt 0.6090 0.3403 0.0000
vt 0.7330 0.2942 0.0000
vt 0.8483 0.2942 0.0000
vt 0.8483 0.3003 0.0000
vt 0.7330 0.3003 0.0000
vt 0.6376 0.5702 0.0000
vt 0.6376 0.6928 0.0000
vt 0.5700 0.6928 0.0000
vt 0.5700 0.5702 0.0000
vt 0.3991 0.9608 0.0000
vt 0.2765 0.9608 0.0000
vt 0.2765 0.9172 0.0000
vt 0.3991 0.9172 0.0000
vt 0.5995 0.9172 0.0000
vt 0.6672 0.9172 0.0000
vt 0.6672 0.9608 0.0000
vt 0.5995 0.9608 0.0000
vt 0.5855 0.9608 0.0000
vt 0.4629 0.9608 0.0000
vt 0.4629 0.9172 0.0000
vt 0.5855 0.9172 0.0000
vt 0.5700 0.7744 0.0000
vt 0.5700 0.7068 0.0000
vt 0.6135 0.7068 0.0000
vt 0.6135 0.7744 0.0000


o 4E1
g 4E1
usemtl 4E1
s 4
f 1/1/1 2/2/1 3/3/1 
f 3/3/1 4/4/1 1/1/1 
s off
f 2/5/2 1/6/2 5/7/2 
f 5/7/2 6/8/2 2/5/2 
f 3/9/3 2/10/3 6/11/3 
f 6/11/3 7/12/3 3/9/3 
f 4/13/4 3/14/4 7/15/4 
f 7/15/4 8/16/4 4/13/4 
f 1/17/5 4/18/5 8/19/5 
f 8/19/5 5/20/5 1/17/5 
s 8
f 9/21/6 10/22/6 11/23/6 
f 11/23/6 12/24/6 9/21/6 
s 16
f 13/25/7 9/26/7 12/27/7 
f 12/27/7 14/28/7 13/25/7 
s 32
f 15/29/8 13/30/8 14/31/8 
f 14/31/8 16/32/8 15/29/8 
s 64
f 10/33/9 15/34/9 16/35/9 
f 16/35/9 11/36/9 10/33/9 
s off
f 12/37/10 11/38/10 17/39/10 
f 17/39/10 18/40/10 12/37/10 
f 11/38/11 16/41/11 19/42/11 
f 19/42/12 17/39/12 11/38/12 
f 16/41/10 14/43/10 20/44/10 
f 20/44/10 19/42/10 16/41/10 
f 14/43/11 12/37/11 18/40/11 
f 18/40/12 20/44/12 14/43/12 
s 4
f 21/45/13 22/46/13 23/47/13 
f 23/47/13 24/48/13 21/45/13 
s 8
f 25/49/6 18/50/6 17/51/6 
f 17/51/6 26/52/6 25/49/6 
s 16
f 27/53/7 20/54/7 18/55/7 
f 18/55/7 25/56/7 27/53/7 
s 32
f 28/57/8 19/58/8 20/59/8 
f 20/59/8 27/60/8 28/57/8 
s 64
f 26/61/9 17/62/9 19/63/9 
f 19/63/9 28/64/9 26/61/9 
s 8
f 29/65/6 30/66/6 31/67/6 
f 31/67/6 32/68/6 29/65/6 
s 16
f 33/69/7 34/70/7 30/71/7 
f 30/71/7 29/72/7 33/69/7 
s 32
f 35/73/8 36/74/8 34/75/8 
f 34/75/8 33/76/8 35/73/8 
s 64
f 32/77/9 31/78/9 36/79/9 
f 36/79/9 35/80/9 32/77/9 
s 8
f 37/81/6 38/82/6 39/83/6 
f 39/83/6 40/84/6 37/81/6 
s 16
f 41/85/7 42/86/7 38/87/7 
f 38/87/7 37/88/7 41/85/7 
s 32
f 43/89/8 44/90/8 42/91/8 
f 42/91/8 41/92/8 43/89/8 
s 64
f 40/93/9 39/94/9 44/95/9 
f 44/95/9 43/96/9 40/93/9 
s 8
f 45/97/6 46/98/6 47/99/6 
f 47/99/6 48/100/6 45/97/6 
s 16
f 49/101/7 50/102/7 46/103/7 
f 46/103/7 45/104/7 49/101/7 
s 32
f 51/105/8 52/106/8 50/107/8 
f 50/107/8 49/108/8 51/105/8 
s 64
f 48/109/9 47/110/9 52/111/9 
f 52/111/9 51/112/9 48/109/9 
s 8
f 53/113/6 54/114/6 55/115/6 
f 55/115/6 56/116/6 53/113/6 
s 16
f 57/117/7 58/118/7 54/119/7 
f 54/119/7 53/120/7 57/117/7 
s 32
f 59/121/8 60/122/8 58/123/8 
f 58/123/8 57/124/8 59/121/8 
s 64
f 56/125/9 55/126/9 60/127/9 
f 60/127/9 59/128/9 56/125/9 
s 8
f 61/129/6 62/130/6 63/131/6 
f 63/131/6 64/132/6 61/129/6 
s 16
f 65/133/7 66/134/7 62/135/7 
f 62/135/7 61/136/7 65/133/7 
s 32
f 67/137/8 68/138/8 66/139/8 
f 66/139/8 65/140/8 67/137/8 
s 64
f 64/141/9 63/142/9 68/143/9 
f 68/143/9 67/144/9 64/141/9 
s 8
f 69/145/6 70/146/6 71/147/6 
f 71/147/6 72/148/6 69/145/6 
s 16
f 73/149/7 74/150/7 70/151/7 
f 70/151/7 69/152/7 73/149/7 
s 32
f 75/153/8 76/154/8 74/155/8 
f 74/155/8 73/156/8 75/153/8 
s 64
f 72/157/9 71/158/9 76/159/9 
f 76/159/9 75/160/9 72/157/9 
s 8
f 77/161/6 78/162/6 79/163/6 
f 79/163/6 80/164/6 77/161/6 
s 16
f 81/165/7 82/166/7 78/167/7 
f 78/167/7 77/168/7 81/165/7 
s 32
f 83/169/8 84/170/8 82/171/8 
f 82/171/8 81/172/8 83/169/8 
s 64
f 80/173/9 79/174/9 84/175/9 
f 84/175/9 83/176/9 80/173/9 
s 8
f 85/177/6 86/178/6 87/179/6 
f 87/179/6 88/180/6 85/177/6 
s 16
f 89/181/7 90/182/7 86/183/7 
f 86/183/7 85/184/7 89/181/7 
s 32
f 91/185/8 92/186/8 90/187/8 
f 90/187/8 89/188/8 91/185/8 
s 64
f 88/189/9 87/190/9 92/191/9 
f 92/191/9 91/192/9 88/189/9 
s 8
f 93/193/6 94/194/6 95/195/6 
f 95/195/6 96/196/6 93/193/6 
s 16
f 97/197/7 98/198/7 94/199/7 
f 94/199/7 93/200/7 97/197/7 
s 32
f 99/201/8 100/202/8 98/203/8 
f 98/203/8 97/204/8 99/201/8 
s 64
f 96/205/9 95/206/9 100/207/9 
f 100/207/9 99/208/9 96/205/9 
s 8
f 101/209/6 102/210/6 103/211/6 
f 103/211/6 104/212/6 101/209/6 
s 16
f 105/213/7 106/214/7 102/215/7 
f 102/215/7 101/216/7 105/213/7 
s 32
f 107/217/8 108/218/8 106/219/8 
f 106/219/8 105/220/8 107/217/8 
s 64
f 104/221/9 103/222/9 108/223/9 
f 108/223/9 107/224/9 104/221/9 
s 8
f 109/225/6 110/226/6 111/227/6 
f 111/227/6 112/228/6 109/225/6 
s 16
f 113/229/7 114/230/7 110/231/7 
f 110/231/7 109/232/7 113/229/7 
s 32
f 115/233/8 116/234/8 114/235/8 
f 114/235/8 113/236/8 115/233/8 
s 64
f 112/237/9 111/238/9 116/239/9 
f 116/239/9 115/240/9 112/237/9 
s 8
f 117/241/6 118/242/6 119/243/6 
f 119/243/6 120/244/6 117/241/6 
s 16
f 121/245/7 122/246/7 118/247/7 
f 118/247/7 117/248/7 121/245/7 
s 32
f 123/249/8 124/250/8 122/251/8 
f 122/251/8 121/252/8 123/249/8 
s 64
f 120/253/9 119/254/9 124/255/9 
f 124/255/9 123/256/9 120/253/9 
s 8
f 125/257/6 126/258/6 127/259/6 
f 127/259/6 128/260/6 125/257/6 
s 16
f 129/261/7 130/262/7 126/263/7 
f 126/263/7 125/264/7 129/261/7 
s 32
f 131/265/8 132/266/8 130/267/8 
f 130/267/8 129/268/8 131/265/8 
s 64
f 128/269/9 127/270/9 132/271/9 
f 132/271/9 131/272/9 128/269/9 
s 8
f 133/273/6 134/274/6 135/275/6 
f 135/275/6 136/276/6 133/273/6 
s 16
f 137/277/7 138/278/7 134/279/7 
f 134/279/7 133/280/7 137/277/7 
s 32
f 139/281/8 140/282/8 138/283/8 
f 138/283/8 137/284/8 139/281/8 
s 64
f 136/285/9 135/286/9 140/287/9 
f 140/287/9 139/288/9 136/285/9 
s 4
f 141/289/1 142/290/1 143/291/1 
f 143/291/1 144/292/1 141/289/1 
s off
f 142/293/2 141/294/2 145/295/2 
f 145/295/2 146/296/2 142/293/2 
f 143/297/3 142/298/3 146/299/3 
f 146/299/3 147/300/3 143/297/3 
f 144/301/4 143/302/4 147/303/4 
f 147/303/4 148/304/4 144/301/4 
f 141/305/5 144/306/5 148/307/5 
f 148/307/5 145/308/5 141/305/5 


