


mtllib 4E3.mtl





v  -165.7735 10.9745 108.0201
v  -131.5471 10.9745 108.0201
v  -131.5471 10.9745 132.6128
v  -165.7735 10.9745 132.6128
v  -131.5471 12.0000 132.6128
v  -131.5471 4.5777 132.6128
v  -165.7735 4.5777 132.6128
v  -165.7735 12.0000 132.6128
v  -131.5471 12.0000 108.0201
v  -131.5471 4.5777 108.0201
v  -165.7735 12.0000 108.0201
v  -165.7735 4.5777 108.0201
v  -133.1212 4.5777 130.6128
v  -164.1994 4.5777 130.6128
v  -164.1994 4.5777 110.0201
v  -133.1212 4.5777 110.0201
v  -133.1212 -0.0000 130.6128
v  -164.1994 -0.0000 130.6128
v  -133.1212 -0.0000 110.0201
v  -164.1994 -0.0000 110.0201
v  -131.9476 -0.0000 109.4405
v  -132.6675 -0.0000 109.4405
v  -132.6675 4.9745 109.4405
v  -131.9476 4.9745 109.4405
v  -131.9476 -0.0000 108.7001
v  -131.9476 4.9745 108.7001
v  -132.6675 -0.0000 108.7001
v  -132.6675 4.9745 108.7001
v  -131.9476 -0.0000 117.4607
v  -132.6675 -0.0000 117.4607
v  -132.6675 4.9745 117.4607
v  -131.9476 4.9745 117.4607
v  -131.9476 -0.0000 116.7202
v  -131.9476 4.9745 116.7202
v  -132.6675 -0.0000 116.7202
v  -132.6675 4.9745 116.7202
v  -131.9476 -0.0000 124.6253
v  -132.6675 -0.0000 124.6253
v  -132.6675 4.9745 124.6253
v  -131.9476 4.9745 124.6253
v  -131.9476 -0.0000 123.8848
v  -131.9476 4.9745 123.8848
v  -132.6675 -0.0000 123.8848
v  -132.6675 4.9745 123.8848
v  -131.9476 -0.0000 131.9975
v  -132.6675 -0.0000 131.9975
v  -132.6675 4.9745 131.9975
v  -131.9476 4.9745 131.9975
v  -131.9476 -0.0000 131.2570
v  -131.9476 4.9745 131.2570
v  -132.6675 -0.0000 131.2570
v  -132.6675 4.9745 131.2570
v  -164.7034 -0.0000 117.4607
v  -165.4232 -0.0000 117.4607
v  -165.4232 4.9745 117.4607
v  -164.7034 4.9745 117.4607
v  -164.7034 -0.0000 116.7202
v  -164.7034 4.9745 116.7202
v  -165.4232 -0.0000 116.7202
v  -165.4232 4.9745 116.7202
v  -164.7034 -0.0000 124.6253
v  -165.4232 -0.0000 124.6253
v  -165.4232 4.9745 124.6253
v  -164.7034 4.9745 124.6253
v  -164.7034 -0.0000 123.8848
v  -164.7034 4.9745 123.8848
v  -165.4232 -0.0000 123.8848
v  -165.4232 4.9745 123.8848
v  -140.3833 -0.0000 131.9975
v  -141.1032 -0.0000 131.9975
v  -141.1032 4.9745 131.9975
v  -140.3833 4.9745 131.9975
v  -140.3833 -0.0000 131.2570
v  -140.3833 4.9745 131.2570
v  -141.1032 -0.0000 131.2570
v  -141.1032 4.9745 131.2570
v  -148.8190 -0.0000 131.9975
v  -149.5388 -0.0000 131.9975
v  -149.5388 4.9745 131.9975
v  -148.8190 4.9745 131.9975
v  -148.8190 -0.0000 131.2570
v  -148.8190 4.9745 131.2570
v  -149.5388 -0.0000 131.2570
v  -149.5388 4.9745 131.2570
v  -157.2547 -0.0000 131.9975
v  -157.9746 -0.0000 131.9975
v  -157.9746 4.9745 131.9975
v  -157.2547 4.9745 131.9975
v  -157.2547 -0.0000 131.2570
v  -157.2547 4.9745 131.2570
v  -157.9746 -0.0000 131.2570
v  -157.9746 4.9745 131.2570
v  -164.6325 -0.0000 131.9975
v  -165.3523 -0.0000 131.9975
v  -165.3523 4.9745 131.9975
v  -164.6325 4.9745 131.9975
v  -164.6325 -0.0000 131.2570
v  -164.6325 4.9745 131.2570
v  -165.3523 -0.0000 131.2570
v  -165.3523 4.9745 131.2570
v  -140.3833 -0.0000 109.4309
v  -141.1032 -0.0000 109.4309
v  -141.1032 4.9745 109.4309
v  -140.3833 4.9745 109.4309
v  -140.3833 -0.0000 108.6904
v  -140.3833 4.9745 108.6904
v  -141.1032 -0.0000 108.6904
v  -141.1032 4.9745 108.6904
v  -148.8190 -0.0000 109.4309
v  -149.5389 -0.0000 109.4309
v  -149.5389 4.9745 109.4309
v  -148.8190 4.9745 109.4309
v  -148.8190 -0.0000 108.6904
v  -148.8190 4.9745 108.6904
v  -149.5389 -0.0000 108.6904
v  -149.5389 4.9745 108.6904
v  -157.2547 -0.0000 109.4309
v  -157.9746 -0.0000 109.4309
v  -157.9746 4.9745 109.4309
v  -157.2547 4.9745 109.4309
v  -157.2547 -0.0000 108.6904
v  -157.2547 4.9745 108.6904
v  -157.9746 -0.0000 108.6904
v  -157.9746 4.9745 108.6904
v  -164.6325 -0.0000 109.4309
v  -165.3523 -0.0000 109.4309
v  -165.3523 4.9745 109.4309
v  -164.6325 4.9745 109.4309
v  -164.6325 -0.0000 108.6904
v  -164.6325 4.9745 108.6904
v  -165.3523 -0.0000 108.6904
v  -165.3523 4.9745 108.6904
v  -155.3939 12.7300 124.3691
v  -155.3939 12.7300 116.2639
v  -141.9267 12.7300 116.2639
v  -141.9267 12.7300 124.3691
v  -141.9267 10.8502 124.3691
v  -155.3939 10.8502 124.3691
v  -141.9267 10.8502 116.2639
v  -155.3939 10.8502 116.2639
v  -155.7329 13.2047 124.6796
v  -155.7329 13.2047 115.9533
v  -141.5877 13.2047 115.9533
v  -141.5877 13.2047 124.6796
v  -141.5877 12.5943 124.6796
v  -155.7329 12.5943 124.6796
v  -141.5877 12.5943 115.9533
v  -155.7329 12.5943 115.9533


vn -0.0000 1.0000 0.0000
vn -0.0000 -0.0000 1.0000
vn 1.0000 0.0000 -0.0000
vn 0.0000 0.0000 -1.0000
vn -1.0000 -0.0000 0.0000
vn 0.0000 -1.0000 -0.0000
vn 0.0000 -1.0000 0.0000
vn -0.0000 -1.0000 0.0000
vn -0.0000 0.0000 1.0000
vn 1.0000 -0.0000 -0.0000
vn 0.0000 -0.0000 -1.0000
vn -1.0000 0.0000 0.0000
vn 1.0000 0.0000 0.0000
vn -0.0000 0.0000 -1.0000
vn -1.0000 0.0000 -0.0000
vn 0.0000 0.0000 1.0000
vn -0.0000 1.0000 -0.0000


vt 0.0392 0.5748 0.0000
vt 0.5570 0.5748 0.0000
vt 0.5570 0.8676 0.0000
vt 0.0392 0.8676 0.0000
vt 0.5570 0.1419 0.0000
vt 0.5570 0.2303 0.0000
vt 0.0392 0.2303 0.0000
vt 0.0392 0.1419 0.0000
vt 0.4882 0.3114 0.0000
vt 0.4882 0.3998 0.0000
vt 0.1954 0.3998 0.0000
vt 0.1954 0.3114 0.0000
vt 0.5570 0.0392 0.0000
vt 0.5570 0.1276 0.0000
vt 0.0392 0.1276 0.0000
vt 0.0392 0.0392 0.0000
vt 0.4882 0.4106 0.0000
vt 0.4882 0.4990 0.0000
vt 0.1954 0.4990 0.0000
vt 0.1954 0.4106 0.0000
vt 0.0392 0.5385 0.0000
vt 0.0630 0.5147 0.0000
vt 0.5331 0.5147 0.0000
vt 0.5570 0.5385 0.0000
vt 0.5331 0.2695 0.0000
vt 0.5570 0.2457 0.0000
vt 0.0630 0.2695 0.0000
vt 0.0392 0.2457 0.0000
vt 0.9608 0.0392 0.0000
vt 0.9608 0.5093 0.0000
vt 0.9063 0.5093 0.0000
vt 0.9063 0.0392 0.0000
vt 0.8243 0.1584 0.0000
vt 0.5791 0.1584 0.0000
vt 0.5791 0.1039 0.0000
vt 0.8243 0.1039 0.0000
vt 0.8925 0.0392 0.0000
vt 0.8925 0.5093 0.0000
vt 0.8380 0.5093 0.0000
vt 0.8380 0.0392 0.0000
vt 0.8243 0.0937 0.0000
vt 0.5791 0.0937 0.0000
vt 0.5791 0.0392 0.0000
vt 0.8243 0.0392 0.0000
vt 0.5834 0.6187 0.0000
vt 0.5834 0.6078 0.0000
vt 0.6427 0.6078 0.0000
vt 0.6427 0.6187 0.0000
vt 0.5834 0.6492 0.0000
vt 0.5834 0.6403 0.0000
vt 0.6427 0.6403 0.0000
vt 0.6427 0.6492 0.0000
vt 0.8142 0.5181 0.0000
vt 0.8251 0.5181 0.0000
vt 0.8251 0.5773 0.0000
vt 0.8142 0.5773 0.0000
vt 0.5834 0.6339 0.0000
vt 0.5834 0.6251 0.0000
vt 0.6427 0.6251 0.0000
vt 0.6427 0.6339 0.0000
vt 0.5834 0.5860 0.0000
vt 0.5834 0.5751 0.0000
vt 0.6427 0.5751 0.0000
vt 0.6427 0.5860 0.0000
vt 0.5834 0.5686 0.0000
vt 0.5834 0.5598 0.0000
vt 0.6427 0.5598 0.0000
vt 0.6427 0.5686 0.0000
vt 0.7445 0.5181 0.0000
vt 0.7554 0.5181 0.0000
vt 0.7554 0.5773 0.0000
vt 0.7445 0.5773 0.0000
vt 0.5834 0.5359 0.0000
vt 0.5834 0.5271 0.0000
vt 0.6427 0.5271 0.0000
vt 0.6427 0.5359 0.0000
vt 0.5834 0.5207 0.0000
vt 0.5834 0.5098 0.0000
vt 0.6427 0.5098 0.0000
vt 0.6427 0.5207 0.0000
vt 0.5834 0.5033 0.0000
vt 0.5834 0.4945 0.0000
vt 0.6427 0.4945 0.0000
vt 0.6427 0.5033 0.0000
vt 0.7467 0.4506 0.0000
vt 0.7576 0.4506 0.0000
vt 0.7576 0.5098 0.0000
vt 0.7467 0.5098 0.0000
vt 0.5834 0.4728 0.0000
vt 0.5834 0.4640 0.0000
vt 0.6427 0.4640 0.0000
vt 0.6427 0.4728 0.0000
vt 0.5834 0.4576 0.0000
vt 0.5834 0.4467 0.0000
vt 0.6427 0.4467 0.0000
vt 0.6427 0.4576 0.0000
vt 0.5834 0.4402 0.0000
vt 0.5834 0.4313 0.0000
vt 0.6427 0.4313 0.0000
vt 0.6427 0.4402 0.0000
vt 0.7815 0.4506 0.0000
vt 0.7924 0.4506 0.0000
vt 0.7924 0.5098 0.0000
vt 0.7815 0.5098 0.0000
vt 0.5834 0.4097 0.0000
vt 0.5834 0.4009 0.0000
vt 0.6427 0.4009 0.0000
vt 0.6427 0.4097 0.0000
vt 0.6487 0.5856 0.0000
vt 0.6596 0.5856 0.0000
vt 0.6596 0.6448 0.0000
vt 0.6487 0.6448 0.0000
vt 0.6750 0.6448 0.0000
vt 0.6662 0.6448 0.0000
vt 0.6662 0.5856 0.0000
vt 0.6750 0.5856 0.0000
vt 0.7968 0.5181 0.0000
vt 0.8077 0.5181 0.0000
vt 0.8077 0.5773 0.0000
vt 0.7968 0.5773 0.0000
vt 0.7076 0.6448 0.0000
vt 0.6988 0.6448 0.0000
vt 0.6988 0.5856 0.0000
vt 0.7076 0.5856 0.0000
vt 0.7141 0.5856 0.0000
vt 0.7249 0.5856 0.0000
vt 0.7249 0.6448 0.0000
vt 0.7141 0.6448 0.0000
vt 0.7403 0.6448 0.0000
vt 0.7315 0.6448 0.0000
vt 0.7315 0.5856 0.0000
vt 0.7403 0.5856 0.0000
vt 0.7641 0.4506 0.0000
vt 0.7750 0.4506 0.0000
vt 0.7750 0.5098 0.0000
vt 0.7641 0.5098 0.0000
vt 0.7708 0.6448 0.0000
vt 0.7619 0.6448 0.0000
vt 0.7619 0.5856 0.0000
vt 0.7708 0.5856 0.0000
vt 0.7772 0.5856 0.0000
vt 0.7881 0.5856 0.0000
vt 0.7881 0.6448 0.0000
vt 0.7772 0.6448 0.0000
vt 0.8034 0.6448 0.0000
vt 0.7946 0.6448 0.0000
vt 0.7946 0.5856 0.0000
vt 0.8034 0.5856 0.0000
vt 0.7293 0.4506 0.0000
vt 0.7402 0.4506 0.0000
vt 0.7402 0.5098 0.0000
vt 0.7293 0.5098 0.0000
vt 0.8339 0.6448 0.0000
vt 0.8251 0.6448 0.0000
vt 0.8251 0.5856 0.0000
vt 0.8339 0.5856 0.0000
vt 0.6487 0.5181 0.0000
vt 0.6596 0.5181 0.0000
vt 0.6596 0.5773 0.0000
vt 0.6487 0.5773 0.0000
vt 0.6487 0.4506 0.0000
vt 0.6576 0.4506 0.0000
vt 0.6576 0.5098 0.0000
vt 0.6487 0.5098 0.0000
vt 0.7794 0.5181 0.0000
vt 0.7903 0.5181 0.0000
vt 0.7903 0.5773 0.0000
vt 0.7794 0.5773 0.0000
vt 0.6924 0.5773 0.0000
vt 0.6836 0.5773 0.0000
vt 0.6836 0.5181 0.0000
vt 0.6924 0.5181 0.0000
vt 0.6640 0.4506 0.0000
vt 0.6749 0.4506 0.0000
vt 0.6749 0.5098 0.0000
vt 0.6640 0.5098 0.0000
vt 0.7076 0.5773 0.0000
vt 0.6988 0.5773 0.0000
vt 0.6988 0.5181 0.0000
vt 0.7076 0.5181 0.0000
vt 0.7619 0.5181 0.0000
vt 0.7728 0.5181 0.0000
vt 0.7728 0.5773 0.0000
vt 0.7619 0.5773 0.0000
vt 0.6814 0.4506 0.0000
vt 0.6902 0.4506 0.0000
vt 0.6902 0.5098 0.0000
vt 0.6814 0.5098 0.0000
vt 0.6966 0.4506 0.0000
vt 0.7075 0.4506 0.0000
vt 0.7075 0.5098 0.0000
vt 0.6966 0.5098 0.0000
vt 0.7141 0.4506 0.0000
vt 0.7229 0.4506 0.0000
vt 0.7229 0.5098 0.0000
vt 0.7141 0.5098 0.0000
vt 0.7184 0.4434 0.0000
vt 0.7184 0.4325 0.0000
vt 0.7776 0.4325 0.0000
vt 0.7776 0.4434 0.0000
vt 0.6509 0.4282 0.0000
vt 0.6509 0.4194 0.0000
vt 0.7101 0.4194 0.0000
vt 0.7101 0.4282 0.0000
vt 0.7101 0.4021 0.0000
vt 0.7101 0.4129 0.0000
vt 0.6509 0.4129 0.0000
vt 0.6509 0.4021 0.0000
vt 0.6509 0.4434 0.0000
vt 0.6509 0.4346 0.0000
vt 0.7101 0.4346 0.0000
vt 0.7101 0.4434 0.0000
vt 0.7184 0.4260 0.0000
vt 0.7184 0.4151 0.0000
vt 0.7776 0.4151 0.0000
vt 0.7776 0.4260 0.0000
vt 0.7229 0.5773 0.0000
vt 0.7141 0.5773 0.0000
vt 0.7141 0.5181 0.0000
vt 0.7229 0.5181 0.0000
vt 0.6662 0.5181 0.0000
vt 0.6770 0.5181 0.0000
vt 0.6770 0.5773 0.0000
vt 0.6662 0.5773 0.0000
vt 0.8187 0.6448 0.0000
vt 0.8098 0.6448 0.0000
vt 0.8098 0.5856 0.0000
vt 0.8187 0.5856 0.0000
vt 0.8164 0.4506 0.0000
vt 0.8273 0.4506 0.0000
vt 0.8273 0.5098 0.0000
vt 0.8164 0.5098 0.0000
vt 0.7555 0.6448 0.0000
vt 0.7467 0.6448 0.0000
vt 0.7467 0.5856 0.0000
vt 0.7555 0.5856 0.0000
vt 0.6923 0.6448 0.0000
vt 0.6814 0.6448 0.0000
vt 0.6814 0.5856 0.0000
vt 0.6923 0.5856 0.0000
vt 0.5834 0.4249 0.0000
vt 0.5834 0.4161 0.0000
vt 0.6427 0.4161 0.0000
vt 0.6427 0.4249 0.0000
vt 0.7184 0.4086 0.0000
vt 0.7184 0.3977 0.0000
vt 0.7776 0.3977 0.0000
vt 0.7776 0.4086 0.0000
vt 0.5834 0.4881 0.0000
vt 0.5834 0.4792 0.0000
vt 0.6427 0.4792 0.0000
vt 0.6427 0.4881 0.0000
vt 0.5834 0.5534 0.0000
vt 0.5834 0.5425 0.0000
vt 0.6427 0.5425 0.0000
vt 0.6427 0.5534 0.0000
vt 0.5834 0.6013 0.0000
vt 0.5834 0.5924 0.0000
vt 0.6427 0.5924 0.0000
vt 0.6427 0.6013 0.0000
vt 0.7990 0.4506 0.0000
vt 0.8098 0.4506 0.0000
vt 0.8098 0.5098 0.0000
vt 0.7990 0.5098 0.0000
vt 0.7381 0.5773 0.0000
vt 0.7293 0.5773 0.0000
vt 0.7293 0.5181 0.0000
vt 0.7381 0.5181 0.0000
vt 0.8243 0.1685 0.0000
vt 0.8243 0.2650 0.0000
vt 0.6206 0.2650 0.0000
vt 0.6206 0.1685 0.0000
vt 0.8243 0.3068 0.0000
vt 0.8243 0.3292 0.0000
vt 0.6206 0.3292 0.0000
vt 0.6206 0.3068 0.0000
vt 0.8243 0.3392 0.0000
vt 0.8243 0.3616 0.0000
vt 0.7278 0.3616 0.0000
vt 0.7278 0.3392 0.0000
vt 0.8243 0.2745 0.0000
vt 0.8243 0.2969 0.0000
vt 0.6206 0.2969 0.0000
vt 0.6206 0.2745 0.0000
vt 0.5882 0.1721 0.0000
vt 0.6105 0.1721 0.0000
vt 0.6105 0.2686 0.0000
vt 0.5882 0.2686 0.0000
vt 0.8060 0.7268 0.0000
vt 0.8060 0.8307 0.0000
vt 0.5921 0.8307 0.0000
vt 0.5921 0.7268 0.0000
vt 0.5921 0.7196 0.0000
vt 0.5921 0.7123 0.0000
vt 0.8060 0.7123 0.0000
vt 0.8060 0.7196 0.0000
vt 0.5955 0.6814 0.0000
vt 0.5955 0.6741 0.0000
vt 0.6994 0.6741 0.0000
vt 0.6994 0.6814 0.0000
vt 0.5921 0.7057 0.0000
vt 0.5921 0.6984 0.0000
vt 0.8060 0.6984 0.0000
vt 0.8060 0.7057 0.0000
vt 0.5955 0.6935 0.0000
vt 0.5955 0.6863 0.0000
vt 0.6994 0.6863 0.0000
vt 0.6994 0.6935 0.0000


o 4E3
g 4E3
usemtl 4E3
s 4
f 3/3/1 2/2/1 1/1/1 
f 1/1/1 4/4/1 3/3/1 
s 8
f 7/7/2 6/6/2 5/5/2 
f 5/5/2 8/8/2 7/7/2 
s 16
f 6/11/3 10/10/3 9/9/3 
f 9/9/3 5/12/3 6/11/3 
s 32
f 10/15/4 12/14/4 11/13/4 
f 11/13/4 9/16/4 10/15/4 
s 64
f 12/19/5 7/18/5 8/17/5 
f 8/17/5 11/20/5 12/19/5 
s off
f 14/23/6 13/22/6 6/21/6 
f 6/21/6 7/24/6 14/23/6 
f 15/25/7 14/23/7 7/24/7 
f 7/24/8 12/26/8 15/25/8 
f 16/27/6 15/25/6 12/26/6 
f 12/26/6 10/28/6 16/27/6 
f 13/22/7 16/27/7 10/28/7 
f 10/28/8 6/21/8 13/22/8 
s 8
f 14/31/9 18/30/9 17/29/9 
f 17/29/9 13/32/9 14/31/9 
s 16
f 13/35/10 17/34/10 19/33/10 
f 19/33/10 16/36/10 13/35/10 
s 32
f 16/39/11 19/38/11 20/37/11 
f 20/37/11 15/40/11 16/39/11 
s 64
f 15/43/12 20/42/12 18/41/12 
f 18/41/12 14/44/12 15/43/12 
s 8
f 23/47/9 22/46/9 21/45/9 
f 21/45/9 24/48/9 23/47/9 
s 16
f 24/51/13 21/50/13 25/49/13 
f 25/49/13 26/52/13 24/51/13 
s 32
f 26/55/14 25/54/11 27/53/11 
f 27/53/11 28/56/14 26/55/14 
s 64
f 28/59/15 27/58/15 22/57/15 
f 22/57/15 23/60/15 28/59/15 
s 8
f 31/63/2 30/62/9 29/61/9 
f 29/61/9 32/64/2 31/63/2 
s 16
f 32/67/13 29/66/13 33/65/13 
f 33/65/13 34/68/13 32/67/13 
s 32
f 34/71/11 33/70/11 35/69/11 
f 35/69/11 36/72/11 34/71/11 
s 64
f 36/75/15 35/74/15 30/73/15 
f 30/73/15 31/76/15 36/75/15 
s 8
f 39/79/2 38/78/16 37/77/16 
f 37/77/16 40/80/2 39/79/2 
s 16
f 40/83/13 37/82/13 41/81/13 
f 41/81/13 42/84/13 40/83/13 
s 32
f 42/87/11 41/86/11 43/85/11 
f 43/85/11 44/88/11 42/87/11 
s 64
f 44/91/15 43/90/15 38/89/15 
f 38/89/15 39/92/15 44/91/15 
s 8
f 47/95/9 46/94/9 45/93/9 
f 45/93/9 48/96/9 47/95/9 
s 16
f 48/99/13 45/98/13 49/97/13 
f 49/97/13 50/100/13 48/99/13 
s 32
f 50/103/14 49/102/11 51/101/11 
f 51/101/11 52/104/14 50/103/14 
s 64
f 52/107/15 51/106/15 46/105/15 
f 46/105/15 47/108/15 52/107/15 
s 8
f 55/111/2 54/110/9 53/109/9 
f 53/109/9 56/112/2 55/111/2 
s 16
f 56/115/13 53/114/13 57/113/13 
f 57/113/13 58/116/13 56/115/13 
s 32
f 58/119/11 57/118/11 59/117/11 
f 59/117/11 60/120/11 58/119/11 
s 64
f 60/123/15 59/122/15 54/121/15 
f 54/121/15 55/124/15 60/123/15 
s 8
f 63/127/2 62/126/16 61/125/16 
f 61/125/16 64/128/2 63/127/2 
s 16
f 64/131/13 61/130/13 65/129/13 
f 65/129/13 66/132/13 64/131/13 
s 32
f 66/135/11 65/134/11 67/133/11 
f 67/133/11 68/136/11 66/135/11 
s 64
f 68/139/15 67/138/15 62/137/15 
f 62/137/15 63/140/15 68/139/15 
s 8
f 71/143/9 70/142/9 69/141/9 
f 69/141/9 72/144/9 71/143/9 
s 16
f 72/147/10 69/146/10 73/145/10 
f 73/145/10 74/148/10 72/147/10 
s 32
f 74/151/14 73/150/11 75/149/11 
f 75/149/11 76/152/14 74/151/14 
s 64
f 76/155/12 75/154/5 70/153/5 
f 70/153/5 71/156/12 76/155/12 
s 8
f 79/159/9 78/158/9 77/157/9 
f 77/157/9 80/160/9 79/159/9 
s 16
f 80/163/10 77/162/10 81/161/10 
f 81/161/10 82/164/10 80/163/10 
s 32
f 82/167/14 81/166/11 83/165/11 
f 83/165/11 84/168/14 82/167/14 
s 64
f 84/171/12 83/170/5 78/169/5 
f 78/169/5 79/172/12 84/171/12 
s 8
f 87/175/9 86/174/9 85/173/9 
f 85/173/9 88/176/9 87/175/9 
s 16
f 88/179/10 85/178/10 89/177/10 
f 89/177/10 90/180/10 88/179/10 
s 32
f 90/183/14 89/182/11 91/181/11 
f 91/181/11 92/184/14 90/183/14 
s 64
f 92/187/12 91/186/5 86/185/5 
f 86/185/5 87/188/12 92/187/12 
s 8
f 95/191/9 94/190/9 93/189/9 
f 93/189/9 96/192/9 95/191/9 
s 16
f 96/195/13 93/194/13 97/193/13 
f 97/193/13 98/196/13 96/195/13 
s 32
f 98/199/14 97/198/11 99/197/11 
f 99/197/11 100/200/14 98/199/14 
s 64
f 100/203/15 99/202/15 94/201/15 
f 94/201/15 95/204/15 100/203/15 
s 8
f 103/207/9 102/206/9 101/205/9 
f 101/205/9 104/208/9 103/207/9 
s 16
f 104/211/10 101/210/10 105/209/10 
f 105/209/10 106/212/10 104/211/10 
s 32
f 106/215/14 105/214/11 107/213/11 
f 107/213/11 108/216/14 106/215/14 
s 64
f 108/219/12 107/218/5 102/217/5 
f 102/217/5 103/220/12 108/219/12 
s 8
f 111/223/9 110/222/9 109/221/9 
f 109/221/9 112/224/9 111/223/9 
s 16
f 112/227/10 109/226/10 113/225/10 
f 113/225/10 114/228/10 112/227/10 
s 32
f 114/231/14 113/230/11 115/229/11 
f 115/229/11 116/232/14 114/231/14 
s 64
f 116/235/12 115/234/5 110/233/5 
f 110/233/5 111/236/12 116/235/12 
s 8
f 119/239/9 118/238/9 117/237/9 
f 117/237/9 120/240/9 119/239/9 
s 16
f 120/243/10 117/242/10 121/241/10 
f 121/241/10 122/244/10 120/243/10 
s 32
f 122/247/14 121/246/11 123/245/11 
f 123/245/11 124/248/14 122/247/14 
s 64
f 124/251/12 123/250/5 118/249/5 
f 118/249/5 119/252/12 124/251/12 
s 8
f 127/255/9 126/254/9 125/253/9 
f 125/253/9 128/256/9 127/255/9 
s 16
f 128/259/13 125/258/13 129/257/13 
f 129/257/13 130/260/13 128/259/13 
s 32
f 130/263/14 129/262/11 131/261/11 
f 131/261/11 132/264/14 130/263/14 
s 64
f 132/267/15 131/266/15 126/265/15 
f 126/265/15 127/268/15 132/267/15 
s 4
f 135/271/17 134/270/17 133/269/17 
f 133/269/17 136/272/17 135/271/17 
s off
f 138/275/2 137/274/2 136/273/2 
f 136/273/2 133/276/2 138/275/2 
f 137/279/10 139/278/10 135/277/10 
f 135/277/10 136/280/10 137/279/10 
f 139/283/11 140/282/11 134/281/11 
f 134/281/11 135/284/11 139/283/11 
f 140/287/5 138/286/5 133/285/5 
f 133/285/5 134/288/5 140/287/5 
s 4
f 143/291/17 142/290/17 141/289/17 
f 141/289/17 144/292/17 143/291/17 
s off
f 146/295/2 145/294/2 144/293/2 
f 144/293/2 141/296/2 146/295/2 
f 145/299/10 147/298/10 143/297/10 
f 143/297/10 144/300/10 145/299/10 
f 147/303/11 148/302/11 142/301/11 
f 142/301/11 143/304/11 147/303/11 
f 148/307/5 146/306/5 141/305/5 
f 141/305/5 142/308/5 148/307/5 


