# 3ds Max Wavefront OBJ Exporter v0.97b - (c)2007 guruware
# 创建的文件:11.10.2021 10:45:18

mtllib B1dimian.mtl

#
# object B1dimian
#

v  62.7469 -51.4469 155.5114
v  62.7469 -51.4469 -199.1208
v  -56.7097 -51.4469 -199.1208
v  -189.7811 -51.4469 -202.1210
v  -189.8617 -51.4469 122.0129
v  -167.4643 -51.4469 122.0129
v  -56.7097 -51.4469 -202.1210
v  62.5186 -51.4469 215.7664
v  62.5186 -51.4469 171.7885
v  35.5801 -51.4469 171.7885
v  -96.1917 -51.4469 215.7664
v  -100.2344 -51.4469 211.6521
v  35.5801 -51.4469 155.5114
v  -161.9778 -51.4469 211.6521
v  -167.4643 -51.4469 206.2110
# 15 vertices

vn 0.0000 1.0000 -0.0000
# 1 vertex normals

vt 0.0392 0.8279 0.0000
vt 0.0392 0.0458 0.0000
vt 0.3026 0.0458 0.0000
vt 0.5961 0.0392 0.0000
vt 0.5963 0.7540 0.0000
vt 0.5469 0.7540 0.0000
vt 0.3026 0.0392 0.0000
vt 0.0397 0.9608 0.0000
vt 0.0397 0.8638 0.0000
vt 0.0991 0.8638 0.0000
vt 0.3897 0.9608 0.0000
vt 0.3986 0.9517 0.0000
vt 0.0991 0.8279 0.0000
vt 0.5348 0.9517 0.0000
vt 0.5469 0.9397 0.0000
# 15 texture coords

o B1dimian
g B1dimian
usemtl B1dimian
s 1
f 1/1/1 2/2/1 3/3/1 
f 4/4/1 5/5/1 6/6/1 
f 7/7/1 4/4/1 6/6/1 
f 3/3/1 7/7/1 6/6/1 
f 1/1/1 3/3/1 6/6/1 
f 8/8/1 9/9/1 10/10/1 
f 11/11/1 8/8/1 10/10/1 
f 12/12/1 11/11/1 10/10/1 
f 12/12/1 10/10/1 13/13/1 
f 14/14/1 12/12/1 13/13/1 
f 15/15/1 14/14/1 13/13/1 
f 6/6/1 15/15/1 13/13/1 
f 1/1/1 6/6/1 13/13/1 
# 13 faces

