# 3ds Max Wavefront OBJ Exporter v0.97b - (c)2007 guruware
# 创建的文件:23.09.2021 13:58:34

mtllib clcrk.mtl

#
# object Plane001
#

v  -56.1848 15.5834 -0.0014
v  -49.2181 22.5502 -0.0014
v  -42.2513 15.5834 -0.0014
v  -49.2181 8.6166 -0.0014
v  -49.6511 -23.2565 -0.0014
v  -49.6511 9.1918 -0.0014
v  -48.7850 9.1918 -0.0014
v  -48.7850 -23.2565 -0.0014
# 8 vertices

vn -0.0000 0.0000 1.0000
vn -0.0000 -0.0000 1.0000
vn 0.0000 -0.0000 1.0000
# 3 vertex normals

vt 0.4869 0.9679 0.5000
vt -0.0125 0.4685 0.5000
vt 0.4869 -0.0308 0.5000
vt 0.9863 0.4685 0.5000
vt 0.0000 0.0136 0.9982
vt 0.0000 0.9864 0.0018
vt 1.0000 0.9864 0.0018
vt 1.0000 0.0136 0.9982
# 8 texture coords

o Plane001
g Plane001
usemtl churukou
s 1
f 3/3/1 2/2/1 1/1/1 
f 1/1/1 4/4/1 3/3/1 
usemtl guangshu
f 7/7/3 6/6/3 5/5/2 
f 5/5/2 8/8/2 7/7/3 
# 4 faces

