


mtllib corridor01.mtl





v  -121.3753 9.7201 122.7222
v  -132.7651 9.7201 122.7222
v  -132.7651 4.8909 122.7222
v  -121.3753 4.8909 122.7222
v  -132.7651 9.7201 117.9107
v  -121.3753 9.7201 117.9107
v  -121.3753 4.8909 117.9107
v  -132.7651 4.8909 117.9107
v  -87.7612 9.7201 122.7222
v  -76.3714 9.7201 122.7222
v  -76.3714 9.7201 117.9107
v  -87.7612 9.7201 117.9107
v  -87.7612 4.8909 122.7222
v  -76.3714 4.8909 122.7222
v  -76.3714 4.8909 117.9107
v  -87.7612 4.8909 117.9107


vn 0.0000 -0.0000 1.0000
vn 0.0000 -0.0000 -1.0000
vn 0.0000 1.0000 -0.0000
vn 0.0000 -1.0000 -0.0000


vt 0.4893 0.7047 0.0000
vt 0.0392 0.7047 0.0000
vt 0.0392 0.6552 0.0000
vt 0.4893 0.6552 0.0000
vt 0.4893 0.7667 0.0000
vt 0.0392 0.7667 0.0000
vt 0.0392 0.7172 0.0000
vt 0.4893 0.7172 0.0000
vt 0.0392 0.3078 0.0000
vt 0.4893 0.3078 0.0000
vt 0.4893 0.5623 0.0000
vt 0.0392 0.5623 0.0000
vt 0.4893 0.6427 0.0000
vt 0.0392 0.6427 0.0000
vt 0.0392 0.5932 0.0000
vt 0.4893 0.5932 0.0000
vt 0.4893 0.8287 0.0000
vt 0.0392 0.8287 0.0000
vt 0.0392 0.7792 0.0000
vt 0.4893 0.7792 0.0000
vt 0.9608 0.2937 0.0000
vt 0.5107 0.2937 0.0000
vt 0.5107 0.0392 0.0000
vt 0.9608 0.0392 0.0000
vt 0.0392 0.0392 0.0000
vt 0.4893 0.0392 0.0000
vt 0.4893 0.2937 0.0000
vt 0.0392 0.2937 0.0000
vt 0.9608 0.5623 0.0000
vt 0.5107 0.5623 0.0000
vt 0.5107 0.3078 0.0000
vt 0.9608 0.3078 0.0000


o corridor01
g corridor01
usemtl corridor01
s off
f 1/1/1 2/2/1 3/3/1 
f 3/3/1 4/4/1 1/1/1 
f 5/5/2 6/6/2 7/7/2 
f 7/7/2 8/8/2 5/5/2 
s 4
f 9/9/3 10/10/3 11/11/3 
f 11/11/3 12/12/3 9/9/3 
s off
f 10/13/1 9/14/1 13/15/1 
f 13/15/1 14/16/1 10/13/1 
f 12/17/2 11/18/2 15/19/2 
f 15/19/2 16/20/2 12/17/2 
f 14/21/4 13/22/4 16/23/4 
f 16/23/4 15/24/4 14/21/4 
s 4
f 2/25/3 1/26/3 6/27/3 
f 6/27/3 5/28/3 2/25/3 
s off
f 4/29/4 3/30/4 8/31/4 
f 8/31/4 7/32/4 4/29/4 


