# 3ds Max Wavefront OBJ Exporter v0.97b - (c)2007 guruware
# 创建的文件:24.11.2021 10:08:39

mtllib dadi.mtl

#
# object dadi
#

v  -1439.7872 -3.0550 1320.0959
v  1362.0846 -3.0550 1320.0959
v  1362.0846 -3.0550 -1333.7896
v  -1439.7872 -3.0550 -1333.7896
# 4 vertices

vn 0.0000 1.0000 -0.0000
# 1 vertex normals

vt 0.0392 0.0392 0.0000
vt 0.9608 0.0392 0.0000
vt 0.9608 0.9121 0.0000
vt 0.0392 0.9121 0.0000
# 4 texture coords

o dadi
g dadi
usemtl dadi
s 1
f 1/1/1 2/2/1 3/3/1 
f 3/3/1 4/4/1 1/1/1 
# 2 faces

