


mtllib gatehouse.mtl





v  61.0094 24.9743 271.0682
v  61.0094 -0.0513 271.0681
v  64.9729 -0.0513 271.0681
v  64.9729 20.3672 271.0682
v  61.0094 24.9743 266.0188
v  61.0094 -0.0513 266.0188
v  64.9729 20.3672 266.0188
v  64.9729 -0.0513 266.0188
v  68.8636 24.9743 271.0682
v  68.8636 20.3672 271.0682
v  68.8636 24.9743 266.0188
v  68.8636 20.3672 266.0188
v  104.1670 24.9743 271.0682
v  100.2035 20.3672 271.0682
v  100.2035 -0.0513 271.0681
v  104.1670 -0.0513 271.0681
v  104.1670 24.9743 266.0188
v  104.1670 -0.0513 266.0188
v  100.2035 20.3672 266.0188
v  100.2035 -0.0513 266.0188
v  96.3128 24.9743 271.0682
v  96.3128 20.3672 271.0682
v  96.3128 24.9743 266.0188
v  96.3128 20.3672 266.0188
v  96.9335 24.2600 270.3859
v  96.9335 24.2600 266.7363
v  68.0212 24.2600 266.7363
v  68.0212 24.2600 270.3859
v  96.9335 20.8401 270.3859
v  68.0212 20.8401 270.3859
v  96.9335 20.8401 266.7363
v  68.0212 20.8401 266.7363


vn -0.0000 -0.0000 1.0000
vn 0.0000 -0.0000 1.0000
vn -1.0000 0.0000 -0.0000
vn 0.0000 0.0000 -1.0000
vn -0.0000 0.0000 -1.0000
vn 1.0000 0.0000 -0.0000
vn 0.0000 1.0000 -0.0000
vn 0.0000 -1.0000 -0.0000
vn -0.0000 1.0000 -0.0000
vn 0.0000 1.0000 0.0000


vt 0.5900 0.0392 0.0000
vt 0.5900 0.4696 0.0000
vt 0.5218 0.4696 0.0000
vt 0.5218 0.1184 0.0000
vt 0.6092 0.4696 0.0000
vt 0.6092 0.0392 0.0000
vt 0.6805 0.0392 0.0000
vt 0.6805 0.4696 0.0000
vt 0.1074 0.1184 0.0000
vt 0.1074 0.4696 0.0000
vt 0.0392 0.4696 0.0000
vt 0.0392 0.0392 0.0000
vt 0.3310 0.5714 0.0000
vt 0.3310 0.2202 0.0000
vt 0.4022 0.2202 0.0000
vt 0.4022 0.5714 0.0000
vt 0.4549 0.0392 0.0000
vt 0.4549 0.1184 0.0000
vt 0.4358 0.1105 0.0000
vt 0.3007 0.1105 0.0000
vt 0.3007 0.0392 0.0000
vt 0.4358 0.0392 0.0000
vt 0.1743 0.1184 0.0000
vt 0.1743 0.0392 0.0000
vt 0.3310 0.2033 0.0000
vt 0.3310 0.1364 0.0000
vt 0.4022 0.1364 0.0000
vt 0.4022 0.2033 0.0000
vt 0.5958 0.4884 0.0000
vt 0.6671 0.4884 0.0000
vt 0.6671 0.5676 0.0000
vt 0.5958 0.5676 0.0000
vt 0.1843 0.5769 0.0000
vt 0.1162 0.4977 0.0000
vt 0.1162 0.1465 0.0000
vt 0.1843 0.1465 0.0000
vt 0.2366 0.6670 0.0000
vt 0.2366 0.5957 0.0000
vt 0.6671 0.5957 0.0000
vt 0.6671 0.6670 0.0000
vt 0.4962 0.4910 0.0000
vt 0.4281 0.5702 0.0000
vt 0.4281 0.1398 0.0000
vt 0.4962 0.1398 0.0000
vt 0.3050 0.5714 0.0000
vt 0.2337 0.5714 0.0000
vt 0.2337 0.2202 0.0000
vt 0.3050 0.2202 0.0000
vt 0.0493 0.5769 0.0000
vt 0.0493 0.4977 0.0000
vt 0.2112 0.5957 0.0000
vt 0.2112 0.6670 0.0000
vt 0.0761 0.6670 0.0000
vt 0.0761 0.5957 0.0000
vt 0.5631 0.4910 0.0000
vt 0.5631 0.5702 0.0000
vt 0.3050 0.2033 0.0000
vt 0.2337 0.2033 0.0000
vt 0.2337 0.1364 0.0000
vt 0.3050 0.1364 0.0000
vt 0.2816 0.1105 0.0000
vt 0.2023 0.1105 0.0000
vt 0.2023 0.0392 0.0000
vt 0.2816 0.0392 0.0000
vt 0.9093 0.0392 0.0000
vt 0.9608 0.0392 0.0000
vt 0.9608 0.5365 0.0000
vt 0.9093 0.5365 0.0000
vt 0.7646 0.0392 0.0000
vt 0.8234 0.0392 0.0000
vt 0.8234 0.5365 0.0000
vt 0.7646 0.5365 0.0000
vt 0.6993 0.0392 0.0000
vt 0.7508 0.0392 0.0000
vt 0.7508 0.5365 0.0000
vt 0.6993 0.5365 0.0000
vt 0.8369 0.0392 0.0000
vt 0.8957 0.0392 0.0000
vt 0.8957 0.5365 0.0000
vt 0.8369 0.5365 0.0000


o gatehouse
g gatehouse
usemtl gatehouse
s 1
f 1/1/1 2/2/2 3/3/1 
f 3/3/1 4/4/1 1/1/1 
s 2
f 5/5/3 6/6/3 2/7/3 
f 2/7/3 1/8/3 5/5/3 
s 1
f 7/9/4 8/10/5 6/11/5 
f 6/11/5 5/12/4 7/9/4 
s 2
f 4/13/6 3/14/6 8/15/6 
f 8/15/6 7/16/6 4/13/6 
s 1
f 9/17/1 1/1/1 4/4/1 
f 4/4/1 10/18/2 9/17/1 
s 4
f 11/19/7 5/20/7 1/21/7 
f 1/21/7 9/22/7 11/19/7 
s 1
f 12/23/5 7/9/4 5/12/4 
f 5/12/4 11/24/4 12/23/5 
s 4
f 10/25/8 4/26/8 7/27/8 
f 7/27/8 12/28/8 10/25/8 
s 2
f 10/29/6 12/30/6 11/31/6 
f 11/31/6 9/32/6 10/29/6 
s 1
f 13/33/2 14/34/2 15/35/2 
f 15/35/2 16/36/2 13/33/2 
s 2
f 17/37/6 13/38/6 16/39/6 
f 16/39/6 18/40/6 17/37/6 
s 1
f 19/41/5 17/42/5 18/43/4 
f 18/43/4 20/44/4 19/41/5 
s 2
f 14/45/3 19/46/3 20/47/3 
f 20/47/3 15/48/3 14/45/3 
s 1
f 21/49/2 22/50/2 14/34/2 
f 14/34/2 13/33/2 21/49/2 
s 4
f 23/51/9 21/52/9 13/53/9 
f 13/53/9 17/54/7 23/51/9 
s 1
f 24/55/4 23/56/4 17/42/5 
f 17/42/5 19/41/5 24/55/4 
s 4
f 22/57/8 24/58/8 19/59/8 
f 19/59/8 14/60/8 22/57/8 
s 2
f 22/61/3 21/62/3 23/63/3 
f 23/63/3 24/64/3 22/61/3 
s 1
f 25/65/10 26/66/10 27/67/10 
f 27/67/10 28/68/10 25/65/10 
s 2
f 29/69/1 25/70/1 28/71/1 
f 28/71/1 30/72/1 29/69/1 
s 1
f 31/73/8 29/74/8 30/75/8 
f 30/75/8 32/76/8 31/73/8 
s 2
f 26/77/4 31/78/4 32/79/4 
f 32/79/4 27/80/4 26/77/4 


