


mtllib gatehouse2.mtl





v  -162.7597 24.2600 -201.7959
v  -162.7597 24.2600 -172.8837
v  -166.4094 24.2600 -172.8837
v  -166.4094 24.2600 -201.7959
v  -162.7597 20.8401 -201.7959
v  -162.7597 20.8401 -172.8837
v  -166.4094 20.8401 -201.7959
v  -166.4094 20.8401 -172.8837
v  -162.0775 24.9743 -165.8719
v  -162.0775 20.3672 -169.8354
v  -162.0775 -0.0513 -169.8354
v  -162.0775 -0.0513 -165.8719
v  -167.1268 24.9743 -165.8719
v  -167.1268 -0.0513 -165.8719
v  -167.1268 20.3672 -169.8354
v  -167.1268 -0.0513 -169.8354
v  -162.0775 24.9743 -173.7261
v  -162.0775 20.3672 -173.7261
v  -167.1268 24.9743 -173.7261
v  -167.1268 20.3672 -173.7261
v  -162.0775 24.9743 -209.0295
v  -162.0775 -0.0513 -209.0295
v  -162.0775 -0.0513 -205.0660
v  -162.0775 20.3672 -205.0660
v  -167.1268 24.9743 -209.0295
v  -167.1268 -0.0513 -209.0295
v  -167.1268 20.3672 -205.0659
v  -167.1268 -0.0513 -205.0659
v  -162.0775 24.9743 -201.1753
v  -162.0775 20.3672 -201.1753
v  -167.1268 24.9743 -201.1753
v  -167.1268 20.3672 -201.1753


vn 0.0000 1.0000 0.0000
vn 1.0000 -0.0000 0.0000
vn -0.0000 -1.0000 -0.0000
vn -1.0000 0.0000 -0.0000
vn 1.0000 -0.0000 -0.0000
vn 0.0000 0.0000 1.0000
vn -1.0000 0.0000 0.0000
vn -0.0000 -0.0000 -1.0000
vn -0.0000 0.0000 -1.0000
vn 0.0000 -0.0000 1.0000


vt 0.4402 0.8153 0.0000
vt 0.7939 0.8153 0.0000
vt 0.7939 0.8964 0.0000
vt 0.4402 0.8964 0.0000
vt 0.4402 0.6590 0.0000
vt 0.7939 0.6590 0.0000
vt 0.7939 0.7097 0.0000
vt 0.4402 0.7097 0.0000
vt 0.4402 0.7219 0.0000
vt 0.7939 0.7219 0.0000
vt 0.7939 0.8030 0.0000
vt 0.4402 0.8030 0.0000
vt 0.4402 0.9101 0.0000
vt 0.7939 0.9101 0.0000
vt 0.7939 0.9608 0.0000
vt 0.4402 0.9608 0.0000
vt 0.0392 0.1687 0.0000
vt 0.0877 0.2370 0.0000
vt 0.0877 0.5397 0.0000
vt 0.0392 0.5397 0.0000
vt 0.4102 0.0392 0.0000
vt 0.4102 0.1514 0.0000
vt 0.0392 0.1514 0.0000
vt 0.0392 0.0392 0.0000
vt 0.6142 0.1201 0.0000
vt 0.6627 0.0518 0.0000
vt 0.6627 0.4229 0.0000
vt 0.6142 0.4229 0.0000
vt 0.1118 0.4925 0.0000
vt 0.1118 0.3803 0.0000
vt 0.4146 0.3803 0.0000
vt 0.4146 0.4925 0.0000
vt 0.1353 0.1687 0.0000
vt 0.1353 0.2370 0.0000
vt 0.5364 0.1750 0.0000
vt 0.5364 0.2872 0.0000
vt 0.4403 0.2872 0.0000
vt 0.4403 0.1750 0.0000
vt 0.5666 0.1201 0.0000
vt 0.5666 0.0518 0.0000
vt 0.1592 0.1687 0.0000
vt 0.2715 0.1687 0.0000
vt 0.2715 0.2163 0.0000
vt 0.1592 0.2163 0.0000
vt 0.6634 0.6536 0.0000
vt 0.5951 0.6536 0.0000
vt 0.5951 0.5414 0.0000
vt 0.6634 0.5414 0.0000
vt 0.5603 0.5176 0.0000
vt 0.5603 0.1466 0.0000
vt 0.6088 0.1466 0.0000
vt 0.6088 0.4493 0.0000
vt 0.0392 0.5635 0.0000
vt 0.4102 0.5635 0.0000
vt 0.4102 0.6757 0.0000
vt 0.0392 0.6757 0.0000
vt 0.4367 0.5583 0.0000
vt 0.1339 0.5583 0.0000
vt 0.1339 0.5098 0.0000
vt 0.5050 0.5098 0.0000
vt 0.1118 0.2476 0.0000
vt 0.4146 0.2476 0.0000
vt 0.4146 0.3599 0.0000
vt 0.1118 0.3599 0.0000
vt 0.6564 0.5176 0.0000
vt 0.6564 0.4493 0.0000
vt 0.4340 0.0392 0.0000
vt 0.5301 0.0392 0.0000
vt 0.5301 0.1514 0.0000
vt 0.4340 0.1514 0.0000
vt 0.4367 0.6059 0.0000
vt 0.5050 0.6059 0.0000
vt 0.4073 0.1687 0.0000
vt 0.4073 0.2163 0.0000
vt 0.2950 0.2163 0.0000
vt 0.2950 0.1687 0.0000
vt 0.5370 0.3108 0.0000
vt 0.5370 0.4231 0.0000
vt 0.4687 0.4231 0.0000
vt 0.4687 0.3108 0.0000


o gatehouse2
g gatehouse2
usemtl gatehouse2
s 1
f 3/3/1 2/2/1 1/1/1 
f 1/1/1 4/4/1 3/3/1 
s 2
f 2/7/2 6/6/2 5/5/2 
f 5/5/2 1/8/2 2/7/2 
s 1
f 6/11/3 8/10/3 7/9/3 
f 7/9/3 5/12/3 6/11/3 
s 2
f 8/15/4 3/14/4 4/13/4 
f 4/13/4 7/16/4 8/15/4 
s 1
f 11/19/5 10/18/2 9/17/5 
f 9/17/5 12/20/5 11/19/5 
s 2
f 12/23/6 9/22/6 13/21/6 
f 13/21/6 14/24/6 12/23/6 
s 1
f 14/27/7 13/26/7 15/25/7 
f 15/25/7 16/28/7 14/27/7 
s 2
f 16/31/8 15/30/8 10/29/8 
f 10/29/8 11/32/8 16/31/8 
s 1
f 10/18/2 18/34/5 17/33/5 
f 17/33/5 9/17/5 10/18/2 
s 4
f 9/37/1 17/36/1 19/35/1 
f 19/35/1 13/38/1 9/37/1 
s 1
f 13/26/7 19/40/7 20/39/7 
f 20/39/7 15/25/7 13/26/7 
s 4
f 15/43/3 20/42/3 18/41/3 
f 18/41/3 10/44/3 15/43/3 
s 2
f 19/47/9 17/46/9 18/45/9 
f 18/45/9 20/48/9 19/47/9 
s 1
f 23/51/5 22/50/5 21/49/5 
f 21/49/5 24/52/5 23/51/5 
s 2
f 22/55/9 26/54/9 25/53/9 
f 25/53/9 21/56/9 22/55/9 
s 1
f 26/59/7 28/58/7 27/57/7 
f 27/57/7 25/60/7 26/59/7 
s 2
f 28/63/10 23/62/10 24/61/10 
f 24/61/10 27/64/10 28/63/10 
s 1
f 24/52/5 21/49/5 29/65/5 
f 29/65/5 30/66/5 24/52/5 
s 4
f 21/69/1 25/68/1 31/67/1 
f 31/67/1 29/70/1 21/69/1 
s 1
f 25/60/7 27/57/7 32/71/7 
f 32/71/7 31/72/7 25/60/7 
s 4
f 27/75/3 24/74/3 30/73/3 
f 30/73/3 32/76/3 27/75/3 
s 2
f 31/79/10 32/78/10 30/77/10 
f 30/77/10 29/80/10 31/79/10 


