


mtllib green03.mtl





v  -44.7999 0.4000 91.1133
v  -83.9267 0.4000 91.1133
v  -83.9267 0.4000 103.3073
v  -44.7999 0.4000 103.3073
v  -87.6574 0.4000 67.1416
v  -123.0549 0.4000 67.1416
v  -123.0549 0.4000 103.3073
v  -87.6574 0.4000 103.3073
v  -163.2712 0.4000 91.1133
v  -163.2712 0.4000 103.3073
v  -127.0132 0.4000 103.3073
v  -127.0132 0.4000 91.1133


vn 0.0000 1.0000 -0.0000


vt 0.6224 0.2209 0.0000
vt 0.0392 0.2209 0.0000
vt 0.0392 0.0392 0.0000
vt 0.6224 0.0392 0.0000
vt 0.5928 0.4332 0.0000
vt 0.5928 0.9608 0.0000
vt 0.0538 0.9608 0.0000
vt 0.0538 0.4332 0.0000
vt 0.5889 0.2329 0.0000
vt 0.5889 0.4146 0.0000
vt 0.0485 0.4146 0.0000
vt 0.0485 0.2329 0.0000


o green03
g green03
usemtl green03
s 1
f 1/1/1 2/2/1 3/3/1 
f 3/3/1 4/4/1 1/1/1 
f 5/5/1 6/6/1 7/7/1 
f 7/7/1 8/8/1 5/5/1 
f 9/9/1 10/10/1 11/11/1 
f 11/11/1 12/12/1 9/9/1 


