


mtllib green05.mtl





v  -185.3721 0.3301 -164.7807
v  -186.7331 0.3301 -165.2677
v  -188.2152 0.3301 -165.4387
v  -247.3390 0.3301 118.8551
v  -246.3370 0.3301 119.8571
v  -245.1360 0.3301 120.6211
v  -248.1030 0.3301 117.6541
v  -248.5900 0.3301 116.2930
v  -243.7749 0.3301 121.1081
v  -242.2929 0.3301 121.2791
v  -248.7610 0.3301 114.8110
v  -188.2152 0.3301 121.2791
v  -186.7331 0.3301 121.1081
v  -185.3721 0.3301 120.6211
v  -184.1711 0.3301 119.8571
v  -183.1691 0.3301 118.8551
v  -182.4051 0.3301 117.6541
v  -181.9181 0.3301 116.2930
v  -181.7471 0.3301 114.8110
v  -248.7610 0.3301 -158.9706
v  -248.5900 0.3301 -160.4527
v  -248.1030 0.3301 -161.8137
v  -247.3390 0.3301 -163.0147
v  -246.3370 0.3301 -164.0167
v  -245.1360 0.3301 -164.7807
v  -243.7749 0.3301 -165.2677
v  -242.2929 0.3301 -165.4387
v  -181.7471 0.3301 -158.9706
v  -181.9181 0.3301 -160.4527
v  -182.4051 0.3301 -161.8137
v  -183.1691 0.3301 -163.0147
v  -184.1711 0.3301 -164.0167
v  -253.2441 -0.0001 142.7430
v  -253.6280 -0.0001 143.8158
v  -253.7627 -0.0001 144.9840
v  -191.5089 -0.0001 142.7430
v  -192.1111 -0.0001 141.7962
v  -192.9009 -0.0001 141.0064
v  -193.8476 -0.0001 140.4042
v  -194.9205 -0.0001 140.0203
v  -191.1250 -0.0001 143.8158
v  -196.0887 -0.0001 139.8855
v  -190.9902 -0.0001 144.9840
v  -190.9902 -0.0001 168.7270
v  -191.5957 -0.0001 173.9749
v  -193.3201 -0.0001 178.7943
v  -196.0254 -0.0001 183.0471
v  -199.5735 -0.0001 186.5952
v  -203.8263 -0.0001 189.3006
v  -208.6457 -0.0001 191.0250
v  -213.8937 -0.0001 191.6305
v  -230.8592 -0.0001 191.6305
v  -236.1072 -0.0001 191.0250
v  -240.9266 -0.0001 189.3005
v  -245.1794 -0.0001 186.5952
v  -248.7275 -0.0001 183.0471
v  -251.4328 -0.0001 178.7944
v  -253.1572 -0.0001 173.9750
v  -253.7627 -0.0001 168.7270
v  -248.6643 -0.0001 139.8855
v  -249.8325 -0.0001 140.0203
v  -250.9054 -0.0001 140.4042
v  -251.8520 -0.0001 141.0064
v  -252.6419 -0.0001 141.7962


vn 0.0000 1.0000 -0.0000


vt 0.2430 0.9587 0.0000
vt 0.2386 0.9603 0.0000
vt 0.2338 0.9608 0.0000
vt 0.0438 0.0470 0.0000
vt 0.0470 0.0438 0.0000
vt 0.0509 0.0413 0.0000
vt 0.0413 0.0509 0.0000
vt 0.0397 0.0552 0.0000
vt 0.0552 0.0397 0.0000
vt 0.0600 0.0392 0.0000
vt 0.0392 0.0600 0.0000
vt 0.2338 0.0392 0.0000
vt 0.2386 0.0397 0.0000
vt 0.2430 0.0413 0.0000
vt 0.2468 0.0438 0.0000
vt 0.2500 0.0470 0.0000
vt 0.2525 0.0509 0.0000
vt 0.2541 0.0552 0.0000
vt 0.2546 0.0600 0.0000
vt 0.0392 0.9400 0.0000
vt 0.0397 0.9448 0.0000
vt 0.0413 0.9491 0.0000
vt 0.0438 0.9530 0.0000
vt 0.0470 0.9562 0.0000
vt 0.0509 0.9587 0.0000
vt 0.0552 0.9603 0.0000
vt 0.0600 0.9608 0.0000
vt 0.2546 0.9400 0.0000
vt 0.2541 0.9448 0.0000
vt 0.2525 0.9491 0.0000
vt 0.2500 0.9530 0.0000
vt 0.2468 0.9562 0.0000
vt 0.4678 0.0583 0.0000
vt 0.4690 0.0618 0.0000
vt 0.4695 0.0655 0.0000
vt 0.2694 0.0583 0.0000
vt 0.2713 0.0553 0.0000
vt 0.2738 0.0527 0.0000
vt 0.2769 0.0508 0.0000
vt 0.2803 0.0496 0.0000
vt 0.2681 0.0618 0.0000
vt 0.2841 0.0491 0.0000
vt 0.2677 0.0655 0.0000
vt 0.2677 0.1418 0.0000
vt 0.2697 0.1587 0.0000
vt 0.2752 0.1742 0.0000
vt 0.2839 0.1879 0.0000
vt 0.2953 0.1993 0.0000
vt 0.3090 0.2080 0.0000
vt 0.3245 0.2135 0.0000
vt 0.3413 0.2155 0.0000
vt 0.3959 0.2155 0.0000
vt 0.4127 0.2135 0.0000
vt 0.4282 0.2080 0.0000
vt 0.4419 0.1993 0.0000
vt 0.4533 0.1879 0.0000
vt 0.4620 0.1742 0.0000
vt 0.4675 0.1587 0.0000
vt 0.4695 0.1418 0.0000
vt 0.4531 0.0491 0.0000
vt 0.4568 0.0496 0.0000
vt 0.4603 0.0508 0.0000
vt 0.4633 0.0527 0.0000
vt 0.4659 0.0553 0.0000


o green05
g green05
usemtl green05
s 1
f 1/1/1 2/2/1 3/3/1 
f 4/4/1 5/5/1 6/6/1 
f 7/7/1 4/4/1 6/6/1 
f 8/8/1 7/7/1 6/6/1 
f 8/8/1 6/6/1 9/9/1 
f 8/8/1 9/9/1 10/10/1 
f 11/11/1 8/8/1 10/10/1 
f 11/11/1 10/10/1 12/12/1 
f 11/11/1 12/12/1 13/13/1 
f 11/11/1 13/13/1 14/14/1 
f 11/11/1 14/14/1 15/15/1 
f 11/11/1 15/15/1 16/16/1 
f 11/11/1 16/16/1 17/17/1 
f 11/11/1 17/17/1 18/18/1 
f 11/11/1 18/18/1 19/19/1 
f 20/20/1 11/11/1 19/19/1 
f 21/21/1 20/20/1 19/19/1 
f 22/22/1 21/21/1 19/19/1 
f 23/23/1 22/22/1 19/19/1 
f 24/24/1 23/23/1 19/19/1 
f 25/25/1 24/24/1 19/19/1 
f 26/26/1 25/25/1 19/19/1 
f 27/27/1 26/26/1 19/19/1 
f 3/3/1 27/27/1 19/19/1 
f 3/3/1 19/19/1 28/28/1 
f 3/3/1 28/28/1 29/29/1 
f 3/3/1 29/29/1 30/30/1 
f 3/3/1 30/30/1 31/31/1 
f 3/3/1 31/31/1 32/32/1 
f 1/1/1 3/3/1 32/32/1 
f 33/33/1 34/34/1 35/35/1 
f 36/36/1 37/37/1 38/38/1 
f 36/36/1 38/38/1 39/39/1 
f 36/36/1 39/39/1 40/40/1 
f 41/41/1 36/36/1 40/40/1 
f 41/41/1 40/40/1 42/42/1 
f 43/43/1 41/41/1 42/42/1 
f 44/44/1 43/43/1 42/42/1 
f 45/45/1 44/44/1 42/42/1 
f 46/46/1 45/45/1 42/42/1 
f 47/47/1 46/46/1 42/42/1 
f 48/48/1 47/47/1 42/42/1 
f 49/49/1 48/48/1 42/42/1 
f 50/50/1 49/49/1 42/42/1 
f 51/51/1 50/50/1 42/42/1 
f 52/52/1 51/51/1 42/42/1 
f 53/53/1 52/52/1 42/42/1 
f 54/54/1 53/53/1 42/42/1 
f 55/55/1 54/54/1 42/42/1 
f 56/56/1 55/55/1 42/42/1 
f 57/57/1 56/56/1 42/42/1 
f 58/58/1 57/57/1 42/42/1 
f 59/59/1 58/58/1 42/42/1 
f 35/35/1 59/59/1 42/42/1 
f 35/35/1 42/42/1 60/60/1 
f 35/35/1 60/60/1 61/61/1 
f 35/35/1 61/61/1 62/62/1 
f 35/35/1 62/62/1 63/63/1 
f 35/35/1 63/63/1 64/64/1 
f 33/33/1 35/35/1 64/64/1 


