


mtllib Ground.mtl





v  6.3219 -0.0000 195.2114
v  30.9147 -0.0000 200.0099
v  52.7336 -0.0000 192.1315
v  55.3223 -0.0000 190.9235
v  57.6116 -0.0000 189.3045
v  59.5653 -0.0000 187.3284
v  61.1475 -0.0000 185.0494
v  62.3222 -0.0000 182.5213
v  63.0534 -0.0000 179.7981
v  63.3051 -0.0000 176.9339
v  63.3051 -0.0000 -158.7563
v  -250.0367 -0.0000 -168.7193
v  -251.0113 -0.0000 -168.0993
v  -251.8243 -0.0000 -167.2863
v  -252.4442 -0.0000 -166.3117
v  -248.9323 -0.0000 -169.1144
v  -252.8394 -0.0000 -165.2073
v  -247.7297 -0.0000 -169.2532
v  -252.9781 -0.0000 -164.0047
v  52.8082 -0.0000 -169.2532
v  55.2134 -0.0000 -168.9757
v  57.4222 -0.0000 -168.1854
v  59.3713 -0.0000 -166.9455
v  60.9974 -0.0000 -165.3194
v  62.2373 -0.0000 -163.3703
v  63.0276 -0.0000 -161.1615
v  -252.9784 -0.0000 126.8466
v  -192.1151 -0.0000 126.8316
v  -189.1024 -0.0000 127.1792
v  -186.3357 -0.0000 128.1691
v  -183.8942 -0.0000 129.7222
v  -181.8574 -0.0000 131.7590
v  -180.3043 -0.0000 134.2004
v  -179.3144 -0.0000 136.9671
v  -178.9668 -0.0000 139.9798
v  -178.9668 -0.0000 169.8056
v  -178.4061 -0.0000 174.6649
v  -176.8095 -0.0000 179.1273
v  -174.3045 -0.0000 183.0651
v  -171.0193 -0.0000 186.3503
v  -167.0815 -0.0000 188.8553
v  -162.6191 -0.0000 190.4520
v  -157.7599 -0.0000 191.0126
v  -110.0437 -0.0000 191.0126
v  -87.2504 -0.0000 195.2114


vn 0.0000 1.0000 -0.0000


vt 0.1814 0.9488 0.0000
vt 0.1200 0.9608 0.0000
vt 0.0656 0.9411 0.0000
vt 0.0591 0.9381 0.0000
vt 0.0534 0.9341 0.0000
vt 0.0485 0.9291 0.0000
vt 0.0446 0.9235 0.0000
vt 0.0417 0.9172 0.0000
vt 0.0398 0.9104 0.0000
vt 0.0392 0.9032 0.0000
vt 0.0392 0.0654 0.0000
vt 0.8212 0.0405 0.0000
vt 0.8237 0.0421 0.0000
vt 0.8257 0.0441 0.0000
vt 0.8272 0.0465 0.0000
vt 0.8185 0.0395 0.0000
vt 0.8282 0.0493 0.0000
vt 0.8155 0.0392 0.0000
vt 0.8286 0.0523 0.0000
vt 0.0654 0.0392 0.0000
vt 0.0594 0.0399 0.0000
vt 0.0539 0.0419 0.0000
vt 0.0490 0.0450 0.0000
vt 0.0450 0.0490 0.0000
vt 0.0419 0.0539 0.0000
vt 0.0399 0.0594 0.0000
vt 0.8286 0.7782 0.0000
vt 0.6767 0.7782 0.0000
vt 0.6692 0.7790 0.0000
vt 0.6622 0.7815 0.0000
vt 0.6562 0.7854 0.0000
vt 0.6511 0.7905 0.0000
vt 0.6472 0.7966 0.0000
vt 0.6447 0.8035 0.0000
vt 0.6439 0.8110 0.0000
vt 0.6439 0.8854 0.0000
vt 0.6425 0.8975 0.0000
vt 0.6385 0.9087 0.0000
vt 0.6322 0.9185 0.0000
vt 0.6240 0.9267 0.0000
vt 0.6142 0.9330 0.0000
vt 0.6031 0.9369 0.0000
vt 0.5909 0.9383 0.0000
vt 0.4718 0.9383 0.0000
vt 0.4150 0.9488 0.0000


o Ground
g Ground
usemtl Ground
s 1
f 1/1/1 2/2/1 3/3/1 
f 1/1/1 3/3/1 4/4/1 
f 1/1/1 4/4/1 5/5/1 
f 1/1/1 5/5/1 6/6/1 
f 1/1/1 6/6/1 7/7/1 
f 1/1/1 7/7/1 8/8/1 
f 1/1/1 8/8/1 9/9/1 
f 1/1/1 9/9/1 10/10/1 
f 1/1/1 10/10/1 11/11/1 
f 12/12/1 13/13/1 14/14/1 
f 12/12/1 14/14/1 15/15/1 
f 16/16/1 12/12/1 15/15/1 
f 16/16/1 15/15/1 17/17/1 
f 18/18/1 16/16/1 17/17/1 
f 18/18/1 17/17/1 19/19/1 
f 20/20/1 18/18/1 19/19/1 
f 21/21/1 20/20/1 19/19/1 
f 22/22/1 21/21/1 19/19/1 
f 23/23/1 22/22/1 19/19/1 
f 24/24/1 23/23/1 19/19/1 
f 25/25/1 24/24/1 19/19/1 
f 26/26/1 25/25/1 19/19/1 
f 11/11/1 26/26/1 19/19/1 
f 19/19/1 27/27/1 28/28/1 
f 19/19/1 28/28/1 29/29/1 
f 19/19/1 29/29/1 30/30/1 
f 19/19/1 30/30/1 31/31/1 
f 19/19/1 31/31/1 32/32/1 
f 11/11/1 19/19/1 32/32/1 
f 11/11/1 32/32/1 33/33/1 
f 11/11/1 33/33/1 34/34/1 
f 11/11/1 34/34/1 35/35/1 
f 11/11/1 35/35/1 36/36/1 
f 11/11/1 36/36/1 37/37/1 
f 11/11/1 37/37/1 38/38/1 
f 11/11/1 38/38/1 39/39/1 
f 11/11/1 39/39/1 40/40/1 
f 11/11/1 40/40/1 41/41/1 
f 11/11/1 41/41/1 42/42/1 
f 11/11/1 42/42/1 43/43/1 
f 11/11/1 43/43/1 44/44/1 
f 11/11/1 44/44/1 45/45/1 
f 1/1/1 11/11/1 45/45/1 


