


mtllib guardrail.mtl





v  -27.0091 6.0106 28.0933
v  -49.4531 6.0106 28.0933
v  -49.4531 4.8275 28.0933
v  -27.0096 4.8275 28.0933
v  -30.4891 4.8275 24.8082
v  -49.4531 4.8275 24.8082
v  -49.4531 6.0106 24.8082
v  -30.4886 6.0106 24.8082
v  -30.4886 6.0106 -16.6958
v  -30.4891 4.8275 -16.6958
v  -27.0096 4.8275 -16.9142
v  -27.0091 6.0106 -16.9142


vn 0.0000 -0.0000 1.0000
vn -0.0000 -0.0000 -1.0000
vn -0.0000 0.0000 -1.0000
vn -1.0000 0.0004 0.0000
vn 1.0000 -0.0004 -0.0000


vt 0.4216 0.1132 0.0000
vt 0.0441 0.1132 0.0000
vt 0.0441 0.0933 0.0000
vt 0.4216 0.0933 0.0000
vt 0.3630 0.1402 0.0000
vt 0.0441 0.1402 0.0000
vt 0.0441 0.1203 0.0000
vt 0.3630 0.1203 0.0000
vt 0.0441 0.0861 0.0000
vt 0.0441 0.0662 0.0000
vt 0.8940 0.0662 0.0000
vt 0.8940 0.0861 0.0000
vt 0.0392 0.0591 0.0000
vt 0.0392 0.0392 0.0000
vt 0.9608 0.0392 0.0000
vt 0.9608 0.0591 0.0000


o guardrail
g guardrail
usemtl guardrail
s 1
f 1/1/1 2/2/1 3/3/1 
f 3/3/1 4/4/1 1/1/1 
f 5/5/2 6/6/3 7/7/3 
f 7/7/3 8/8/2 5/5/2 
s off
f 5/9/4 8/10/4 9/11/4 
f 9/11/4 10/12/4 5/9/4 
f 1/13/5 4/14/5 11/15/5 
f 11/15/5 12/16/5 1/13/5 


