# 3ds Max Wavefront OBJ Exporter v0.97b - (c)2007 guruware
# 创建的文件:22.02.2022 17:00:04

#
# object 对象046
#

v  -55.7144 7.8821 -112.6231
v  -13.3545 7.8821 -112.6231
v  -13.3545 7.8821 -158.8057
v  -55.7144 7.8821 -158.8057
v  -55.7144 7.1169 -112.6231
v  -13.3545 7.1169 -112.6231
v  -13.3545 7.1169 -158.8057
v  -55.7144 7.1169 -158.8057
# 8 vertices

vn 0.0000 1.0000 -0.0000
vn 0.0000 0.0000 1.0000
vn 1.0000 0.0000 -0.0000
vn 0.0000 0.0000 -1.0000
vn -1.0000 0.0000 -0.0000
vn 0.0000 -1.0000 -0.0000
# 6 vertex normals

vt 0.0000 0.0000 0.0000
vt 1.0000 0.0000 0.0000
vt 1.0000 1.0000 0.0000
vt 0.0000 1.0000 0.0000
# 4 texture coords

o 对象046
g 对象046
s 4
f 1/1/1 2/2/1 3/3/1 
f 3/3/1 4/4/1 1/1/1 
s off
f 5/1/2 6/2/2 2/2/2 
f 2/2/2 1/1/2 5/1/2 
f 6/2/3 7/3/3 3/3/3 
f 3/3/3 2/2/3 6/2/3 
f 7/3/4 8/4/4 4/4/4 
f 4/4/4 3/3/4 7/3/4 
f 8/4/5 5/1/5 1/1/5 
f 1/1/5 4/4/5 8/4/5 
s 1
f 8/4/6 7/3/6 6/2/6 
f 6/2/6 5/1/6 8/4/6 
# 12 faces

