# 3ds Max Wavefront OBJ Exporter v0.97b - (c)2007 guruware
# 创建的文件:23.09.2021 15:23:36

mtllib sxt.mtl

#
# object Plane009
#

v  26.4244 22.5502 -0.0014
v  33.3911 15.5834 -0.0014
v  26.4244 8.6166 -0.0014
v  19.4576 15.5834 -0.0014
v  26.0565 -23.2565 -0.0014
v  26.0565 9.1918 -0.0014
v  26.9226 9.1918 -0.0014
v  26.9226 -23.2565 -0.0014
# 8 vertices

vn 0.0000 0.0000 1.0000
vn 0.0000 -0.0000 1.0000
# 2 vertex normals

vt 0.5007 0.9360 0.5000
vt 0.0493 0.4847 0.5000
vt 0.5007 0.0334 0.5000
vt 0.9520 0.4847 0.5000
vt 0.0000 0.0136 0.9982
vt 0.0000 0.9864 0.0018
vt 1.0000 0.9864 0.0018
vt 1.0000 0.0136 0.9982
# 8 texture coords

o Plane009
g Plane009
usemtl shexiangtou
s 1
f 3/3/1 2/2/1 1/1/1 
f 1/1/1 4/4/1 3/3/1 
usemtl guangshu04
f 7/7/2 6/6/2 5/5/2 
f 5/5/2 8/8/2 7/7/2 
# 4 faces

