# 3ds Max Wavefront OBJ Exporter v0.97b - (c)2007 guruware
# 创建的文件:24.11.2021 10:31:12

mtllib zj01.mtl

#
# object zj01
#

v  -347.9161 0.0000 109.6452
v  -279.5670 0.0000 109.6452
v  -279.5670 120.0000 109.6452
v  -347.9161 120.0000 109.6452
v  -279.5670 0.0000 76.6924
v  -279.5670 120.0000 76.6924
v  -347.9161 0.0000 76.6924
v  -347.9161 120.0000 76.6924
v  -315.0359 44.4201 80.3622
v  -281.5636 44.4201 80.3622
v  -281.5636 44.4201 47.4093
v  -315.0359 44.4201 47.4093
v  -281.5636 0.0000 80.3622
v  -281.5636 0.0000 47.4093
v  -315.0359 0.0000 47.4093
v  -315.0359 0.0000 80.3622
v  -347.9161 0.0000 51.4987
v  -279.5670 0.0000 51.4987
v  -279.5670 120.0000 51.4987
v  -347.9161 120.0000 51.4987
v  -279.5670 0.0000 18.5459
v  -279.5670 120.0000 18.5459
v  -347.9161 0.0000 18.5459
v  -347.9161 120.0000 18.5459
v  -347.9161 115.3894 109.6452
v  -279.5670 115.3894 109.6452
v  -279.5670 115.3894 76.6924
v  -347.9161 115.3894 76.6924
v  -347.9161 115.3894 51.4987
v  -279.5670 115.3894 51.4987
v  -279.5670 115.3894 18.5459
v  -347.9161 115.3894 18.5459
# 32 vertices

vn 0.0000 0.0000 1.0000
vn 1.0000 0.0000 -0.0000
vn 0.0000 0.0000 -1.0000
vn -1.0000 0.0000 -0.0000
vn 0.0000 1.0000 -0.0000
# 5 vertex normals

vt 0.7773 0.4006 0.0000
vt 0.7773 0.6159 0.0000
vt 0.3992 0.6159 0.0000
vt 0.3992 0.4006 0.0000
vt 0.1430 0.8414 0.0000
vt 0.0392 0.8414 0.0000
vt 0.0392 0.4633 0.0000
vt 0.1430 0.4633 0.0000
vt 0.7773 0.1646 0.0000
vt 0.7773 0.3799 0.0000
vt 0.3992 0.3799 0.0000
vt 0.3992 0.1646 0.0000
vt 0.7773 0.0392 0.0000
vt 0.7773 0.1430 0.0000
vt 0.3992 0.1430 0.0000
vt 0.3992 0.0392 0.0000
vt 0.6358 0.9608 0.0000
vt 0.6358 0.8553 0.0000
vt 0.7397 0.8553 0.0000
vt 0.7397 0.9608 0.0000
vt 0.8097 0.1601 0.0000
vt 0.8097 0.0563 0.0000
vt 0.9496 0.0563 0.0000
vt 0.9496 0.1601 0.0000
vt 0.8097 0.2689 0.0000
vt 0.8097 0.1650 0.0000
vt 0.9496 0.1650 0.0000
vt 0.9496 0.2689 0.0000
vt 0.3790 0.4320 0.0000
vt 0.1637 0.4320 0.0000
vt 0.1637 0.0540 0.0000
vt 0.3790 0.0540 0.0000
vt 0.7773 0.6366 0.0000
vt 0.7773 0.7404 0.0000
vt 0.3992 0.7404 0.0000
vt 0.3992 0.6366 0.0000
vt 0.3790 0.8414 0.0000
vt 0.1637 0.8414 0.0000
vt 0.1637 0.4633 0.0000
vt 0.3790 0.4633 0.0000
vt 0.1430 0.4320 0.0000
vt 0.0392 0.4320 0.0000
vt 0.0392 0.0540 0.0000
vt 0.1430 0.0540 0.0000
vt 0.4159 0.9608 0.0000
vt 0.4159 0.7455 0.0000
vt 0.5197 0.7455 0.0000
vt 0.5197 0.9608 0.0000
vt 0.5258 0.9608 0.0000
vt 0.5258 0.7455 0.0000
vt 0.6297 0.7455 0.0000
vt 0.6297 0.9608 0.0000
# 52 texture coords

o zj01
g zj01
usemtl zj01
s 8
f 1/1/1 2/2/1 3/3/1 
f 3/3/1 4/4/1 1/1/1 
s 16
f 2/5/2 5/6/2 6/7/2 
f 6/7/2 3/8/2 2/5/2 
s 32
f 5/9/3 7/10/3 8/11/3 
f 8/11/3 6/12/3 5/9/3 
s 64
f 7/13/4 1/14/4 4/15/4 
f 4/15/4 8/16/4 7/13/4 
s 4
f 9/17/5 10/18/5 11/19/5 
f 11/19/5 12/20/5 9/17/5 
s 16
f 13/21/2 14/22/2 11/23/2 
f 11/23/2 10/24/2 13/21/2 
s 64
f 15/25/4 16/26/4 9/27/4 
f 9/27/4 12/28/4 15/25/4 
s 8
f 17/29/1 18/30/1 19/31/1 
f 19/31/1 20/32/1 17/29/1 
s 16
f 18/33/2 21/34/2 22/35/2 
f 22/35/2 19/36/2 18/33/2 
s 32
f 21/37/3 23/38/3 24/39/3 
f 24/39/3 22/40/3 21/37/3 
s 64
f 23/41/4 17/42/4 20/43/4 
f 20/43/4 24/44/4 23/41/4 
s 4
f 25/45/5 26/46/5 27/47/5 
f 27/47/5 28/48/5 25/45/5 
f 29/49/5 30/50/5 31/51/5 
f 31/51/5 32/52/5 29/49/5 
# 26 faces

