# 3ds Max Wavefront OBJ Exporter v0.97b - (c)2007 guruware
# 创建的文件:24.11.2021 10:32:33

mtllib zj02.mtl

#
# object zj02
#

v  -334.4742 116.5237 -59.1506
v  -289.0946 116.5237 -59.1506
v  -289.0946 116.5237 -80.4687
v  -334.4742 116.5237 -80.4687
v  -334.4742 0.0000 -59.1506
v  -289.0946 0.0000 -59.1506
v  -289.0946 120.0000 -59.1506
v  -334.4742 120.0000 -59.1506
v  -289.0946 0.0000 -80.4687
v  -289.0946 120.0000 -80.4687
v  -334.4742 0.0000 -80.4687
v  -334.4742 120.0000 -80.4687
# 12 vertices

vn 0.0000 1.0000 -0.0000
vn 0.0000 0.0000 1.0000
vn 1.0000 0.0000 -0.0000
vn 0.0000 0.0000 -1.0000
vn -1.0000 0.0000 -0.0000
# 5 vertex normals

vt 0.0392 0.8270 0.0000
vt 0.3240 0.8270 0.0000
vt 0.3240 0.9608 0.0000
vt 0.0392 0.9608 0.0000
vt 0.4809 0.7924 0.0000
vt 0.1961 0.7924 0.0000
vt 0.1961 0.0392 0.0000
vt 0.4809 0.0392 0.0000
vt 0.1730 0.7924 0.0000
vt 0.0392 0.7924 0.0000
vt 0.0392 0.0392 0.0000
vt 0.1730 0.0392 0.0000
vt 0.7889 0.7924 0.0000
vt 0.5041 0.7924 0.0000
vt 0.5041 0.0392 0.0000
vt 0.7889 0.0392 0.0000
vt 0.9470 0.7924 0.0000
vt 0.8132 0.7924 0.0000
vt 0.8132 0.0392 0.0000
vt 0.9470 0.0392 0.0000
# 20 texture coords

o zj02
g zj02
usemtl zj02
s 4
f 1/1/1 2/2/1 3/3/1 
f 3/3/1 4/4/1 1/1/1 
s 8
f 5/5/2 6/6/2 7/7/2 
f 7/7/2 8/8/2 5/5/2 
s 16
f 6/9/3 9/10/3 10/11/3 
f 10/11/3 7/12/3 6/9/3 
s 32
f 9/13/4 11/14/4 12/15/4 
f 12/15/4 10/16/4 9/13/4 
s 64
f 11/17/5 5/18/5 8/19/5 
f 8/19/5 12/20/5 11/17/5 
# 10 faces

