# 3ds Max Wavefront OBJ Exporter v0.97b - (c)2007 guruware
# 创建的文件:24.11.2021 10:33:47

mtllib zj03.mtl

#
# object zj03
#

v  -378.6446 25.2185 -17.8024
v  -340.0376 25.2185 -17.8024
v  -340.0376 25.2185 -95.4247
v  -378.6446 25.2185 -95.4247
v  -378.6446 0.0000 -17.8024
v  -340.0376 0.0000 -17.8024
v  -340.0376 27.6000 -17.8024
v  -378.6446 27.6000 -17.8024
v  -340.0376 0.0000 -95.4247
v  -340.0376 27.6000 -95.4247
v  -378.6446 0.0000 -95.4247
v  -378.6446 27.6000 -95.4247
# 12 vertices

vn 0.0000 1.0000 -0.0000
vn 0.0000 0.0000 1.0000
vn 1.0000 0.0000 -0.0000
vn 0.0000 0.0000 -1.0000
vn -1.0000 0.0000 -0.0000
# 5 vertex normals

vt 0.9608 0.3242 0.0000
vt 0.9608 0.8552 0.0000
vt 0.7114 0.8552 0.0000
vt 0.7114 0.3242 0.0000
vt 0.3826 0.8387 0.0000
vt 0.3826 0.3078 0.0000
vt 0.7055 0.3078 0.0000
vt 0.7055 0.8387 0.0000
vt 0.4084 0.2886 0.0000
vt 0.4084 0.0392 0.0000
vt 0.7313 0.0392 0.0000
vt 0.7313 0.2886 0.0000
vt 0.0392 0.8387 0.0000
vt 0.0392 0.3078 0.0000
vt 0.3621 0.3078 0.0000
vt 0.3621 0.8387 0.0000
vt 0.0540 0.2886 0.0000
vt 0.0540 0.0392 0.0000
vt 0.3769 0.0392 0.0000
vt 0.3769 0.2886 0.0000
# 20 texture coords

o zj03
g zj03
usemtl zj03
s 4
f 1/1/1 2/2/1 3/3/1 
f 3/3/1 4/4/1 1/1/1 
s 8
f 5/5/2 6/6/2 7/7/2 
f 7/7/2 8/8/2 5/5/2 
s 16
f 6/9/3 9/10/3 10/11/3 
f 10/11/3 7/12/3 6/9/3 
s 32
f 9/13/4 11/14/4 12/15/4 
f 12/15/4 10/16/4 9/13/4 
s 64
f 11/17/5 5/18/5 8/19/5 
f 8/19/5 12/20/5 11/17/5 
# 10 faces

