# 3ds Max Wavefront OBJ Exporter v0.97b - (c)2007 guruware
# 创建的文件:24.11.2021 10:28:48

mtllib zj05.mtl

#
# object zj05
#

v  -381.4168 0.0000 174.1381
v  -338.4767 0.0000 174.1381
v  -338.4767 120.0000 174.1381
v  -381.4168 120.0000 174.1381
v  -338.4767 0.0000 139.6534
v  -338.4767 120.0000 139.6534
v  -381.4168 0.0000 139.6534
v  -381.4168 120.0000 139.6534
v  -381.4168 116.1388 174.1381
v  -338.4767 116.1388 174.1381
v  -338.4767 116.1388 139.6534
v  -381.4168 116.1388 139.6534
# 12 vertices

vn 0.0000 0.0000 1.0000
vn 1.0000 0.0000 -0.0000
vn 0.0000 0.0000 -1.0000
vn -1.0000 0.0000 -0.0000
vn 0.0000 1.0000 -0.0000
# 5 vertex normals

vt 0.9140 0.5113 0.0000
vt 0.9140 0.7482 0.0000
vt 0.2520 0.7482 0.0000
vt 0.2520 0.5113 0.0000
vt 0.2294 0.7169 0.0000
vt 0.0392 0.7169 0.0000
vt 0.0392 0.0549 0.0000
vt 0.2294 0.0549 0.0000
vt 0.9140 0.2516 0.0000
vt 0.9140 0.4885 0.0000
vt 0.2520 0.4885 0.0000
vt 0.2520 0.2516 0.0000
vt 0.9140 0.0392 0.0000
vt 0.9140 0.2294 0.0000
vt 0.2520 0.2294 0.0000
vt 0.2520 0.0392 0.0000
vt 0.0392 0.7706 0.0000
vt 0.2761 0.7706 0.0000
vt 0.2761 0.9608 0.0000
vt 0.0392 0.9608 0.0000
# 20 texture coords

o zj05
g zj05
usemtl zj05
s 8
f 1/1/1 2/2/1 3/3/1 
f 3/3/1 4/4/1 1/1/1 
s 16
f 2/5/2 5/6/2 6/7/2 
f 6/7/2 3/8/2 2/5/2 
s 32
f 5/9/3 7/10/3 8/11/3 
f 8/11/3 6/12/3 5/9/3 
s 64
f 7/13/4 1/14/4 4/15/4 
f 4/15/4 8/16/4 7/13/4 
s 4
f 9/17/5 10/18/5 11/19/5 
f 11/19/5 12/20/5 9/17/5 
# 10 faces

