# 3ds Max Wavefront OBJ Exporter v0.97b - (c)2007 guruware
# 创建的文件:24.11.2021 10:36:30

#
# object Box267
#

v  273.1293 22.8263 -217.5130
v  301.6577 22.8263 -217.5130
v  301.6577 22.8263 -238.8988
v  273.1293 22.8263 -238.8988
v  273.1293 -3.5715 -217.5130
v  301.6577 -3.5715 -217.5130
v  301.6577 -3.5715 -238.8988
v  273.1293 -3.5715 -238.8988
v  186.6559 11.0483 -210.0062
v  222.7603 11.0483 -245.4267
v  207.6522 11.0483 -260.8265
v  171.5477 11.0483 -225.4061
v  186.6559 -3.5715 -210.0062
v  222.7603 -3.5715 -245.4267
v  207.6522 -3.5715 -260.8265
v  171.5477 -3.5715 -225.4061
v  184.9878 11.0483 -248.8303
v  221.0922 11.0483 -284.2508
v  205.9841 11.0483 -299.6506
v  169.8796 11.0483 -264.2301
v  184.9878 -3.5715 -248.8303
v  221.0922 -3.5715 -284.2508
v  205.9841 -3.5715 -299.6506
v  169.8796 -3.5715 -264.2301
v  161.2481 11.0277 -301.3394
v  218.7405 11.0277 -301.3394
v  218.7405 11.0277 -316.7430
v  161.2481 11.0277 -316.7430
v  161.2481 -3.5715 -301.3394
v  218.7405 -3.5715 -301.3394
v  218.7405 -3.5715 -316.7430
v  161.2481 -3.5715 -316.7430
v  161.2481 20.4029 -329.3041
v  218.7405 20.4029 -329.3041
v  218.7405 20.4029 -344.7077
v  161.2481 20.4029 -344.7077
v  161.2481 -3.5715 -329.3041
v  218.7405 -3.5715 -329.3041
v  218.7405 -3.5715 -344.7077
v  161.2481 -3.5715 -344.7077
v  183.8292 10.6562 -322.7767
v  219.9336 10.6562 -287.3562
v  204.8255 10.6562 -271.9564
v  168.7211 10.6562 -307.3769
v  183.8292 25.2760 -322.7767
v  168.7211 25.2760 -307.3769
v  204.8255 25.2760 -271.9564
v  219.9336 25.2760 -287.3562
v  182.1611 10.6562 -283.9526
v  218.2655 10.6562 -248.5321
v  203.1574 10.6562 -233.1323
v  167.0530 10.6562 -268.5528
v  182.1611 25.2760 -283.9526
v  167.0530 25.2760 -268.5528
v  203.1574 25.2760 -233.1323
v  218.2655 25.2760 -248.5321
v  184.9878 25.0197 -248.8303
v  169.8796 25.0197 -264.2301
v  205.9841 25.0197 -299.6506
v  221.0922 25.0197 -284.2508
v  184.9878 39.6394 -248.8303
v  221.0922 39.6394 -284.2508
v  205.9841 39.6394 -299.6506
v  169.8796 39.6394 -264.2301
v  222.4196 7.7530 -217.5130
v  267.5923 7.7530 -217.5130
v  267.5923 7.7530 -232.9166
v  222.4196 7.7530 -232.9166
v  222.4196 -3.5715 -217.5130
v  267.5923 -3.5715 -217.5130
v  267.5923 -3.5715 -232.9166
v  222.4196 -3.5715 -232.9166
v  220.7147 7.2143 -214.0962
v  220.7147 7.2143 -233.5443
v  269.2972 7.2143 -233.5443
v  269.2972 7.2143 -214.0962
v  220.7147 21.4596 -214.0962
v  269.2972 21.4596 -214.0962
v  269.2972 21.4596 -233.5443
v  220.7147 21.4596 -233.5443
v  156.9514 9.0563 -357.4231
v  218.7405 9.0563 -357.4231
v  218.7405 9.0563 -397.9412
v  156.9514 9.0563 -397.9412
v  156.9514 -3.5715 -357.4231
v  218.7405 -3.5715 -357.4231
v  218.7405 -3.5715 -397.9412
v  156.9514 -3.5715 -397.9412
v  218.0924 20.4029 -380.7051
v  275.5847 20.4029 -380.7051
v  275.5847 20.4029 -396.1086
v  218.0924 20.4029 -396.1086
v  218.0924 -3.5715 -380.7051
v  275.5847 -3.5715 -380.7051
v  275.5847 -3.5715 -396.1086
v  218.0924 -3.5715 -396.1086
v  255.5693 121.6617 -382.7415
v  295.3372 121.6617 -382.7415
v  295.3372 121.6617 -394.0723
v  255.5693 121.6617 -394.0723
v  255.5693 -3.5715 -382.7415
v  295.3372 -3.5715 -382.7415
v  295.3372 -3.5715 -394.0723
v  255.5693 -3.5715 -394.0723
v  303.2720 56.1589 -382.7415
v  343.0399 56.1589 -382.7415
v  343.0399 56.1589 -394.0723
v  303.2720 56.1589 -394.0723
v  303.2720 -3.5715 -382.7415
v  343.0399 -3.5715 -382.7415
v  343.0399 -3.5715 -394.0723
v  303.2720 -3.5715 -394.0723
v  230.3169 11.3169 -247.1123
v  240.3009 11.3169 -247.1123
v  240.3009 11.3169 -258.3947
v  230.3169 11.3169 -258.3947
v  230.3169 -3.5715 -247.1123
v  240.3009 -3.5715 -247.1123
v  240.3009 -3.5715 -258.3947
v  230.3169 -3.5715 -258.3947
v  230.3169 20.7192 -260.5631
v  243.7027 20.7192 -260.5631
v  243.7027 20.7193 -271.8456
v  230.3169 20.7192 -271.8456
v  230.3169 -3.5715 -260.5631
v  243.7027 -3.5715 -260.5631
v  243.7027 -3.5715 -271.8456
v  230.3169 -3.5715 -271.8456
v  247.0362 11.3169 -243.0105
v  257.0203 11.3169 -243.0105
v  257.0203 11.3169 -254.2930
v  247.0362 11.3169 -254.2930
v  247.0362 -3.5715 -243.0105
v  257.0203 -3.5715 -243.0105
v  257.0203 -3.5715 -254.2930
v  247.0362 -3.5715 -254.2930
v  265.9037 11.3169 -246.0732
v  275.8878 11.3169 -246.0732
v  275.8878 11.3169 -257.3557
v  265.9037 11.3169 -257.3557
v  265.9037 -3.5715 -246.0732
v  275.8878 -3.5715 -246.0732
v  275.8878 -3.5715 -257.3557
v  265.9037 -3.5715 -257.3557
v  246.3956 11.3169 -264.9172
v  272.0796 11.3169 -264.9172
v  272.0796 11.3169 -276.1997
v  246.3956 11.3169 -276.1997
v  246.3956 -3.5715 -264.9172
v  272.0796 -3.5715 -264.9172
v  272.0796 -3.5715 -276.1997
v  246.3956 -3.5715 -276.1997
v  286.3739 10.6960 -248.2520
v  295.9360 11.9762 -251.0383
v  292.7831 11.8849 -261.8711
v  283.2210 10.6047 -259.0848
v  286.9255 -4.1560 -248.3755
v  296.4875 -2.8758 -251.1618
v  293.3346 -2.9671 -261.9946
v  283.7726 -4.2473 -259.2084
v  277.2352 10.6960 -268.0281
v  286.7972 11.9762 -270.8143
v  283.6443 11.8849 -281.6472
v  274.0822 10.6047 -278.8609
v  277.7867 -4.1560 -268.1516
v  287.3488 -2.8758 -270.9379
v  284.1959 -2.9671 -281.7707
v  274.6338 -4.2473 -278.9844
v  230.3169 11.8871 -288.2950
v  248.5827 11.8871 -288.2950
v  248.5827 11.8871 -299.5775
v  230.3169 11.8871 -299.5775
v  230.3169 -3.5715 -288.2950
v  248.5827 -3.5715 -288.2950
v  248.5827 -3.5715 -299.5775
v  230.3169 -3.5715 -299.5775
v  312.0030 11.0959 -235.1561
v  328.4581 11.9360 -240.0017
v  326.2706 11.8713 -247.4338
v  309.8154 11.0312 -242.5882
v  312.2200 -3.7870 -235.1817
v  328.6751 -2.9469 -240.0273
v  326.4875 -3.0116 -247.4594
v  310.0324 -3.8517 -242.6138
v  330.5345 11.3169 -240.4704
v  344.5702 11.3169 -240.4704
v  344.5702 11.3169 -247.7365
v  330.5345 11.3169 -247.7365
v  330.5345 -3.5715 -240.4704
v  344.5702 -3.5715 -240.4704
v  344.5702 -3.5715 -247.7365
v  330.5345 -3.5715 -247.7365
v  310.4952 8.3664 -248.9003
v  318.2056 9.3987 -251.1470
v  315.0526 9.3074 -261.9799
v  307.3422 8.2751 -259.7332
v  310.9134 -2.8951 -248.9940
v  318.6238 -1.8628 -251.2407
v  315.4709 -1.9541 -262.0735
v  307.7604 -2.9864 -259.8268
v  344.8936 11.3169 -265.6291
v  358.9293 11.3169 -265.6291
v  358.9293 11.3169 -272.8953
v  344.8936 11.3169 -272.8953
v  344.8936 -3.5715 -265.6291
v  358.9293 -3.5715 -265.6291
v  358.9293 -3.5715 -272.8953
v  344.8936 -3.5715 -272.8953
v  323.6278 11.3169 -261.0787
v  337.6635 11.3169 -261.0787
v  337.6635 11.3169 -268.3449
v  323.6278 11.3169 -268.3449
v  323.6278 -3.5715 -261.0787
v  337.6635 -3.5715 -261.0787
v  337.6635 -3.5715 -268.3449
v  323.6278 -3.5715 -268.3449
v  323.6278 11.3169 -282.3542
v  337.6635 11.3169 -282.3542
v  337.6635 11.3169 -289.6204
v  323.6278 11.3169 -289.6204
v  323.6278 -3.5715 -282.3542
v  337.6635 -3.5715 -282.3542
v  337.6635 -3.5715 -289.6204
v  323.6278 -3.5715 -289.6204
v  345.1353 11.3169 -250.6959
v  359.1710 11.3169 -250.6959
v  359.1710 11.3169 -257.9621
v  345.1353 11.3169 -257.9621
v  345.1353 -3.5715 -250.6959
v  359.1710 -3.5715 -250.6959
v  359.1710 -3.5715 -257.9621
v  345.1353 -3.5715 -257.9621
v  313.1174 11.3169 -307.9976
v  349.7164 11.3169 -307.9976
v  349.7164 11.3169 -319.1520
v  313.1174 11.3169 -319.1520
v  313.1174 -3.5715 -307.9976
v  349.7164 -3.5715 -307.9976
v  349.7164 -3.5715 -319.1520
v  313.1174 -3.5715 -319.1520
v  296.9052 21.3419 -323.3387
v  296.9052 21.3419 -299.6770
v  311.7000 21.3419 -299.6770
v  311.7000 21.3419 -323.3387
v  296.9052 -3.5715 -323.3387
v  296.9052 -3.5715 -299.6770
v  311.7000 -3.5715 -299.6770
v  311.7000 -3.5715 -323.3387
v  262.5303 11.8871 -351.4418
v  280.7961 11.8871 -351.4418
v  280.7961 11.8871 -362.7243
v  262.5303 11.8871 -362.7243
v  262.5303 -3.5715 -351.4418
v  280.7961 -3.5715 -351.4418
v  280.7961 -3.5715 -362.7243
v  262.5303 -3.5715 -362.7243
v  285.8850 11.8871 -351.4418
v  304.1508 11.8871 -351.4418
v  304.1508 11.8871 -362.7243
v  285.8850 11.8871 -362.7243
v  285.8850 -3.5715 -351.4418
v  304.1508 -3.5715 -351.4418
v  304.1508 -3.5715 -362.7243
v  285.8850 -3.5715 -362.7243
v  323.4094 11.8871 -351.4418
v  341.6751 11.8871 -351.4418
v  341.6751 11.8871 -362.7243
v  323.4094 11.8871 -362.7243
v  323.4094 -3.5715 -351.4418
v  341.6751 -3.5715 -351.4418
v  341.6751 -3.5715 -362.7243
v  323.4094 -3.5715 -362.7243
v  262.5303 11.8871 -330.3690
v  280.7961 11.8871 -330.3690
v  280.7961 11.8871 -341.6515
v  262.5303 11.8871 -341.6515
v  262.5303 -3.5715 -330.3690
v  280.7961 -3.5715 -330.3690
v  280.7961 -3.5715 -341.6515
v  262.5303 -3.5715 -341.6515
v  285.8850 11.8871 -330.3690
v  304.1508 11.8871 -330.3690
v  304.1508 11.8871 -341.6515
v  285.8850 11.8871 -341.6515
v  285.8850 -3.5715 -330.3690
v  304.1508 -3.5715 -330.3690
v  304.1508 -3.5715 -341.6515
v  285.8850 -3.5715 -341.6515
v  323.4094 11.8871 -330.3690
v  341.6751 11.8871 -330.3690
v  341.6751 11.8871 -341.6515
v  323.4094 11.8871 -341.6515
v  323.4094 -3.5715 -330.3690
v  341.6751 -3.5715 -330.3690
v  341.6751 -3.5715 -341.6515
v  323.4094 -3.5715 -341.6515
# 296 vertices

vn 0.0000 1.0000 -0.0000
vn 0.0000 0.0000 1.0000
vn 1.0000 0.0000 -0.0000
vn 0.0000 0.0000 -1.0000
vn -1.0000 0.0000 -0.0000
vn 0.6105 0.0000 0.7920
vn 0.6251 0.0000 -0.7805
vn -0.6105 0.0000 -0.7920
vn -0.6251 0.0000 0.7805
vn 0.0000 -1.0000 -0.0000
vn 0.6105 0.0000 -0.7920
vn 0.6251 0.0000 0.7805
vn -0.6105 0.0000 0.7920
vn -0.6251 0.0000 -0.7805
vn 0.0000 1.0000 0.0000
vn -0.0000 1.0000 0.0000
vn -0.2602 0.9627 0.0742
vn 0.2229 0.0009 0.9748
vn 0.9375 0.0172 -0.3477
vn -0.2229 -0.0009 -0.9748
vn -0.9375 -0.0172 0.3477
vn -0.1055 0.9943 0.0158
vn 0.2253 0.0009 0.9743
vn 0.9364 0.0066 -0.3509
vn -0.2253 -0.0009 -0.9743
vn -0.9364 -0.0066 0.3509
vn -1.0000 -0.0000 -0.0000
# 27 vertex normals

vt 0.0000 0.0000 0.0000
vt 1.0000 0.0000 0.0000
vt 1.0000 1.0000 0.0000
vt 0.0000 1.0000 0.0000
# 4 texture coords

o Box267
g Box267
s 4
f 1/1/1 2/2/1 3/3/1 
f 3/3/1 4/4/1 1/1/1 
s 8
f 5/1/2 6/2/2 2/3/2 
f 2/3/2 1/4/2 5/1/2 
s 16
f 6/1/3 7/2/3 3/3/3 
f 3/3/3 2/4/3 6/1/3 
s 32
f 7/1/4 8/2/4 4/3/4 
f 4/3/4 3/4/4 7/1/4 
s 64
f 8/1/5 5/2/5 1/3/5 
f 1/3/5 4/4/5 8/1/5 
s 4
f 9/1/1 10/2/1 11/3/1 
f 11/3/1 12/4/1 9/1/1 
s 8
f 13/1/6 14/2/6 10/3/6 
f 10/3/6 9/4/6 13/1/6 
s 16
f 14/1/7 15/2/7 11/3/7 
f 11/3/7 10/4/7 14/1/7 
s 32
f 15/1/8 16/2/8 12/3/8 
f 12/3/8 11/4/8 15/1/8 
s 64
f 16/1/9 13/2/9 9/3/9 
f 9/3/9 12/4/9 16/1/9 
s 4
f 17/1/1 18/2/1 19/3/1 
f 19/3/1 20/4/1 17/1/1 
s 8
f 21/1/6 22/2/6 18/3/6 
f 18/3/6 17/4/6 21/1/6 
s 16
f 22/1/7 23/2/7 19/3/7 
f 19/3/7 18/4/7 22/1/7 
s 32
f 23/1/8 24/2/8 20/3/8 
f 20/3/8 19/4/8 23/1/8 
s 64
f 24/1/9 21/2/9 17/3/9 
f 17/3/9 20/4/9 24/1/9 
s 4
f 25/1/1 26/2/1 27/3/1 
f 27/3/1 28/4/1 25/1/1 
s 8
f 29/1/2 30/2/2 26/3/2 
f 26/3/2 25/4/2 29/1/2 
s 16
f 30/1/3 31/2/3 27/3/3 
f 27/3/3 26/4/3 30/1/3 
s 32
f 31/1/4 32/2/4 28/3/4 
f 28/3/4 27/4/4 31/1/4 
s 64
f 32/1/5 29/2/5 25/3/5 
f 25/3/5 28/4/5 32/1/5 
s 4
f 33/1/1 34/2/1 35/3/1 
f 35/3/1 36/4/1 33/1/1 
s 8
f 37/1/2 38/2/2 34/3/2 
f 34/3/2 33/4/2 37/1/2 
s 16
f 38/1/3 39/2/3 35/3/3 
f 35/3/3 34/4/3 38/1/3 
s 32
f 39/1/4 40/2/4 36/3/4 
f 36/3/4 35/4/4 39/1/4 
s 64
f 40/1/5 37/2/5 33/3/5 
f 33/3/5 36/4/5 40/1/5 
s 2
f 41/2/10 42/1/10 43/4/10 
f 43/4/10 44/3/10 41/2/10 
s 4
f 45/1/1 46/4/1 47/3/1 
f 47/3/1 48/2/1 45/1/1 
s 8
f 41/1/11 45/4/11 48/3/11 
f 48/3/11 42/2/11 41/1/11 
s 16
f 42/1/12 48/4/12 47/3/12 
f 47/3/12 43/2/12 42/1/12 
s 32
f 43/1/13 47/4/13 46/3/13 
f 46/3/13 44/2/13 43/1/13 
s 64
f 44/1/14 46/4/14 45/3/14 
f 45/3/14 41/2/14 44/1/14 
s 2
f 49/2/10 50/1/10 51/4/10 
f 51/4/10 52/3/10 49/2/10 
s 4
f 53/1/1 54/4/1 55/3/1 
f 55/3/1 56/2/1 53/1/1 
s 8
f 49/1/11 53/4/11 56/3/11 
f 56/3/11 50/2/11 49/1/11 
s 16
f 50/1/12 56/4/12 55/3/12 
f 55/3/12 51/2/12 50/1/12 
s 32
f 51/1/13 55/4/13 54/3/13 
f 54/3/13 52/2/13 51/1/13 
s 64
f 52/1/14 54/4/14 53/3/14 
f 53/3/14 49/2/14 52/1/14 
s 2
f 57/2/10 58/3/10 59/4/10 
f 59/4/10 60/1/10 57/2/10 
s 4
f 61/1/1 62/2/1 63/3/1 
f 63/3/1 64/4/1 61/1/1 
s 8
f 57/1/6 60/2/6 62/3/6 
f 62/3/6 61/4/6 57/1/6 
s 16
f 60/1/7 59/2/7 63/3/7 
f 63/3/7 62/4/7 60/1/7 
s 32
f 59/1/8 58/2/8 64/3/8 
f 64/3/8 63/4/8 59/1/8 
s 64
f 58/1/9 57/2/9 61/3/9 
f 61/3/9 64/4/9 58/1/9 
s 4
f 65/1/1 66/2/1 67/3/1 
f 67/3/1 68/4/1 65/1/1 
s 8
f 69/1/2 70/2/2 66/3/2 
f 66/3/2 65/4/2 69/1/2 
s 16
f 70/1/3 71/2/3 67/3/3 
f 67/3/3 66/4/3 70/1/3 
s 32
f 71/1/4 72/2/4 68/3/4 
f 68/3/4 67/4/4 71/1/4 
s 64
f 72/1/5 69/2/5 65/3/5 
f 65/3/5 68/4/5 72/1/5 
s 2
f 73/2/10 74/3/10 75/4/10 
f 75/4/10 76/1/10 73/2/10 
s 4
f 77/1/1 78/2/1 79/3/1 
f 79/3/1 80/4/1 77/1/1 
s 8
f 73/1/2 76/2/2 78/3/2 
f 78/3/2 77/4/2 73/1/2 
s 16
f 76/1/3 75/2/3 79/3/3 
f 79/3/3 78/4/3 76/1/3 
s 32
f 75/1/4 74/2/4 80/3/4 
f 80/3/4 79/4/4 75/1/4 
s 64
f 74/1/5 73/2/5 77/3/5 
f 77/3/5 80/4/5 74/1/5 
s 4
f 81/1/1 82/2/1 83/3/1 
f 83/3/1 84/4/1 81/1/1 
s 8
f 85/1/2 86/2/2 82/3/2 
f 82/3/2 81/4/2 85/1/2 
s 16
f 86/1/3 87/2/3 83/3/3 
f 83/3/3 82/4/3 86/1/3 
s 32
f 87/1/4 88/2/4 84/3/4 
f 84/3/4 83/4/4 87/1/4 
s 64
f 88/1/5 85/2/5 81/3/5 
f 81/3/5 84/4/5 88/1/5 
s 4
f 89/1/1 90/2/1 91/3/1 
f 91/3/1 92/4/1 89/1/1 
s 8
f 93/1/2 94/2/2 90/3/2 
f 90/3/2 89/4/2 93/1/2 
s 16
f 94/1/3 95/2/3 91/3/3 
f 91/3/3 90/4/3 94/1/3 
s 32
f 95/1/4 96/2/4 92/3/4 
f 92/3/4 91/4/4 95/1/4 
s 64
f 96/1/5 93/2/5 89/3/5 
f 89/3/5 92/4/5 96/1/5 
s 4
f 97/1/1 98/2/1 99/3/1 
f 99/3/1 100/4/1 97/1/1 
s 8
f 101/1/2 102/2/2 98/3/2 
f 98/3/2 97/4/2 101/1/2 
s 16
f 102/1/3 103/2/3 99/3/3 
f 99/3/3 98/4/3 102/1/3 
s 32
f 103/1/4 104/2/4 100/3/4 
f 100/3/4 99/4/4 103/1/4 
s 64
f 104/1/5 101/2/5 97/3/5 
f 97/3/5 100/4/5 104/1/5 
s 4
f 105/1/1 106/2/1 107/3/1 
f 107/3/1 108/4/1 105/1/1 
s 8
f 109/1/2 110/2/2 106/3/2 
f 106/3/2 105/4/2 109/1/2 
s 16
f 110/1/3 111/2/3 107/3/3 
f 107/3/3 106/4/3 110/1/3 
s 32
f 111/1/4 112/2/4 108/3/4 
f 108/3/4 107/4/4 111/1/4 
s 64
f 112/1/5 109/2/5 105/3/5 
f 105/3/5 108/4/5 112/1/5 
s 4
f 113/1/15 114/2/15 115/3/15 
f 115/3/15 116/4/15 113/1/15 
s 8
f 117/1/2 118/2/2 114/3/2 
f 114/3/2 113/4/2 117/1/2 
s 16
f 118/1/3 119/2/3 115/3/3 
f 115/3/3 114/4/3 118/1/3 
s 32
f 119/1/4 120/2/4 116/3/4 
f 116/3/4 115/4/4 119/1/4 
s 64
f 120/1/5 117/2/5 113/3/5 
f 113/3/5 116/4/5 120/1/5 
s 4
f 121/1/16 122/2/15 123/3/16 
f 123/3/16 124/4/16 121/1/16 
s 8
f 125/1/2 126/2/2 122/3/2 
f 122/3/2 121/4/2 125/1/2 
s 16
f 126/1/3 127/2/3 123/3/3 
f 123/3/3 122/4/3 126/1/3 
s 32
f 127/1/4 128/2/4 124/3/4 
f 124/3/4 123/4/4 127/1/4 
s 64
f 128/1/5 125/2/5 121/3/5 
f 121/3/5 124/4/5 128/1/5 
s 4
f 129/1/15 130/2/15 131/3/15 
f 131/3/15 132/4/15 129/1/15 
s 8
f 133/1/2 134/2/2 130/3/2 
f 130/3/2 129/4/2 133/1/2 
s 16
f 134/1/3 135/2/3 131/3/3 
f 131/3/3 130/4/3 134/1/3 
s 32
f 135/1/4 136/2/4 132/3/4 
f 132/3/4 131/4/4 135/1/4 
s 64
f 136/1/5 133/2/5 129/3/5 
f 129/3/5 132/4/5 136/1/5 
s 4
f 137/1/15 138/2/15 139/3/15 
f 139/3/15 140/4/15 137/1/15 
s 8
f 141/1/2 142/2/2 138/3/2 
f 138/3/2 137/4/2 141/1/2 
s 16
f 142/1/3 143/2/3 139/3/3 
f 139/3/3 138/4/3 142/1/3 
s 32
f 143/1/4 144/2/4 140/3/4 
f 140/3/4 139/4/4 143/1/4 
s 64
f 144/1/5 141/2/5 137/3/5 
f 137/3/5 140/4/5 144/1/5 
s 4
f 145/1/16 146/2/15 147/3/16 
f 147/3/16 148/4/16 145/1/16 
s 8
f 149/1/2 150/2/2 146/3/2 
f 146/3/2 145/4/2 149/1/2 
s 16
f 150/1/3 151/2/3 147/3/3 
f 147/3/3 146/4/3 150/1/3 
s 32
f 151/1/4 152/2/4 148/3/4 
f 148/3/4 147/4/4 151/1/4 
s 64
f 152/1/5 149/2/5 145/3/5 
f 145/3/5 148/4/5 152/1/5 
s 4
f 153/1/17 154/2/17 155/3/17 
f 155/3/17 156/4/17 153/1/17 
s 8
f 157/1/18 158/2/18 154/3/18 
f 154/3/18 153/4/18 157/1/18 
s 16
f 158/1/19 159/2/19 155/3/19 
f 155/3/19 154/4/19 158/1/19 
s 32
f 159/1/20 160/2/20 156/3/20 
f 156/3/20 155/4/20 159/1/20 
s 64
f 160/1/21 157/2/21 153/3/21 
f 153/3/21 156/4/21 160/1/21 
s 4
f 161/1/17 162/2/17 163/3/17 
f 163/3/17 164/4/17 161/1/17 
s 8
f 165/1/18 166/2/18 162/3/18 
f 162/3/18 161/4/18 165/1/18 
s 16
f 166/1/19 167/2/19 163/3/19 
f 163/3/19 162/4/19 166/1/19 
s 32
f 167/1/20 168/2/20 164/3/20 
f 164/3/20 163/4/20 167/1/20 
s 64
f 168/1/21 165/2/21 161/3/21 
f 161/3/21 164/4/21 168/1/21 
s 4
f 169/1/16 170/2/15 171/3/16 
f 171/3/16 172/4/16 169/1/16 
s 8
f 173/1/2 174/2/2 170/3/2 
f 170/3/2 169/4/2 173/1/2 
s 16
f 174/1/3 175/2/3 171/3/3 
f 171/3/3 170/4/3 174/1/3 
s 32
f 175/1/4 176/2/4 172/3/4 
f 172/3/4 171/4/4 175/1/4 
s 64
f 176/1/5 173/2/5 169/3/5 
f 169/3/5 172/4/5 176/1/5 
s 4
f 177/1/22 178/2/22 179/3/22 
f 179/3/22 180/4/22 177/1/22 
s 8
f 181/1/23 182/2/23 178/3/23 
f 178/3/23 177/4/23 181/1/23 
s 16
f 182/1/24 183/2/24 179/3/24 
f 179/3/24 178/4/24 182/1/24 
s 32
f 183/1/25 184/2/25 180/3/25 
f 180/3/25 179/4/25 183/1/25 
s 64
f 184/1/26 181/2/26 177/3/26 
f 177/3/26 180/4/26 184/1/26 
s 4
f 185/1/15 186/2/15 187/3/15 
f 187/3/15 188/4/15 185/1/15 
s 8
f 189/1/2 190/2/2 186/3/2 
f 186/3/2 185/4/2 189/1/2 
s 16
f 190/1/3 191/2/3 187/3/3 
f 187/3/3 186/4/3 190/1/3 
s 32
f 191/1/4 192/2/4 188/3/4 
f 188/3/4 187/4/4 191/1/4 
s 64
f 192/1/5 189/2/5 185/3/5 
f 185/3/5 188/4/5 192/1/5 
s 4
f 193/1/17 194/2/17 195/3/17 
f 195/3/17 196/4/17 193/1/17 
s 8
f 197/1/18 198/2/18 194/3/18 
f 194/3/18 193/4/18 197/1/18 
s 16
f 198/1/19 199/2/19 195/3/19 
f 195/3/19 194/4/19 198/1/19 
s 32
f 199/1/20 200/2/20 196/3/20 
f 196/3/20 195/4/20 199/1/20 
s 64
f 200/1/21 197/2/21 193/3/21 
f 193/3/21 196/4/21 200/1/21 
s 4
f 201/1/15 202/2/15 203/3/15 
f 203/3/15 204/4/15 201/1/15 
s 8
f 205/1/2 206/2/2 202/3/2 
f 202/3/2 201/4/2 205/1/2 
s 16
f 206/1/3 207/2/3 203/3/3 
f 203/3/3 202/4/3 206/1/3 
s 32
f 207/1/4 208/2/4 204/3/4 
f 204/3/4 203/4/4 207/1/4 
s 64
f 208/1/5 205/2/5 201/3/5 
f 201/3/5 204/4/5 208/1/5 
s 4
f 209/1/15 210/2/15 211/3/15 
f 211/3/15 212/4/15 209/1/15 
s 8
f 213/1/2 214/2/2 210/3/2 
f 210/3/2 209/4/2 213/1/2 
s 16
f 214/1/3 215/2/3 211/3/3 
f 211/3/3 210/4/3 214/1/3 
s 32
f 215/1/4 216/2/4 212/3/4 
f 212/3/4 211/4/4 215/1/4 
s 64
f 216/1/5 213/2/5 209/3/5 
f 209/3/5 212/4/5 216/1/5 
s 4
f 217/1/15 218/2/15 219/3/15 
f 219/3/15 220/4/15 217/1/15 
s 8
f 221/1/2 222/2/2 218/3/2 
f 218/3/2 217/4/2 221/1/2 
s 16
f 222/1/3 223/2/3 219/3/3 
f 219/3/3 218/4/3 222/1/3 
s 32
f 223/1/4 224/2/4 220/3/4 
f 220/3/4 219/4/4 223/1/4 
s 64
f 224/1/5 221/2/5 217/3/5 
f 217/3/5 220/4/5 224/1/5 
s 4
f 225/1/15 226/2/15 227/3/15 
f 227/3/15 228/4/15 225/1/15 
s 8
f 229/1/2 230/2/2 226/3/2 
f 226/3/2 225/4/2 229/1/2 
s 16
f 230/1/3 231/2/3 227/3/3 
f 227/3/3 226/4/3 230/1/3 
s 32
f 231/1/4 232/2/4 228/3/4 
f 228/3/4 227/4/4 231/1/4 
s 64
f 232/1/5 229/2/5 225/3/5 
f 225/3/5 228/4/5 232/1/5 
s 4
f 233/1/1 234/2/1 235/3/1 
f 235/3/1 236/4/1 233/1/1 
s 8
f 237/1/2 238/2/2 234/3/2 
f 234/3/2 233/4/2 237/1/2 
s 16
f 238/1/3 239/2/3 235/3/3 
f 235/3/3 234/4/3 238/1/3 
s 32
f 239/1/4 240/2/4 236/3/4 
f 236/3/4 235/4/4 239/1/4 
s 64
f 240/1/5 237/2/5 233/3/5 
f 233/3/5 236/4/5 240/1/5 
s 4
f 241/1/16 242/2/1 243/3/16 
f 243/3/16 244/4/16 241/1/16 
s 8
f 245/1/27 246/2/27 242/3/5 
f 242/3/5 241/4/5 245/1/27 
s 16
f 246/1/2 247/2/2 243/3/2 
f 243/3/2 242/4/2 246/1/2 
s 32
f 247/1/3 248/2/3 244/3/3 
f 244/3/3 243/4/3 247/1/3 
s 64
f 248/1/4 245/2/4 241/3/4 
f 241/3/4 244/4/4 248/1/4 
s 4
f 249/1/16 250/2/15 251/3/16 
f 251/3/16 252/4/16 249/1/16 
s 8
f 253/1/2 254/2/2 250/3/2 
f 250/3/2 249/4/2 253/1/2 
s 16
f 254/1/3 255/2/3 251/3/3 
f 251/3/3 250/4/3 254/1/3 
s 32
f 255/1/4 256/2/4 252/3/4 
f 252/3/4 251/4/4 255/1/4 
s 64
f 256/1/5 253/2/5 249/3/5 
f 249/3/5 252/4/5 256/1/5 
s 4
f 257/1/16 258/2/15 259/3/16 
f 259/3/16 260/4/16 257/1/16 
s 8
f 261/1/2 262/2/2 258/3/2 
f 258/3/2 257/4/2 261/1/2 
s 16
f 262/1/3 263/2/3 259/3/3 
f 259/3/3 258/4/3 262/1/3 
s 32
f 263/1/4 264/2/4 260/3/4 
f 260/3/4 259/4/4 263/1/4 
s 64
f 264/1/5 261/2/5 257/3/5 
f 257/3/5 260/4/5 264/1/5 
s 4
f 265/1/16 266/2/15 267/3/16 
f 267/3/16 268/4/16 265/1/16 
s 8
f 269/1/2 270/2/2 266/3/2 
f 266/3/2 265/4/2 269/1/2 
s 16
f 270/1/3 271/2/3 267/3/3 
f 267/3/3 266/4/3 270/1/3 
s 32
f 271/1/4 272/2/4 268/3/4 
f 268/3/4 267/4/4 271/1/4 
s 64
f 272/1/5 269/2/5 265/3/5 
f 265/3/5 268/4/5 272/1/5 
s 4
f 273/1/16 274/2/15 275/3/16 
f 275/3/16 276/4/16 273/1/16 
s 8
f 277/1/2 278/2/2 274/3/2 
f 274/3/2 273/4/2 277/1/2 
s 16
f 278/1/3 279/2/3 275/3/3 
f 275/3/3 274/4/3 278/1/3 
s 32
f 279/1/4 280/2/4 276/3/4 
f 276/3/4 275/4/4 279/1/4 
s 64
f 280/1/5 277/2/5 273/3/5 
f 273/3/5 276/4/5 280/1/5 
s 4
f 281/1/16 282/2/15 283/3/16 
f 283/3/16 284/4/16 281/1/16 
s 8
f 285/1/2 286/2/2 282/3/2 
f 282/3/2 281/4/2 285/1/2 
s 16
f 286/1/3 287/2/3 283/3/3 
f 283/3/3 282/4/3 286/1/3 
s 32
f 287/1/4 288/2/4 284/3/4 
f 284/3/4 283/4/4 287/1/4 
s 64
f 288/1/5 285/2/5 281/3/5 
f 281/3/5 284/4/5 288/1/5 
s 4
f 289/1/16 290/2/15 291/3/16 
f 291/3/16 292/4/16 289/1/16 
s 8
f 293/1/2 294/2/2 290/3/2 
f 290/3/2 289/4/2 293/1/2 
s 16
f 294/1/3 295/2/3 291/3/3 
f 291/3/3 290/4/3 294/1/3 
s 32
f 295/1/4 296/2/4 292/3/4 
f 292/3/4 291/4/4 295/1/4 
s 64
f 296/1/5 293/2/5 289/3/5 
f 289/3/5 292/4/5 296/1/5 
# 378 faces

