# 3ds Max Wavefront OBJ Exporter v0.97b - (c)2007 guruware
# 创建的文件:24.11.2021 10:00:46

mtllib zjl.mtl

#
# object zjl
#

v  -264.7311 0.0000 15.4240
v  -264.7311 0.0000 132.1831
v  -253.0555 0.0000 127.4391
v  -253.0555 0.0000 15.4240
v  140.6875 0.0000 -162.5477
v  368.7566 0.0000 -162.5477
v  368.7566 0.0000 -205.7863
v  140.6875 0.0000 -205.7863
v  97.7440 0.0000 -221.1167
v  97.7440 0.0000 -449.1860
v  59.6592 0.0000 -449.1860
v  59.6592 0.0000 -221.1168
# 12 vertices

vn 0.0000 1.0000 -0.0000
# 1 vertex normals

vt 0.0511 0.4092 0.0000
vt 0.5229 0.4092 0.0000
vt 0.5038 0.4564 0.0000
vt 0.0511 0.4564 0.0000
vt 0.9608 0.3930 0.0000
vt 0.0392 0.3930 0.0000
vt 0.0392 0.2182 0.0000
vt 0.9608 0.2182 0.0000
vt 0.9608 0.1931 0.0000
vt 0.0392 0.1931 0.0000
vt 0.0392 0.0392 0.0000
vt 0.9608 0.0392 0.0000
# 12 texture coords

o zjl
g zjl
usemtl zjl
s 1
f 1/1/1 2/2/1 3/3/1 
f 3/3/1 4/4/1 1/1/1 
f 5/5/1 6/6/1 7/7/1 
f 7/7/1 8/8/1 5/5/1 
f 9/9/1 10/10/1 11/11/1 
f 11/11/1 12/12/1 9/9/1 
# 6 faces

