<?xml version="1.0" standalone="no"?>
<!DOCTYPE svg PUBLIC "-//W3C//DTD SVG 1.1//EN" "http://www.w3.org/Graphics/SVG/1.1/DTD/svg11.dtd" >
<!--
2013-9-30: Created.
-->
<svg>
<metadata>
Created by iconfont
</metadata>
<defs>

<font id="iconfont" horiz-adv-x="1024" >
  <font-face
    font-family="iconfont"
    font-weight="500"
    font-stretch="normal"
    units-per-em="1024"
    ascent="896"
    descent="-128"
  />
    <missing-glyph />
    
    <glyph glyph-name="gongcheng-01" unicode="&#59008;" d="M524.43 233.9H116.59c-29.54 0-56.39-12.07-75.92-31.61-19.54-19.38-31.61-46.38-31.61-75.92 0-59.25 48.45-107.69 107.53-107.69h407.84c29.54 0 56.39 12.07 75.92 31.61 19.54 19.54 31.61 46.54 31.61 76.08 0.01 59.24-48.44 107.53-107.53 107.53zM153.31 69.19c-30.34 0-54.96 24.62-54.96 54.96s24.62 54.96 54.96 54.96 55.12-24.62 55.12-54.96c0-30.35-24.78-54.96-55.12-54.96z m167.28 0c-30.5 0-55.12 24.62-55.12 54.96s24.62 54.96 55.12 54.96c30.34 0 54.96-24.62 54.96-54.96 0-30.35-24.62-54.96-54.96-54.96z m167.12 0c-30.34 0-55.12 24.62-55.12 54.96s24.78 54.96 55.12 54.96c30.34 0 54.96-24.62 54.96-54.96 0-30.35-24.62-54.96-54.96-54.96zM513.9 333.86v164.7L399.86 615.78h-187.7c-33.28 0-60.26-26.98-60.26-60.26V273.6h301.74c33.28 0 60.26 26.98 60.26 60.26zM53.74 275.77h61.85v99.34H53.74c-27.43 0-49.67-22.24-49.67-49.67 0-27.43 22.24-49.67 49.67-49.67zM623.21 670.93L829.95 464.2c6.2-6.2 14.33-9.31 22.46-9.31s16.26 3.1 22.46 9.31c12.41 12.4 12.41 32.52 0 44.92L645.81 738.18c-12.41 12.41-32.51 12.41-44.92 0-0.05-0.05-0.08-0.1-0.13-0.15l-0.15 0.15-124.85-125.85 44.92-44.92 102.53 103.52zM996.02 393.89H740.9c-16.45 0-28.25-15.84-23.56-31.6l38.87-130.48c3.1-10.42 12.68-17.56 23.56-17.56h177.39c10.87 0 20.45 7.14 23.56 17.56l38.87 130.48c4.68 15.76-7.13 31.6-23.57 31.6z"  horiz-adv-x="1024" />

    
    <glyph glyph-name="jinggaiguanli-01" unicode="&#59009;" d="M541.43 35.86c169.15 13.88 304.21 150.21 318.1 319.36h-31.56c-15.14 0-27.77 12.62-27.77 27.77s12.62 27.77 27.77 27.77h31.56C845.65 579.9 710.58 716.23 540.17 730.12v-32.82c0-15.14-12.62-27.77-27.77-27.77-15.14 0-27.77 12.62-27.77 27.77v32.82C314.22 717.5 179.16 581.17 165.27 410.76h34.09c15.14 0 27.77-12.62 27.77-27.77s-12.62-27.77-27.77-27.77h-34.09c13.88-170.41 150.21-305.47 320.62-319.36v32.82c0 15.14 12.62 27.77 27.77 27.77s27.77-12.62 27.77-27.77v-32.82zM166.19 380.37v5.15-5.15zM512.4 794.49c227.22 0 411.5-184.29 411.5-411.5s-184.29-411.5-411.5-411.5-411.5 184.29-411.5 411.5 184.29 411.5 411.5 411.5z m213.32-450.63l2.53 8.84h69.42l-2.53-12.62c-18.93-117.4-114.87-213.33-232.26-232.28l-12.62-2.53v64.37l7.58 2.53c84.58 21.48 150.21 88.37 167.88 171.69zM512.4 299.67c45.44 0 80.79 35.35 80.79 80.79s-35.35 80.79-80.79 80.79-80.79-35.35-80.79-80.79c0.01-45.44 35.35-80.79 80.79-80.79z m147.69 78.27c0-80.79-65.64-145.16-145.16-147.69-83.32 0-150.21 65.64-150.21 146.43 0 39.13 16.41 78.26 44.18 106.04 29.03 29.03 65.64 44.18 106.04 44.18 78.26 0 140.11-60.58 145.16-138.85v-10.11z m61.85 45.44c-15.14 83.32-80.79 148.95-167.88 167.88l-8.84 1.26v69.42l12.62-2.53c117.39-18.93 213.32-114.87 232.26-232.26l2.53-12.62H723.2c0 0.02-1.26 8.85-1.26 8.85z m-421.6-1.27l-2.53-10.1h-69.42l2.53 12.62c18.93 117.4 114.87 213.33 232.26 232.28l12.62 2.53v-65.64l-8.84-1.26c-84.57-17.69-150.22-84.58-166.62-170.43z m-1.27-78.25c13.88-87.09 79.53-154 167.88-171.67l8.84-1.26v-65.64l-12.62 2.53c-117.4 18.93-213.33 114.87-232.27 232.26l-2.53 12.62h69.42l1.28-8.84z"  horiz-adv-x="1024" />

    
    <glyph glyph-name="shizhengzichan-01" unicode="&#59010;" d="M156.59 398.54H870c15.15 0 27.56 12.4 27.56 27.56 0 15.16-12.4 27.56-27.56 27.56H156.6c-15.16 0-27.56-12.4-27.56-27.56 0-15.16 12.4-27.56 27.55-27.56zM870 45.07H156.6c-15.16 0-27.56-12.4-27.56-27.56 0-15.16 12.4-27.56 27.56-27.56H870c15.15 0 27.56 12.4 27.56 27.56-0.01 15.16-12.41 27.56-27.56 27.56zM834.9 513.04L532.94 770.12c-11.32 9.64-27.97 9.64-39.29 0L191.69 513.04c-10.38-8.83-4.13-25.81 9.5-25.81H825.4c13.63 0 19.88 16.97 9.5 25.81z m-257.44 62.39c6.78 0 12.27-5.49 12.27-12.27v-0.31c0-6.78-5.49-12.27-12.27-12.27h-47.65v-33.82c0-8.51-6.9-15.42-15.42-15.42-8.51 0-15.42 6.9-15.42 15.42v33.82h-49.86c-6.78 0-12.27 5.49-12.27 12.27v0.31c0 6.78 5.49 12.27 12.27 12.27h49.86v33.82h-49.86c-6.78 0-12.27 5.49-12.27 12.27 0 6.78 5.49 12.27 12.27 12.27h40.74l-35.7 46.32c-6.48 8.4-0.49 20.57 10.11 20.57h2.15c4.16 0 8.07-2.03 10.46-5.44l38.77-55.31 38.21 55.24c2.39 3.45 6.31 5.51 10.5 5.51 10.64 0 16.61-12.25 10.07-20.63L538.3 633.8h39.16c6.78 0 12.27-5.49 12.27-12.27 0-6.78-5.49-12.27-12.27-12.27h-47.65v-33.82h47.65zM245.48 362.07h97.55v-277.52h-97.55zM391.23 362.07h97.55v-277.52h-97.55zM536.99 362.07h97.55v-277.52h-97.55zM682.75 362.07h97.55v-277.52h-97.55z"  horiz-adv-x="1024" />

    
    <glyph glyph-name="wulianwang-01" unicode="&#59011;" d="M850.61 292.88c-19.27-95.07-77.75-181.71-168.39-234.04-90.64-52.33-194.9-59.66-286.88-28.81 79.05 24.53 163.4 63.09 241.16 107.99 77.77 44.9 153.34 98.66 214.11 154.86zM773.58 581.14c4.24-7.34 8.14-14.7 11.66-22.28 8.93-17.85 15.96-36.28 21.41-54.93-37.57-53.27-121.3-136.3-266.79-220.3s-259.26-115-324.18-120.9c-13.43 14.05-25.87 29.35-36.86 46.01-4.81 6.84-9.23 13.9-13.46 21.24-6.91 11.97-13.11 24.19-18.38 36.6-9.43 21.68-16.5 44.04-21.12 66.6-30.59 144.57 33.1 298.59 168.03 376.49 134.93 77.9 300.16 56.05 410.06-42.73 17.24-15.28 33.06-32.58 47.12-51.59 8.12-10.77 15.6-22.24 22.51-34.21zM809.25 641.45c1.58-1.84 3.02-3.75 4.47-5.66 9.03-11.78 17.91-25.37 26.23-39.79 2.23-3.86 4.18-7.54 6.14-11.22 31.81 0.51 52.51-5.91 59.49-18.01 8.18-14.16 0.24-40.55-22.98-74.38-45.55-66.81-150.34-163.02-308.57-254.38-160.42-92.62-297.62-135.09-377.9-140.24-39.14-2.68-64.63 3.71-72.58 17.49-6.84 11.84-2.52 32.02 12.58 57.9-2.43 3.92-4.94 7.96-7.39 12.21-8.33 14.42-15.66 28.9-21.64 43.13-0.76 1.62-1.32 3.18-1.96 4.88-40.53-56.18-56.06-108.06-33.09-147.85 58.58-101.46 311.81-25.98 531.72 100.99s411.89 308.53 353.32 409.99c-23.27 40.29-77.23 52.58-147.84 44.94z"  horiz-adv-x="1024" />

    
    <glyph glyph-name="jiancha-01" unicode="&#59012;" d="M824.86 570.75V746.11c0 27.83-22.01 47.32-46.76 50.1H558.03c-27.51 0-46.76-22.27-46.76-50.1v-116.9c35.76 13.92 71.52 19.48 110.03 19.48 74.27-0.01 148.54-27.84 203.56-77.94zM279.3 342.01c2.75 22.27 8.25 41.75 13.75 61.24H172.02c-27.51 0-46.76-22.27-46.76-50.1v-222.67c0-27.83 22.01-47.32 46.76-50.1h189.81c-8.25 8.35-16.5 16.7-22.01 25.05C290.31 175 268.3 258.5 279.3 342.01z m619.26-315.44l-85.27 111.34c2.75 5.57 2.75 8.35 2.75 13.92v11.13c68.77 91.85 71.52 222.67-2.75 317.31l-2.75 5.57c-77.02 94.64-206.31 122.47-310.84 72.37-11-5.57-24.76-11.13-35.76-19.48-5.5-2.78-8.25-5.57-11-8.35-24.76-19.48-46.76-41.75-63.27-69.59-5.5-11.13-13.75-22.27-19.26-36.18-35.76-83.5-24.76-186.49 33.01-264.43 13.75-16.7 27.51-33.4 44.01-44.53 82.52-66.8 200.81-75.15 294.34-19.48l90.78-119.69c5.5-8.35 16.5-13.92 27.51-16.7 11 0 22.01 2.78 30.26 8.35s13.75 16.7 16.5 27.83c-0.01 11.13-2.76 22.26-8.26 30.61zM729.28 156.33c-68.77-52.89-162.3-55.67-231.07-8.35-13.75 8.35-24.76 19.48-35.76 30.62-5.5 5.57-8.25 8.35-11 13.92-49.51 66.8-55.02 153.09-16.5 222.67 13.75 25.05 30.26 44.53 52.27 61.24 79.77 64.02 195.31 55.67 266.83-22.27 11-11.13 19.26-25.05 27.51-38.97 49.5-86.28 27.49-197.62-52.28-258.86z m-557.26 317h134.79c22.01 44.53 52.27 80.72 88.03 111.34 13.75 11.13 27.51 19.48 44.01 27.83V746.1c0 13.92-5.5 25.05-13.75 33.4s-22.01 13.92-33.01 13.92H172.02c-27.51 0-46.76-22.27-46.76-50.1v-222.67c-2.75-25.05 19.25-47.32 46.76-47.32z"  horiz-adv-x="1024" />

    
    <glyph glyph-name="yanghu-01" unicode="&#59013;" d="M929.87 292.32c0.46-16.37-12.67-30.12-29.19-30.43H123.54c-16.53-0.15-30.12 12.98-30.43 29.35-0.31 16.53 12.82 30.12 29.35 30.43h777.9c16.07-0.15 29.2-13.13 29.51-29.35zM869.68 381.42H153.36c0 155.76 99.55 288.64 238.81 337.93v-188.66c0-16.5 13.31-29.92 29.81-29.92s29.92 13.42 29.92 29.92V759.28c0 1.06 0 2.02-0.11 3.09v7.03c0.21 16.5 13.52 29.7 29.92 29.92h59.73c16.4-0.21 29.6-13.52 29.81-29.92v-238.7c0.32-16.5 13.95-29.6 30.45-29.38 15.97 0.32 28.96 13.31 29.28 29.38V719.35c139.15-49.4 238.81-182.17 238.7-337.93zM850.16 203.69c-49.12-139.33-182.27-239.27-338.13-239.27-156.01 0-289.01 99.94-338.29 239.27h67.35c45.88-103.96 149.99-176.71 270.94-176.71 120.79 0 225.06 72.76 270.94 176.71h67.19z"  horiz-adv-x="1024" />

    
    <glyph glyph-name="yunhang-01" unicode="&#59006;" d="M513.72 746.63c49.12 0 96.74-9.61 141.54-28.56 43.3-18.31 82.2-44.54 115.61-77.96 33.42-33.42 59.65-72.31 77.96-115.61 18.95-44.8 28.56-92.43 28.56-141.54s-9.61-96.74-28.56-141.54c-18.31-43.3-44.54-82.2-77.96-115.61-33.42-33.42-72.31-59.65-115.61-77.96-44.8-18.95-92.43-28.56-141.54-28.56s-96.74 9.61-141.54 28.56c-43.3 18.31-82.2 44.54-115.61 77.96-33.42 33.4-59.65 72.3-77.96 115.6-18.95 44.8-28.56 92.43-28.56 141.54s9.61 96.74 28.56 141.54c18.31 43.3 44.54 82.2 77.96 115.61 33.42 33.42 72.31 59.64 115.61 77.96 44.8 18.97 92.43 28.57 141.54 28.57m0 50c-228.47 0-413.68-185.21-413.68-413.68s185.22-413.67 413.68-413.67S927.4 154.49 927.4 382.96 742.19 796.63 513.72 796.63zM648.02 372.98l-208.1-161.3c-9.9-7.7-24.2-0.7-24.2 11.8v322.7c0 12.5 14.3 19.5 24.2 11.9l208.1-161.4c7.7-6 7.7-17.7 0-23.7z"  horiz-adv-x="1024" />

    
    <glyph glyph-name="tiaobo-01" unicode="&#59007;" d="M616.38 420.46h243.86c36.43 0 66.07 29.64 66.07 66.07V730.39c0 36.43-29.64 66.07-66.07 66.07H616.38c-36.43 0-66.07-29.64-66.07-66.07v-243.86c0-36.43 29.64-66.07 66.07-66.07z m-16.07 309.93c0 8.86 7.21 16.07 16.07 16.07h243.86c8.86 0 16.07-7.21 16.07-16.07v-243.86c0-8.86-7.21-16.07-16.07-16.07H616.38c-8.86 0-16.07 7.21-16.07 16.07V730.39zM409.32 346.25H165.46c-36.43 0-66.07-29.64-66.07-66.07v-243.86c0-36.43 29.64-66.07 66.07-66.07h243.86c36.43 0 66.07 29.64 66.07 66.07V280.18c0 36.43-29.63 66.07-66.07 66.07z m16.07-309.93c0-8.86-7.21-16.07-16.07-16.07H165.46c-8.86 0-16.07 7.21-16.07 16.07V280.18c0 8.86 7.21 16.07 16.07 16.07h243.86c8.86 0 16.07-7.21 16.07-16.07v-243.86zM488.47 724.33c-82.04 0-159.13-31.91-217.06-89.84-46.4-46.4-76.08-105.09-86.07-168.76l-51.03 51.03c-9.76 9.76-25.59 9.76-35.36 0-9.76-9.76-9.76-25.59 0-35.36l89.82-89.82c4.88-4.88 11.28-7.32 17.68-7.32h0.12c6.4 0 12.8 2.44 17.68 7.32l89.81 89.82c9.76 9.76 9.76 25.59 0 35.36-9.76 9.76-25.59 9.76-35.36 0l-40.28-40.28c26.75 113.29 128.7 197.86 250.05 197.86 13.81 0 25 11.19 25 25s-11.19 24.99-25 24.99zM925.82 284.76L836 374.58c-4.9 4.9-11.32 7.34-17.74 7.32a24.895 24.895 0 0 1-17.74-7.32l-89.81-89.82c-9.76-9.76-9.76-25.59 0-35.36 4.88-4.88 11.28-7.32 17.68-7.32s12.8 2.44 17.68 7.32l40.28 40.28C759.6 176.39 657.65 91.82 536.3 91.82c-13.81 0-25-11.19-25-25s11.19-25 25-25c82.04 0 159.13 31.91 217.06 89.84 46.4 46.4 76.08 105.09 86.07 168.76l51.03-51.03c4.88-4.88 11.28-7.32 17.68-7.32s12.8 2.44 17.68 7.32c9.77 9.77 9.77 25.6 0 35.37z"  horiz-adv-x="1024" />

    
    <glyph glyph-name="qitimiehuokongzhiqi" unicode="&#59202;" d="M878.01856 756.48c5.14048 0 9.02144-3.9168 9.02144-8.44288V19.968c0-4.52608-3.88096-5.88288-9.02144-5.88288H151.10144c-5.1456 0-11.58144 1.36192-11.58144 5.88288V748.03712c0 4.5312 6.44096 8.44288 11.58144 8.44288H876.8m1.21856 15.36H151.10144c-14.5664 0-26.94144-10.97728-26.94144-23.80288V19.968c0-12.8256 12.37504-21.24288 26.94144-21.24288h726.92224c14.57152 0 24.38144 8.4224 24.38144 21.24288V748.03712c-0.00512 12.8256-9.82528 23.80288-24.38656 23.80288zM789.17632 3.84H235.63776c-12.65664 0-24.43776 18.28864-24.43776 42.368V727.59296c0 24.07936 11.78624 44.24704 24.43776 44.24704h553.53856c12.66176 0 21.05856-20.16256 21.05856-44.24704v-681.38496c0.00512-24.07936-8.3968-42.368-21.05856-42.368zM235.63776 761.6c-9.84576 0-19.31776-15.27296-19.31776-34.00704v-681.38496c0-18.71872 9.48224-32.128 19.31776-32.128h553.53856c9.85088 0 15.93856 13.40928 15.93856 32.128V727.59296c0 18.72896-6.08768 34.00704-15.93856 34.00704H235.63776zM364.8 310.07232c0-4.992 5.23264-9.04192 10.22464-9.04704s10.25536 4.03456 10.25536 9.02656v0.02048c0 4.992-5.24288 9.04192-10.23488 9.04704s-10.24512-4.03456-10.24512-9.02656v-0.02048z m-61.44 91.008c0-4.992 2.67776-9.04192 7.66976-9.04704s7.69024 4.03456 7.69024 9.02656v0.02048c0 4.992-2.68288 9.04192-7.67488 9.04704s-7.68512-4.03968-7.68512-9.02656v-0.02048z m0-91.008c0-4.992 2.67776-9.04192 7.66976-9.04704s7.69024 4.03456 7.69024 9.02656v0.02048c0 4.992-2.68288 9.04192-7.67488 9.04704s-7.68512-4.03456-7.68512-9.02656v-0.02048zM373.79072 291.17952c-10.40896 0-18.88256 8.46848-18.88256 18.88768s8.4736 18.8928 18.88256 18.8928c10.41408 0 18.88768-8.46848 18.88768-18.88768s-8.47872-18.8928-18.88768-18.8928z m0 33.90976a15.0272 15.0272 0 0 1 0-30.04416c8.28416 0 15.01696 6.73792 15.01696 15.02208s-6.73792 15.02208-15.01696 15.02208z m102.46144-33.90976c-10.4192 0-18.88768 8.46848-18.88768 18.88768s8.46336 18.8928 18.88768 18.8928c10.40896 0 18.88256-8.46848 18.88256-18.88768s-8.4736-18.8928-18.88256-18.8928z m0 33.90976c-8.27904 0-15.02208-6.7328-15.02208-15.02208s6.73792-15.02208 15.02208-15.02208 15.01184 6.73792 15.01184 15.02208-6.74304 15.02208-15.01184 15.02208zM476.25216 299.10016c-6.05184 0-10.97728 4.92032-10.97728 10.97216s4.92544 10.97216 10.97728 10.97216c6.04672 0 10.97216-4.92032 10.97216-10.97216s-4.92544-10.97216-10.97216-10.97216z m0 18.06848a7.10656 7.10656 0 0 1 0-14.20288 7.10656 7.10656 0 0 1 0 14.20288z m76.9792-7.09632a22.66624 22.66624 0 1 1 45.33248 0 22.66624 22.66624 0 0 1-45.33248 0z m96.73728 0a22.66624 22.66624 0 1 1 45.33248 0 22.66624 22.66624 0 0 1-45.33248 0zM724.59776 203.52H293.59104c-17.59232 0-31.19104 22.14912-31.19104 49.09568V582.50752c0 26.94656 13.5936 45.97248 31.19104 45.97248h431.02208c17.59232 0 29.312-19.02592 29.312-45.97248v-329.89696c-0.00512-26.94144-11.72992-49.09056-29.32736-49.09056z m-431.00672 414.72c-10.52672 0-20.95104-16.32256-20.95104-35.73248v-329.89696c0-19.40992 10.4192-38.85568 20.95104-38.85568h431.02208c10.5216 0 19.072 19.44576 19.072 38.85568V582.50752c0 19.40992-8.5504 35.73248-19.072 35.73248H293.59104z m-133.36064-251.99104a17.75104 17.75104 0 1 1 35.5072 0 17.75104 17.75104 0 0 1-35.5072 0zM575.8976 291.8656a18.2272 18.2272 0 0 0-18.21184 18.20672 18.23232 18.23232 0 0 0 18.21184 18.21184 18.2272 18.2272 0 0 0 18.20672-18.21184 18.23232 18.23232 0 0 0-18.20672-18.20672z m0 32.54272c-7.90528 0-14.34112-6.43584-14.34112-14.34112s6.43584-14.33088 14.34112-14.33088a14.35136 14.35136 0 0 1 14.33088 14.33088 14.35648 14.35648 0 0 1-14.33088 14.34112z m96.73728-32.54272a18.2272 18.2272 0 0 0-18.21184 18.20672 18.23232 18.23232 0 0 0 18.21184 18.21184 18.2272 18.2272 0 0 0 18.20672-18.21184 18.2272 18.2272 0 0 0-18.20672-18.20672z m0 32.54272c-7.90528 0-14.336-6.43584-14.336-14.34112s6.43072-14.33088 14.336-14.33088 14.336 6.43072 14.336 14.33088a14.35648 14.35648 0 0 1-14.336 14.34112zM495.13472 382.72H354.56v128h138.24v-128.65536l2.33472 0.65536z m-135.45472 5.12h133.12v117.76h-133.12v-117.76zM718.08 362.24h-384v184.32h384v-184.32z m-378.88 5.12h373.76v174.08h-373.76v-174.08zM692.48 382.72h-143.36v128h143.36v-128z m-138.24 5.12h133.12v117.76h-133.12v-117.76z m-250.88 35.84h15.36v-5.12h-15.36v5.12z m0-92.16h15.36v-10.24h-15.36v10.24z m-25.6-15.36h20.48v-10.24h-20.48v10.24z m0 87.04h20.48v-5.12h-20.48v5.12z m143.36 87.04v-10.24h-56.32v10.24h56.32z m0-20.48v-10.24H364.75904l0.01024 10.24H421.12z m0-20.48v-10.24h-56.32v10.24h56.32z m0-20.48v-10.24h-56.32v10.24h56.32z m0-20.48v-10.24h-56.32v10.24h56.32z m61.44 81.92v-10.24h-56.32v10.24h56.32z m0-18.82112V459.52H427.7504l0.01024 10.24h56.8832l-2.08384 1.65888z m0-20.31616V439.04h-56.32v10.24h58.40384l-2.08384 1.82272z m0-20.31616V418.56h-56.32v10.24h58.40384l-2.08384 1.98656z m0-20.32128V398.08h-56.32v10.24h58.40384l-2.08384 2.14528zM495.13472 382.72H354.56v128h143.36v-128.65536l-2.78528 0.65536z m-135.45472 5.12h133.12v117.76h-133.12v-117.76zM421.12 490.24v-10.24h-56.32v10.24h56.32z m0-20.48v-10.24H364.75904l0.01024 10.24H421.12z m0-20.48v-10.24h-56.32v10.24h56.32z m0-20.48v-10.24h-56.32v10.24h56.32z m0-20.48v-10.24h-56.32v10.24h56.32z m61.44 81.92v-10.24h-56.32v10.24h56.32z m0-18.82112V459.52H427.7504l0.01024 10.24h56.8832l-2.08384 1.65888z m0-20.31616V439.04h-56.32v10.24h58.40384l-2.08384 1.82272z m0-20.31616V418.56h-56.32v10.24h58.40384l-2.08384 1.98656z m0-20.32128V398.08h-56.32v10.24h58.40384l-2.08384 2.14528z m209.92-27.74528h-143.36v128h143.36v-128z m-137.31328 5.12H687.36v117.76h-133.12v-119.66464l0.92672 1.90464zM615.68 490.24v-10.24h-56.32v10.24h56.32z m0-20.48v-10.24h-54.53312l0.01024 10.24H615.68z m0-20.48v-10.24h-56.32v10.24h56.32z m0-20.48v-10.24h-56.32v10.24h56.32z m0-20.48v-10.24h-56.32v10.24h56.32z m66.56 81.92v-10.24h-56.32v10.24h56.32z m0-20.48v-10.24h-58.10688l0.01536 10.24H682.24z m0-20.48v-10.24h-56.32v10.24h56.32z m0-20.48v-10.24h-56.32v10.24h56.32z m0-20.48v-10.24h-56.32v10.24h56.32zM692.48 382.72h-143.36v128h143.36v-128z m-138.24 5.12h133.12v117.76h-133.12v-117.76zM615.68 490.24v-10.24h-56.32v10.24h56.32z m0-20.48v-10.24h-54.53312l0.01024 10.24H615.68z m0-20.48v-10.24h-56.32v10.24h56.32z m0-20.48v-10.24h-56.32v10.24h56.32z m0-20.48v-10.24h-56.32v10.24h56.32z m66.56 81.92v-10.24h-56.32v10.24h56.32z m0-20.48v-10.24h-58.10688l0.01536 10.24H682.24z m0-20.48v-10.24h-56.32v10.24h56.32z m0-20.48v-10.24h-56.32v10.24h56.32z m0-20.48v-10.24h-56.32v10.24h56.32z m-291.84 189.44h5.12v-40.96h-5.12v40.96z m56.32 0h5.12v-40.96h-5.12v40.96z m138.24 0h5.12v-40.96h-5.12v40.96z m61.44 0h5.12v-40.96h-5.12v40.96z m-146.46784-563.2h-9.48224l-10.64448 14.4384c-0.36352 0.5888-0.67584 0.9216-0.92672 0.9216H477.44v-15.36h-5.12v35.84h5.12v-20.48h1.43872c0.32768 5.12 0.66048 3.29216 0.99328 3.81952l10.07616 16.66048h8.94464l-12.5696-17.11104 13.60896-18.72896z m13.34784 10.24v-10.24h-10.24v35.84h12.52864c8.74496 0 13.12256-4.57216 13.12256-11.98592 0-3.59936-1.3312-7.40352-3.96288-9.56928-2.6368-2.17088-5.93408-4.0448-9.9072-4.0448h-1.54112z m0 20.48v-15.36h0.93184c4.39808 0 6.59968 3.92192 6.59968 7.75168 0 3.73248-2.18112 7.60832-6.53824 7.60832h-0.99328z m18.53952-14.64832c0 5.50912 1.60256 9.98912 4.8128 13.45024 3.21536 3.456 7.46496 5.18144 12.74368 5.18144 5.0176 0 9.0624-1.66912 12.12416-5.01248 3.06688-3.34336 4.59776-7.63904 4.59776-12.89216 0-5.47328-1.59744-9.92256-4.7872-13.3376-0.19968-0.21504-0.39936-0.08704-0.5888-0.28672l8.93952-8.2944h-11.08992l-4.67968 4.43392c-1.65888-0.4352-3.36896-0.80896-5.07904-0.79872-5.03808 0-9.12896 1.57696-12.27776 4.87424s-4.71552 7.48032-4.71552 12.68224z m7.86944 0.4096c0-3.42016 0.82432-6.21056 2.47296-8.38656s3.91168-3.25632 6.784-3.25632c2.93376 0 5.2224 1.03936 6.85056 3.11808 1.6384 2.07872 2.45248 4.87424 2.45248 8.38144 0 3.6608-0.7936 6.5536-2.38592 8.6784-1.5872 2.12992-3.81952 3.18976-6.71232 3.18976-2.93888 0-5.248-1.09056-6.9376-3.27168s-2.52416-4.98688-2.52416-8.45312zM170.24 367.36h15.36v-5.12h-15.36v5.12z"  horiz-adv-x="1024" />

    
    <glyph glyph-name="yangan" unicode="&#58955;" d="M932.977778 731.022222H91.022222c-45.511111 0-85.333333-39.822222-85.333333-85.333333s39.822222-85.333333 85.333333-85.333333v-318.577778c17.066667-159.288889 199.111111-284.444444 415.288889-284.444445 221.866667 0 398.222222 125.155556 415.288889 284.444445v318.577778h5.688889c45.511111 0 85.333333 39.822222 85.333333 85.333333 5.688889 45.511111-34.133333 85.333333-79.644444 85.333333zM324.266667 281.6c0-34.133333-28.444444-56.888889-56.888889-56.888889-34.133333 0-56.888889 28.444444-56.888889 56.888889v199.111111c0 34.133333 28.444444 56.888889 56.888889 56.888889 34.133333 0 56.888889-28.444444 56.888889-56.888889v-199.111111z m238.933333 0c0-34.133333-28.444444-56.888889-56.888889-56.888889-34.133333 0-56.888889 28.444444-56.888889 56.888889v199.111111c0 34.133333 28.444444 56.888889 56.888889 56.888889 34.133333 0 56.888889-28.444444 56.888889-56.888889v-199.111111z m244.622222 0c0-34.133333-28.444444-56.888889-56.888889-56.888889-34.133333 0-56.888889 28.444444-56.888889 56.888889v199.111111c0 34.133333 28.444444 56.888889 56.888889 56.888889 34.133333 0 56.888889-28.444444 56.888889-56.888889v-199.111111z"  horiz-adv-x="1024" />

    
    <glyph glyph-name="ganfenmiehuoxitong" unicode="&#58940;" d="M505.639752 577.987578l-260.770187-318.012423s-12.720497-6.360248-12.720497 0L130.385093 361.73913c0 6.360248 0 12.720497 6.360249 12.720497l318.012422 254.409938c6.360248 6.360248 12.720497 12.720497 12.720497 6.360249l44.521739-44.521739c6.360248 0 0-6.360248-6.360248-12.720497zM893.614907 857.838509V876.919255c0 6.360248-6.360248 19.080745-19.080746 19.080745H588.322981c-6.360248 0-19.080745-12.720497-19.080745-19.080745v-19.080746c0-12.720497 12.720497-25.440994 19.080745-25.440993h19.080746c-12.720497-19.080745-25.440994-38.161491-25.440994-63.602485 0-12.720497 0-25.440994 6.360248-38.161491L391.15528 577.987578l6.360248-6.360249c6.360248 0 31.801242-19.080745 50.881988-19.080745 6.360248 0 12.720497 6.360248 12.720496 12.720497l6.360249 6.360248c-6.360248-19.080745-12.720497-38.161491-12.720497-63.602484v-585.142857c0-25.440994 19.080745-50.881988 50.881988-50.881988H830.012422c25.440994 0 50.881988 19.080745 50.881988 50.881988V508.024845c0 76.322981-57.242236 139.925466-127.204969 139.925466h-12.720497V717.913043c12.720497 19.080745 19.080745 31.801242 19.080745 50.881988l101.763976-50.881988h6.360248c6.360248 0 12.720497 6.360248 19.080745 12.720497l6.360249 19.080746c0 12.720497 0 19.080745-12.720497 25.440994L766.409938 832.397516h108.124223c12.720497 6.360248 19.080745 12.720497 19.080746 25.440993z m-133.565218-413.416149s0 6.360248 6.360249 6.360249h31.801242c6.360248 0 6.360248 0 12.720497-6.360249V-19.875776s-6.360248-6.360248-12.720497-6.360249h-25.440994c-6.360248 0-12.720497 6.360248-12.720497 12.720497V444.42236z"  horiz-adv-x="1024" />

    
    <glyph glyph-name="menjin" unicode="&#59221;" d="M928.96256-62.60736V705.31072c0 85.50912-25.42592 97.792-108.43136 97.792H204.84608c-82.95936 0-108.38528-12.28288-108.38528-97.792v-767.9232H0.02048V-128h1024.09216v65.39264h-95.15008z m-63.42656 0H159.88736V705.31072c0 29.8496 2.46272 32.40448 44.95872 32.40448H820.5312c44.99968 0 44.99968 0 44.99968-32.40448v-767.91808zM637.81376 345.728V409.37984c-0.0768 69.41696-56.33024 125.67552-125.7472 125.7472-69.41184-0.08704-125.66016-56.33536-125.7472-125.7472v-63.65184c-37.37088-2.944-66.21184-34.09408-66.27328-71.5776v-144.3072c0.01024-39.83872 32.30208-72.13056 72.1408-72.1408h239.70816c39.84384 0.01024 72.1408 32.30208 72.1664 72.1408v144.3072c-0.05632 37.47328-28.88704 68.62336-66.24768 71.5776z m-45.1584 0.58368H431.45728V409.37984c0 44.43648 36.1728 80.5888 80.5888 80.5888s80.5888-36.15232 80.5888-80.5888v-63.06816h0.02048z"  horiz-adv-x="1024" />

    
    <glyph glyph-name="yangqi" unicode="&#58891;" d="M492.623644 684.794311C273.794844 684.794311 95.800889 507.630933 95.800889 289.792 95.789511 71.975822 273.794844-105.244444 492.623644-105.244444c218.794667 0 396.845511 177.2544 396.845512 395.047822 0 217.793422-178.039467 394.990933-396.845512 394.990933z m0-719.121067c-179.552711 0-325.620622 145.408-325.620622 324.152889 0 178.710756 146.067911 324.107378 325.632 324.107378 179.541333 0 325.609244-145.430756 325.609245-324.096 0-178.767644-146.033778-324.152889-325.620623-324.152889zM0 643.925333a108.885333 108.885333 0 0 1 54.727111-94.367289 109.909333 109.909333 0 0 1 109.476978 0 108.885333 108.885333 0 0 1 54.738489 94.367289c0 60.188444-49.015467 108.976356-109.4656 108.976356C49.015467 752.901689 0 704.113778 0 643.925333zM752.628622 671.175111c0-45.147022 36.750222-81.737956 82.102045-81.737955 45.340444 0 82.102044 36.590933 82.102044 81.726577 0 45.147022-36.750222 81.737956-82.102044 81.737956s-82.102044-36.590933-82.102045-81.737956zM916.832711 814.193778c0-26.328178 21.447111-47.672889 47.900445-47.672889C991.175111 766.520889 1012.622222 787.8656 1012.622222 814.193778 1012.622222 840.521956 991.175111 861.866667 964.721778 861.866667c-26.441956 0-47.889067-21.344711-47.889067-47.672889zM273.681067 793.759289a40.96 40.96 0 0 1 41.051022-40.8576 40.96 40.96 0 0 1 41.051022 40.8576 40.834844 40.834844 0 0 1-20.525511 35.384889 41.221689 41.221689 0 0 1-41.051022 0 40.834844 40.834844 0 0 1-20.525511-35.384889zM376.456533 453.233778c-49.538844 0-88.1664-13.767111-115.894044-41.324089-27.761778-27.568356-41.619911-66.036622-41.619911-115.518578 0-35.384889 6.997333-64.910222 21.014755-88.439467 13.994667-23.597511 32.267378-40.812089 54.829511-51.712 22.528-10.820267 51.006578-16.304356 85.412978-16.304355 33.837511 0 62.099911 6.291911 84.7872 18.909867a128.625778 128.625778 0 0 1 52.0192 52.895288c11.9808 22.687289 17.999644 51.700622 17.999645 87.131023 0 48.787911-13.744356 86.721422-41.221689 113.7664-27.4432 27.101867-66.571378 40.595911-117.327645 40.595911z m47.638756-223.630222c-11.127467-13.084444-26.783289-19.615289-47.012978-19.615289-19.717689 0-35.259733 6.656-46.6944 20.059022-11.4688 13.391644-17.180444 35.328-17.180444 65.9456 0 30.833778 5.779911 52.952178 17.3056 66.321067 11.502933 13.357511 26.749156 20.059022 45.784177 20.059022 19.785956 0 35.498667-6.576356 47.138134-19.751822 11.559822-13.141333 17.385244-33.985422 17.385244-62.532267-0.056889-33.860267-5.632-57.366756-16.725333-70.485333z m214.698667-29.445689c3.811556 3.072 11.377778 9.762133 22.641777 17.555911 19.000889 13.300622 32.119467 26.134756 39.332978 37.239466 7.179378 11.150222 10.808889 23.131022 10.808889 35.305245a54.590578 54.590578 0 0 1-9.4208 31.266133 55.887644 55.887644 0 0 1-25.873067 20.662045c-10.990933 4.471467-26.339556 6.7584-46.068622 6.7584-18.932622 0-33.712356-2.321067-44.418844-7.008711a55.523556 55.523556 0 0 1-24.826311-20.252445c-5.870933-8.760889-9.898667-21.003378-12.105956-36.716089l56.183467-4.528355c1.536 11.298133 4.596622 19.205689 9.136355 23.688533 4.687644 4.516978 11.025067 6.940444 17.544534 6.701511 6.906311 0 12.606578-2.161778 17.180444-6.485333 4.4032-4.027733 6.872178-9.728 6.803911-15.678578 0-5.632-2.309689-11.639467-6.872178-17.897244-4.630756-6.291911-15.132444-15.473778-31.5392-27.579734-26.908444-19.842844-45.215289-34.486044-55.011555-48.9472-9.773511-14.586311-15.633067-44.100267-17.555911-44.100266h153.668266v35.271111h-72.977066c5.074489 0 9.557333 11.6736 13.368889 14.7456z"  horiz-adv-x="1024" />

    
    <glyph glyph-name="qitijiance" unicode="&#59264;" d="M585.707399 232.517902a34.123796 34.123796 0 0 0-21.668611 8.701568 4.265474 4.265474 0 1 0 6.142284 5.971664 20.815515 20.815515 0 0 1 15.526327-5.971664 21.66861 21.66861 0 0 1 0 43.33722H290.195328a4.265474 4.265474 0 1 0 0 8.701568h295.512071a30.370178 30.370178 0 0 0 0-60.569737z m0 0M585.707399 219.209622a47.090838 47.090838 0 0 0-30.370178 11.943328 17.914993 17.914993 0 0 0-5.971665 13.137661 17.061898 17.061898 0 0 0 5.11857 12.455186 17.061898 17.061898 0 0 0 24.910371 0 7.677854 7.677854 0 0 1 6.142283-2.047428 8.36033 8.36033 0 1 1 0 17.061898H290.195328a17.061898 17.061898 0 1 0 0 35.318129h295.512071a43.678459 43.678459 0 0 0 0-87.186299z m0 0M706.846874 249.921038a47.943933 47.943933 0 0 0-47.602695 47.602695 4.265474 4.265474 0 0 0 8.701567 0 39.071746 39.071746 0 1 1 38.901128 38.901127H273.13343a4.265474 4.265474 0 0 0 0 8.701568h433.372206a47.602695 47.602695 0 0 0 0-95.20539z m0 0M706.846874 236.612757a60.910975 60.910975 0 0 0-60.910976 60.910976 17.061898 17.061898 0 1 0 35.14751 0 25.763466 25.763466 0 1 1 25.763466 25.592847H273.13343a17.061898 17.061898 0 1 0 0 35.318128h433.372206a60.910975 60.910975 0 0 0 0-121.821951z m0 0M646.277136 388.463648H290.195328a4.265474 4.265474 0 1 0 0 8.701568h356.081808a68.247591 68.247591 0 0 1 65.005831 65.005831 68.247591 68.247591 0 0 1-65.005831 65.005831 65.347069 65.347069 0 0 1-65.005831-65.005831 4.265474 4.265474 0 1 0-8.701568 0 73.53678 73.53678 0 0 0 73.53678 73.53678 76.437302 76.437302 0 0 0 73.53678-73.53678 76.437302 76.437302 0 0 0-73.53678-73.53678z m0 0M646.277136 375.155368H290.195328a17.061898 17.061898 0 1 0 0 35.318129h356.081808a55.10993 55.10993 0 0 1 51.185694 51.185693 55.10993 55.10993 0 0 1-51.185694 51.185694 52.380026 52.380026 0 0 1-51.185693-51.185694 17.061898 17.061898 0 1 0-35.14751 0 87.015679 87.015679 0 0 0 86.84506 86.84506 89.233726 89.233726 0 0 0 87.015679-86.503822 89.233726 89.233726 0 0 0-86.84506-86.84506z m0 0M508.58762 440.331818H308.280939a4.265474 4.265474 0 1 0 0 8.701568H508.58762a21.66861 21.66861 0 0 1 0 43.33722 24.910371 24.910371 0 0 1-15.526327-5.971664 4.265474 4.265474 0 1 0-5.971664 5.971664 28.663988 28.663988 0 0 0 21.66861 8.701568 30.370178 30.370178 0 0 0 0-60.569737z m0 0M508.58762 427.023538H308.280939a17.061898 17.061898 0 1 0 0 35.318128H508.58762a7.507235 7.507235 0 0 1 7.507235 8.36033c0 5.801045-5.801045 12.113947-14.331994 5.459807a17.061898 17.061898 0 0 0-24.057276 0 17.061898 17.061898 0 0 0 0 24.910371 41.80165 41.80165 0 0 0 31.052654 12.455186 43.678459 43.678459 0 0 0 0-87.186298z m0 0M985.638285-128a40.607317 40.607317 0 0 0-26.616561 11.260853l-153.557081 153.55708a499.57237 499.57237 0 0 0-317.692538-117.385857A488.311517 488.311517 0 0 0 142.78053 752.564549a485.752232 485.752232 0 0 0 680.940344 8.189711 35.318129 35.318129 0 0 0 11.260853-27.128418 36.853699 36.853699 0 0 0-38.389271-38.38927 35.318129 35.318129 0 0 0-26.61656 11.260853 415.457213 415.457213 0 0 1-282.886267 112.096669 412.215452 412.215452 0 0 1-291.075977-703.462049 409.485549 409.485549 0 0 1 291.075977-120.968856 423.817543 423.817543 0 0 1 294.147119 120.968856 416.139689 416.139689 0 0 1 91.281154 443.609344 20.815515 20.815515 0 0 0-4.094856 13.820137 37.365556 37.365556 0 0 0 73.195542 11.77271 481.14552 481.14552 0 0 0-83.091442-494.795038l153.55708-153.557081a37.194937 37.194937 0 0 0 0-53.744978 47.432076 47.432076 0 0 0-26.61656-9.725282z m0 0"  horiz-adv-x="1024" />

    
    <glyph glyph-name="icons-dew_point" unicode="&#59016;" d="M273.066667 793.6c-37.307733 0-68.266667-30.958933-68.266667-68.266667v-270.404266c-60.586667-50.0736-102.4-122.88-102.4-207.4624 0-150.391467 122.6752-273.066667 273.066667-273.066667 150.391467 0 273.066667 122.6752 273.066666 273.066667 0 84.5824-41.813333 157.3888-102.4 207.4624V725.333333c0 37.307733-30.958933 68.266667-68.266666 68.266667H273.066667z m460.8 0S682.666667 702.395733 682.666667 674.133333a51.2 51.2 0 0 1 102.4 0c0 28.2624-51.2 119.466667-51.2 119.466667zM273.066667 725.333333h204.8v-299.7248l14.609066-10.24A204.049067 204.049067 0 0 0 580.266667 247.466667c0-113.527467-91.272533-204.8-204.8-204.8s-204.8 91.272533-204.8 204.8a204.049067 204.049067 0 0 0 87.790933 167.936L273.066667 425.608533V725.333333z m68.266666-102.4v-243.370666A136.533333 136.533333 0 0 1 238.933333 247.466667a136.533333 136.533333 0 0 1 136.533334-136.533334 136.533333 136.533333 0 0 1 136.533333 136.533334 136.533333 136.533333 0 0 1-102.4 131.9936V622.933333h-68.266667z m546.133334-34.133333s-68.266667-98.816-68.266667-136.533333a68.266667 68.266667 0 1 1 136.533333 0c0 37.717333-68.266667 136.533333-68.266666 136.533333z m-51.2-307.2S785.066667 190.395733 785.066667 162.133333a51.2 51.2 0 0 1 102.4 0c0 28.2624-51.2 119.466667-51.2 119.466667z"  horiz-adv-x="1024" />

    
    <glyph glyph-name="ganwenguangxian" unicode="&#58896;" d="M988.497381 597.423158h-107.789474v-49.583158h107.789474z m21.557895 82.566737h-129.347369v-49.583158h129.347369zM1035.062434 514.856421h-155.216842V464.842105H1035.062434z m0 330.266947h-155.216842v-49.583157H1035.062434zM457.310855 286.127158a230.453895 230.453895 0 0 1-6.467369-52.170105 221.184 221.184 0 0 1 439.134316-37.941895L843.197171 206.147368a172.463158 172.463158 0 0 0-344.926316 28.456421 155.216842 155.216842 0 0 0 4.311579 37.510737c-14.443789 3.880421-30.181053 8.407579-45.271579 14.012632z m531.186526 476.429474h-107.789474v-49.583158h107.789474zM668.578223 762.556632a29.534316 29.534316 0 0 1-29.103158-29.103158V376.454737a123.742316 123.742316 0 0 1-67.47621-47.642948c68.122947-16.599579 135.168-27.378526 197.685894-36.864l23.282527-3.880421a126.329263 126.329263 0 0 1-95.070316 90.543158V733.453474A29.103158 29.103158 0 0 1 668.578223 762.556632z m3.233684-652.341895a124.820211 124.820211 0 0 1 122.448842 104.124631l-33.414736 5.820632c-66.398316 10.132211-137.754947 21.557895-210.405053 39.235368a106.496 106.496 0 0 1-2.586947-24.791579 124.389053 124.389053 0 0 1 124.173473-124.389052zM474.557171 355.974737c15.737263-4.958316 30.827789-10.132211 46.565052-14.659369a180.655158 180.655158 0 0 0 27.162948 36.217264 172.463158 172.463158 0 0 0 49.152 35.570526V775.275789a70.709895 70.709895 0 1 0 141.419789 0v-358.29221a180.224 180.224 0 0 0 49.367579-31.043368 176.774737 176.774737 0 0 0 56.266105-106.711579l49.152-9.701053a222.261895 222.261895 0 0 1-105.418105 176.774737V775.275789a120.077474 120.077474 0 1 1-240.154947 0v-334.794105A227.004632 227.004632 0 0 1 474.557171 355.974737zM113.031276 64.512l-2.586948-3.233684a218.597053 218.597053 0 0 1 14.44379-25.438316c9.054316-13.365895 18.324211-24.791579 18.32421-24.791579l3.880421 4.527158a442.799158 442.799158 0 0 0-27.162947 38.157474c0 1.724632 12.719158-1.940211 14.012632 3.018105-9.054316 13.365895-34.923789 53.463579-32.983579 60.362105-2.586947 2.586947-6.251789 0-6.25179 0a407.659789 407.659789 0 0 1 30.82779-55.18821c6.467368-5.173895-12.503579 1.293474-12.503579 2.586947z m-64.673684 17.030737a158.666105 158.666105 0 0 1 21.557894-26.73179c3.233684-2.371368 26.085053-21.557895 26.085053-21.557894l3.664842 5.820631A371.873684 371.873684 0 0 0 64.957171 70.117053c0 3.880421 6.898526 0 7.545263 1.293473A450.128842 450.128842 0 0 1 43.399276 109.568l-5.605053-3.233684 18.324211-21.557895s-6.251789-1.293474-6.898527-3.233684z m92.914526-86.231579s-20.264421 26.085053-20.264421 26.731789-3.880421 1.293474-3.880421 0 20.264421-28.456421 21.557895-28.456421 3.449263 2.155789 3.449263 2.15579z m-56.697263 26.51621a324.877474 324.877474 0 0 0 51.738947-33.630315c1.940211 0 2.586947 1.293474 1.940211 1.94021S99.018644 23.767579 86.515065 25.061053c-5.173895 1.293474-5.173895-0.646737-1.94021-3.233685zM1078.178223 106.334316c-1.940211 58.421895-35.354947 100.459789-102.4 127.622737a488.933053 488.933053 0 0 1-89.034105 26.085052c-15.737263 3.233684-32.336842 6.467368-49.367579 9.485474s-34.061474 5.820632-51.738947 9.054316l-23.282527 3.664842c-62.517895 10.347789-129.347368 21.557895-197.685894 36.864-16.599579 3.880421-33.630316 8.407579-50.014316 13.365895s-31.474526 9.485474-46.780632 14.659368a905.431579 905.431579 0 0 0-86.231579 33.630316C293.039697 421.726316 292.39296 443.284211 292.39296 443.284211s7.545263 25.438316 124.389053 47.642947c53.032421 10.132211 106.064842 15.306105 125.682526 17.246316v50.445473c-15.737263-1.293474-73.943579-6.251789-134.521263-17.677473-105.418105-21.557895-157.803789-48.289684-164.917895-89.034106-9.485474-52.601263 62.517895-92.052211 118.137263-117.490526a828.901053 828.901053 0 0 1 90.327579-34.923789c15.306105-5.173895 31.043368-10.132211 46.133895-14.659369s31.690105-8.838737 47.427368-12.719158c72.650105-17.677474 144.006737-29.103158 210.189474-39.882105l33.630316-5.820632c17.030737-2.586947 33.414737-5.605053 48.505263-8.192l46.780632-9.485473c91.621053-20.48 142.066526-46.996211 144.006736-104.340211 1.293474-34.923789-33.414737-64.673684-62.517894-83.213473-167.289263-107.789474-578.613895-140.988632-802.169264-26.516211l-22.635789-45.271579c104.771368-53.894737 244.466526-77.392842 384.592842-77.392842 182.595368 0 364.544 39.882105 468.021895 106.064842 71.356632 46.996211 85.800421 95.285895 84.722526 128.269474zM88.886434 12.126316c-6.898526 0 0-3.880421 0-3.880421a202.428632 202.428632 0 0 0 44.409263-24.791579c3.018105-1.724632 4.311579 0 2.371368 1.94021A122.88 122.88 0 0 1 88.886434 12.126316z m-27.162948-41.606737a40.96 40.96 0 0 1 12.072421-5.173895 464.357053 464.357053 0 0 1-51.954526-3.880421c0-1.940211 1.940211-6.251789 1.940211-6.251789l57.344 4.311579s8.192 1.940211 5.820631 4.527158a40.96 40.96 0 0 1-6.251789 4.958315l35.354947-10.347789 1.940211 6.467368a321.859368 321.859368 0 0 1-54.325895 11.425684c-8.192-0.431158-2.371368-4.311579-1.940211-6.03621z m30.396632 21.557895c-2.586947-1.940211 0-3.880421 0-3.880421a92.052211 92.052211 0 0 0 37.510737-9.485474c5.605053-1.940211 1.940211 2.586947 1.94021 2.586947a251.149474 251.149474 0 0 1-39.450947 10.778948z m-43.11579 16.384L45.339486 12.126316l31.043369-15.306105a6.682947 6.682947 0 0 1 3.233684 3.880421 125.898105 125.898105 0 0 1-48.074105 23.498105c-3.233684-2.586947-1.940211-2.586947 0-5.605053a19.617684 19.617684 0 0 1 4.311579-5.173895A168.582737 168.582737 0 0 1 0.283486 18.809263 19.833263 19.833263 0 0 1 0.283486 12.126316a356.567579 356.567579 0 0 0 43.11579-7.545263c3.880421-1.724632 7.760842 2.155789 5.820631 3.880421z"  horiz-adv-x="1078" />

    
    <glyph glyph-name="ruqinbaojing" unicode="&#58904;" d="M426.273191 618.34244a210.132765 210.132765 0 0 1-20.21984 44.27889 85.486411 85.486411 0 0 1-133.60451 27.130418c-47.350258-37.368311-96.492147-76.784202-142.050773-115.43225a86.254253 86.254253 0 0 1-28.666102-44.022943c-13.565209-54.260836-25.594734-108.777619-35.576681-163.038454-1.791631-10.237894 8.446262-22.011471 11.773578-33.785049 10.237894 8.446262 25.594734 13.565209 28.666102 23.547155a460.70521 460.70521 0 0 1 32.249365 106.985988c8.446262 52.725152 45.558626 72.944992 89.581568 96.748094-16.892524-67.826045-30.457733-130.78909-47.350257-193.496188a57.588151 57.588151 0 0 1 23.547155-64.49873c69.361729-57.588151 138.723458-116.967934 206.293555-179.163137a89.581569 89.581569 0 0 0 18.684156-35.57668L464.665292-83.977058c6.654631-32.249365 23.547155-49.397836 45.558626-42.487258 27.130418 8.446262 25.594734 30.457733 23.803103 51.189468-5.118947 57.844099-12.029525 115.43225-17.148472 173.276348a155.615982 155.615982 0 0 1-37.112364 93.164832c-38.903996 45.814574-76.784202 95.21241-114.920355 142.562667a42.743206 42.743206 0 0 0-10.237894 27.130418c13.565209 54.260836 27.130418 106.985988 40.695627 161.246824a12.797367 12.797367 0 0 0 8.446262 3.327315c11.773578-76.784202 70.897413-106.73004 130.277196-137.443721 9.981946-5.118947 20.21984-11.773578 30.201786-16.892524s32.249365-18.684156 40.695627 1.791631a45.302679 45.302679 0 0 1-16.892525 37.368312 379.313956 379.313956 0 0 0-161.758718 208.085186zM172.629378 301.223687c-3.327315-17.148472-5.118947-27.130418-6.65463-37.368311a441.509159 441.509159 0 0 0-66.034414-215.50766c-22.011471-35.832627-40.695627-73.968781-60.915466-112.104934-9.981946-20.21984-16.892524-40.695627 5.118946-54.260836s38.903996-1.791631 52.469205 18.684156c31.993417 45.814574 60.915467 93.420779 96.236199 135.65209a332.73154 332.73154 0 0 1 72.689044 174.812032 30.713681 30.713681 0 0 1-8.446262 27.130418c-25.338787 22.011471-54.004888 40.695627-84.462622 62.963045z m186.073716 429.223687a76.784202 76.784202 0 0 1 76.784201 76.784202 78.575833 78.575833 0 0 1-76.784201 81.647201 73.456886 73.456886 0 0 1-76.784202-78.063938 73.968781 73.968781 0 0 1 76.784202-80.367465z m511.894677 156.127877a35.320733 35.320733 0 0 1-51.189467-3.327315 35.57668 35.57668 0 0 1 3.327315-51.189468 288.196704 288.196704 0 0 0 99.819462-220.626606A292.803756 292.803756 0 0 0 816.84883 383.894678a36.856417 36.856417 0 0 1-5.118947-51.189468 34.296943 34.296943 0 0 1 26.874471-13.565209 25.594734 25.594734 0 0 1 22.011471 8.446262 365.748747 365.748747 0 0 1 133.604511 284.101546A358.326274 358.326274 0 0 1 870.853719 886.575251zM750.814417 819.005154a35.064785 35.064785 0 1 1-42.231311-55.79652 194.519978 194.519978 0 0 0 76.784202-156.127877 191.704557 191.704557 0 0 0-76.784202-156.127877 35.57668 35.57668 0 0 1-6.910578-49.397836 39.159943 39.159943 0 0 1 28.922049-13.565209 42.487258 42.487258 0 0 1 20.21984 6.910578 262.60197 262.60197 0 0 1 106.474093 212.180344A266.44118 266.44118 0 0 1 750.814417 819.005154z m-109.801409-56.308415a35.832627 35.832627 0 0 1-37.368311-61.171414 106.474093 106.474093 0 0 0-3.327315-181.466663 36.600469 36.600469 0 0 1-13.565209-49.141889 35.57668 35.57668 0 0 1 30.457733-18.684156 31.481523 31.481523 0 0 1 18.684156 6.654631 174.556085 174.556085 0 0 1 87.789937 153.568403 179.163137 179.163137 0 0 1-82.670991 150.241088z"  horiz-adv-x="1024" />

    
    <glyph glyph-name="fengji" unicode="&#59110;" d="M602.053 407.132c-2.152 7.884-5.311 15.277-9.132 22.251 53.812 155.537 364.722-17.271 405.338 102.057C1052.479 779.659 827.438 896 734.513 896 488.457 883.047 483.808 575.539 488.954 473.896c-7.884-1.993-15.284-5.152-22.417-9.056-155.461 53.812 17.436 364.809-101.905 405.337C116.424 924.484 0 699.521 0 606.432c12.953-246.055 320.374-250.704 422.189-245.559a90.743 90.743 0 0 1 8.966-22.257C377.42 183.08 66.51 355.894 25.74 236.56-28.402-11.653 196.473-128 289.653-128c245.967 12.959 250.616 320.384 245.47 422.109 7.973 1.993 15.36 5.063 22.25 9.049 155.627-53.81-17.27-364.802 101.982-405.329C907.652-156.396 1024 68.484 1024 161.657c-12.953 245.972-320.297 250.62-421.947 245.475z m-90.009-89.607c-36.706 0-66.446 29.81-66.446 66.516s29.74 66.356 66.446 66.356c36.694 0 66.345-29.65 66.345-66.356s-29.651-66.516-66.345-66.516z"  horiz-adv-x="1024" />

    
    <glyph glyph-name="zhuji" unicode="&#59017;" d="M51.35872 616.92416v-470.95296c0-29.4656 28.83584-58.9312 57.66656-58.9312h806.33856c28.83584 0 57.66656 29.4656 57.66656 58.9312V616.92416c0 29.47072-28.83072 58.9312-57.66656 58.9312H109.02528c-28.30848 0.5376-57.66656-29.4656-57.66656-58.9312z m696.76544-235.20768c0-38.57408-25.16992-64.82944-63.44192-64.82944s-63.43168 25.71776-63.43168 64.82944c0 38.57408 25.15968 64.82944 63.43168 64.82944 37.74976 0 63.44192-26.25024 63.44192-64.82944z m-349.184 176.27648v-353.08032h-61.8496V557.99296h61.86496z m-173.00992 0v-353.08032H164.07552V557.99296H225.9456z m0 0"  horiz-adv-x="1024" />

    
    <glyph glyph-name="YWC" unicode="&#58893;" d="M213.09952 380.53887999999995c-20.8384 25.92768-51.26656 42.36288-85.2736 42.36288-62.53056 0-113.2288-55.30112-113.65888-123.6736 0 17.18784 12.7232 31.1296 28.42112 31.1296 15.69792 0 28.42112-13.94176 28.42112-31.1296 0.42496 33.93024 25.73312 61.40928 56.81664 61.40928 31.07328 0 56.38144-27.47904 56.8064-61.40928h0.08704l0.01536 0.15872c0.20992 31.38048 11.03872 59.93984 28.74368 81.62816l-0.37888-0.47616z m170.55744 0.01024c-20.83328 25.91744-51.26656 42.35264-85.2736 42.35264s-64.44032-16.4352-85.2736-42.36288c17.32608-21.42208 28.00128-49.66912 28.29312-80.65024 0.02048 0.70144 0.16896 0.04096 0.16896-0.66048h0.00512c0.42496 33.93024 25.728 61.40928 56.8064 61.40928s56.38656-27.47904 56.8064-61.40928h0.08704l0.01536 0.15872c0.2048 31.37024 11.0336 59.93984 28.73344 81.61792l-0.36864-0.45568zM213.14048 330.35776c15.04256 0 27.24352-12.86144 28.23168-29.06112-0.64512 31.02208-11.60192 59.12064-29.25056 80.44544-16.55296-22.8352-27.2896-51.456-27.38688-82.80576 0.08192 17.57184 12.76416 31.42144 28.40576 31.42144z m341.05344 50.19136c-20.82816 25.91744-51.26144 42.35264-85.26848 42.35264s-64.44032-16.4352-85.2736-42.35264c17.34144-21.44256 28.02688-49.72032 28.30336-80.73216 0.01536 0.67072 0.1536 0.07168 0.1536-0.5888h0.00512c0.42496 33.93024 25.728 61.41952 56.81152 61.41952 31.07328 0 56.38656-27.47904 56.81152-61.41952h0.0768v0.08192c0.2048 31.40096 11.03872 59.99104 28.75904 81.69984l-0.37888-0.4608zM383.68768 330.35776c15.09888 0 27.33568-12.93824 28.25216-29.23008-0.60928 31.05792-11.55584 59.20256-29.21472 80.55296-16.60416-22.784-27.34592-51.4048-27.44832-82.77504 0.08192 17.60256 12.76928 31.45216 28.41088 31.45216z m341.10464 0c15.04256 0 27.22304-12.84096 28.22656-29.0304-1.4336 67.38944-51.65568 121.5744-113.536 121.5744-34.0224 0-64.45568-16.4352-85.2736-42.35264 17.34656-21.44768 28.032-49.7408 28.30848-80.75776 0.01024 0.71168 0.14336 0.1024 0.14336-0.54784h0.01536c0.41984 33.93024 25.71264 61.40928 56.8064 61.40928 31.06304 0 56.38656-27.4688 56.80128-61.40928h0.08192c0 17.18784 12.7232 31.11424 28.42624 31.11424zM554.24 330.35776c15.09376 0 27.33568-12.93824 28.25216-29.23008-0.62464 31.06816-11.57632 59.20768-29.25056 80.57856-16.58368-22.81984-27.33056-51.44576-27.42272-82.82624 0.04096 17.59232 12.74368 31.47776 28.42112 31.47776z m-511.64672-62.2592c15.69792 0 28.42112 13.94176 28.42112 31.1296H14.17216c0-17.18784 12.71808-31.1296 28.42112-31.1296z m0 62.2592c-15.69792 0-28.42112-13.93152-28.42112-31.1296H71.0144c0 17.2032-12.7232 31.1296-28.42112 31.1296z m142.13632-31.1296l-0.00512-0.49152c0-17.18784 12.72832-31.1296 28.42112-31.1296 15.69792 0 28.42112 13.94176 28.42112 31.1296v0.52224l-56.83712-0.03072zM213.14048 330.35776c-15.6416 0-28.32896-13.83936-28.40576-30.96064l-0.00512-0.16896h56.74496c0 0.70144-0.08704 1.37216-0.1024 2.05824-0.98304 16.21504-13.184 29.07136-28.23168 29.07136z m142.13632-31.1296l-0.00512-0.49152c0-17.18784 12.72832-31.1296 28.42624-31.1296 15.6928 0 28.42112 13.94176 28.42112 31.1296l-0.00512 0.52224-56.84224-0.03072h0.00512zM355.28192 299.39200000000005l-0.01536-0.15872h0.00512l0.01024 0.15872z m56.74496-0.16384h0.08704c0 0.66048-0.13824 1.25952-0.16896 1.89952 0-0.64 0.08192-1.24928 0.08192-1.89952zM383.68768 330.35776c-15.6416 0-28.32896-13.83936-28.40576-30.96064l-0.00512-0.16896h56.74496c0 0.65024-0.0768 1.25952-0.09216 1.89952-0.90624 16.29184-13.13792 29.23008-28.24192 29.23008z m142.1312-31.1296c0.36352-16.89088 12.93824-30.4384 28.42624-30.4384 15.47264 0 28.06272 13.54752 28.42624 30.40768l-56.85248 0.03072z m0 0.08192l-0.00512-0.08192h0.00512v0.08192z m56.76032-0.08192h0.08192c0 0.66048-0.14336 1.25952-0.15872 1.89952 0.00512-0.64 0.0768-1.24928 0.0768-1.89952zM554.24 330.35776c-15.67744 0-28.38016-13.89056-28.42112-31.04256v-0.09216h56.75008c0 0.65024-0.06656 1.25952-0.08192 1.89952-0.91136 16.29696-13.15328 29.2352-28.24704 29.2352z m198.76864-29.04576c0.01536-0.70144 0.11776-1.3824 0.11776-2.07872h-56.77056c0.35328-16.89088 12.94336-30.44864 28.42624-30.44864 15.47264 0 28.06784 13.55776 28.42112 30.40768 0 0.75776-0.14336 1.42848-0.19456 2.11968zM753.00864 301.312c-0.9984 16.20992-13.17888 29.05088-28.23168 29.05088-15.6928 0-28.42112-13.94176-28.42112-31.1296h56.75008c0.02048 0.72192-0.08704 1.38752-0.1024 2.08896v-0.01024z m256.82432-80.31232v0.01024c0 17.18784-12.7232 31.1296-28.42624 31.1296-15.68768 0-28.42112-13.94176-28.42112-31.1296h-0.25088c0-34.3296-25.50272-62.24896-56.85248-62.24896-30.8224 0-55.93088 27.008-56.76544 60.53888 0.03584 0.57856 0.15872 1.12128 0.15872 1.71008 0 17.18784-12.7232 31.1296-28.43136 31.1296-15.6928 0-28.416-13.94176-28.416-31.1296h-0.26112c0-34.3296-25.4976-62.24896-56.84736-62.24896-30.80192 0-55.90016 26.98752-56.7552 60.48768 0.02048 0.5888 0.1536 1.152 0.1536 1.76128 0 17.18784-12.7232 31.1296-28.42624 31.1296s-28.42112-13.94176-28.42112-31.1296h-0.27136c0-34.3296-25.49248-62.24896-56.84224-62.24896-30.78656 0-55.86432 26.94144-56.76032 60.42112 0.0256 0.61952 0.16384 1.20832 0.16384 1.82784 0 17.18784-12.71808 31.1296-28.416 31.1296s-28.42624-13.94176-28.42624-31.1296h-0.27648c0-34.3296-25.50272-62.24896-56.84736-62.24896s-56.84224 27.91936-56.84224 62.24896h-0.17408c0 17.19808-12.7232 31.13984-28.42624 31.13984-15.6928 0-28.42112-13.94176-28.42112-31.13984 0-0.36864 0.08704-0.71168 0.1024-1.08032-0.53248-33.82784-25.78432-61.16864-56.79104-61.16864-31.34464 0-56.84736 27.91936-56.84736 62.24896 0 17.19808-12.7232 31.13984-28.42112 31.13984s-28.42112-13.94176-28.42112-31.13984c0-68.7616 50.89792-124.50816 113.6896-124.50816 34.00704 0 64.44032 16.43008 85.2736 42.34752 20.83328-25.92256 51.26656-42.34752 85.2736-42.34752 34.00704 0 64.4352 16.43008 85.2736 42.34752 20.8384-25.92256 51.27168-42.34752 85.28384-42.34752 34.00704 0 64.4352 16.43008 85.27872 42.34752 20.82816-25.92256 51.26144-42.34752 85.2736-42.34752 34.00192 0 64.44032 16.43008 85.26848 42.34752 20.84352-25.92256 51.2768-42.34752 85.28384-42.34752 61.06112 0 110.73536 52.77184 113.42336 118.912a32.0512 32.0512 0 0 1 0.53248 5.60128v-0.01536z m0-163.45088v0.01024c0 17.18784-12.7232 31.1296-28.42624 31.1296-15.68768 0-28.42112-13.94176-28.42112-31.1296h-0.25088c0-34.3296-25.50272-62.2592-56.85248-62.2592-30.8224 0-55.93088 27.01824-56.76544 60.54912 0.03584 0.56832 0.15872 1.12128 0.15872 1.69984v0.01024c0 17.18784-12.7232 31.1296-28.43136 31.1296-15.6928 0-28.416-13.94176-28.416-31.1296h-0.26112c0-34.3296-25.4976-62.2592-56.84736-62.2592-30.80192 0-55.90016 26.98752-56.7552 60.48768 0.02048 0.5888 0.1536 1.16224 0.1536 1.76128v0.01024c0 17.18784-12.7232 31.1296-28.42624 31.1296s-28.42112-13.94176-28.42112-31.1296h-0.27136c0-34.3296-25.49248-62.2592-56.84224-62.2592-30.78656 0-55.86432 26.95168-56.76032 60.42112 0.0256 0.62976 0.16384 1.21856 0.16384 1.82784v0.01024c0 17.18784-12.71808 31.1296-28.416 31.1296s-28.42624-13.94176-28.42624-31.1296h-0.27648c0-34.3296-25.50272-62.2592-56.84736-62.2592s-56.84224 27.9296-56.84224 62.2592h-0.17408c0 17.18784-12.7232 31.1296-28.42624 31.1296-15.6928 0-28.42112-13.94176-28.42112-31.1296 0-0.36864 0.08704-0.71168 0.1024-1.08032-0.53248-33.82784-25.78432-61.17888-56.79104-61.17888-31.34464 0-56.84736 27.9296-56.84736 62.2592 0 17.19808-12.7232 31.13984-28.42112 31.13984s-28.42112-13.94176-28.42112-31.13984c0-68.7616 50.89792-124.5184 113.6896-124.5184 34.00704 0 64.44032 16.44032 85.2736 42.368 20.83328-25.92768 51.26656-42.368 85.2736-42.368 34.00704 0 64.4352 16.44032 85.2736 42.368 20.8384-25.92768 51.27168-42.368 85.28384-42.368 34.00704 0 64.4352 16.44032 85.27872 42.368 20.82816-25.92768 51.26144-42.368 85.2736-42.368 34.00192 0 64.44032 16.44032 85.26848 42.368 20.84352-25.92768 51.2768-42.368 85.28384-42.368 61.06112 0 110.73536 52.78208 113.42336 118.92224a32.0512 32.0512 0 0 1 0.53248 5.60128v-0.01536zM887.36256 834.95936h28.43136v-607.04768h-28.43136V834.95936z m-99.4816 0h-28.42624v-607.04768h28.42624v52.39808h63.36v31.11936h-63.36v54.49216h63.36V397.056h-63.36V451.54304h63.36v31.1296h-63.36V537.15456h63.36v31.1296h-63.36V622.7712h63.36v31.1296h-63.36V708.38784h63.36v31.1296h-63.36V794.0044800000001h63.36V825.1392h-63.36v9.82016z"  horiz-adv-x="1024" />

    
    <glyph glyph-name="weibiaoti-" unicode="&#58925;" d="M54.044444 14.222221999999988h435.2v-39.822222H54.044444zM221.866667 28.444443999999976h227.555555c-19.911111 39.822222-28.444444 82.488889-28.444444 130.844445 0 156.444444 122.311111 284.444444 275.911111 295.822222v369.777778H221.866667v-796.444445z m85.333333 420.977778c0 2.844444 2.844444 5.688889 5.688889 5.688889h91.022222v-25.6h-71.111111V384h-25.6v65.422222zM716.8 409.6c-139.377778 0-253.155556-113.777778-253.155556-253.155556s113.777778-253.155556 253.155556-253.155555 253.155556 113.777778 253.155556 253.155555-113.777778 253.155556-253.155556 253.155556z m48.355556-435.2c31.288889 71.111111 8.533333 170.666667-45.511112 216.177778 2.844444-19.911111 0-71.111111-25.6-102.4 5.688889 34.133333-2.844444 76.8-8.533333 54.044444-2.844444-22.755556-11.377778-42.666667-22.755555-59.733333-17.066667-28.444444-25.6-56.888889-5.688889-108.088889-65.422222 42.666667-82.488889 85.333333-73.955556 142.222222 8.533333 42.666667 34.133333 76.8 36.977778 116.622222 11.377778-22.755556 11.377778-36.977778 11.377778-59.733333 31.288889 48.355556 65.422222 110.933333 59.733333 167.822222 0 0 62.577778-22.755556 85.333333-133.688889 14.222222 14.222222 14.222222 48.355556 5.688889 65.422223 25.6-19.911111 150.755556-187.733333-17.066666-298.666667zM514.133333 263.338667l412.16-205.966223-17.777777-35.640888-412.188445 205.994666zM466.488889-8.53333299999997c0 5.688889-2.844444 11.377778-2.844445 17.066666H204.8V841.955556H711.111111v-389.688889h22.755556V861.866667H184.888889V-14.222221999999988l281.6 5.688889c0-2.844444 0-2.844444 0 0z"  horiz-adv-x="1024" />

    
    <glyph glyph-name="dianli" unicode="&#58894;" d="M512-128C230.4-128 0 102.4 0 384S230.4 896 512 896c108.8 0 211.2-32 300.8-96 12.8-12.8 19.2-32 6.4-44.8s-32-19.2-44.8-6.4C697.6 806.4 608 832 512 832 262.4 832 64 633.6 64 384s198.4-448 448-448 448 198.4 448 448c0 76.8-19.2 153.6-57.6 224-6.4 12.8-6.4 32 12.8 44.8 12.8 6.4 32 6.4 44.8-12.8 38.4-76.8 64-166.4 64-256 0-281.6-230.4-512-512-512zM672 441.6h-64c-12.8 0-51.2-6.4-64 0 0 6.4 6.4 25.6 6.4 32 6.4 25.6 12.8 44.8 19.2 70.4l32 102.4c0 19.2-19.2 25.6-25.6 12.8l-230.4-320c-6.4-6.4 0-19.2 12.8-19.2H448c6.4 0 32 6.4 38.4 0 0 0-6.4-19.2-6.4-25.6-19.2-64-32-121.6-51.2-185.6-6.4-12.8 12.8-19.2 19.2-6.4l230.4 320c6.4 6.4 0 19.2-6.4 19.2z"  horiz-adv-x="1024" />

    
    <glyph glyph-name="jinggai" unicode="&#59097;" d="M417.49 140.59c-33.36 12.94-63.97 32.8-90.03 58.87-27.21 27.21-47.66 59.38-60.53 94.46-5.29 14.41-18.9 24.08-34.26 24.08h-1.25c-25.28 0-42.89-25.14-34.21-48.88 1.91-5.22 3.95-10.4 6.12-15.54 16.88-39.9 41.03-75.72 71.78-106.48 30.76-30.76 66.58-54.91 106.48-71.78 3.3-1.4 6.62-2.74 9.96-4.02 23.83-9.19 49.46 8.46 49.46 34v1.25c-0.01 15.13-9.42 28.57-23.52 34.04zM606.51 627.41c33.36-12.94 63.97-32.8 90.03-58.87 25.04-25.04 44.36-54.27 57.32-86.1 5.55-13.63 18.92-22.44 33.64-22.44h1.23c25.73 0 43.5 26.03 33.83 49.87-0.62 1.52-1.24 3.04-1.88 4.55-16.88 39.9-41.03 75.72-71.78 106.48-30.75 30.76-66.58 54.91-106.48 71.78-3.3 1.4-6.62 2.74-9.96 4.02-23.83 9.19-49.46-8.46-49.46-34v-1.25c0-15.13 9.41-28.57 23.51-34.04zM792.58 318h-1.25c-15.36 0-28.97-9.67-34.25-24.08-12.87-35.08-33.32-67.25-60.53-94.46-26.06-26.06-56.67-45.93-90.03-58.87-14.11-5.47-23.51-18.91-23.51-34.05v-1.25c0-25.54 25.63-43.18 49.46-34 3.34 1.29 6.66 2.63 9.96 4.02 39.9 16.88 75.72 41.03 106.48 71.78 30.76 30.75 54.91 66.58 71.78 106.48 2.17 5.14 4.21 10.32 6.12 15.54 8.66 23.75-8.95 48.89-34.23 48.89zM235.27 460h1.23c14.71 0 28.09 8.81 33.64 22.44 12.95 31.84 32.28 61.07 57.32 86.1 26.06 26.06 56.67 45.93 90.03 58.87 14.11 5.47 23.51 18.91 23.51 34.05v1.25c0 25.54-25.63 43.18-49.46 34-3.34-1.29-6.66-2.63-9.96-4.02-39.9-16.88-75.72-41.03-106.48-71.78s-54.91-66.58-71.78-106.48c-0.64-1.51-1.27-3.03-1.88-4.55-9.67-23.85 8.1-49.88 33.83-49.88zM981.44 582.33c-25.66 60.68-62.39 115.16-109.17 161.94s-101.26 83.51-161.94 109.17c-62.84 26.58-129.57 40.06-198.33 40.06s-135.49-13.48-198.33-40.06c-60.68-25.66-115.16-62.4-161.94-109.17s-83.51-101.26-109.17-161.94C15.98 519.49 2.5 452.76 2.5 384s13.48-135.49 40.06-198.33c25.66-60.67 62.4-115.16 109.17-161.94 46.78-46.78 101.26-83.51 161.94-109.17C376.51-112.02 443.24-125.5 512-125.5s135.49 13.48 198.33 40.06c60.67 25.66 115.16 62.39 161.94 109.17s83.51 101.26 109.17 161.94c26.58 62.84 40.06 129.57 40.06 198.33s-13.48 135.49-40.06 198.33z m-72.75-365.89c-21.68-51.26-52.73-97.3-92.28-136.85-39.55-39.55-85.59-70.6-136.85-92.28-53.05-22.44-109.42-33.81-167.56-33.81s-114.51 11.38-167.56 33.81c-51.26 21.68-97.3 52.73-136.85 92.28-39.55 39.55-70.6 85.59-92.28 136.85C92.88 269.49 81.5 325.87 81.5 384s11.38 114.51 33.81 167.56c21.68 51.26 52.73 97.3 92.28 136.85 39.55 39.55 85.59 70.6 136.85 92.28C397.49 803.12 453.87 814.5 512 814.5s114.51-11.38 167.56-33.81c51.26-21.68 97.3-52.73 136.85-92.28 39.55-39.55 70.6-85.59 92.28-136.85C931.12 498.51 942.5 442.13 942.5 384s-11.38-114.51-33.81-167.56zM685 384c0 95.39-77.61 173-173 173S339 479.39 339 384s77.61-173 173-173 173 77.61 173 173z m-173-93c-51.28 0-93 41.72-93 93s41.72 93 93 93 93-41.72 93-93-41.72-93-93-93z"  horiz-adv-x="1024" />

    
    <glyph glyph-name="huozaibaojingkongzhiqi" unicode="&#58895;" d="M769.02 727.94H254.98c-11.52 0-20.86-9.34-20.86-20.86v-646.17c0-11.52 9.34-20.86 20.86-20.86h514.03c11.52 0 20.86 9.34 20.86 20.86V707.09c0 11.51-9.33 20.85-20.85 20.85z m-107.61-86.3c0 2.08 1.68 3.76 3.76 3.76h30.71c2.08 0 3.76-1.68 3.76-3.76v-15.92c0-2.08-1.68-3.76-3.76-3.76h-30.71c-2.08 0-3.76 1.68-3.76 3.76v15.92z m0-33.11c0 2.08 1.68 3.76 3.76 3.76h30.71c2.08 0 3.76-1.68 3.76-3.76v-15.92c0-2.08-1.68-3.76-3.76-3.76h-30.71c-2.08 0-3.76 1.68-3.76 3.76v15.92z m0-33.12c0 2.08 1.68 3.76 3.76 3.76h30.71c2.08 0 3.76-1.68 3.76-3.76v-15.92c0-2.08-1.68-3.76-3.76-3.76h-30.71c-2.08 0-3.76 1.68-3.76 3.76v15.92z m0-35.66c0 2.08 1.68 3.76 3.76 3.76h30.71c2.08 0 3.76-1.68 3.76-3.76v-15.92c0-2.08-1.68-3.76-3.76-3.76h-30.71c-2.08 0-3.76 1.68-3.76 3.76v15.92z m-71.44 101.89c0 2.08 1.68 3.76 3.76 3.76h30.71c2.08 0 3.76-1.68 3.76-3.76v-15.92c0-2.08-1.68-3.76-3.76-3.76h-30.71c-2.08 0-3.76 1.68-3.76 3.76v15.92z m0-33.11c0 2.08 1.68 3.76 3.76 3.76h30.71c2.08 0 3.76-1.68 3.76-3.76v-15.92c0-2.08-1.68-3.76-3.76-3.76h-30.71c-2.08 0-3.76 1.68-3.76 3.76v15.92z m0-33.12c0 2.08 1.68 3.76 3.76 3.76h30.71c2.08 0 3.76-1.68 3.76-3.76v-15.92c0-2.08-1.68-3.76-3.76-3.76h-30.71c-2.08 0-3.76 1.68-3.76 3.76v15.92z m0-35.66c0 2.08 1.68 3.76 3.76 3.76h30.71c2.08 0 3.76-1.68 3.76-3.76v-15.92c0-2.08-1.68-3.76-3.76-3.76h-30.71c-2.08 0-3.76 1.68-3.76 3.76v15.92z m-48.25 101.89c0 2.08 1.68 3.76 3.76 3.76h30.71c2.08 0 3.76-1.68 3.76-3.76v-15.92c0-2.08-1.68-3.76-3.76-3.76h-30.71c-2.08 0-3.76 1.68-3.76 3.76v15.92z m0-33.11c0 2.08 1.68 3.76 3.76 3.76h30.71c2.08 0 3.76-1.68 3.76-3.76v-15.92c0-2.08-1.68-3.76-3.76-3.76h-30.71c-2.08 0-3.76 1.68-3.76 3.76v15.92z m0-33.12c0 2.08 1.68 3.76 3.76 3.76h30.71c2.08 0 3.76-1.68 3.76-3.76v-15.92c0-2.08-1.68-3.76-3.76-3.76h-30.71c-2.08 0-3.76 1.68-3.76 3.76v15.92z m0-35.66c0 2.08 1.68 3.76 3.76 3.76h30.71c2.08 0 3.76-1.68 3.76-3.76v-15.92c0-2.08-1.68-3.76-3.76-3.76h-30.71c-2.08 0-3.76 1.68-3.76 3.76v15.92z m-50.13 101.89c0 2.08 1.68 3.76 3.76 3.76h30.71c2.08 0 3.76-1.68 3.76-3.76v-15.92c0-2.08-1.68-3.76-3.76-3.76h-30.71c-2.08 0-3.76 1.68-3.76 3.76v15.92z m0-33.11c0 2.08 1.68 3.76 3.76 3.76h30.71c2.08 0 3.76-1.68 3.76-3.76v-15.92c0-2.08-1.68-3.76-3.76-3.76h-30.71c-2.08 0-3.76 1.68-3.76 3.76v15.92z m0-33.12c0 2.08 1.68 3.76 3.76 3.76h30.71c2.08 0 3.76-1.68 3.76-3.76v-15.92c0-2.08-1.68-3.76-3.76-3.76h-30.71c-2.08 0-3.76 1.68-3.76 3.76v15.92zM321.14 327.06c-20.77 0-37.6 16.83-37.6 37.6 0 20.77 16.83 37.6 37.6 37.6 20.77 0 37.6-16.83 37.6-37.6 0-20.76-16.84-37.6-37.6-37.6z m142.87 213.69c0-11.42-9.26-20.68-20.68-20.68H304.22c-11.42 0-20.68 9.26-20.68 20.68v83.97c0 11.42 9.26 20.68 20.68 20.68h139.12c11.42 0 20.68-9.26 20.68-20.68v-83.97z m27.58-16.92v15.92c0 2.08 1.68 3.76 3.76 3.76h30.71c2.08 0 3.76-1.68 3.76-3.76v-15.92c0-2.08-1.68-3.76-3.76-3.76h-30.71c-2.08 0-3.76 1.69-3.76 3.76z m256.3-384.14c0-16.96-13.75-30.71-30.71-30.71H553.63c-16.96 0-30.71 13.75-30.71 30.71v87.73c0 16.96 13.75 30.71 30.71 30.71h163.56c16.96 0 30.71-13.75 30.71-30.71v-87.73z m0 384.14c0-2.08-1.68-3.76-3.76-3.76h-30.71c-2.08 0-3.76 1.68-3.76 3.76v15.92c0 2.08 1.68 3.76 3.76 3.76h30.71c2.08 0 3.76-1.68 3.76-3.76v-15.92z m0 35.67c0-2.08-1.68-3.76-3.76-3.76h-30.71c-2.08 0-3.76 1.68-3.76 3.76v15.92c0 2.08 1.68 3.76 3.76 3.76h30.71c2.08 0 3.76-1.68 3.76-3.76v-15.92z m0 33.11c0-2.08-1.68-3.76-3.76-3.76h-30.71c-2.08 0-3.76 1.68-3.76 3.76v15.92c0 2.08 1.68 3.76 3.76 3.76h30.71c2.08 0 3.76-1.68 3.76-3.76v-15.92z m0 33.12c0-2.08-1.68-3.76-3.76-3.76h-30.71c-2.08 0-3.76 1.68-3.76 3.76v15.92c0 2.08 1.68 3.76 3.76 3.76h30.71c2.08 0 3.76-1.68 3.76-3.76v-15.92zM321.14 380.95c-5.85 0-10.58-4.74-10.58-10.58 0-4.4 2.69-8.17 6.51-9.77v-13.33h8.15V360.6c3.82 1.6 6.51 5.37 6.51 9.77-0.01 5.84-4.75 10.58-10.59 10.58z"  horiz-adv-x="1024" />

    
    <glyph glyph-name="guangxiandianhuazhuji" unicode="&#59026;" d="M731.4432 198.3488V168.96h-185.344v29.3888h75.9808v33.5872h-55.9104v28.672h55.9104v30.72h-67.584v28.7744h76.3904a288.3584 288.3584 0 0 1-27.4432 21.0944l24.7808 17.408a235.52 235.52 0 0 0 40.96-30.72l-11.264-8.192h63.8976v-29.0816H655.36v-30.72h55.9104v-28.672H655.36v-33.5872zM389.12-5.12H160.3584a26.7264 26.7264 0 0 0-26.7264 26.624V709.8368a26.7264 26.7264 0 0 0 26.7264 26.7264H389.12a26.7264 26.7264 0 0 0 26.624-26.7264v-688.2304A26.7264 26.7264 0 0 0 389.12-5.12z m-224.768 30.72h220.2624V705.8432H164.352zM846.9504 31.4368H411.2384a26.7264 26.7264 0 0 0-26.624 26.7264V673.3824a26.624 26.624 0 0 0 26.624 26.624h435.712a26.624 26.624 0 0 0 26.7264-26.624v-615.2192a26.7264 26.7264 0 0 0-26.7264-26.7264z m-431.616 30.72h427.6224V669.2864H415.3344zM322.3552 620.3392h-99.9424a15.36 15.36 0 0 0 0 30.72h99.9424a15.36 15.36 0 0 0 0-30.72zM322.3552 75.0592h-99.9424a15.36 15.36 0 0 0 0 30.72h99.9424a15.36 15.36 0 0 0 0-30.72zM750.8992 449.536H521.4208a24.8832 24.8832 0 0 0-24.7808 24.7808V596.48a24.8832 24.8832 0 0 0 24.7808 24.8832h229.4784a24.8832 24.8832 0 0 0 24.7808-24.8832v-122.1632a24.8832 24.8832 0 0 0-24.7808-24.7808z m-223.5392 30.72h217.6V590.6432H527.36zM638.464 90.7264a164.5568 164.5568 0 1 0 164.5568 164.5568 164.7616 164.7616 0 0 0-164.5568-164.5568z m0 298.3936a133.8368 133.8368 0 1 1 133.8368-133.8368A133.9392 133.9392 0 0 1 638.464 389.12z"  horiz-adv-x="1024" />

    
    <glyph glyph-name="keranqititanceqi" unicode="&#58918;" d="M592.17 455.44H433.4c-17.85 0-32.46-14.61-32.46-32.46v-64.93c0-17.85 14.61-32.46 32.46-32.46h158.67c17.86 0 32.46 14.61 32.56 32.46v64.93c0 17.85-14.61 32.46-32.46 32.46zM898.92 687.75h-13.8a9.31 9.31 0 0 1-8.79-6.21v0.34c0 17.85-14.61 32.46-32.46 32.46H584.63l-5.95 85.42c0 17.86-14.61 32.47-32.46 32.47h-64.93c-17.86 0-32.46-14.61-32.46-32.47l-5.94-85.42H181.41c-17.85 0-32.46-14.61-32.46-32.46v-1.25a9.296 9.296 0 0 1-9.07 7.12h-13.8c-5.17 0-9.33-4.16-9.33-9.33v-76.49c0-5.17 4.16-9.33 9.33-9.33h13.8c4.42 0 8.08 3.03 9.07 7.13v-1.34c0-17.86 14.61-32.47 32.46-32.47h101.26c-37.17-48.65-59.26-109.43-59.26-175.4 0-37.3 7.06-72.94 19.92-105.67l-72.88-83.73c-12.58-12.58-12.58-33.28 0-45.96l45.96-45.95c12.58-12.58 33.27-12.58 45.95 0l66.56 57.93c31.6-26.02 68.82-45.45 109.56-56.22v-160.79c0.41-7.61 33.48-13.69 74.16-13.69s73.75 6.08 74.16 13.69V110.92c40.7 10.78 77.89 30.19 109.48 56.19l67.24-58.52c12.58-12.58 33.28-12.58 45.96 0l45.95 45.96c12.58 12.58 12.58 33.27 0 45.95l-73.52 84.31c12.87 32.75 19.95 68.4 19.95 105.71 0 65.94-22.11 126.74-59.29 175.4h101.3c17.85 0 32.45 14.61 32.46 32.47v0.42a9.297 9.297 0 0 1 8.79-6.21h13.8c5.17 0 9.33 4.16 9.33 9.33v76.49c0 5.18-4.16 9.33-9.33 9.33zM271.39 164.3c-12.68-12.68-33.28-12.68-45.96 0s-12.68 33.27 0 45.95c12.69 12.68 33.28 12.68 45.96 0s12.68-33.27 0-45.95z m242.36 622.47c17.95 0 32.46-14.51 32.46-32.46 0.01-17.96-14.5-32.46-32.46-32.46s-32.47 14.5-32.47 32.46 14.51 32.46 32.47 32.46z m-1.11-571.65c-96.89 0-175.4 78.52-175.4 175.4s78.52 175.4 175.4 175.4 175.4-78.52 175.4-175.4c0-96.88-78.52-175.4-175.4-175.4z m241.65-5.58c12.68 12.68 33.27 12.68 45.95 0s12.68-33.28 0-45.96-33.27-12.68-45.95 0-12.68 33.28 0 45.96z"  horiz-adv-x="1024" />

    
    <glyph glyph-name="liuhuaqing-" unicode="&#59125;" d="M1105.540068 607.88484c118.3395-0.986163 135.208069 7.162654 200.139085-62.958691 114.187237 43.70257 60.726849 232.838157-66.540018 202.42283 12.093466 85.848041-143.720209 249.395306-279.291601 62.283947 3.840843-1.712809 153.945157-64.879112 145.744437-202.163313z m32.439556-79.567743l9.654012-4.048457a353.876628 353.876628 0 0 0 226.038826-348.790106 316.610066 316.610066 0 0 0-227.647828-301.713822l-6.955041-1.764712-955.747174 0.778549-8.927366 3.062294c-90.467434 30.726747-162.976329 139.619849-173.097471 255.987025-11.937757 136.817071 59.844493 260.450707 212.128745 332.181053l10.380658 4.775103 24.186933 1.245678c65.917178 225.883116 226.713569 356.575599 414.395864 356.26418a381.437275 381.437275 0 0 0 370.7971-294.343555l105.052258-3.581327z m-190.069847-104.896549l-6.95504 50.190481a283.599574 283.599574 0 0 1-280.277764 256.194638c-150.51954 0-280.900603-113.668204-329.222566-325.848852l-10.121141-44.481119-90.934564-4.7232c-107.024583-53.979421-151.661412-134.325713-143.772112-225.00076a208.703127 208.703127 0 0 1 92.854985-162.613006l966.387349-0.77855a215.606265 215.606265 0 0 1 141.85169 204.498961 251.263825 251.263825 0 0 1-153.68564 246.177303l-186.125197 6.332201zM630.573065 41.827563h-73.910284v133.183842h-135.467586v-133.183842H347.544427v326.990725h73.650768v-130.48487h135.467586v130.48487h73.910284zM851.525369 54.38816v72.976025a140.138882 140.138882 0 0 1 43.131633-24.965483 138.581783 138.581783 0 0 1 46.972477-8.304526 104.221805 104.221805 0 0 1 24.29074 2.491358 57.093619 57.093619 0 0 1 17.335699 6.955041 30.363424 30.363424 0 0 1 10.380658 10.380658 25.951645 25.951645 0 0 1 3.425617 13.131532 28.339196 28.339196 0 0 1-5.449846 17.128086 58.910234 58.910234 0 0 1-14.948147 13.910081 156.125095 156.125095 0 0 1-22.474124 12.30108q-12.975822 5.916975-28.07968 12.093466a143.201176 143.201176 0 0 0-57.093619 38.979371 85.173298 85.173298 0 0 0-19.10041 55.744133 88.650819 88.650819 0 0 0 10.380658 43.910183 87.197526 87.197526 0 0 0 27.923969 30.207714 125.294541 125.294541 0 0 0 41.055503 17.491409 210.364033 210.364033 0 0 0 49.256221 5.605555 296.31588 296.31588 0 0 0 45.259669-3.062294 178.080187 178.080187 0 0 0 36.332303-9.446399v-68.200922a109.983071 109.983071 0 0 1-17.906635 10.017335 141.85169 141.85169 0 0 1-19.982767 7.162654 152.232348 152.232348 0 0 1-20.397993 4.204166 144.498758 144.498758 0 0 1-19.25612 1.349486 100.536672 100.536672 0 0 1-22.785544-2.387552 58.495007 58.495007 0 0 1-17.335699-6.747427 33.477622 33.477622 0 0 1-10.951594-10.380658 24.602159 24.602159 0 0 1-3.892747-13.546759 25.951645 25.951645 0 0 1 4.307973-14.688631 49.723351 49.723351 0 0 1 12.30108-12.301079 130.692483 130.692483 0 0 1 19.41183-11.418724q11.418724-5.605555 25.951645-11.52253a287.180901 287.180901 0 0 0 35.242334-17.439506 125.294541 125.294541 0 0 0 26.782097-20.761316 81.280551 81.280551 0 0 0 17.128086-26.574484 93.893051 93.893051 0 0 0 5.916975-34.775204 93.425921 93.425921 0 0 0-10.380658-45.934411 84.239039 84.239039 0 0 0-28.183487-30.103908 122.12844 122.12844 0 0 0-41.522631-16.557149 239.274165 239.274165 0 0 0-49.827158-5.190329 277.111663 277.111663 0 0 0-51.176644 4.567489 154.567996 154.567996 0 0 0-42.041664 13.702469zM734.275838 75.928025h83.045263v-34.100462h-130.32916v14.584825a68.097116 68.097116 0 0 0 5.657458 27.975873 89.636981 89.636981 0 0 0 15.570987 23.615997 190.744589 190.744589 0 0 0 30.622941 25.692128 120.415632 120.415632 0 0 1 26.626388 25.173095 40.121243 40.121243 0 0 1 7.57788 23.096964q0 26.470678-28.910132 26.470678a72.664605 72.664605 0 0 1-48.42577-20.294186v36.332302a104.273709 104.273709 0 0 0 57.768362 16.609053 68.045213 68.045213 0 0 0 46.71296-15.000051 51.90329 51.90329 0 0 0 17.128086-41.522631 68.356632 68.356632 0 0 0-5.190329-26.522581 77.854934 77.854934 0 0 0-14.325308-22.214608 187.422779 187.422779 0 0 0-30.052005-24.965482 175.121699 175.121699 0 0 1-26.834-21.487962 22.058898 22.058898 0 0 1-6.643621-13.442952z"  horiz-adv-x="1374" />

    
    <glyph glyph-name="qianshuibeng" unicode="&#59043;" d="M531.84 356.48c37.12 0 67.2 30.08 67.2 67.2s-30.08 67.2-67.2 67.2-67.84-29.44-67.84-66.56 30.72-67.84 67.84-67.84zM154.88 657.92c7.04-7.68 12.16-16 16.64-24.32L217.6 479.36l-149.76 61.44c-8.32 5.12-16 11.52-22.4 19.2-32 35.84-33.28 87.68-3.2 115.2 30.08 26.24 80.64 18.56 112.64-17.28zM517.76-19.2c3.2 9.6 7.68 18.56 12.8 26.24l110.72 117.76 21.76-160.64c0-9.6-1.92-19.2-5.12-28.8-14.72-46.08-59.52-72.32-97.92-60.16-38.4 12.16-57.6 59.52-42.24 105.6z m404.48 652.8c-10.24-1.92-19.84-2.56-29.44-1.92L736 668.8 864 768c8.32 4.48 17.92 7.68 27.52 10.24 47.36 10.24 92.8-15.36 101.12-55.04 8.96-39.68-23.04-80-70.4-89.6z m-206.72-644.48l-12.8 93.44c124.8 62.72 210.56 192 210.56 341.76 0 54.4-11.52 106.24-32 152.96l7.04-1.28c14.72-1.28 30.08 0 45.44 3.2 13.44 3.2 26.88 7.68 38.4 13.44 19.84-52.48 30.72-108.8 30.72-168.32 0.64-195.84-118.4-363.52-287.36-435.2zM396.16 574.08c15.36 13.44 32.64 24.96 51.2 33.92 1.28 5.12 3.2 10.88 5.76 15.36 1.28 2.56 3.2 5.12 5.12 7.04l64.64 79.36c17.28 21.12 47.36 26.88 71.04 13.44l2.56-1.28c24.32-14.08 32.64-44.8 18.56-69.12l-20.48-35.84c19.2-6.4 37.76-15.36 54.4-27.52 5.12 1.92 10.88 2.56 16.64 2.56 3.2 0 5.76 0 8.96-0.64l101.12-16c26.88-4.48 46.72-27.52 46.72-55.04v-3.2c0-28.16-22.4-50.56-50.56-50.56h-41.6c3.2-14.08 4.48-28.16 4.48-42.24 0-6.4 0-12.16-0.64-18.56 3.84-3.84 7.68-8.32 10.24-12.8l3.84-7.68 36.48-95.36c9.6-25.6-0.64-54.4-24.32-67.84l-2.56-1.28c-24.32-14.08-55.04-5.76-69.12 18.56l-21.12 35.84c-15.36-13.44-32.64-24.96-51.2-33.92-1.28-5.12-3.2-10.88-5.76-15.36-1.28-2.56-3.2-5.12-5.12-7.04l-64.64-80.64c-17.28-21.12-47.36-26.88-71.04-13.44l-2.56 1.28c-24.32 14.08-32.64 44.8-18.56 69.12l20.48 35.84c-19.2 6.4-37.76 15.36-54.4 27.52-5.12-1.92-10.88-2.56-16.64-2.56-3.2 0-5.76 0-8.96 0.64L288 272.64c-26.88 4.48-46.72 27.52-46.72 55.04v3.2c0 28.16 22.4 50.56 50.56 50.56h41.6c-3.2 14.08-4.48 28.16-4.48 42.24 0 6.4 0 12.16 0.64 18.56-3.84 3.84-7.68 8.32-10.24 12.8l-3.84 7.68-36.48 95.36c-9.6 25.6 0.64 54.4 24.32 67.84l2.56 1.28c24.32 14.08 55.04 5.76 69.12-18.56l21.12-34.56zM165.12 721.92C252.16 828.16 384 896 531.84 896c106.88 0 205.44-35.84 284.8-95.36l-74.24-57.6c-60.16 39.68-132.48 62.72-209.92 62.72-126.08 0-238.08-61.44-307.84-155.52l-2.56 6.4c-6.4 13.44-14.72 26.24-24.96 37.76-10.24 10.88-20.48 19.84-32 27.52zM63.36 482.56l87.04-35.84c-0.64-7.68-0.64-14.72-0.64-22.4 0-196.48 148.48-358.4 339.84-379.52l-4.48-5.76c-8.32-12.16-15.36-26.24-19.84-40.96-4.48-13.44-7.04-26.88-7.68-40.32C231.68-6.4 59.52 188.8 59.52 424.32c0 19.2 1.28 39.04 3.84 58.24z"  horiz-adv-x="1024" />

    
    <glyph glyph-name="hongwai" unicode="&#59222;" d="M500.616546 847.730701H87.040426c-28.25247 0-38.771127-12.681258-38.771127-38.33812v-843.471484c0-21.175973 17.360406-38.340553 38.771127-38.340553h413.57612c21.415586 0 38.771127 17.16458 38.771127 38.340553V809.392581c0 21.175973-17.355541 38.33812-38.771127 38.33812zM461.845419 4.259217H125.812769V566.573134H461.845419v-562.313917z m0 638.996239H125.812769v127.797788H461.845419v-127.797788zM293.825445 132.794089c21.129753 0 38.368528 16.720626 38.775992 37.610767v102.233365c0 10.170792-4.084372 19.925605-11.355479 27.116436-7.271107 7.188398-17.136605 11.227766-27.420513 11.225333-10.279044 0.002433-20.143325-4.036936-27.415648-11.225333-7.271107-7.19083-11.355479-16.945644-11.355479-27.116436v-102.233365c0.40868-20.89014 17.647455-37.610766 38.771127-37.610767zM702.491318 510.340648c-7.173802 7.183532-16.948076 11.25939-27.160222 11.320206-10.212146 0.064464-20.037506-3.88733-27.302532-10.986937l-0.330836-0.333269a38.284603 38.284603 0 0 1 0-54.187868c45.39394-44.740781 45.50584-117.406844 0.26029-162.298447l-0.26029-0.261507a38.285819 38.285819 0 0 1 0-54.189084c7.229752-7.23705 17.10498-11.292231 27.393754-11.254525 10.314317-0.133794 20.226034 3.93355 27.399836 11.254525 75.658188 74.514856 75.907532 195.565767 0.555854 270.378619l-0.555854 0.558287zM838.19756 691.050394c-9.691565 10.147682-24.19364 14.288004-37.862542 10.80449-13.668902-3.483514-24.340814-14.037444-27.863251-27.553092-3.523653-13.516863 0.662889-27.855953 10.926121-37.439266 145.976771-144.835872 145.976771-379.138709 0-523.972148-7.327057-7.156773-11.452784-16.91402-11.452784-27.093326 0-10.184171 4.125727-19.94385 11.452784-27.098191 7.184749-7.310029 17.096466-11.371291 27.399836-11.242362 10.288774-0.05595 20.168868 4.001663 27.39862 11.242362 176.221559 174.7705 176.221559 457.584682 0.001216 632.351533z"  horiz-adv-x="1024" />

    
    <glyph glyph-name="fanghuofa" unicode="&#58909;" d="M512-128c282.784 0 512 229.216 512 512S794.784 896 512 896 0 666.784 0 384s229.216-512 512-512zM279.104 558.336a16 16 0 0 0 11.328-4.672L512 332.096l-221.568-221.568a16 16 0 0 0-27.328 11.296V542.336a16 16 0 0 0 16 16z m465.792 0a16 16 0 0 0 15.744-13.12l0.256-2.88v-420.48a16 16 0 0 0-25.12-13.184l-2.208 1.856L512 332.096l221.568 221.568a16 16 0 0 0 11.328 4.672z m-517.344-12.928v-426.656H192V545.408h35.552z m604.448 0v-426.656h-35.552V545.408H832zM512 723.2a142.208 142.208 0 1 0 0-284.448A142.208 142.208 0 0 0 512 723.2z m-31.872-62.208h-28.48v-144h16.48V644.48c-0.512 4-0.512 4-0.64 7.008l-0.128 2.752h0.768c0.736-3.776 0.736-3.776 2.24-9.76 0.512-3.52 0.512-3.52 0.992-6.016l0.512-2.24 30.752-119.232h18.752l29.984 117.76c3.008 9.728 3.008 9.728 4.512 19.488 0.576-3.392 0.576-3.392 0.288-8.864l-0.288-3.904v-124.48h16.512v144h-28.48l-28.544-112.512-0.928-4.704-1.28-6.56c-0.768-5.984-0.768-5.984-1.536-9.728-0.576 10.784-0.576 10.784-2.144 17.76l-0.832 3.2-28.512 112.544z"  horiz-adv-x="1024" />

    
    <glyph glyph-name="app" unicode="&#58976;" d="M500.16 494.288v-98.208h28.688q58.368 0 58.336 49.696 0 48.528-57.728 48.512z m385.904 127.408V822.832C886.064 863.248 852.624 896 811.376 896H213.968c-41.168 0-74.672-32.752-74.672-73.168v-201.136H0V164.56h139.296v-219.424c0-40.384 33.44-73.136 74.672-73.136h597.408c41.248 0 74.688 32.752 74.688 73.136V164.56H1024V621.696zM811.376 804.544v-182.848H213.984V804.544h597.392zM656.8 448.32q0-46.72-35.008-74.912t-87.536-27.024H500.16v-106.08h-66.176V544.576H540.88q115.888 0 115.92-96.256zM177.696 310.048l-22.864-69.744H83.04L196.8 544.576h77.76l111.504-304.272h-72.192l-23.264 69.744z m334.992-401.472a36.576 36.576 0 1 0 37.328 36.56 36.976 36.976 0 0 0-37.328-36.56z m298.688 109.712H213.968V164.56h597.408v-146.272z m71.728 355.2q-34.976-28.224-87.536-27.024h-34.08v-106.08h-66.176V544.576h106.864q115.936 0 115.92-96.256 0-46.72-34.992-74.912z m-92.336 120.88h-29.28v-98.208h28.656q58.336 0 58.368 49.696 0 48.528-57.744 48.512z m-555.904-2.16h-1.824a111.312 111.312 0 0 0-5.392-25.728l-35.52-106.272h82.832L239.68 465.6a113.824 113.824 0 0 0-4.8 26.528z"  horiz-adv-x="1024" />

    
    <glyph glyph-name="luxian-01" unicode="&#59002;" d="M935.25 660.68H763.33V774.2c0 13.81-11.19 25-25 25s-25-11.19-25-25v-113.52h-206c-0.51 0-1.02-0.02-1.52-0.05-7.39 0.44-14.9-2.39-20.19-8.36L382.64 537.25l-245.39-0.15c-25.81 0-37-11.19-37-25s11.19-25 25-25h106.83v-294.88H90.12c-13.81 0-25-11.19-25-25s11.19-25 25-25h141.95v-148.78c0-13.81 11.19-25 25-25s25 11.19 25 25V142.22h318.85c11.68-59.56 64.28-104.64 127.21-104.64 71.48 0 129.64 58.16 129.64 129.64 0 59.29-40.01 109.41-94.45 124.78V610.68h171.93c13.81 0 25 11.19 25 25s-11.19 25-25 25zM807.78 167.22c0-43.91-35.73-79.64-79.64-79.64s-79.64 35.73-79.64 79.64 35.73 79.64 79.64 79.64 79.64-35.73 79.64-79.64z m-94.45 128.79c-56.23-6.43-101.65-48.97-112.4-103.79H282.08V487.1h112.61c0.19 0 0.39 0.01 0.58 0.01 2.45 0.06 4.81 0.46 7.04 1.17 0.06 0.02 0.13 0.04 0.19 0.06 0.33 0.11 0.66 0.22 0.99 0.34 0.12 0.05 0.24 0.1 0.36 0.14 0.26 0.1 0.52 0.21 0.78 0.32 0.17 0.07 0.33 0.15 0.49 0.22 0.21 0.1 0.42 0.19 0.62 0.29 0.19 0.1 0.39 0.2 0.58 0.3l0.51 0.27 0.63 0.36c0.14 0.09 0.28 0.17 0.43 0.26l0.66 0.42c0.13 0.08 0.25 0.17 0.38 0.26 0.22 0.15 0.44 0.31 0.66 0.47l0.36 0.27c0.21 0.16 0.42 0.33 0.63 0.5 0.13 0.11 0.26 0.23 0.39 0.34 0.2 0.17 0.4 0.34 0.59 0.52 0.29 0.27 0.58 0.54 0.86 0.82 0.09 0.09 0.18 0.19 0.27 0.28 0.22 0.22 0.43 0.45 0.64 0.68l0.09 0.09 102.16 115.16h197.76v-314.64z"  horiz-adv-x="1024" />

    
    <glyph glyph-name="qingchu-011" unicode="&#58998;" d="M905.13 776.25c-9.76 9.76-25.59 9.76-35.36 0L675.8 582.28l-76.54 76.54c-9.24 9.24-21.36 13.87-33.48 13.87-12.12 0-24.23-4.62-33.48-13.87l-37.81-37.81-68.67 68.67c-7.87 7.87-19.1 12.07-30.04 12.07-7.32 0-14.52-1.88-20.5-5.8 0 0-44.49-69.13-114.85-112.7s-147.95-59.46-147.95-59.46c-22.28-14.6-27.35-40.22-10.72-56.84l483.57-483.57c6.65-6.64 14.73-9.82 22.97-9.82 12.38 0 25.11 7.17 33.88 20.55 0 0 57.38 47.17 112.06 128.5 54.69 81.33 60.09 134.3 60.09 134.3 9.77 14.91 6.87 37.4-6.27 50.54l-58.18 58.18 37.81 37.81c18.49 18.49 18.49 48.47 0 66.96l-76.54 76.54L905.13 740.9c9.76 9.76 9.76 25.59 0 35.35zM767.37 277.43l-1.85-2.48-0.9-12.6c-0.72-4.46-8.55-47.42-51.87-111.85-48.85-72.64-100.54-116.28-102.36-117.8l-2.02-1.65-75.07 75.07c34.35 29.06 91.99 86.42 124.01 165.92 5.16 12.81-1.04 27.37-13.85 32.53-12.81 5.16-27.37-1.04-32.53-13.85-28.95-71.88-83.65-124.43-113.19-149.03l-93.95 93.95c36.27 25.96 95.3 75.72 136.35 148.11 6.81 12.01 2.6 27.27-9.41 34.08-12.01 6.81-27.27 2.6-34.08-9.41-38.99-68.74-97.9-115.47-128.82-136.81l-88.31 88.31c39.89 18.53 97.77 57.75 145.72 139.22 7 11.9 3.04 27.22-8.86 34.23-11.9 7-27.22 3.04-34.23-8.86-35.43-60.18-76.44-92.59-104.61-109.18-14.38-8.47-26.99-13.81-36.33-17.09l-85.26 85.26c32.16 9.51 82.77 27.52 130.81 57.27 52.54 32.54 92 77.01 113.17 104.12l59.21-59.21-1.72-1.72 255.39-255.39 1.72 1.72 52.84-52.86z m-52.84 123.55L529.85 585.65l35.94 35.94 184.68-184.68-35.94-35.93z"  horiz-adv-x="1024" />

    
    <glyph glyph-name="lidigaodu-01" unicode="&#58999;" d="M873.89 16.49H551.52v61.85h130.86c14.02 0 25.82 11.47 25.56 25.48-0.26 13.58-11.35 24.52-25 24.52H551.52v61.85h202.37c14.02 0 25.82 11.47 25.56 25.48-0.26 13.58-11.35 24.52-25 24.52H551.52v61.85h130.86c14.02 0 25.82 11.47 25.56 25.48-0.26 13.58-11.35 24.52-25 24.52H551.52v61.85h202.37c14.02 0 25.82 11.47 25.56 25.48-0.26 13.58-11.35 24.52-25 24.52H551.52v61.85h130.86c14.02 0 25.82 11.47 25.56 25.48-0.26 13.58-11.35 24.52-25 24.52H551.52v61.85h202.37c14.02 0 25.82 11.47 25.56 25.48-0.26 13.58-11.35 24.52-25 24.52H551.52v61.85h130.86c14.02 0 25.82 11.47 25.56 25.48-0.26 13.58-11.35 24.52-25 24.52H526.52c-13.81 0-25-11.19-25-25v-757.95H152.66c-14.02 0-25.82-11.47-25.56-25.48 0.26-13.58 11.35-24.52 25-24.52h722.36c13.65 0 24.74 10.93 25 24.52 0.26 14.01-11.55 25.48-25.57 25.48zM291.24 114.51c-5.58 0-8.72-6.43-5.28-10.83l29.53-37.8 25.93-33.19c6.13-7.85 18-7.85 24.13 0l25.93 33.19 29.53 37.8c3.44 4.4 0.3 10.83-5.28 10.83h-37.24V704.27h34.58c6.67 0 10.41 7.67 6.31 12.93l-27.89 35.7-26.56 33.99c-5.81 7.44-17.06 7.44-22.87 0L315.5 752.9l-27.89-35.7c-4.1-5.25-0.36-12.93 6.31-12.93h34.58v-589.76h-37.26z"  horiz-adv-x="1024" />

    
    <glyph glyph-name="touyingmianji-01" unicode="&#59000;" d="M841.44 606.44c-2.19 3.79-5.4 7.12-9.66 9.56L525.6 791.62a26.145 26.145 0 0 1-26.04 0L193.38 616c-13.29-7.63-16.51-23.99-9.66-35.84 2.19-3.79 5.4-7.12 9.66-9.56l306.18-175.63a26.145 26.145 0 0 1 26.04 0l306.18 175.62c13.29 7.62 16.5 23.99 9.66 35.85zM512.57 445.15L254.28 593.3l258.29 148.15L770.86 593.3 512.57 445.15zM658.71 51.15l173.08 99.27c17.53 10.06 17.53 35.35 0 45.41L652.71 298.54c-1 0.67-2.05 1.27-3.14 1.8L525.6 371.45a26.186 26.186 0 0 1-13.02 3.47c-4.49 0-8.99-1.16-13.02-3.47L193.37 195.83c-17.53-10.06-17.53-35.35 0-45.41l179.08-102.71c2.66-2.42 5.84-4.27 9.36-5.37l117.75-67.54c4.03-2.31 8.53-3.47 13.02-3.47s8.99 1.16 13.02 3.47l116.09 66.59c6.94 0.81 13.01 4.46 17.02 9.76z m5.05 183.42l33.17-19.02v-84.83l-33.17-19.02V234.57z m-50-151.56l-33.17-19.02V282.27l33.17-19.02v-180.24z m133.16 76.38v27.47l23.95-13.74-23.95-13.73z m-332.66 105.5l33.17 19.02v-221.56l-33.17 19.02V264.89z m-50-154.84l-33.17 19.02v88.11l33.17 19.03v-126.16z m-83.17 78.46v-30.76l-26.81 15.38 26.81 15.38z m231.49-163.53l-15.15 8.69V312.59l15.15 8.69 18.01-10.33v-275.64l-18.01-10.33z"  horiz-adv-x="1024" />

    
    <glyph glyph-name="yidimianji-01" unicode="&#59001;" d="M916.61 242.55l-128.05 75.53-124.11 454.37c-2.93 10.71-12.57 18.21-23.67 18.41h-0.45a25 25 0 0 1-23.86-17.55L471.18 307.65 342.26 530.82a25 25 0 0 1-23.54 12.42c-9.58-0.73-17.9-6.89-21.39-15.84l-87.99-225.44-100.21-54.78a25.008 25.008 0 0 1-13.01-21.63 24.98 24.98 0 0 1 12.47-21.94l390.17-225.98c3.87-2.24 8.2-3.37 12.53-3.37 4.24 0 8.48 1.08 12.29 3.23l120.54 68.08c0.83 0.41 1.65 0.87 2.44 1.38l269.65 152.3c7.78 4.39 12.62 12.6 12.7 21.53s-4.6 17.24-12.3 21.77z m-675.3 19.91c5.16 2.82 9.16 7.37 11.3 12.85L325 460.77l55.71-96.44-68.45-133.18-67.28-48.74-72.89 42.22 69.22 37.83z m51.03-107.49l54.09 39.18c3.18 2.3 5.77 5.33 7.57 8.82l56.46 109.85 40.48-70.07-25.02-80.19-58.71-50.95-74.87 43.36z m219.1-126.9l-98.48 57.04 51.09 44.34c3.51 3.04 6.1 7 7.48 11.43l13.41 42.99 28.41-49.18c1.54-2.66 3.55-5.01 5.94-6.94l69.4-56.05-77.25-43.63z m124.08 70.08l-81.2 65.58-49.13 85.05 51.77 165.93 68.36-197.4a25.06 25.06 0 0 1 9.68-12.57l86.44-58.06-85.92-48.53z m134.63 76.04l-100.32 67.39-87.79 253.52 56.7 181.73 104.27-381.69a25.007 25.007 0 0 1 11.41-14.95l99.49-58.68-83.76-47.32z"  horiz-adv-x="1024" />

    
    <glyph glyph-name="yidijuli-01" unicode="&#59003;" d="M914.39 192.45000000000005l-383.9-221.64a32.583 32.583 0 0 0-16.32-4.37c-5.67 0-11.34 1.47-16.41 4.42L116.68 192.32000000000005c-21.7 12.61-21.66 43.96 0.08 56.51l210.97 121.81v-35.18h-5.26c-14.92 0-28.25-8.34-34.79-21.75-3.99-8.19-4.93-17.2-2.96-25.65L167.69 220.5l346.5-201.36 349.27 201.64-123.18 71.58a56.666 56.666 0 0 1 10.9 33.49c0 7.09-1.3 13.88-3.68 20.15l166.97-97.03c21.7-12.61 21.65-43.97-0.08-56.52zM322.47 303.46000000000004c-5.58 0-8.72-6.43-5.28-10.83l29.53-37.8 25.93-33.19c6.13-7.85 18-7.85 24.13 0l25.93 33.19 29.53 37.8c3.44 4.4 0.3 10.83-5.28 10.83h-37.24V707.91h34.58c6.67 0 10.41 7.67 6.31 12.93l-27.89 35.7-26.56 33.99c-5.81 7.44-17.06 7.44-22.87 0l-26.56-33.99-27.89-35.7c-4.1-5.25-0.36-12.93 6.31-12.93h34.58v-404.46h-37.26zM549.21 211.75h89.85c13.81 0 25 11.19 25 25s-11.19 25-25 25h-64.85v39.1h119.97c13.81 0 25 11.19 25 25s-11.19 25-25 25H574.21v39.1h64.85c13.81 0 25 11.19 25 25s-11.19 25-25 25h-64.85v39.1h119.97c13.81 0 25 11.19 25 25s-11.19 25-25 25H574.21v39.1h64.85c13.81 0 25 11.19 25 25s-11.19 25-25 25h-64.85v39.1h119.97c13.81 0 25 11.19 25 25s-11.19 25-25 25H574.21v39.1h64.85c13.81 0 25 11.19 25 25s-11.19 25-25 25h-89.85c-13.81 0-25-11.19-25-25 0-0.16 0.01-0.33 0.01-0.49 0-0.16-0.01-0.33-0.01-0.49v-533.05c0-0.1 0.01-0.2 0.01-0.3s-0.01-0.2-0.01-0.3c0-13.78 11.2-24.97 25-24.97z"  horiz-adv-x="1024" />

    
    <glyph glyph-name="kongjianjuli-01" unicode="&#59004;" d="M902.27 587.03c-4.71 0-9.54-1.21-14.1-3.85l-328.15-190.7a28.141 28.141 0 0 1-14-24.25l-1.08-379.54c-0.05-16.47 13.46-28.26 28.19-28.26 4.71 0 9.54 1.21 14.1 3.85l328.15 190.7a28.141 28.141 0 0 1 14 24.25l1.08 379.54c0.05 16.46-13.46 28.26-28.19 28.26z m-22.85-395.12L595.06 26.65l0.93 328.89L880.35 520.8l-0.93-328.89zM474.95 392.51L144.1 583.53c-4.53 2.62-9.34 3.81-14.03 3.81-14.67 0-28.14-11.71-28.18-28.1l-1.08-379.86a28.141 28.141 0 0 1 14.07-24.45l330.85-191.02c4.53-2.62 9.34-3.81 14.03-3.81 14.67 0 28.14 11.71 28.18 28.1l1.08 379.86a28.12 28.12 0 0 1-14.07 24.45z m-36.9-366.43L150.85 191.9l0.93 329.46 287.21-165.82-0.94-329.46zM600.93 694.64v-64.85c0-13.81 11.19-25 25-25s25 11.19 25 25v64.85h64.13v-119.97c0-13.81 11.19-25 25-25s25 11.19 25 25V694.64h64.13v-64.85c0-13.81 11.19-25 25-25s25 11.19 25 25v89.85c0 13.81-11.19 25-25 25-0.21 0-0.42-0.01-0.63-0.02-0.21 0.01-0.42 0.02-0.63 0.02H170.19c-0.13 0-0.25-0.01-0.38-0.01s-0.25 0.01-0.38 0.01c-13.81 0-25-11.19-25-25v-89.85c0-13.81 11.19-25 25-25s25 11.19 25 25v64.85h64.13v-119.97c0-13.81 11.19-25 25-25s25 11.19 25 25V694.64h64.13v-64.85c0-13.81 11.19-25 25-25s25 11.19 25 25v64.85h64.13v-119.97c0-13.81 11.19-25 25-25s25 11.19 25 25V694.64h64.11z"  horiz-adv-x="1024" />

    
    <glyph glyph-name="kongjianmianji-01" unicode="&#59005;" d="M869.94 545.36c-4.38 0-8.87-1.12-13.11-3.58L551.65 364.43c-8.04-4.67-13-13.26-13.02-22.55l-1-352.97c-0.04-15.32 12.52-26.29 26.21-26.29 4.38 0 8.87 1.12 13.11 3.58l305.19 177.35c8.04 4.67 13 13.26 13.02 22.55l1 352.97c0.04 15.32-12.53 26.29-26.22 26.29z m-24.75-365.45L587.74 30.3l0.84 297.76 257.45 149.61-0.84-297.76zM472.53 364.46l-307.7 177.65c-4.22 2.43-8.69 3.55-13.05 3.55-13.64 0-26.17-10.89-26.21-26.14l-1-353.27a26.168 26.168 0 0 1 13.09-22.74l307.7-177.65c4.22-2.43 8.69-3.55 13.05-3.55 13.64 0 26.17 10.89 26.21 26.14l1 353.27c0.02 9.38-4.97 18.06-13.09 22.74z m-37.8-334.73L174.61 179.91l0.85 298.33 260.12-150.18-0.85-298.33zM658.01 478.94l173.08 99.27c17.53 10.06 17.53 35.35 0 45.41L652.01 726.33c-1 0.67-2.05 1.27-3.14 1.8L524.9 799.24c-4.03 2.31-8.53 3.47-13.02 3.47s-8.99-1.16-13.02-3.47L192.67 623.62c-17.53-10.06-17.53-35.35 0-45.41L371.75 475.5c2.66-2.42 5.84-4.27 9.36-5.37l117.75-67.54c4.03-2.31 8.53-3.47 13.02-3.47s8.99 1.16 13.02 3.47l116.09 66.59c6.94 0.81 13.01 4.46 17.02 9.76z m5.05 183.42l33.17-19.02v-84.83l-33.17-19.02V662.36z m-50-151.56l-33.17-19.02V710.06l33.17-19.02V510.8z m133.16 76.38v27.47l23.95-13.74-23.95-13.73z m-332.66 105.5l33.17 19.02v-221.56l-33.17 19.02V692.68z m-50-154.84l-33.17 19.02v88.11L363.56 664v-126.16z m-83.17 78.46v-30.76l-26.81 15.38 26.81 15.38z m231.49-163.53l-15.15 8.69V740.38l15.15 8.69 18.01-10.33V463.1l-18.01-10.33z"  horiz-adv-x="1024" />

    
    <glyph glyph-name="ditubeijing-01" unicode="&#58997;" d="M160.4 523.11l520.44-259.14-94.21-190.7L160.4 279.91999999999996zM311.96 506.98l98.33 195.65h138.84c4.12-86.76 39.82-167.71 101.59-229.47 57.55-57.56 131.76-92.48 211.81-100.31v-140L311.96 506.98zM862.52 426.32c-141.06 16.54-252.04 132.89-260.19 276.31H795.2c37.18 0 67.32-30.14 67.32-67.32v-208.99zM350.84 702.63l-86.43-171.98-104.01 51.79v52.87c0 37.18 30.14 67.32 67.32 67.32h123.12zM160.4 220.89999999999998l326.28-158.2H227.72c-37.18 0-67.32 30.14-67.32 67.32V220.89999999999998zM640.65 62.700000000000045l87.74 177.6 134.12-66.78v-43.5c0-37.18-30.14-67.32-67.32-67.32H640.65z"  horiz-adv-x="1024" />

    
    <glyph glyph-name="jia" unicode="&#58995;" d="M879 749.25v-732H147v732h732m0 50H147c-27.61 0-50-22.39-50-50v-732c0-27.61 22.39-50 50-50h732c27.61 0 50 22.39 50 50v732c0 27.61-22.38 50-50 50zM766.68 358.03H260.47c-13.81 0-25 11.19-25 25s11.19 25 25 25h506.21c13.81 0 25-11.19 25-25s-11.19-25-25-25zM538.82 636.14v-506.21c0-13.81-11.19-25-25-25s-25 11.19-25 25V636.14c0 13.81 11.19 25 25 25 13.8 0 25-11.19 25-25z"  horiz-adv-x="1024" />

    
    <glyph glyph-name="jian" unicode="&#58996;" d="M879 749.25v-732H147v732h732m0 50H147c-27.61 0-50-22.39-50-50v-732c0-27.61 22.39-50 50-50h732c27.61 0 50 22.39 50 50v732c0 27.61-22.38 50-50 50zM766.68 358.03H260.47c-13.81 0-25 11.19-25 25s11.19 25 25 25h506.21c13.81 0 25-11.19 25-25s-11.19-25-25-25z"  horiz-adv-x="1024" />

    
    <glyph glyph-name="tuichuquanping-01" unicode="&#58994;" d="M596.48 485.51c2.9-7.01 8.49-12.6 15.51-15.51 3.5-1.45 7.21-2.2 10.94-2.2H792.4c15.83 0 28.65 12.81 28.65 28.65s-12.81 28.65-28.65 28.65H692.08l194.77 194.76c11.19 11.19 11.19 29.32 0 40.51-5.6 5.6-12.92 8.39-20.25 8.39s-14.66-2.8-20.25-8.39L651.58 565.6V665.92c0 15.83-12.81 28.65-28.65 28.65s-28.65-12.81-28.65-28.65v-169.47c0-3.73 0.75-7.44 2.2-10.94zM623.04 74.06c15.83 0 28.65 12.81 28.65 28.65V203.08l194.66-194.7c11.19-11.19 29.32-11.19 40.51 0s11.19 29.32 0 40.51L692.19 243.6h100.33c15.83 0 28.65 12.81 28.65 28.65 0 15.83-12.81 28.65-28.65 28.65H623.04c-3.73 0-7.44-0.76-10.94-2.2-7.01-2.9-12.6-8.49-15.51-15.51-1.45-3.5-2.2-7.21-2.2-10.94v-169.54c0.01-15.84 12.82-28.65 28.65-28.65zM330.45 525.21H230.13c-15.83 0-28.65-12.81-28.65-28.65s12.81-28.65 28.65-28.65h169.48c3.73 0 7.44 0.76 10.94 2.2 7.01 2.9 12.6 8.49 15.51 15.51 1.45 3.5 2.2 7.21 2.2 10.94V666.04c0 15.83-12.81 28.65-28.65 28.65-15.84 0-28.65-12.81-28.65-28.65v-100.32L176.3 760.37c-5.6 5.6-12.92 8.39-20.25 8.39s-14.66-2.8-20.25-8.39c-11.19-11.19-11.19-29.32 0-40.51l194.65-194.65zM176.3 8.39l194.55 194.59v-100.37c0-15.83 12.81-28.65 28.65-28.65s28.65 12.81 28.65 28.65V272.14c0 3.73-0.76 7.44-2.2 10.94-2.9 7.01-8.49 12.6-15.51 15.51-3.5 1.45-7.21 2.2-10.94 2.2H230.02c-15.83 0-28.65-12.81-28.65-28.65 0-15.83 12.81-28.65 28.65-28.65h100.33L135.8 48.89c-11.19-11.19-11.19-29.32 0-40.51 11.19-11.18 29.31-11.18 40.5 0.01z"  horiz-adv-x="1024" />

    
    <glyph glyph-name="fushitu-01" unicode="&#58986;" d="M487.25 815.82L162.43 628.36a70.16 70.16 0 0 1-35.1-60.77v-374.87c0-17.87 9.53-34.38 25.01-43.31l334.91-193.27c15.47-8.93 34.54-8.92 50.01 0.01L871.68 149.4a49.998 49.998 0 0 1 24.98 43.29V579.26c0 17.86-9.52 34.36-24.98 43.29L537.26 815.8a50.002 50.002 0 0 1-50.01 0.02z m-30.43-781.6L204.89 179.34a50.008 50.008 0 0 0-25.04 43.33V510.73c0 15.52 16.79 25.22 30.24 17.48l251.93-145.13a50.008 50.008 0 0 0 25.04-43.33v-288.06c0-15.51-16.79-25.22-30.24-17.47zM235.29 609.3l251.97 145.58a50.021 50.021 0 0 0 50.02 0.01l253.01-146.12c13.44-7.76 13.44-27.16 0-34.93L538.33 428.26a50.021 50.021 0 0 0-50.02-0.01L235.3 574.37c-13.45 7.76-13.45 27.16-0.01 34.93z m583.87-429.97l-249.33-144c-13.45-7.77-30.26 1.94-30.26 17.46v287c0 17.86 9.53 34.36 24.99 43.3L813.89 527.1c13.45 7.77 30.26-1.94 30.26-17.46v-287c0-17.87-9.53-34.37-24.99-43.31zM683.88 574.08l-145.74-84.21a49.997 49.997 0 0 0-50.02 0L341.7 574.42c-13.33 7.7-13.33 26.94 0 34.64l145.74 84.21a49.997 49.997 0 0 0 50.02 0l146.42-84.56c13.33-7.69 13.33-26.93 0-34.63z"  horiz-adv-x="1024" />

    
    <glyph glyph-name="quanjushitu-01" unicode="&#58987;" d="M488.33 818.51L155 626.06a50 50 0 0 1-25-43.3v-384.92a50 50 0 0 1 25-43.3L488.33-37.9a50.008 50.008 0 0 1 50 0l333.33 192.43a50 50 0 0 1 25 43.3V582.76a50 50 0 0 1-25 43.3L538.33 818.51a50.008 50.008 0 0 1-50 0z m326.01-574.42l-69.06 39.87a50 50 0 0 0-25 43.3V480.93a50 50 0 0 1-25 43.3l-132.01 76.2a50 50 0 0 0-25 43.3v79.75c0 15.4 16.67 25.02 30 17.32l251.07-145a49.99 49.99 0 0 0 24.99-43.3v-291.1c0.01-15.38-16.66-25.01-29.99-17.31zM460.95 389.07l-72.23-41.7c-13.33-7.7-30 1.92-30 17.32v86c0 17.86 9.53 34.36 24.99 43.29l72.24 41.73c13.33 7.7 30-1.92 30-17.32v-86.02c0-17.87-9.53-34.37-25-43.3z m76.16-45.28l72.44-41.83c13.33-7.7 13.33-26.94 0-34.64l-71.2-41.13a49.997 49.997 0 0 0-50.02 0l-72.44 41.85c-13.33 7.7-13.33 26.94 0.01 34.64l71.22 41.11a49.94 49.94 0 0 0 49.99 0z m1.16 88.57V519.8c0 15.4 16.67 25.02 30 17.32l74.7-43.15a50.008 50.008 0 0 0 24.99-43.29v-87.43c0-15.4-16.67-25.02-30-17.32l-74.69 43.13a50.012 50.012 0 0 0-25 43.3z m-52.32 289.71v-79.75a50 50 0 0 0-25-43.3L331.4 524.24a50 50 0 0 1-25-43.3v-152.22a50 50 0 0 0-25-43.3l-69.06-39.87c-13.33-7.7-30 1.92-30 17.32V552.52a50 50 0 0 0 25 43.3L455.96 739.4c13.32 7.69 29.99-1.93 29.99-17.33zM239.51 200.85l69.04 39.86a50.008 50.008 0 0 0 50 0l129.79-74.93a49.99 49.99 0 0 1 49.99 0l128.55 74.21a50.008 50.008 0 0 0 50 0l69.03-39.86c13.33-7.7 13.33-26.94 0-34.64L538.34 22.51a49.978 49.978 0 0 0-50.01 0L239.5 166.21c-13.33 7.7-13.33 26.94 0.01 34.64z"  horiz-adv-x="1024" />

    
    <glyph glyph-name="pouqie-01" unicode="&#58988;" d="M383.61 667.19h54.25v-51.66h-54.25zM278.21 667.19h53.73v-51.66h-53.73zM172.82 667.19h53.73v-51.66h-53.73zM121.16 663.06v-47.53H70.01c8.78 22.73 27.38 40.29 51.15 47.53zM64.32 563.86h51.66v-51.66H64.32zM64.32 460.53h51.66v-51.66H64.32zM64.32 357.2h51.66v-51.66H64.32zM64.32 253.88h51.66v-51.66H64.32zM121.16 150.55v-45.98c-23.25 6.72-41.33 23.76-50.63 45.98h50.63zM172.82 150.55h53.73v-50.12h-53.73zM278.21 150.55h53.73v-50.12h-53.73zM383.61 150.55h54.25v-50.12h-54.25zM489.52 152.09h52.7v-51.66h-52.7zM489.52 667.19h52.7v-51.66h-52.7zM878.59 667.13H697.04v-51.66h181.55c16.2 0 29.41-13.22 29.41-29.41v-404.69c0-16.2-13.22-29.41-29.41-29.41H697.04v-51.66h181.55c44.7 0 81.08 36.38 81.08 81.08V586.05c0 44.71-36.38 81.08-81.08 81.08zM622.44 4.86c-14.28 0-25.83 11.55-25.83 25.83V736.74c0 14.28 11.55 25.83 25.83 25.83s25.83-11.55 25.83-25.83v-706.05c0-14.28-11.56-25.83-25.83-25.83z"  horiz-adv-x="1024" />

    
    <glyph glyph-name="qingchu-01" unicode="&#58989;" d="M512.35-1.57c-212.86 0-386.04 173.13-386.04 385.99S299.49 770.4 512.35 770.4s385.99-173.13 385.99-385.99S725.2-1.57 512.35-1.57z m0 717.37c-182.78 0-331.44-148.66-331.44-331.39s148.66-331.39 331.44-331.39c182.73 0 331.39 148.66 331.39 331.39S695.08 715.8 512.35 715.8zM731.28 357.11H293.36c-15.09 0-27.3 12.21-27.3 27.3s12.21 27.3 27.3 27.3h437.92c15.09 0 27.3-12.21 27.3-27.3s-12.21-27.3-27.3-27.3z"  horiz-adv-x="1024" />

    
    <glyph glyph-name="quanping-01" unicode="&#58990;" d="M893.04 751.05c-2.9 7.01-8.49 12.6-15.51 15.51-3.5 1.45-7.21 2.2-10.94 2.2H697.12c-15.83 0-28.65-12.81-28.65-28.65s12.81-28.65 28.65-28.65h100.32L602.67 516.7c-11.19-11.19-11.19-29.32 0-40.51 5.6-5.6 12.92-8.39 20.25-8.39s14.66 2.8 20.25 8.39l194.77 194.77v-100.32c0-15.83 12.81-28.65 28.65-28.65s28.65 12.81 28.65 28.65V740.11c0 3.73-0.75 7.44-2.2 10.94zM866.6 226.83c-15.83 0-28.65-12.81-28.65-28.65v-100.37l-194.66 194.7c-11.19 11.19-29.32 11.19-40.51 0s-11.19-29.32 0-40.51l194.67-194.71H697.12c-15.83 0-28.65-12.81-28.65-28.65 0-15.83 12.81-28.65 28.65-28.65H866.6c3.73 0 7.44 0.76 10.94 2.2 7.01 2.9 12.6 8.49 15.51 15.51 1.45 3.5 2.2 7.21 2.2 10.94V198.18c-0.01 15.84-12.82 28.65-28.65 28.65zM225.22 711.46h100.32c15.83 0 28.65 12.81 28.65 28.65s-12.81 28.65-28.65 28.65H156.06c-3.73 0-7.44-0.76-10.94-2.2-7.01-2.9-12.6-8.49-15.51-15.51-1.45-3.5-2.2-7.21-2.2-10.94v-169.48c0-15.83 12.81-28.65 28.65-28.65s28.65 12.81 28.65 28.65V670.95L379.37 476.3c5.6-5.6 12.92-8.39 20.25-8.39s14.66 2.8 20.25 8.39c11.19 11.19 11.19 29.32 0 40.51L225.22 711.46zM379.26 292.4L184.71 97.81V198.18c0 15.83-12.81 28.65-28.65 28.65s-28.65-12.81-28.65-28.65v-169.53c0-3.73 0.76-7.44 2.2-10.94 2.9-7.01 8.49-12.6 15.51-15.51 3.5-1.45 7.21-2.2 10.94-2.2h169.48c15.83 0 28.65 12.81 28.65 28.65 0 15.83-12.81 28.65-28.65 28.65H225.21l194.55 194.6c11.19 11.19 11.19 29.32 0 40.51-11.19 11.18-29.31 11.18-40.5-0.01z"  horiz-adv-x="1024" />

    
    <glyph glyph-name="celiang-01" unicode="&#58991;" d="M913.39 570.42L698.83 784.98c-27.84 27.84-73.21 27.95-101.16 0L112.02 299.33c-27.89-27.89-27.89-73.32 0-101.21l214.5-214.56c13.95-13.95 32.28-20.95 50.61-20.95s36.66 7 50.61 20.95l485.65 485.65c13.52 13.52 20.95 31.48 20.95 50.61s-7.43 37.08-20.95 50.6zM874.7 507.9L389.05 22.25c-6.41-6.31-17.42-6.31-23.83 0l-214.5 214.56c-6.57 6.57-6.57 17.26 0 23.83l55.42 55.42L351.48 170.7a27.276 27.276 0 0 1 19.34-8.02c7 0 14 2.67 19.34 8.02 10.69 10.69 10.69 28 0 38.69L244.82 354.74l76.31 76.31L436.4 315.78c5.34-5.34 12.34-8.02 19.34-8.02s14 2.67 19.34 8.02c10.69 10.69 10.69 28 0 38.69L359.82 469.74l76.31 76.31L581.48 400.7a27.276 27.276 0 0 1 19.34-8.02c7 0 14 2.67 19.34 8.02 10.69 10.69 10.69 28 0 38.69L474.82 584.74l76.31 76.31L666.4 545.78a27.276 27.276 0 0 1 19.34-8.02c7 0 14 2.67 19.34 8.02 10.69 10.69 10.69 28 0 38.69L589.82 699.74l46.54 46.54c6.52 6.57 17.26 6.47 23.78 0L874.7 531.73c3.15-3.21 4.92-7.43 4.92-11.92s-1.77-8.7-4.92-11.91z"  horiz-adv-x="1024" />

    
    <glyph glyph-name="zuobiao-01" unicode="&#58992;" d="M1018.8022-40.82l-47.84 82.86c-5.52 9.56-19.32 9.56-24.84 0l-8.3-14.38c-0.21 0.13-0.33 0.35-0.54 0.48l-130.56 75.48-259.7 449.81V709.02c0 1.27-0.57 2.35-0.72 3.58h26.18c7.84 0 12.75 8.49 8.83 15.29L526.2722 823.21c-3.92 6.79-13.73 6.79-17.65 0l-55.03-95.32c-3.92-6.79 0.98-15.29 8.83-15.29h26.2c-0.16-1.23-0.72-2.31-0.72-3.58v-155.58L233.0822 112.13 91.3122 30.16c-2.23-1.28-3.8-3.17-5.55-4.89l-11.22 19.42c-5.29 9.17-18.52 9.17-23.81 0L1.8622-39.96c-5.29-9.17 1.32-20.62 11.9-20.62h97.75c10.58 0 17.2 11.45 11.9 20.62l-9.82 17c2.45 0.66 5 0.62 7.27 1.96l117.93 68.19H786.2722l121.43-70.21c0.23-0.13 0.5-0.07 0.73-0.2l-10.16-17.6c-5.52-9.56 1.38-21.52 12.42-21.52H1006.3722c11.04 0.01 17.95 11.96 12.43 21.52z m-314.59 203.7l-157.18 90.88V435.18l157.18-272.3zM487.9022 435.19v-175.73l-152.32-88.07 152.32 263.8zM341.0622 106.31l171.47 99.14 171.48-99.14H341.0622z"  horiz-adv-x="1025" />

    
    <glyph glyph-name="dingwei-01" unicode="&#58993;" d="M984.39 409.95h-88.77c-13.45 190.89-166.11 343.54-357 356.98V855.72c0 15.08-12.2 27.28-27.28 27.28s-27.28-12.2-27.28-27.28v-88.8c-190.87-13.46-343.55-166.11-357-356.98H38.29c-15.08 0-27.28-12.2-27.28-27.28 0-15.08 12.2-27.28 27.28-27.28h88.77c13.45-190.87 166.13-343.52 357-356.98v-88.8c0-15.08 12.2-27.28 27.28-27.28s27.28 12.2 27.28 27.28v88.79c190.9 13.44 343.55 166.09 357 356.98h88.77c15.08 0 27.28 12.2 27.28 27.28 0 15.1-12.2 27.3-27.28 27.3zM538.62 52.97V220.82c0 15.08-12.2 27.28-27.28 27.28s-27.28-12.2-27.28-27.28v-167.85C323.23 66.18 194.82 194.6 181.61 355.4h167.87c15.08 0 27.28 12.2 27.28 27.28 0 15.08-12.2 27.28-27.28 27.28H181.61c13.21 160.79 141.62 289.22 302.45 302.43v-167.85c0-15.08 12.2-27.28 27.28-27.28s27.28 12.2 27.28 27.28V712.38c160.81-13.19 289.24-141.62 302.45-302.43H673.2c-15.08 0-27.28-12.2-27.28-27.28 0-15.08 12.2-27.28 27.28-27.28h167.87c-13.21-160.8-141.64-289.23-302.45-302.42z"  horiz-adv-x="1024" />

    
    <glyph glyph-name="liandongshezhi-01-copy" unicode="&#59057;" d="M684.06 415.36L564.9 534.52l-35.36-35.35L648.71 380 349.38 80.66999999999996 50.04 380l299.34 299.33 109.45-109.45 35.36 35.35-109.46 109.46c-9.76 9.76-22.56 14.64-35.35 14.64-12.8 0-25.6-4.88-35.36-14.64L14.69 415.36c-19.53-19.53-19.53-51.19 0-70.72l299.33-299.33c9.76-9.76 22.56-14.64 35.36-14.64 12.79 0 25.59 4.88 35.35 14.64l299.33 299.33c19.53 19.53 19.53 51.19 0 70.72zM1009.31 415.36L709.98 714.69c-9.76 9.76-22.56 14.64-35.36 14.64-12.79 0-25.59-4.88-35.35-14.64L339.94 415.36c-19.53-19.53-19.53-51.19 0-70.72L458.6 225.98000000000002l35.36 35.35L375.29 380l299.33 299.33L973.96 380 674.63 80.66999999999996h-0.01L564.67 190.62l-35.36-35.35 109.96-109.96c9.76-9.76 22.56-14.64 35.35-14.64 12.8 0 25.6 4.88 35.36 14.64l299.33 299.33c19.53 19.53 19.53 51.19 0 70.72z"  horiz-adv-x="1024" />

    
    <glyph glyph-name="jishiben" unicode="&#58890;" d="M582.35 767.47v-50h50v50h-50z m-192.04-50h50v50h-50v-50zM465.52 767.47h95.33v-50h-95.33zM445 26.03c0-13.81-11.19-25-25-25H293.84c-55.23 0-100 44.77-100 100V667.47c0 55.23 44.77 100 100 100h73.83v-50h-73.83c-27.61 0-50-22.39-50-50v-566.44c0-27.61 22.39-50 50-50H420c13.81 0 25-11.19 25-25zM832.16 667.47v-259.85c0-13.81-11.19-25-25-25s-25 11.19-25 25V667.47c0 27.61-22.39 50-50 50h-77.49v50h77.49c55.23 0 100-44.77 100-100zM440.31 771.44V716c0-13.81-11.19-25-25-25s-25 11.19-25 25v55.44c0 13.81 11.19 25 25 25s25-11.19 25-25zM632.35 771.44V716c0-13.81-11.19-25-25-25s-25 11.19-25 25v55.44c0 13.81 11.19 25 25 25s25-11.19 25-25zM682.57 533.55H343.8c-13.81 0-25 11.19-25 25s11.19 25 25 25h338.78c13.81 0 25-11.19 25-25s-11.2-25-25.01-25zM682.57 367.26H343.8c-13.81 0-25 11.19-25 25s11.19 25 25 25h338.78c13.81 0 25-11.19 25-25-0.01-13.81-11.2-25-25.01-25zM558.99 200.97H346.22c-13.81 0-25 11.19-25 25s11.19 25 25 25h212.77c13.81 0 25-11.19 25-25s-11.19-25-25-25zM565.51 18.18L513 1.03l17.15 52.51 247.58 247.57 35.35-35.35zM840.84 328.87c-9.76 9.76-25.59 9.76-35.36 0l-10.64-10.64 35.36-35.36 10.64 10.64c9.77 9.77 9.77 25.6 0 35.36z"  horiz-adv-x="1024" />

    
    <glyph glyph-name="iconfontmima" unicode="&#58902;" d="M724.884017 582.056821c-15.445784-3.990894-31.31624 4.866844-35.462676 19.814278l-12.270465 47.209208c-25.959232 93.755314-114.480334 149.46922-214.95263 123.437333-101.489462-26.329668-145.786341-118.202099-120.28555-210.383568l19.554358-84.8372c4.109598-14.911618-5.046946-30.250978-20.453844-34.277688-15.445784-3.990894-31.306007 4.856611-35.450397 19.815301l-19.517519 84.790128C252.252653 669.641599 314.94346 792.296103 447.239556 826.585047c131.775232 34.156938 251.420193-38.95522 285.768489-163.043377l12.317537-47.197952C749.447459 601.385029 740.32673 586.047716 724.884017 582.056821L724.884017 582.056821zM769.841951-62.677249 249.280972-62.677249c-63.779605 0-115.691929 50.218752-115.691929 111.947651L133.589043 385.187035c0 61.742203 51.9113 111.960954 115.691929 111.960954l520.56098 0c63.816444 0 115.691929-50.218752 115.691929-111.960954l0-335.916633C885.532857-12.458497 833.658396-62.677249 769.841951-62.677249L769.841951-62.677249zM827.711963 385.187035c0 30.864962-25.962302 55.986105-57.871035 55.986105L249.280972 441.173141c-31.872918 0-57.821917-25.121144-57.821917-55.986105l0-335.916633c0-30.840402 25.948999-55.972802 57.821917-55.972802l520.56098 0c31.908734 0 57.871035 25.133424 57.871035 55.972802L827.712987 385.187035 827.711963 385.187035zM509.584486 217.264535c-31.940456 0-57.856709 25.038256-57.856709 55.974849 0 30.912034 25.915229 55.972802 57.856709 55.972802 31.956829 0 57.82294-25.060769 57.82294-55.972802C567.406402 242.302791 541.540292 217.264535 509.584486 217.264535L509.584486 217.264535zM509.584486 105.269811c-15.965623 0-28.933983 12.529361-28.933983 28.022217L480.650503 245.239679c0 15.443737 12.968359 27.999704 28.933983 27.999704 15.965623 0 28.924773-12.55699 28.924773-27.999704l0-111.947651C538.508235 117.799172 525.549086 105.269811 509.584486 105.269811L509.584486 105.269811z"  horiz-adv-x="1024" />

    
    </font>
</defs>
</svg>
